<?xml version="1.0" standalone="no"?>
<!DOCTYPE svg PUBLIC "-//W3C//DTD SVG 1.1//EN" "http://www.w3.org/Graphics/SVG/1.1/DTD/svg11.dtd" >
<svg xmlns="http://www.w3.org/2000/svg">
<metadata>
Created by FontPrep 20130207 at Mon Dec  1 16:27:40 2014
 By design
Appetite designed by Denis Serebryakov | www.dsgn.by
</metadata>
<defs>
<font id="7a17661f0faba5398bdeb56eb72a8ee9" horiz-adv-x='1024' >
  <font-face 
    font-family="Appetite"
    font-weight="400"
    font-stretch="normal"
    units-per-em="2048"
    panose-1="2 0 0 0 0 0 0 0 0 0"
    ascent="1536"
    descent="-512"
    x-height="1065"
    cap-height="1526"
    bbox="-266 -703.027 4892.47 2114.14"
    underline-thickness="102"
    underline-position="-102"
    unicode-range="U+0020-FB06"
  />
<missing-glyph horiz-adv-x="509" 
 />
    <glyph glyph-name="ff" unicode="ff" horiz-adv-x="1427" 
d="M627 1227q-63 -1 -87 -59t-5 -138h178q23 43 0 120t-86 77zM1237 1262q0 38 -19 67t-63 23q-150 -18 -25 -322h283q8 0 8 -10v-172l-8 -10h-272v-826l-8 -12h-396q-8 2 -8 10v828h-184v-826l-8 -12h-396q-8 2 -8 10v828h-115q-8 0 -8 10v174l8 8h119q-6 113 39 203
q79 159 285 203q88 18 174 -6t145 -82l6 -15q92 185 406 187q154 0 258 -62q102 -62 109 -172q3 -76 -53 -129t-140 -53q-47 0 -94 14t-53 23q-4 8 0 20t11 38q7 25 7 63z" />
    <glyph glyph-name="fi" unicode="fi" horiz-adv-x="1230" 
d="M850 1030q129 0 224 -83t95 -220v-715l-8 -12h-403q-8 2 -8 10q8 403 8 564q0 160 -50 216t-161 48v-826l-8 -12h-396q-8 2 -8 10l-2 828h-113l-8 10v174l6 8h117q-8 188 99 326q108 137 330 162q222 24 374 -52t137 -227q-6 -76 -69 -120q-114 -80 -295 -13
q-31 10 -25 28q20 62 21 101q-1 75 -55 105t-107 -1t-53 -102t19 -123q19 -51 26 -84h313z" />
    <glyph glyph-name="fl" unicode="fl" horiz-adv-x="1267" 
d="M727 1030l4 197q0 83 -60 115q-59 32 -119 -5t-56 -112q5 -86 39 -195h192zM545 838v-826l-8 -12h-396q-8 2 -8 10v828h-115q-8 0 -8 10v174l8 8h117q-12 125 19 217q31 91 85 143q134 128 439 132q332 0 473 -189q6 -6 6 -20v-901l-2 -2q0 -111 22 -177q23 -65 47 -79
t41 -26t11 -28q-18 -51 -99 -98t-165 -47q-127 0 -207 85t-80 226l2 572h-182z" />
    <glyph glyph-name="ffi" unicode="ffi" horiz-adv-x="1804" 
d="M633 1227q-63 -1 -89 -59t-9 -138h184q23 43 0 120t-86 77zM1280 1235q0 75 -51 105t-99 -1q-87 -56 0 -309h293q129 0 225 -83t95 -220v-715l-8 -12h-404q-8 2 -8 10q8 403 8 543q0 276 -129 285h-61v-826l-8 -12h-396q-8 2 -8 10v828h-184v-826l-8 -12h-396q-8 2 -8 10
v828h-115q-8 0 -8 10v174l8 8h119q-6 113 39 203q79 159 285 203q88 18 174 -6t145 -82l25 -29q29 72 133 130t238 71q205 18 346 -56t127 -225q-5 -76 -69 -120q-114 -79 -296 -13q-30 10 -24 28q20 63 20 101z" />
    <glyph glyph-name="ffl" unicode="ffl" horiz-adv-x="1859" 
d="M627 1227q-63 -1 -87 -59t-5 -138h178q23 43 0 120t-86 77zM1317 1030l4 197q0 83 -57 115q-56 32 -114 -5t-54 -112t11 -99l15 -52q8 -28 13 -44h182zM1747 1313v-402q2 -358 2 -484q-1 -126 21 -193q22 -66 47 -80t42 -26t11 -28q-18 -51 -100 -98t-164 -47
q-127 0 -207 85t-80 226h-2v572h-176v-826l-8 -12h-396q-8 2 -8 10v828h-184v-826l-8 -12h-396q-8 2 -8 10v828h-115q-8 0 -8 10v174l8 8h119q-6 113 39 203q79 159 285 203q88 18 174 -6t145 -82l6 -15q54 78 174 132q120 53 286 55t304 -56q137 -58 191 -131q6 -6 6 -20z
" />
    <glyph glyph-name="s_t" unicode="st" horiz-adv-x="1751" 
d="M1489 1030h248q6 0 6 -10v-172l-8 -10h-246v-426q0 -254 240 -228q23 2 29 -15t-3 -36q-45 -84 -145 -132t-229 -48t-218 85q-88 85 -88 232v727q0 84 -69 119q-70 35 -148 8t-100 -92q80 -29 141 -86t63 -130t-54 -126t-149 -53t-157 69q-63 69 -67 160h-15
q-44 -2 -70 -32t-26 -69q0 -38 35 -70t111 -58t94 -30q18 -3 22 -5q328 -94 328 -315q0 -117 -84 -196q-147 -138 -436 -138q-165 0 -309 56q-77 30 -125 84t-48 129t56 129t143 55q49 0 98 -12t57 -24q8 -13 6 -42q-3 -29 -3 -41q-1 -59 33 -92t87 -33q100 0 105 92
q0 71 -105 110q-69 26 -119 40q-167 46 -253 131q-86 86 -88 198v6q0 150 144 242t316 92q37 0 56 -2q35 123 161 215t338 92t328 -104q117 -104 117 -244z" />
    <glyph glyph-name="t_t" unicode="tt" horiz-adv-x="1478" 
d="M532 379q0 -199 140 -199l88 4q27 0 33 -16t-7 -37q-41 -82 -138 -134t-208 -52q-106 4 -182 47q-139 84 -139 274v572h-105q-8 0 -8 10v174l8 8h105v156l10 10l393 162l8 -10q2 -143 2 -318h271v279l10 10l393 162l8 -11q2 -266 3 -440h249q6 0 7 -10v-172l-9 -10h-247
v-459q0 -25 5 -65q17 -134 141 -134l91 4q27 0 33 -16t-6 -37q-41 -82 -143 -134t-214 -52q-106 4 -182 47q-139 84 -139 274v572h-271v-459z" />
    <glyph glyph-name="t_y" unicode="ty" horiz-adv-x="1871" 
d="M532 379q0 -199 147 -199l91 4q27 0 33 -16t-6 -37q-41 -82 -143 -134t-214 -52q-106 4 -182 47q-139 84 -139 274v572h-105q-8 0 -8 10v174l8 8h105v156l10 10l393 162l8 -10q2 -143 2 -318l379 2q131 0 223 -84t93 -223l-4 -365q0 -109 59 -118q53 -10 98 67
q35 68 37 160l2 549l8 10h398q8 0 8 -10q2 -637 2 -909q10 -273 -138 -441t-425 -168q-137 0 -245 56q-175 92 -215 222q-30 96 -11 112t55 -17q35 -33 67 -63t95 -53q63 -24 141 -23q117 0 189 77t75 177v205q-57 -123 -148 -181t-195 -57q-104 0 -187 94q-82 94 -82 244
v319q0 142 -63 190t-216 36v-459z" />
    <glyph glyph-name="t_u" unicode="tu" horiz-adv-x="1931" 
d="M532 379q0 -199 147 -199l91 4q27 0 33 -16t-6 -37q-41 -82 -143 -134t-214 -52q-106 4 -182 47q-139 84 -139 274v572h-105q-8 0 -8 10v174l8 8h105v156l10 10l393 162l8 -10q2 -143 2 -318l379 2q131 0 223 -84t93 -223l-2 -182v-183q0 -111 61 -118q53 -8 90 61
t41 152v563l8 12h410q8 -2 8 -10q-14 -467 -14 -593q-1 -126 21 -193q22 -66 46 -80t42 -26q17 -12 12 -28q-18 -53 -92 -99t-168 -46t-170 62t-97 173q-59 -121 -149 -178t-194 -57t-187 94q-82 94 -82 244v319q0 142 -63 190t-216 36v-459z" />
    <glyph glyph-name="t_i" unicode="ti" horiz-adv-x="1306" 
d="M1241 1320q0 -79 -71 -134q-71 -56 -169 -56q-97 0 -167 56t-70 134q0 79 70 135t168 56t168 -56q71 -56 71 -135zM532 379q0 -199 147 -199l91 4q27 0 33 -16t-6 -37q-41 -82 -143 -134t-214 -52q-106 4 -182 47q-139 84 -139 274v572h-105q-8 0 -8 10v174l8 8h105v156
l10 10l393 162l8 -10q2 -143 2 -318l408 2q131 0 223 -84t92 -223l2 -713l-8 -12h-407q-10 2 -11 10q2 205 9 602q0 142 -76 190t-232 36v-459z" />
    <glyph glyph-name="f_b" unicode="fb" horiz-adv-x="1871" 
d="M727 1030l4 197q0 83 -61 115q-62 32 -122 -5t-56 -112t11 -99t15 -52t12 -44h197zM1288 238q72 0 113 78t41 200q0 121 -41 199t-113 78t-112 -78t-41 -199q1 -122 41 -200t112 -78zM1454 1075q190 0 299 -169t109 -392t-110 -388t-304 -165t-301 195v-144l-10 -12h-396
q-8 2 -8 10v826l-6 2h-186v-826l-9 -12h-395q-8 2 -8 10v828h-115q-8 0 -8 10v174l8 8h117q-8 119 25 209t87 142t157 95t275 45q173 1 291 -55t177 -133q6 -6 6 -20v-453q115 215 305 215z" />
    <glyph glyph-name="f_k" unicode="fk" horiz-adv-x="1902" 
d="M731 1030l4 197q0 83 -61 115q-62 32 -122 -5t-56 -112q5 -86 39 -195h196zM1604 -45q-90 0 -167 40t-119 96t-79 154t-37 208q0 45 23 45q152 0 190 112q27 82 -22 150q-31 41 -78 41q-84 0 -122 -66t-42 -151v-572l-8 -12h-395q-8 2 -9 10q-4 457 -6 826l-2 2h-186
v-826l-8 -12h-396q-8 2 -8 10v828h-115q-8 0 -8 10v174l8 8h117q-12 119 19 210t86 142t160 94t279 45q173 1 291 -55t177 -133q6 -6 6 -20v-445q59 102 151 154t206 53q112 0 192 -82t91 -185t-53 -198q-65 -94 -198 -114v-4q61 -152 210 -272q62 -50 107 -72t54 -33
q9 -12 -28 -51q-35 -39 -113 -74t-168 -35z" />
    <glyph glyph-name="f_t" unicode="ft" horiz-adv-x="1402" 
d="M721 1030l4 197q0 83 -61 115q-62 32 -122 -5t-57 -110t11 -99l16 -54q8 -28 12 -44h197zM727 266v570l-6 2h-186v-826l-9 -12h-395q-8 2 -8 10v828h-115q-8 0 -8 10v174l8 8h117q-8 115 23 204q32 89 88 142q149 142 432 146q170 0 290 -56t179 -133q6 -6 6 -20v-283
h248q6 0 6 -10v-172l-8 -10h-246l2 -525q20 -133 142 -133l91 4q27 0 33 -16t-6 -37q-41 -82 -142 -134t-214 -52q-106 4 -183 47q-139 84 -139 274z" />
    <glyph glyph-name="f_y" unicode="fy" horiz-adv-x="1808" 
d="M645 1228q1 126 -83 126q-48 0 -70 -40q-32 -59 12 -204q14 -49 31 -80l303 2q131 0 223 -84t92 -223l-4 -365q0 -109 59 -118q53 -10 99 67q35 68 36 160l3 549l8 10h397q8 0 8 -10q2 -637 2 -909q10 -273 -138 -441t-425 -168q-137 0 -245 56q-107 56 -153 115
q-46 58 -69 130t-3 89q20 16 55 -17t67 -63t94 -53q63 -24 141 -23q117 0 189 77t76 177v205q-56 -123 -148 -181t-196 -57q-104 0 -187 94q-82 94 -82 244v319q0 130 -42 178t-148 50l-2 -2v-826l-8 -12h-396q-8 2 -8 10v828h-115q-8 0 -8 10v174l8 8h117q-14 140 22 242
t109 153q141 97 322 97q182 0 280 -78t99 -182q1 -76 -53 -129q-86 -83 -230 -40q-47 13 -53 23q-4 14 5 38t9 74z" />
    <glyph glyph-name="f_u" unicode="fu" horiz-adv-x="1853" 
d="M635 1230q0 124 -85 124q-48 0 -70 -39q-42 -75 44 -285l303 2q131 0 223 -84t93 -223l-2 -182v-183q0 -111 61 -118q53 -8 90 61t41 152v563l8 12h410q8 -2 8 -10q-14 -467 -14 -593q-1 -126 21 -193q22 -66 46 -80t42 -26q17 -12 12 -28q-18 -53 -92 -99t-168 -46
t-170 62t-97 173q-59 -121 -149 -178t-194 -57t-187 94q-82 94 -82 244v319q0 130 -43 178t-147 50l-2 -2v-826l-9 -12h-395q-8 2 -8 10v828h-115q-8 0 -8 10v174l8 8h117q-49 364 273 466q83 26 177 26q173 0 277 -78t104 -182q2 -76 -51 -128q-84 -82 -232 -40
q-46 12 -52 22q-4 14 5 40t9 74z" />
    <glyph glyph-name="f_j" unicode="fj" horiz-adv-x="1206" 
d="M1161 727v-661q0 -606 -454 -607q-172 0 -270 77q-97 77 -97 181q0 79 54 141t136 62q46 0 94 -12t52 -26t-5 -46q-9 -33 -9 -86q0 -123 73 -123q80 0 80 117q0 66 -32 164t-35 174v541q-10 137 -60 179t-149 36v-826l-9 -12h-395q-8 2 -8 10l-2 828h-113l-8 10v174l6 8
h117q-8 132 31 236t144 175q106 71 298 81t336 -61t131 -222q-5 -76 -69 -120q-114 -79 -296 -13q-30 10 -24 28q20 63 20 101q0 73 -53 105t-106 1t-55 -103t44 -208h314q129 0 224 -83t95 -220z" />
    <glyph glyph-name="c_t" unicode="ct" horiz-adv-x="1744" 
d="M813 582q-47 0 -92 12t-52 25t-4 40t3 41q0 62 -28 102t-71 40q-77 0 -119 -102t-30 -229q12 -128 93 -194q148 -121 393 -10q103 47 163 123v756l10 12l394 160l6 -2l2 -8q2 -143 2 -318h250q6 0 6 -10v-172l-8 -10h-248v-459q0 -25 5 -65q17 -134 141 -134l91 4
q27 0 33 -16t-6 -37q-41 -82 -142 -134t-214 -52q-106 4 -183 47q-119 70 -137 225q-88 -111 -204 -174q-227 -123 -462 -59t-340 282q-54 113 -55 250q0 225 155 386t388 171q187 0 323 -75t136 -212q2 -78 -56 -141t-143 -63z" />
    <glyph glyph-name="f_h" unicode="fh" horiz-adv-x="1900" 
d="M727 1030l4 197q0 83 -61 115q-62 32 -122 -5t-56 -112t11 -99t15 -52t12 -44h197zM1772 418q0 -176 54 -235q22 -24 44 -36t32 -20q11 -8 7 -23q-18 -51 -92 -97t-156 -46q-129 0 -215 85t-86 226v398q0 109 -64 118q-59 10 -102 -62t-45 -165v-549l-8 -12h-396
q-8 2 -8 10q-4 451 -6 826l-4 2h-186v-826l-9 -12h-395q-8 2 -8 10v828h-115q-8 0 -8 10v174l8 8h117q-12 121 19 213t84 143q54 51 159 92t280 43q175 1 293 -55t177 -133q6 -6 6 -20v-467q63 117 157 173t198 56t186 -94t82 -244v-319z" />
    <glyph glyph-name="c_h" unicode="ch" horiz-adv-x="2220" 
d="M2093 418q0 -176 54 -235q21 -24 43 -36t33 -20t7 -23q-18 -51 -92 -97t-156 -46q-129 0 -215 85t-86 226v398q0 109 -63 118q-58 10 -102 -62t-46 -165v-549l-8 -12h-395q-8 2 -8 10q-2 70 -2 170q-107 -117 -249 -173t-280 -42q-312 32 -445 265q-73 126 -73 286
q0 225 155 386t388 171q187 0 323 -75t136 -212q2 -78 -56 -141t-143 -63q-47 0 -92 12t-52 25t-4 40t3 41q0 62 -28 102t-71 40q-77 0 -119 -102t-31 -226q11 -125 84 -195q73 -71 169 -75t201 34t184 109q-4 766 -4 1077l8 9h403q0 -6 6 -9v-618q64 117 158 173t198 56
t185 -94q82 -94 82 -244v-319z" />
    <glyph glyph-name="c_l" unicode="cl" horiz-adv-x="1626" 
d="M1356 -45q-100 0 -176 70q-78 70 -93 190q-104 -131 -249 -197q-144 -66 -286 -56t-265 72t-200 190t-77 292q0 225 155 386t388 171q187 0 323 -75t136 -212q2 -78 -56 -141t-143 -63q-47 0 -92 12t-52 25t-4 40t3 41q0 62 -28 102t-71 40q-77 0 -119 -102t-30 -229
q12 -128 90 -198q78 -71 180 -69t212 48t183 126v1044l11 11h409l8 -11q3 -909 3 -1035t22 -193q22 -66 46 -80t41 -26t11 -28q-18 -51 -99 -98t-181 -47z" />
    <glyph glyph-name="c_k" unicode="ck" horiz-adv-x="2230" 
d="M1483 1464v-600q59 104 152 158t206 53q113 0 193 -82t91 -185t-53 -198q-65 -94 -198 -114v-4q61 -152 210 -272q62 -50 107 -72t51 -28q13 -16 -24 -56q-37 -39 -115 -74q-77 -35 -167 -35t-168 40t-118 96q-42 56 -79 154t-37 208q0 45 22 45q152 0 191 112
q27 82 -23 150q-31 41 -77 41q-84 0 -122 -66t-42 -151v-572l-8 -12h-396q-8 2 -8 10q0 76 -2 183q-88 -103 -205 -161q-226 -113 -462 -44q-236 68 -339 281q-53 112 -53 247q0 225 155 386t388 171q187 0 323 -75t136 -212q2 -78 -56 -141t-143 -63q-47 0 -92 12t-52 25
t-4 40t3 41q0 62 -28 102t-71 40q-77 0 -119 -102t-31 -227q11 -126 86 -196q136 -127 380 -34q106 41 184 116q-4 762 -4 1065l8 9h402q8 -4 8 -9z" />
    <glyph glyph-name="T_h" unicode="Th" horiz-adv-x="2324" 
d="M1930 1075q104 0 186 -94t82 -244v-319q0 -176 54 -235q22 -24 44 -36t32 -20q11 -8 7 -23q-18 -51 -92 -97t-156 -46q-129 0 -215 85t-86 226v398q0 109 -64 118q-59 10 -102 -62t-45 -165v-549l-8 -12h-396q-8 2 -8 10q-4 690 -6 1131q-73 -21 -252 -15l-61 2l12 -718
q4 -104 28 -166t50 -76q27 -14 43 -26t10 -27q-18 -55 -104 -105t-174 -51q-131 0 -219 84q-87 84 -87 254l15 836q-207 4 -373 -29q-12 0 -12 6l-2 4q-12 12 -18 74q-5 61 2 105t43 92t106 85t238 39t530 -16t637 -20q0 -6 6 -9v-618q63 117 157 173t198 56z" />
    <glyph glyph-name="C_o_period" unicode="Co&#x2e;" horiz-adv-x="2721" 
d="M2687 164q0 -82 -59 -141q-60 -59 -142 -59t-141 58q-59 60 -59 142t59 141t141 59t142 -58q60 -60 59 -142zM1569 512q0 -141 43 -234q43 -94 129 -94t127 90t41 234t-43 235q-43 93 -128 93t-127 -92t-42 -232zM1739 1067q245 0 409 -162q164 -163 164 -397t-162 -394
t-411 -161q-158 0 -286 70t-204 188q-168 -246 -504 -254q-299 -6 -507 227q-208 234 -207 552q0 318 201 545q202 226 516 228q240 2 394 -103t152 -271q0 -90 -61 -162t-166 -72q-68 0 -114 22t-44 52q17 113 -19 195t-128 81q-92 0 -158 -90t-92 -211t-10 -227
q20 -168 95 -278q75 -109 175 -147t210 -29t210 67q-27 80 -27 174q0 233 164 395t410 162z" />
    <glyph glyph-name="t_f" unicode="tf" horiz-adv-x="1515" 
d="M1319 1228q0 126 -85 126q-48 0 -70 -39q-42 -75 44 -285h283q8 0 8 -10v-172l-8 -10h-272v-826l-9 -12h-395q-8 2 -8 10v828h-275q0 -395 5 -510q13 -78 32 -97q18 -20 34 -35t68 -14q53 2 69 2t22 -16t-6 -37q-43 -86 -125 -136q-81 -50 -189 -48t-184 45
q-139 84 -139 274v572h-105q-8 0 -8 10v174l8 8h105v156l10 10l393 162l8 -10q2 -143 2 -318h277q-15 132 19 232q59 170 255 234q82 26 177 26q174 0 277 -78t103 -182q2 -76 -51 -129q-84 -84 -231 -40q-47 13 -53 23q-4 14 5 38t9 74z" />
    <glyph glyph-name="C_o" unicode="Co" horiz-adv-x="2322" 
d="M1559 512q0 -141 43 -234q43 -94 129 -94t127 90q40 90 40 234t-43 235q-43 93 -127 93t-127 -92q-42 -92 -42 -232zM1729 1067q245 0 409 -162q164 -163 164 -397t-162 -394t-411 -161q-158 0 -286 70t-204 188q-168 -246 -504 -254q-299 -6 -507 227q-208 234 -208 552
t202 544t515 229q239 2 393 -103t154 -271q0 -90 -61 -162t-166 -72q-68 0 -114 22t-44 52q17 113 -19 195t-128 81q-92 0 -158 -90t-92 -211t-10 -227q20 -168 95 -278q75 -109 175 -147t210 -29t210 67q-27 80 -27 174q0 233 164 395t410 162z" />
    <glyph glyph-name="f_x" unicode="fx" horiz-adv-x="1761" 
d="M641 1230q-1 124 -85 124q-48 0 -70 -39q-42 -75 44 -285h566q10 0 16 -10l197 -346q59 39 59 85q0 71 -66 131q-22 19 -22 32q-2 51 63 97q67 46 169 46t178 -73t76 -179t-88 -176t-242 -129l317 -496q8 -12 -6 -12h-453q-12 0 -16 10l-203 355q-71 -49 -71 -99
q1 -78 66 -135q22 -18 22 -31q2 -53 -64 -99t-168 -46t-179 73q-77 74 -77 190t92 193t250 132l-192 295h-213v-826l-9 -12h-395q-8 2 -8 10v828h-115q-8 0 -8 10v174l8 8h117q-10 138 24 238t103 153q133 101 316 101q182 0 285 -78t104 -182q1 -76 -53 -129
q-86 -83 -230 -40q-47 13 -53 23q-4 14 5 40t9 74z" />
    <glyph glyph-name="T_i" unicode="Ti" horiz-adv-x="1597" 
d="M1241 1092q-141 0 -262 6l-121 6v-694q4 -104 28 -166t50 -76q27 -14 43 -26t10 -27q-18 -55 -104 -105t-174 -51q-131 0 -218 84t-87 254v836q-195 4 -359 -29q-8 0 -14 6v4q-12 12 -18 74q-5 61 2 106q7 46 43 94t111 88t251 40t483 -22t529 -19l133 8q27 0 28 -87
q2 -87 -10 -132q-12 -44 -53 -92q-42 -48 -96 -64t-195 -16zM1149 562q0 126 -22 194q-22 66 -46 80q-25 14 -42 25t-11 28q18 53 92 99t156 46q127 0 206 -84t79 -227v-711l-9 -12h-409q-10 2 -10 10q16 426 16 552z" />
    <glyph glyph-name="F_i" unicode="Fi" horiz-adv-x="1236" 
d="M373 -41q-135 0 -223 87t-89 267l2 1149l11 11h1110q27 0 28 -73q2 -73 -9 -114t-52 -87t-108 -75q-67 -30 -199 -30t-230 12l-98 14q0 -14 -1 -88t-1 -137q168 100 336 120q94 11 171 -7t127 -90t50 -195v-711l-8 -12h-410q-10 2 -10 10q16 344 16 486l2 58q0 60 -10 82
q-10 21 -24 47t-76 35t-166 -42v-244q4 -175 58 -234q22 -24 41 -35t31 -19t5 -23q-18 -57 -102 -109t-172 -53z" />
    <glyph glyph-name="F_u" unicode="Fu" horiz-adv-x="1916" 
d="M1804 427q0 -126 22 -193q22 -66 46 -80t42 -26q17 -12 11 -28q-18 -53 -92 -99t-168 -46t-170 62t-96 173q-59 -121 -149 -178t-196 -57q-104 0 -186 94t-82 244v289q-20 217 -274 94v-244q4 -175 58 -234q22 -24 41 -35t31 -19t5 -23q-18 -57 -102 -109t-172 -53
q-135 0 -223 87t-89 267l2 1149l11 11h987q26 0 29 -73q2 -73 -10 -114t-52 -87q-93 -104 -275 -104q-101 -1 -169 11l-68 14q0 -14 -1 -88t-1 -137q153 119 337 143q93 12 171 -5t128 -88t50 -187v-398q0 -111 62 -118q53 -8 90 61t41 152v563l8 12h411q8 -2 9 -10
q-17 -467 -17 -593z" />
    <glyph glyph-name="F_y" unicode="Fy" horiz-adv-x="1855" 
d="M1247 -459q-137 1 -245 57t-154 114t-68 130q-23 72 -4 88t55 -17q35 -31 67 -61t95 -54t142 -23q119 1 189 65t75 160v205q-57 -123 -149 -180t-196 -57t-186 93q-82 94 -82 244v277q0 83 -53 121q-63 48 -221 -27v-244q4 -175 58 -234q22 -24 41 -35t31 -19t5 -23
q-18 -57 -102 -109t-172 -53q-135 0 -223 87t-89 267l2 1149l11 11h987q26 0 29 -73q2 -73 -10 -114t-52 -87q-93 -104 -275 -104q-101 -1 -169 11l-68 14q0 -14 -1 -88t-1 -137q86 67 200 107q281 97 408 -26q76 -73 76 -218v-385q0 -111 62 -119q55 -8 94 64t41 161v539
l8 10h395q8 0 8 -10q6 -596 6 -868q10 -272 -138 -440t-427 -169z" />
    <glyph glyph-name="t_t_y" unicode="tty" horiz-adv-x="2562" 
d="M807 266v572h-270v-459q0 -167 92 -193q25 -6 40 -6l85 4q26 0 32 -16t-6 -37q-41 -84 -133 -135t-203 -51q-106 4 -182 47q-139 84 -139 274v572h-105q-8 0 -8 10v174l8 8h105v156l10 10l393 162l9 -10q2 -143 2 -318h270v279l10 10l393 162l9 -11q2 -266 2 -440l374 2
q131 0 223 -84t93 -223l-4 -365q0 -109 59 -118q53 -10 94 62t41 165l2 549l8 10h398q8 0 8 -10q2 -637 2 -909q10 -273 -138 -441t-425 -168q-137 0 -245 56q-107 56 -153 115q-46 58 -69 130t-4 88t55 -16q35 -33 67 -63t95 -53q63 -24 141 -23q117 0 189 77t75 177v205
q-57 -123 -148 -181t-195 -57q-104 0 -187 94q-82 94 -82 244v319q0 140 -63 188t-211 38v-459q0 -25 5 -65q17 -134 141 -134l91 4q27 0 33 -16t-6 -37q-41 -82 -143 -134t-214 -52q-106 4 -182 47q-139 84 -139 274z" />
    <glyph glyph-name="t_t_i" unicode="tti" horiz-adv-x="1984" 
d="M1688 1511q98 0 168 -56t71 -135q-1 -79 -71 -134q-70 -56 -168 -56t-168 56t-70 134q0 79 70 135t168 56zM123 266v572h-105q-8 0 -8 10v174l8 8h105v156l10 10l393 162l9 -10q2 -143 2 -318h270v279l10 10l393 162l9 -11q0 -131 2 -440l405 2q131 0 223 -84t93 -223
l2 -713l-9 -12h-407q-10 2 -10 10q2 205 8 602q0 138 -76 188t-229 38v-459q0 -25 5 -65q17 -134 141 -134l91 4q27 0 33 -16t-6 -37q-41 -82 -143 -134t-214 -52q-106 4 -182 47q-139 84 -139 274v572h-270v-459q0 -167 92 -193q25 -6 40 -6l85 4q26 0 32 -16t-6 -37
q-41 -84 -133 -135t-203 -51q-106 4 -182 47q-139 84 -139 274z" />
    <glyph glyph-name="afii10076_afii10085" unicode="&#x43a;&#x443;" horiz-adv-x="2312" 
d="M1683 -459q-137 1 -245 57q-213 112 -232 297q-2 29 6 35q20 16 55 -17q35 -31 67 -61t96 -54t141 -23q117 0 189 77t75 177v204q-57 -123 -148 -180t-196 -57t-187 94t-81 244v268q0 98 -69 154t-158 59q-89 2 -177 -50t-123 -144q137 12 213 -82q25 -33 61 -121
t92 -161t155 -122q25 -12 25 -24t-23 -43q-103 -113 -279 -113q-98 0 -174 48t-107 119q-31 70 -47 140t-34 121t-54 55v-426l-8 -12h-412q-8 2 -8 10q16 467 16 593t-21 193q-22 67 -46 81q-25 14 -42 25t-11 28q18 53 92 99t156 46q124 0 204 -85t80 -226v-172q12 4 33 8
q6 97 48 185t94 145q51 57 151 103t227 54q229 12 397 -112q167 -125 160 -363v-211q0 -111 62 -118q55 -8 94 63t41 162v510l8 10h395q8 0 9 -10q6 -596 6 -868q9 -272 -139 -440t-427 -169z" />
    <glyph glyph-name="afii10076_afii10074" unicode="&#x43a;&#x438;" horiz-adv-x="2353" 
d="M2241 427q-1 -126 21 -193q22 -66 46 -80t42 -26q17 -12 11 -28q-18 -53 -92 -99q-73 -46 -167 -46t-171 62q-76 62 -96 173q-59 -121 -149 -178t-195 -57t-187 94t-81 244v319q0 96 -70 150t-159 53q-89 0 -177 -51t-121 -143q137 12 213 -82q25 -33 61 -121t92 -161
t155 -122q25 -12 25 -24t-23 -43q-103 -113 -279 -113q-98 0 -174 48t-107 119q-31 70 -47 140t-34 121t-54 55v-426l-8 -12h-412q-8 2 -8 10q16 467 16 593t-21 193q-22 67 -46 81q-25 14 -42 25t-11 28q18 53 92 99t156 46q124 0 204 -85t80 -226v-172q12 4 33 8
q6 97 48 185t94 145q51 57 151 103t227 54q229 12 397 -112q167 -125 160 -363v-262q4 -104 64 -108q55 -6 98 75q31 57 33 138v563l8 12h412q8 -2 8 -10q-16 -467 -16 -593z" />
    <glyph glyph-name="afii10084_afii10085" unicode="&#x442;&#x443;" horiz-adv-x="2058" 
d="M971 293v258q0 147 -74 211t-203 16v-362q0 -112 22 -178t46 -80t42 -26q17 -12 11 -28q-18 -53 -90 -99t-154 -46q-125 0 -205 85t-79 226v500l-267 2q-6 0 -6 8l-4 230v14q0 4 4 8q184 35 418 40q417 9 639 -36q139 -30 227 -104t88 -207l-4 -365q0 -109 60 -118
q53 -10 98 67q35 68 37 160l2 549l8 10h398q8 0 8 -10q2 -637 2 -909q10 -273 -138 -441t-425 -168q-137 0 -245 56q-213 111 -233 298q-3 43 27 40q14 -2 42 -28q27 -26 59 -56t96 -53q64 -24 141 -23q117 0 189 77t75 177v205q-57 -123 -148 -181t-196 -57q-105 0 -187 94
t-81 244z" />
    <glyph glyph-name="afii10084_afii10074" unicode="&#x442;&#x438;" horiz-adv-x="2099" 
d="M1987 427q-1 -126 21 -193q22 -66 46 -80t42 -26q17 -12 11 -28q-18 -53 -92 -99q-73 -46 -167 -46t-171 62q-76 62 -96 173q-59 -121 -149 -178t-195 -57t-187 94t-81 244v299q-10 127 -83 178t-192 8v-362q0 -112 22 -178t46 -80t42 -26q17 -12 11 -28q-18 -53 -90 -99
t-154 -46q-125 0 -205 85t-79 226v500l-267 2q-6 0 -6 8l-4 230v14q0 4 4 8q184 35 418 39q429 7 639 -39q315 -63 315 -307l-4 -379q4 -98 60 -104t100 75q31 57 33 138v563l8 12h412q8 -2 8 -10q-16 -467 -16 -593z" />
    <glyph glyph-name="afii10076_afii10077" unicode="&#x43a;&#x43b;" horiz-adv-x="2324" 
d="M2263 1022v-1010l-8 -10h-395q-8 0 -9 10v830h-145q8 -360 -41 -533q-29 -102 -93 -178q-160 -188 -469 -188q-101 -1 -201 27t-152 73q-108 91 -137 205q-13 53 -22 97t-25 70t-42 23v-426l-8 -12h-412q-8 2 -8 10q16 467 16 593t-21 193q-22 67 -46 81q-25 14 -42 25
t-11 28q18 53 92 99t156 46q124 0 204 -85t80 -226v-172l17 6q18 138 103 287q46 80 128 134t188 56q106 1 179 -63q71 -64 71 -165t-62 -159t-161 -59q-41 0 -73 12t-31 35q0 2 1 24q3 72 -25 88q-13 8 -36 9q-92 0 -121 -176q92 10 157 -37t97 -121t56 -150t56 -130
t84 -54t96 92t64 222q38 257 40 485l2 92q0 10 8 10q422 94 895 0q6 0 6 -8z" />
    <glyph glyph-name="afii10065_afii10077" unicode="&#x430;&#x43b;" horiz-adv-x="2410" 
d="M2349 1020v-1010l-8 -10h-395q-8 0 -9 10v830h-145q23 -480 -145 -689q-53 -67 -101 -102t-114 -57t-106 -28q-40 -5 -95 -9q-164 -9 -306 55t-180 176q-121 -231 -323 -231q-123 0 -217 84t-139 209t-46 266q0 225 111 390t305 165t301 -195v142l11 12h409q8 -2 8 -10
l-8 -725q2 -139 60 -143q53 -4 108 112q88 193 113 660l2 96q0 10 8 10q422 94 895 0q6 0 6 -8zM596 240q72 0 113 78t41 198q0 121 -41 200t-113 79t-113 -79t-41 -200q0 -120 41 -198t113 -78z" />
    <glyph glyph-name="afii10065_afii10078" unicode="&#x430;&#x43c;" horiz-adv-x="2803" 
d="M596 240q72 0 113 78t41 198q0 121 -41 200t-113 79t-113 -79t-41 -200q0 -120 41 -198t113 -78zM2337 0q-8 0 -8 10q2 182 2 391l20 222l-260 -605q-6 -16 -27 -16h-51q-16 0 -24 16l-205 521q-34 -313 -192 -452q-94 -83 -190 -106t-171 -26q-164 -9 -306 55t-180 176
q-121 -231 -323 -231q-123 0 -217 84t-139 209t-46 266q0 225 111 390t305 165t301 -195v142l11 12h409q8 -2 8 -10l-6 -725q2 -147 60 -141q55 6 104 110t73 240q24 137 17 424l-2 94l8 10h430l11 -8l184 -383h6l201 385q2 6 10 6h459q6 0 6 -8l16 -1012l-8 -10h-397z" />
    <glyph glyph-name="afii10074_afii10077" unicode="&#x438;&#x43b;" horiz-adv-x="2406" 
d="M2345 1020v-1010l-8 -10h-395q-8 0 -9 10v830h-145q23 -479 -146 -689q-53 -67 -101 -102t-114 -57q-65 -22 -105 -28q-40 -5 -95 -9q-164 -9 -305 57t-181 178q-59 -121 -149 -178t-194 -57t-187 94q-82 94 -82 244v319q0 176 -54 235q-21 24 -43 36t-33 19t-7 22
q18 53 92 99t156 46q129 0 216 -85t87 -226v-398q0 -111 61 -118q53 -8 90 61t41 152v563l8 12h412q8 -2 8 -10q-16 -350 -10 -727q2 -139 57 -143t111 112q88 193 113 660l2 96q0 10 8 10q422 94 895 0q6 0 6 -8z" />
    <glyph glyph-name="afii10074_afii10078" unicode="&#x438;&#x43c;" horiz-adv-x="2785" 
d="M741 186q-113 -231 -343 -231q-104 0 -187 94q-82 94 -82 244v319q0 176 -54 235q-21 24 -43 36t-33 19t-7 22q18 53 92 99t156 46q129 0 216 -85t87 -226v-398q0 -111 61 -118q53 -8 90 61t41 152v563l8 12h410q8 -2 8 -10q-14 -315 -8 -727q3 -67 21 -99t43 -32
q90 0 136 214t48 429v215l8 10h422l10 -8l184 -383h7l200 385q2 6 11 6h458q6 0 6 -8l17 -1012l-8 -10h-398q-8 0 -8 10q2 182 2 391l21 222l-260 -605q-6 -16 -27 -16h-51q-16 0 -25 16l-205 521q-12 -151 -57 -261t-100 -168t-133 -96q-77 -38 -131 -46q-243 -41 -424 41
q-141 65 -179 177z" />
    <glyph glyph-name="afii10074_afii10097" unicode="&#x438;&#x44f;" horiz-adv-x="2351" 
d="M2290 1022v-1010l-9 -10h-395q-8 0 -8 10v387q-23 -6 -34 -55q-40 -178 -121 -259t-221 -116q-315 -79 -570 42q-135 65 -191 179q-59 -121 -149 -178t-194 -57t-187 94q-82 94 -82 244v319q0 176 -54 235q-21 24 -43 36t-33 19t-7 22q18 53 92 99t156 46q129 0 216 -85
t87 -226v-398q0 -111 61 -118q53 -8 90 61t41 152v563l8 12h412q8 -2 8 -10q-16 -344 -10 -707q2 -154 92 -147q90 6 207 153q41 53 74 113q-112 27 -182 106t-70 187q0 166 152 259q153 93 383 93t409 -37l63 -10q9 0 9 -8zM1790 856q-41 0 -79 -36t-38 -103
q0 -133 137 -133h66v268q-45 4 -86 4z" />
    <glyph glyph-name="afii10079_afii10097" unicode="&#x43d;&#x44f;" horiz-adv-x="2336" 
d="M1139 1020v-707q2 -154 92 -147q90 6 207 153q41 53 73 113q-111 27 -181 106t-70 187q0 166 152 259q153 93 381 93t411 -37l63 -10q8 0 8 -8v-1012l-8 -10h-395q-8 0 -8 10v389q-23 -6 -33 -55q-35 -172 -131 -268q-64 -60 -194 -102q-206 -66 -424 -28
q-163 26 -254 125q-46 50 -74 136q-29 86 -27 199h-201v-394l-10 -12h-410l-8 10q14 467 14 593t-21 193q-22 67 -46 81q-25 14 -42 25t-11 28q18 53 92 99t156 46q126 0 206 -85t80 -226v-119h201v375l10 10h393q9 0 9 -10zM1776 856q-41 0 -79 -36t-38 -103
q0 -133 137 -133h66v268q-45 4 -86 4z" />
    <glyph glyph-name="afii10072_afii10078" unicode="&#x436;&#x43c;" horiz-adv-x="3336" 
d="M2869 0q-8 0 -8 10q2 182 2 391l21 222l-261 -605q-6 -16 -26 -16h-51q-18 0 -25 16l-209 521q-4 -153 -28 -249t-93 -174t-155 -114q-146 -59 -292 -59q-281 0 -394 97q-114 97 -141 208q-13 53 -22 97t-25 70t-42 23v-426l-8 -10h-395q-8 0 -8 10v426q-56 -4 -76 -124
t-87 -236q-32 -53 -103 -88t-160 -35t-161 34t-105 74q-34 40 -27 52q8 12 26 20q78 37 131 94t75 107q73 164 102 203q78 98 198 82h2q-39 176 -123 176q-65 0 -55 -98q2 -19 2 -23q0 -23 -31 -35t-71 -12q-98 0 -161 58q-62 59 -62 159t70 165q71 65 183 64
q317 0 416 -477l17 -6v430l8 8h397q0 -6 6 -8v-430l15 6q39 213 160 357q102 120 273 120q95 -1 167 -65q71 -64 71 -164t-62 -158t-163 -59q-41 0 -72 12t-30 35v22q6 73 -25 90q-14 8 -35 9q-84 0 -123 -176h2q92 10 157 -37t97 -121t56 -150t56 -130t70 -54t66 22
q28 21 57 81q101 200 87 788l8 10h430l10 -8l184 -383h7l200 385q2 6 10 6h459q6 0 6 -8l17 -1012l-8 -10h-398z" />
    <glyph glyph-name="afii10074_afii10072" unicode="&#x438;&#x436;" horiz-adv-x="3082" 
d="M2788 -47q-97 0 -174 48t-106 118q-30 69 -46 139t-36 122q-19 52 -52 56v-426l-9 -10h-395q-8 0 -8 10v426q-29 0 -35 -22q-47 -223 -158 -328q-111 -104 -229 -127q-119 -23 -256 -25q-424 0 -543 252q-59 -121 -149 -177t-194 -56t-187 94q-82 94 -82 244v319
q0 176 -54 235q-21 24 -43 36t-33 19t-7 22q18 53 92 99t156 46q129 0 216 -85t87 -226v-398q0 -111 61 -118q53 -8 90 61t41 152v563l8 12h412q8 -2 8 -10q-4 -82 -6 -335q-3 -430 74 -516q35 -40 86 -40q93 0 129 135t90 239q29 54 91 89t153 28q-39 176 -123 177
q-41 0 -53 -39t-2 -82q0 -23 -31 -35t-72 -12q-98 0 -161 58q-62 59 -62 159t71 165t166 65q229 -1 353 -235q53 -102 80 -243l16 -6v430l8 8h397q0 -6 7 -8v-430l14 6q26 228 194 386q97 91 216 91q118 -1 190 -65t72 -164t-62 -158t-164 -59q-42 0 -72 12t-30 35v22
q6 73 -25 90q-14 8 -34 9q-84 0 -123 -177h2q127 16 205 -81q27 -33 63 -121t90 -161q56 -73 156 -122q24 -12 24 -24t-30 -50t-103 -72q-72 -34 -169 -34z" />
    <glyph glyph-name="afii10065_afii10072" unicode="&#x430;&#x436;" horiz-adv-x="3080" 
d="M596 240q72 0 113 78t41 198q0 121 -41 200t-113 79t-113 -79t-41 -200q0 -120 41 -198t113 -78zM2786 -47q-97 0 -174 48t-106 118q-30 69 -46 139t-36 122q-19 52 -52 56v-426l-9 -10h-395q-8 0 -8 10v426q-29 0 -35 -22q-47 -223 -158 -328q-111 -104 -229 -127
q-119 -23 -256 -25q-422 0 -541 246q-121 -223 -319 -223q-123 0 -217 84t-139 209t-46 266q0 225 111 390t305 165t301 -194v141l11 12h409q8 -2 8 -10q-8 -262 -12 -453q4 -252 46 -346t126 -94q91 0 152 184q25 76 54 150q30 74 92 121t155 36q-39 176 -119 177
q-44 0 -53 -32t-9 -67l2 -22q-1 -23 -31 -35t-71 -12q-98 0 -161 58q-62 59 -62 159t71 165t166 65q227 -1 355 -240q56 -105 78 -238l16 -6v430l8 8h397q0 -6 7 -8v-430l14 6q26 135 116 289q48 82 127 135t183 53q104 -1 174 -65q72 -64 72 -164t-62 -158t-164 -59
q-42 0 -72 12t-30 35q0 2 2 31t1 43t-14 30t-51 16t-73 -52q-35 -54 -49 -124h2q129 18 207 -81q27 -33 63 -121t90 -161q56 -73 156 -122q24 -12 24 -24t-30 -50t-103 -72q-72 -34 -169 -34z" />
    <glyph glyph-name="afii10084_afii10084" unicode="&#x442;&#x442;" horiz-adv-x="1720" 
d="M1382 754v-338q0 -112 22 -178t46 -80t42 -26q17 -12 11 -28q-18 -53 -93 -99t-157 -46q-125 0 -205 85t-79 226v500l-269 2v-356q0 -112 22 -178t46 -80t42 -26q17 -12 11 -28q-18 -53 -93 -99t-157 -46q-125 0 -205 85t-79 226v500l-267 2q-6 0 -6 8l-4 230v14q0 4 4 8
q324 37 872 37t795 -33q27 -3 28 -89q1 -85 -60 -136t-129 -59t-136 2h-2z" />
    <glyph glyph-name="afii10084_afii10089" unicode="&#x442;&#x447;" horiz-adv-x="2045" 
d="M1933 427q0 -126 22 -193q21 -66 47 -80t42 -26t10 -28q-16 -53 -90 -99t-156 -46q-126 0 -206 85t-80 226v140q-92 -129 -277 -130q-131 0 -212 84t-85 232q-23 268 -254 186v-362q0 -112 22 -178t46 -80t42 -26q17 -12 11 -28q-18 -53 -90 -99t-154 -46q-125 0 -205 85
t-79 226v500l-267 2q-6 0 -6 8l-4 230v14q0 4 4 8q184 35 414 39q414 7 623 -39q309 -63 309 -307v-90q0 -121 57 -133q49 -12 82 59q23 49 23 117v340l10 12h410q8 -2 8 -10q-17 -467 -17 -593z" />
    <glyph glyph-name="afii10083_afii10084" unicode="&#x441;&#x442;" horiz-adv-x="1875" 
d="M580 842q-78 0 -120 -102t-31 -214q11 -114 55 -183q77 -120 234 -116q158 4 302 88q16 12 28 2q12 -11 4 -41q-16 -69 -130 -187q-54 -56 -146 -94t-196 -38q-233 0 -397 164q-163 164 -163 392t155 389t388 171q182 4 289 -57q176 41 457 48t528 -28q27 -3 28 -89
q1 -85 -61 -136t-129 -59q-68 -8 -135 2h-2v-338q0 -112 22 -178t46 -80t42 -26q17 -12 11 -28q-18 -53 -93 -99t-157 -46q-125 0 -205 85t-80 226v502q-94 2 -110 0q-18 -82 -82 -136t-145 -54q-82 0 -146 74t-28 167q3 8 3 11q-14 8 -36 8z" />
    <glyph glyph-name="afii10084_afii10094" unicode="&#x442;&#x44c;" horiz-adv-x="1976" 
d="M1460 193q106 0 107 221q0 88 -45 142t-115 54q-16 0 -41 -4v-270q8 -143 94 -143zM1530 807q170 0 297 -114q127 -113 127 -299t-151 -312t-359 -127q-136 0 -236 42t-152 111q-102 135 -102 291v371h-254v-354q0 -112 22 -178t46 -80t42 -26q17 -12 11 -28
q-18 -53 -93 -99t-157 -46q-125 0 -205 85t-79 226v500l-267 2q-6 0 -6 8l-4 244q0 4 4 8q180 35 502 37t542 -11t281 -22q15 -2 21 -24t6 -219q90 14 164 14z" />
    <glyph glyph-name="afii10084_afii10093" unicode="&#x442;&#x44b;" horiz-adv-x="2516" 
d="M1454 193q96 0 96 221q0 90 -38 143t-105 53q-20 0 -41 -4v-250q4 -163 88 -163zM2390 412q0 -176 54 -235q26 -29 75 -55q12 -7 6 -22q-18 -53 -92 -99t-156 -46q-127 0 -214 85t-87 226v398q0 121 -55 120q-55 0 -88 -106q104 -115 104 -275q0 -195 -143 -321
t-350 -127q-136 0 -236 42t-152 111q-102 135 -102 291v371h-254v-354q0 -112 22 -178t46 -80t42 -26q17 -12 11 -28q-18 -53 -93 -99t-157 -46q-125 0 -205 85t-79 226v500l-267 2q-6 0 -6 8l-4 244q0 4 4 8q180 35 502 37t542 -11t281 -22q15 -2 21 -24t6 -219
q86 14 182 14t195 -57q53 164 155 242t215 77q113 0 195 -94t82 -244v-319z" />
    <glyph glyph-name="afii10084_afii10096" unicode="&#x442;&#x44e;" horiz-adv-x="2562" 
d="M2123 288q21 81 21 233q0 153 -27 237q-28 84 -110 84t-110 -85q-27 -85 -27 -199t5 -166t18 -101q27 -101 116 -101t114 98zM2024 1073q224 0 376 -161q150 -160 150 -398t-148 -398t-378 -159q-230 0 -373 126t-176 323h-86v-394l-9 -12h-403q-8 2 -8 10v604
q-6 104 -84 154t-191 10v-362q0 -112 22 -178t46 -80t42 -26q17 -12 11 -28q-18 -53 -90 -99t-154 -46q-125 0 -205 85t-79 226v500l-267 2q-6 0 -6 8l-4 230v14q0 4 4 8q184 35 418 39q429 7 639 -39q307 -66 318 -291v-96h90q37 188 179 308t366 120z" />
    <glyph glyph-name="afii10076_afii10079" unicode="&#x43a;&#x43d;" horiz-adv-x="2377" 
d="M2265 414q0 -177 48 -235q19 -24 39 -36t30 -20t4 -23q-16 -51 -90 -95t-156 -44q-127 0 -207 83t-80 224v138h-200v-394l-11 -12h-397l-8 10q2 434 1 572t-70 199q-68 63 -156 57t-174 -66t-121 -151q161 4 210 -126q22 -59 42 -121t71 -130t138 -109q26 -12 26 -24
t-24 -43q-31 -33 -55 -55q-63 -58 -174 -58q-109 0 -185 48t-107 119q-31 70 -47 140t-34 121t-54 55v-426l-8 -12h-412q-8 2 -8 10q16 467 16 593t-21 193q-22 67 -46 81q-25 14 -42 25t-11 28q18 53 92 99t156 46q124 0 204 -85t80 -226v-172q12 4 33 8q5 90 52 177
q47 88 101 146t154 105t228 59q266 25 404 -91t151 -351h206v375l11 10h393q8 0 8 -10v-606z" />
    <glyph glyph-name="afii10076_afii10084" unicode="&#x43a;&#x442;" horiz-adv-x="2025" 
d="M1686 754v-338q0 -112 22 -178t46 -80t41 -26t11 -28q-18 -53 -93 -99t-157 -46q-124 0 -204 85t-80 226v510q-457 72 -576 -159q137 12 213 -82q25 -33 61 -121t92 -161t155 -122q25 -12 25 -24t-23 -43q-103 -113 -279 -113q-98 0 -174 48t-107 119q-31 70 -47 140
t-34 121t-54 55v-426l-8 -12h-412q-8 2 -8 10q16 467 16 593t-21 193q-22 67 -46 81q-25 14 -42 25t-11 28q18 53 92 99t156 46q124 0 204 -85t80 -226v-172q12 4 33 8q5 94 48 178q42 85 94 140q51 55 151 99t242 53t490 -8q349 -17 403 -26q26 -3 27 -89q1 -85 -60 -136
t-129 -59t-135 2h-2z" />
    <glyph glyph-name="afii10084_afii10076" unicode="&#x442;&#x43a;" horiz-adv-x="2093" 
d="M1796 -45q-98 0 -174 48t-106 119q-32 70 -48 140t-34 121t-54 55v-426l-8 -12h-411q-8 2 -9 10q14 418 17 582q-10 127 -83 178t-192 8v-362q0 -112 22 -178t46 -80t42 -26q17 -12 11 -28q-18 -53 -90 -99t-154 -46q-125 0 -205 85t-79 226v500l-267 2q-6 0 -6 8l-4 230
v14q0 4 4 8q184 35 418 39q429 7 639 -39q311 -63 309 -309v-131l17 6q17 139 111 295q48 78 128 130t184 52q104 -1 176 -65q70 -64 70 -164t-62 -158t-161 -59q-41 0 -73 12t-31 35q0 4 2 23q7 69 -22 88q-13 9 -42 9t-55 -30q-26 -31 -35 -63q-10 -32 -22 -82
q123 16 200 -82q25 -33 61 -121t92 -161t155 -122q25 -12 25 -24t-23 -43q-41 -45 -111 -79t-168 -34z" />
    <glyph glyph-name="afii10084_afii10082" unicode="&#x442;&#x440;" horiz-adv-x="2125" 
d="M1538 238q72 0 113 78t41 200q0 121 -41 199t-113 78t-113 -78t-41 -199q0 -122 41 -200t113 -78zM1712 1075q182 0 291 -169t109 -392t-110 -388t-304 -165t-301 195v-594l-11 -13h-409l-8 11q-2 897 -2 1050q-16 117 -87 163t-186 5v-362q0 -112 22 -178t46 -80t42 -26
q17 -12 11 -28q-18 -53 -90 -99t-154 -46q-125 0 -205 85t-79 226v500l-267 2q-6 0 -6 8l-4 230v14q0 4 4 8q184 35 424 39q421 7 654 -39q168 -37 297 -190q120 233 323 233z" />
    <glyph glyph-name="afii10072_afii10074" unicode="&#x436;&#x438;" horiz-adv-x="2938" 
d="M1120 592q0 4 19 8q6 97 48 185t94 145q51 57 151 103t227 54q229 11 396 -113t161 -362v-262q4 -104 63 -108q55 -6 99 75q31 57 32 138v563l9 12h411q8 -2 9 -10q-17 -467 -17 -593t22 -193q22 -66 46 -80t42 -26q17 -12 11 -28q-18 -53 -92 -99t-168 -46t-170 62
t-96 173q-59 -121 -149 -178t-196 -57q-104 0 -186 94t-82 244v319q0 96 -68 150q-69 53 -157 53t-175 -51t-120 -143q133 12 207 -82q25 -33 61 -121t92 -161t154 -122q25 -12 26 -24t-32 -50q-32 -38 -102 -72t-168 -34t-174 48q-74 48 -102 119q-28 70 -42 140t-32 121
q-17 51 -52 55v-426l-8 -10h-395q-8 0 -8 10v426q-56 -4 -76 -124t-87 -236q-32 -53 -103 -88t-160 -35t-161 34t-105 74q-34 40 -27 52q8 12 26 20q78 37 131 94t75 107q73 164 102 203q78 98 200 82h2q-39 176 -123 176q-67 0 -57 -98q2 -19 2 -23q0 -23 -31 -35t-71 -12
q-98 0 -161 58q-62 59 -62 159t70 165q71 65 175 65q267 -1 384 -326q28 -76 40 -152l17 -6v430l8 8h397q0 -6 6 -8v-430z" />
    <glyph glyph-name="afii10072_afii10093" unicode="&#x436;&#x44b;" horiz-adv-x="3332" 
d="M2267 193q96 0 96 221q0 90 -37 143q-38 53 -106 53q-20 0 -41 -4v-250q4 -163 88 -163zM3203 412q0 -176 54 -235q26 -29 75 -55q12 -7 6 -22q-18 -53 -92 -99t-156 -46q-127 0 -214 85t-87 226v398q0 121 -55 120q-55 0 -88 -106q104 -115 104 -275q0 -195 -143 -321
t-350 -127q-135 0 -235 42t-153 111q-102 135 -102 291v224q0 78 -41 128t-104 61q-149 26 -258 -68q-59 -50 -86 -123q137 12 213 -82q25 -33 61 -121t92 -161t154 -122q25 -12 26 -24t-32 -50q-32 -38 -102 -72t-168 -34t-174 48q-74 48 -102 119q-28 70 -42 140t-32 121
q-17 51 -52 55v-426l-8 -10h-395q-8 0 -8 10v426q-56 -4 -76 -124t-87 -236q-32 -53 -103 -88t-160 -35t-161 34t-105 74q-34 40 -27 52q8 12 26 20q78 37 131 94t75 107q73 164 102 203q78 98 200 82h2q-39 176 -123 176q-67 0 -57 -98q2 -19 2 -23q0 -23 -31 -35t-71 -12
q-98 0 -161 58q-62 59 -62 159t70 165q71 65 166 65q171 -1 273 -117q123 -136 160 -361l17 -6v430l8 8h397q0 -6 6 -8v-430q0 2 19 8q5 95 48 182q42 87 94 144q51 57 151 104t233 57t239 -9t179 -90q74 -71 80 -191q87 10 191 10t202 -57q54 164 156 242t214 77
q112 0 195 -94q82 -94 82 -244v-319z" />
    <glyph glyph-name="afii10076_afii10093" unicode="&#x43a;&#x44b;" horiz-adv-x="2744" 
d="M1681 193q96 0 97 221q0 90 -38 143t-106 53q-20 0 -41 -4v-250q4 -163 88 -163zM2617 412q0 -175 55 -235q23 -25 74 -55q12 -7 7 -22q-19 -53 -93 -99t-155 -46q-127 0 -214 85t-87 226v398q0 121 -56 120q-55 0 -88 -106q104 -114 104 -292t-142 -304
q-144 -126 -351 -127q-135 0 -235 42t-153 111q-103 137 -101 291v224q0 78 -41 128t-105 61q-150 26 -258 -68q-59 -50 -86 -123q137 12 213 -82q25 -33 61 -121t92 -161t154 -122q25 -12 26 -24t-32 -50q-32 -38 -102 -72t-168 -34t-174 48t-106 118q-30 69 -46 139
t-35 122q-18 52 -51 56v-426l-8 -12h-412q-8 2 -8 10q16 467 16 593t-21 193q-22 67 -46 81q-25 14 -42 25t-11 28q18 53 92 99t156 46q124 0 204 -85t80 -226v-172q7 4 16 5t13 3q5 95 48 182q42 87 94 144q51 57 151 104t233 57t239 -9t179 -90q74 -71 80 -191
q87 10 191 10t202 -57q54 164 156 242t215 77q113 0 195 -94t81 -244v-319z" />
    <glyph glyph-name="afii10072_afii10085" unicode="&#x436;&#x443;" horiz-adv-x="2875" 
d="M2251 -459q-137 1 -245 57q-175 92 -214 217q-39 126 8 119q14 -2 42 -28t60 -54q32 -30 95 -54t141 -23q117 0 189 77t75 177v204q-57 -123 -148 -180q-92 -57 -196 -57t-186 94t-82 244v278h-2q0 96 -67 150t-153 53q-86 0 -171 -51q-86 -51 -119 -143q137 12 213 -82
q25 -33 61 -121t92 -161t154 -122q25 -12 26 -24t-32 -50q-32 -38 -102 -72t-168 -34t-174 48q-74 48 -102 119q-28 70 -42 140t-32 121q-17 51 -52 55v-426l-8 -10h-395q-8 0 -8 10v426q-56 -4 -76 -124t-87 -236q-32 -53 -103 -88t-160 -35t-161 34t-105 74q-34 40 -27 52
q8 12 26 20q78 37 131 94t75 107q73 164 102 203q78 98 200 82h2q-39 176 -125 176q-65 0 -55 -98q2 -19 2 -23q0 -23 -31 -35t-71 -12q-98 0 -161 58q-62 59 -62 159t70 165q71 65 177 65t188 -51q82 -50 127 -129q90 -155 107 -298l17 -6v430l8 8h397q0 -6 6 -8v-430
q0 2 19 8q6 97 48 185t94 145q51 57 151 103t227 54q229 11 391 -113t152 -362v-10q-2 -64 -1 -188t62 -131q55 -8 94 63t41 162v510l8 10h396q8 0 8 -10q6 -596 6 -868q10 -272 -138 -440t-427 -169z" />
    <glyph glyph-name="afii10072_afii10077" unicode="&#x436;&#x43b;" horiz-adv-x="2918" 
d="M2857 1022v-1010l-8 -10h-395q-8 0 -9 10v830h-145q8 -360 -41 -533q-29 -102 -93 -178q-160 -188 -469 -188q-101 -1 -201 27t-153 72q-105 87 -135 204q-14 53 -23 97t-23 71t-42 24v-426l-8 -10h-395q-8 0 -8 10v426q-56 -4 -76 -124t-87 -236q-32 -53 -103 -88
t-160 -35t-161 34t-105 74q-34 40 -27 52q8 12 26 20q78 37 131 94t75 107q73 164 102 203q78 98 196 82h2q-39 176 -123 176q-27 -1 -40 -17t-14 -30t1 -43t2 -31q0 -23 -31 -35t-71 -12q-98 0 -161 58q-62 59 -62 159t70 165q71 65 175 65q270 -1 386 -327q28 -77 38 -151
l17 -6v430l8 8h397q0 -6 6 -8v-430l15 6q18 140 103 287q46 80 128 134t188 56q106 1 179 -63q71 -64 71 -165t-62 -159t-161 -59q-41 0 -73 12t-31 35q0 4 3 31t2 42q0 15 -14 31t-41 17q-100 0 -129 -176q92 10 156 -37t96 -121q33 -74 57 -150q23 -76 55 -130t84 -54
t96 92t64 222q38 257 40 485l2 92q0 10 8 10q422 94 895 0q6 0 6 -8z" />
    <glyph glyph-name="afii10072_afii10084" unicode="&#x436;&#x442;" horiz-adv-x="2607" 
d="M2267 754v-338q0 -112 22 -178q23 -66 47 -80t41 -26t11 -28q-18 -53 -93 -99t-157 -46q-125 0 -205 85t-80 226v510q-457 72 -575 -159q137 12 213 -82q25 -33 61 -121t92 -161t154 -122q25 -12 26 -24t-32 -50q-32 -38 -102 -72t-166 -34t-172 45q-74 45 -106 112
q-32 68 -49 134t-34 121q-16 55 -43 67v-422l-8 -10h-395q-8 0 -8 10v426q-56 -4 -76 -124t-87 -236q-32 -53 -103 -88t-160 -35t-161 34t-105 74q-34 40 -27 52q8 12 26 20q78 37 131 94t75 107q73 164 102 203q78 98 200 82h2q-39 176 -123 176q-67 0 -57 -98q2 -19 2 -23
q0 -23 -31 -35t-71 -12q-98 0 -161 58q-62 59 -62 159t70 165q71 65 175 65q272 -1 384 -320q28 -78 40 -158l17 -6v430l8 8h397q0 -6 6 -8v-426q2 0 19 4q5 94 48 178q42 85 94 140q51 55 151 99t242 53t490 -8q349 -17 402 -26q27 -3 28 -89q2 -85 -60 -136t-130 -59
t-135 2h-2z" />
    <glyph glyph-name="afii10093_afii10072" unicode="&#x44b;&#x436;" horiz-adv-x="3387" 
d="M582 193q96 0 96 221q0 90 -38 143t-105 53q-20 0 -41 -4v-250q4 -163 88 -163zM1632 127q49 0 86 54t62 130t55 150q31 74 93 121t155 36q-39 176 -123 177q-45 0 -52 -31t-6 -60t1 -30q0 -23 -31 -35t-72 -12q-98 0 -161 58q-62 59 -62 159t71 165t175 65
q264 -1 384 -324q28 -76 40 -154l16 -6v430l8 8h398q0 -6 6 -8v-430l14 6q16 125 114 290q48 81 128 134q79 53 183 53q104 -1 176 -65t71 -164t-63 -158t-163 -59q-41 0 -71 12t-31 35q0 2 2 31t1 43t-14 30t-40 17q-90 0 -129 -177h2q125 16 203 -81q26 -33 62 -121
t92 -161t155 -122q25 -12 25 -24t-32 -50q-30 -38 -102 -72t-169 -34t-174 48t-106 118q-30 69 -46 139t-36 122q-19 52 -52 56v-426l-9 -10h-395q-8 0 -8 10v426q-29 0 -35 -22q-47 -223 -158 -328q-111 -104 -229 -127q-119 -23 -248 -24t-215 19t-137 56
q-101 74 -123 209t-14 330v115q0 76 -28 104t-62 3q-34 -26 -53 -93q83 -92 83 -282t-134 -316t-339 -125q-135 0 -235 42t-153 111q-103 137 -101 291v621l8 10h395q8 -2 9 -12v-225q86 14 182 14t194 -57q54 164 156 242t215 77q113 0 196 -94t83 -244l-8 -309
q3 -195 44 -256q27 -39 76 -39z" />
    <glyph glyph-name="afii10093_afii10072_afii10074" unicode="&#x44b;&#x436;&#x438;" horiz-adv-x="4493" 
d="M582 193q96 0 96 221q0 90 -38 143t-105 53q-20 0 -41 -4v-250q4 -163 88 -163zM1632 127q49 0 86 54t63 130t56 150q31 74 93 121t155 36q-39 176 -127 177q-67 0 -57 -98q2 -19 2 -23q0 -23 -31 -35t-72 -12q-98 0 -161 58q-62 59 -62 159t71 165t175 65
q268 -1 386 -326q28 -78 38 -152l16 -6v430l8 8h398q0 -6 6 -8v-426q4 4 16 6q6 97 48 185t94 145q51 57 151 103t227 54q229 12 397 -112q167 -125 160 -363v-262q4 -104 64 -108q55 -6 98 75q31 57 33 138v563l8 12h412q8 -2 8 -10q-16 -467 -16 -593q-1 -126 21 -193
q22 -66 46 -80t42 -26q17 -12 11 -28q-18 -53 -92 -99q-73 -46 -167 -46t-171 62q-76 62 -96 173q-59 -121 -149 -178t-195 -57t-187 94t-81 244v319q0 96 -70 150t-159 53q-89 0 -177 -51t-121 -143q137 12 213 -82q25 -33 61 -121t92 -161t155 -122q25 -12 25 -24t-23 -43
q-103 -113 -279 -113q-98 0 -174 48q-74 48 -101 118q-28 69 -42 139t-32 122q-17 52 -50 56v-428l-9 -10h-395q-8 0 -8 10v426q-29 0 -35 -22q-47 -223 -158 -328q-111 -104 -229 -127q-119 -23 -248 -24t-215 19t-137 56q-101 74 -123 209t-14 330v115q0 76 -28 104t-62 3
q-34 -26 -53 -93q83 -92 83 -282t-134 -316t-339 -125q-135 0 -235 42t-153 111q-103 137 -101 291v621l8 10h395q8 -2 9 -12v-225q86 14 182 14t194 -57q54 164 156 242t215 77q113 0 196 -94t83 -244l-8 -309q3 -195 44 -256q27 -39 76 -39z" />
    <glyph glyph-name="afii10093_afii10072_afii10093" unicode="&#x44b;&#x436;&#x44b;" horiz-adv-x="4882" 
d="M582 193q96 0 96 221q0 90 -38 143t-105 53q-20 0 -41 -4v-250q4 -163 88 -163zM3820 193q96 0 96 221q0 90 -38 143t-106 53q-20 0 -41 -4v-250q5 -163 89 -163zM1632 127q49 0 86 54t61 130t54 150q31 74 92 121t154 36q-39 176 -119 177q-45 0 -52 -31t-6 -60t1 -30
q0 -23 -31 -35t-72 -12q-98 0 -161 58q-62 59 -62 159t71 165t175 65q269 -1 386 -324q28 -78 38 -154l16 -6v430l8 8h398q0 -6 6 -8v-426h2q2 2 6 3t8 3q5 95 48 182q42 87 94 144q51 57 151 104t233 57t239 -9t179 -90q74 -71 80 -191q87 10 191 10t202 -57
q54 164 156 242t215 77q113 0 195 -94t81 -244v-319q0 -175 55 -235q23 -25 74 -55q12 -7 7 -22q-19 -53 -93 -99t-155 -46q-127 0 -214 85t-87 226v398q0 121 -56 120q-55 0 -88 -106q104 -114 104 -292t-142 -304q-144 -126 -351 -127q-135 0 -235 42t-153 111
q-103 137 -101 291v224q0 78 -41 128t-105 61q-150 26 -258 -68q-59 -50 -86 -123q137 12 213 -82q25 -33 61 -121t92 -161t155 -122q25 -12 25 -24t-23 -43q-103 -113 -279 -113q-98 0 -174 48q-74 48 -101 118q-28 69 -42 139t-32 122q-17 52 -50 56v-428l-9 -10h-395
q-8 0 -8 10v426q-29 0 -35 -22q-47 -223 -158 -328q-111 -104 -229 -127q-119 -23 -248 -24t-215 19t-137 56q-101 74 -123 209t-14 330v115q0 76 -28 104t-62 3q-34 -26 -53 -93q83 -92 83 -282t-134 -316t-339 -125q-135 0 -235 42t-153 111q-103 137 -101 291v621l8 10
h395q8 -2 9 -12v-225q86 14 182 14t194 -57q54 164 156 242t215 77q113 0 196 -94t83 -244l-8 -309q3 -195 44 -256q27 -39 76 -39z" />
    <glyph glyph-name="uni0410_afii10077" unicode="&#x410;&#x43b;" horiz-adv-x="2490" 
d="M561 504h240l-121 594q-20 -86 -64 -310t-55 -284zM2427 1022v-1010l-8 -10h-396q-8 0 -8 10v830h-145q-2 -41 -5 -126q-9 -269 -44 -408q-35 -140 -133 -232q-179 -168 -465 -126q-123 17 -223 92q-99 75 -138 185h-358l-45 -217q-5 -10 -13 -10h-430l-4 10
q352 1102 353 1104q39 113 30 155q-8 41 -26 69t-15 42q18 58 110 100t196 42q106 0 208 -81t160 -241q20 -57 104 -390t117 -452q117 -399 199 11q49 256 70 651q0 10 8 10q422 94 895 0q6 -6 6 -8z" />
    <glyph glyph-name="uni0410_afii10078" unicode="&#x410;&#x43c;" horiz-adv-x="2871" 
d="M561 504h240l-121 594q-20 -86 -64 -310t-55 -284zM2408 0q-8 0 -8 10q2 182 2 391l21 222l-260 -605q-6 -16 -27 -16h-51q-16 0 -25 16l-202 514q-8 -86 -36 -224t-122 -230q-170 -166 -468 -131q-126 14 -228 90t-142 190h-358l-45 -217q-5 -10 -13 -10h-430l-4 10
q352 1102 353 1104q39 113 30 155q-8 41 -26 69t-15 42q18 58 110 100t196 42q106 0 208 -81t160 -241q18 -53 101 -385t120 -457q111 -367 183 -36q55 250 65 651v47l8 10h416l10 -8l185 -383h6l200 385q2 6 11 6h458q7 0 7 -8l16 -1012l-8 -10h-398z" />
    <glyph glyph-name="uni041A_afii10077" unicode="&#x41a;&#x43b;" horiz-adv-x="2385" 
d="M989 1114q0 66 -60 66t-93 -83t-31 -204q96 10 165 -66q68 -75 104 -187t64 -224t62 -187q34 -73 79 -63q44 10 79 223t47 422l14 209q0 10 8 10q422 94 895 0q7 0 7 -8v-1010l-9 -10h-395q-8 0 -8 10v830h-145q4 -137 -10 -293t-40 -249q-27 -93 -85 -169
q-98 -128 -267 -171q-68 -17 -135 -17q-295 0 -430 174t-166 524q-43 10 -74 -8l15 -623l-11 -10h-440l-8 10v1112q-12 133 -61 175q-19 17 -37 27t-27 18q-8 7 -4 22q18 53 105 101t175 48q131 1 217 -81t86 -246l-10 -328l62 14q-4 250 113 433q118 182 335 208
q139 16 232 -57q92 -74 75 -201q-10 -84 -54 -135t-100 -64q-123 -29 -202 -1q-37 12 -37 20v39z" />
    <glyph glyph-name="uni0416_afii10077" unicode="&#x416;&#x43b;" horiz-adv-x="3065" 
d="M1671 1075v45q-1 28 -17 44t-44 16q-62 0 -96 -83t-31 -204q96 10 166 -66q69 -75 105 -187t65 -224t63 -187q34 -73 79 -63q44 10 78 224t48 421l14 209q0 10 8 10q422 94 895 0q7 0 7 -8v-1010l-9 -10h-395q-8 0 -8 10v830h-145q4 -137 -10 -293t-40 -249
q-27 -93 -85 -169q-98 -128 -267 -171q-68 -17 -135 -17q-293 0 -428 174t-166 524q-29 4 -59 -2v-6l12 -623l-10 -10h-437l-8 10l10 623q-25 16 -55 8q-25 -288 -145 -487q-63 -104 -169 -158t-243 -37q-88 9 -151 73t-70 116q-6 52 2 67q104 33 213 178t164 258
q102 215 237 234q2 117 -49 214t-114 95q-27 0 -45 -18t-19 -38v-63q0 -8 -37 -20q-85 -28 -202 1q-56 13 -100 64t-54 135q-16 127 83 200t240 58q211 -23 335 -217t132 -432q6 -2 22 -6t25 -8l-10 602l10 10h437l8 -10l-12 -590l47 10q-4 250 112 433q117 182 334 208
q139 16 232 -57q92 -74 75 -201q-10 -84 -54 -135t-100 -64q-123 -29 -202 -1q-37 12 -37 20z" />
    <glyph glyph-name="uni0416_afii10078" unicode="&#x416;&#x43c;" horiz-adv-x="3471" 
d="M1671 1075v45q-1 28 -17 44t-44 16q-59 0 -92 -82t-31 -205q96 10 165 -66q68 -75 104 -187t64 -224t62 -187t83 -63q48 12 91 340t35 514l8 10h430l11 -8l184 -383h6l201 385q2 6 10 6h459q6 0 6 -8l16 -1012l-8 -10h-397q-8 0 -8 10q2 182 2 391l20 222l-260 -605
q-6 -16 -27 -16h-51q-16 0 -24 16l-213 529q-18 -209 -27 -238q-29 -102 -90 -178t-137 -115q-142 -73 -285 -73q-293 0 -428 174t-166 524q-29 4 -59 -2v-6l12 -623l-10 -10h-437l-8 10l10 623q-25 16 -55 8q-25 -288 -145 -487q-63 -104 -169 -158t-243 -37q-88 9 -151 73
t-70 116q-6 52 2 67q104 33 216 179t165 257q102 217 231 234q2 117 -49 214t-112 95q-30 0 -40 -13q-24 -34 -24 -76v-30q0 -8 -37 -20q-85 -28 -202 1q-56 13 -100 64t-54 135q-16 127 83 201t229 58q251 -30 361 -225q111 -195 117 -425q6 -2 22 -6t25 -8l-10 602l10 10
h437l8 -10l-12 -590l47 10q-4 250 112 433q117 182 334 208q139 16 232 -57q92 -74 75 -201q-10 -84 -54 -135t-100 -64q-123 -29 -202 -1q-37 12 -37 20z" />
    <glyph glyph-name="afii10084_afii10103" unicode="&#x442;&#x456;" horiz-adv-x="1435" 
d="M1364 1320q0 -79 -71 -134q-71 -56 -169 -56t-168 56t-70 134q0 79 70 135t168 56t169 -56t71 -135zM694 416q0 -112 22 -178t46 -80t42 -26q17 -12 11 -28q-18 -53 -90 -99t-154 -46q-125 0 -205 85t-79 226v500l-267 2q-6 0 -6 8l-4 230v14q0 4 4 8q184 35 418 41
q423 11 639 -33q137 -30 224 -106t85 -211v-711l-8 -12h-411q-8 2 -9 10q14 418 17 582q-10 127 -83 178t-192 8v-362z" />
    <glyph glyph-name="afii10103_afii10104" unicode="&#x456;&#x457;" horiz-adv-x="1189" 
d="M121 1511q99 0 169 -56t70 -135t-70 -134q-70 -56 -169 -56q-98 0 -168 56t-70 134q0 79 70 135t168 56zM248 1075q127 0 206 -84t78 -227v-752l-8 -12h-409q-10 2 -11 10q16 467 16 593t-21 193q-22 67 -46 81q-25 14 -42 25t-11 28q18 53 92 99t156 46zM1290 1317
q0 -70 -56 -119t-136 -49t-136 49t-57 119q1 70 57 119t136 49t136 -49t56 -119zM825 1319q0 -74 -60 -125t-144 -51t-144 51q-59 51 -59 125t59 125t143 51t145 -51q60 -51 60 -125zM838 1075q126 0 206 -85t80 -226v-752l-10 -12h-409q-8 2 -9 10q14 467 14 593t-21 193
q-22 67 -46 81q-25 14 -41 25t-10 28q16 53 90 99t156 46z" />
    <glyph glyph-name="uni0422_afii10103" unicode="&#x422;&#x456;" horiz-adv-x="1622" 
d="M1241 1092q-141 0 -262 6l-121 6v-694q4 -104 28 -166t50 -76q27 -14 43 -26t10 -27q-18 -55 -104 -105t-174 -51q-131 0 -218 84t-87 254v836q-195 4 -359 -29q-8 0 -14 6v4q-12 12 -18 74q-5 61 2 106q7 46 43 94t111 88t251 40t483 -22t529 -19l133 8q27 0 28 -87
q2 -87 -10 -132q-12 -44 -53 -92q-42 -48 -96 -64t-195 -16zM1149 562q0 126 -22 194q-22 66 -46 80q-25 14 -42 25t-11 28q18 53 92 99t156 46q127 0 206 -84t79 -227v-711l-9 -12h-409q-10 2 -10 10q16 426 16 552z" />
    <glyph glyph-name="afii10072_afii10097" unicode="&#x436;&#x44f;" horiz-adv-x="2899" 
d="M1829 725q0 166 152 259q153 93 383 93t409 -37l63 -10q8 0 9 -8v-1012l-9 -10h-395q-8 0 -8 10v389q-23 -6 -33 -55q-35 -172 -131 -268q-147 -143 -495 -144q-142 0 -248 29t-164 74q-112 88 -147 210q-15 54 -26 98t-27 71t-42 24v-426l-8 -10h-395q-8 0 -8 10v426
q-56 -4 -76 -124t-87 -236q-32 -53 -103 -88t-160 -35t-161 34t-105 74q-34 40 -27 52q8 12 26 20q78 37 131 94t75 107q73 164 102 203q78 98 198 82h2q-39 176 -118 176q-44 0 -52 -31t-7 -60t1 -30q0 -23 -31 -35t-71 -12q-98 0 -161 58q-62 59 -62 159t70 165
q71 65 175 65q274 -1 386 -320q28 -78 38 -158l17 -6v430l8 8h397q0 -6 6 -8v-430l15 6q57 231 139 338q109 137 276 139q113 -1 185 -65q71 -64 71 -164t-62 -158t-163 -59q-41 0 -72 12t-30 35q0 2 1 24q3 74 -24 88q-14 8 -35 9q-84 0 -123 -176h2q90 10 167 -44
q73 -50 155 -309l4 -2q57 -190 246 -53q100 72 209 219q-111 27 -181 106t-71 187zM2345 856q-41 0 -79 -36t-38 -103q0 -133 137 -133h66v268q-45 4 -86 4z" />
    <glyph glyph-name="afii10084_afii10079" unicode="&#x442;&#x43d;" horiz-adv-x="2103" 
d="M1380 645h197v375l10 10h393q8 0 9 -10v-606q0 -177 48 -235q19 -24 39 -36t29 -20q10 -8 4 -23q-16 -51 -90 -95t-155 -44q-127 0 -207 83t-80 224v138h-197v-394l-8 -12h-411q-8 2 -9 10q14 418 17 582q-10 127 -83 178t-192 8v-362q0 -112 22 -178t46 -80t42 -26
q17 -12 11 -28q-18 -53 -90 -99t-154 -46q-125 0 -205 85t-79 226v500l-267 2q-6 0 -6 8l-4 230v14q0 4 4 8q184 35 418 39q429 7 639 -39q311 -63 309 -309v-78z" />
    <glyph glyph-name="afii10104_afii10104" unicode="&#x457;&#x457;" horiz-adv-x="1183" 
d="M1257 1307q0 -74 -59 -125q-59 -52 -143 -52q-83 0 -143 52t-60 125q0 74 59 125t143 51t144 -51q59 -51 59 -125zM836 1075q126 0 206 -85t80 -226v-752l-10 -12h-410q-8 2 -8 10q14 467 14 593t-21 193q-22 67 -46 81q-25 14 -41 25t-10 28q16 53 90 99t156 46z
M782 1307q0 -74 -59 -125q-59 -52 -143 -52t-144 52t-59 125q0 74 59 125q60 51 144 51t143 -51t59 -125zM307 1307q0 -74 -60 -125q-61 -52 -145 -52t-143 52t-59 125q0 74 59 125t143 51t144 -51t61 -125zM127 603q0 126 -22 193t-46 81q-25 14 -41 25t-10 28q16 53 90 99
t156 46q127 0 207 -85t80 -226v-752l-11 -12h-409q-8 2 -8 10q14 467 14 593z" />
    <glyph glyph-name="quotesingle_afii10104" unicode="&#x27;&#x457;" horiz-adv-x="823" 
d="M182 1335q0 -131 -74 -217t-158 -116q-83 -30 -83 10q0 18 35 50q99 90 32 118q-46 20 -79 64t-33 111t52 120t127 53t128 -56t53 -137zM1034 1319q0 -72 -54 -123t-131 -51t-131 51t-54 123t54 123t131 51t131 -51t54 -123zM614 1315q0 -72 -54 -123t-132 -51t-132 51
t-54 123t54 123t132 51t132 -51t54 -123zM346 603q0 126 -21 193q-22 67 -46 81q-25 14 -41 25t-11 28q16 53 90 99t156 46q127 0 207 -85t80 -226v-752l-10 -12h-410q-8 2 -8 10q14 467 14 593z" />
    <glyph glyph-name="afii10093_afii10097" unicode="&#x44b;&#x44f;" horiz-adv-x="2693" 
d="M2130 856q-41 0 -79 -36t-38 -103q0 -133 137 -133h66v268q-45 4 -86 4zM561 193q96 0 96 221q0 90 -37 143q-38 53 -106 53q-20 0 -41 -4v-250q4 -163 88 -163zM2226 0q-8 0 -8 10v389q-23 -6 -33 -55q-35 -172 -131 -268q-63 -60 -193 -102t-254 -41t-207 21t-160 70
q-161 101 -157 382v258q0 121 -55 120q-55 0 -88 -106q104 -115 104 -275q0 -195 -143 -321t-350 -127q-135 0 -235 42t-153 111q-102 135 -102 291v621l9 10h395q8 -2 8 -12v-225q87 14 183 14t194 -57q54 164 156 242t214 77q112 0 193 -93q82 -93 84 -243v-420
q2 -156 92 -147q90 8 207 160q39 49 70 106q-111 27 -182 106t-70 187q0 166 152 259q153 93 383 93t409 -37l63 -10q8 0 9 -8v-1012l-9 -10h-395z" />
    <glyph glyph-name="afii10093_afii10077" unicode="&#x44b;&#x43b;" horiz-adv-x="2750" 
d="M655 416q0 90 -38 143t-105 53q-20 0 -41 -4v-250q4 -164 88 -163q96 0 96 221zM59 401v621l9 10h395q8 -2 8 -12v-225q87 14 183 14t194 -57q54 164 156 242t214 77q112 0 195 -94q82 -94 82 -244q0 -348 2 -438q2 -137 57 -143t116 120t90 408q15 150 18 246l4 94
q0 10 8 10q422 94 895 0q6 0 6 -8v-1010l-8 -10h-395q-8 0 -9 10v830h-145q23 -480 -145 -689q-53 -67 -101 -102t-114 -57t-106 -28q-173 -22 -275 -3q-103 17 -180 77t-105 153t-26 256q1 164 -1 217q-4 121 -57 120q-53 0 -86 -106q104 -115 104 -274q0 -195 -143 -322
t-350 -127q-135 0 -235 42t-153 111q-102 135 -102 291z" />
    <glyph glyph-name="afii10093_afii10078" unicode="&#x44b;&#x43c;" horiz-adv-x="3112" 
d="M2662 0q-8 0 -8 10q2 182 2 391l21 222l-260 -605q-6 -16 -27 -16h-51q-16 0 -25 16l-205 521q-39 -315 -164 -441q-126 -125 -372 -141q-103 -8 -193 8q-90 15 -167 75t-105 153t-26 256q1 164 -1 217q-4 121 -57 120q-53 0 -86 -106q104 -115 104 -274
q0 -195 -143 -322t-350 -127q-135 0 -235 42t-153 111q-102 135 -102 291v621l9 10h395q8 -2 8 -12v-225q87 14 183 14t194 -57q54 164 156 242t214 77q112 0 195 -94q82 -94 82 -244q0 -348 1 -435t28 -125q28 -37 64 -17t67 92q88 209 90 772l8 10h422l10 -8l185 -383h6
l200 385q2 6 11 6h458q7 0 7 -8l16 -1012l-8 -10h-398zM655 416q0 90 -38 143t-105 53q-20 0 -41 -4v-250q4 -164 88 -163q96 0 96 221z" />
    <glyph glyph-name="f_r" unicode="fr" horiz-adv-x="1607" 
d="M641 1230q-1 124 -85 124q-48 0 -70 -39q-42 -75 44 -285l304 2q211 0 288 -178h2q18 100 104 160t177 59q91 0 155 -60t64 -176t-74 -187t-182 -70q-32 0 -64 14t-40 28t-5 36t3 36q0 90 -43 90q-70 0 -70 -231l8 -543l-8 -10h-412q-8 0 -8 10q2 152 4 619
q0 127 -42 168t-148 43l-2 -2v-826l-9 -12h-395q-8 2 -8 10v828h-115q-8 0 -8 10v174l8 8h117q-49 364 273 466q83 26 178 26q174 0 277 -78t104 -182q3 -76 -51 -128q-84 -82 -233 -40q-46 12 -52 22q-4 14 5 40t9 74z" />
    <glyph glyph-name=".notdef" horiz-adv-x="509" 
 />
    <glyph glyph-name=".null" horiz-adv-x="0" 
 />
    <glyph glyph-name="nonmarkingreturn" horiz-adv-x="681" 
 />
    <glyph glyph-name="space" unicode=" " horiz-adv-x="509" 
 />
    <glyph glyph-name="exclam" unicode="!" horiz-adv-x="544" 
d="M240 1538q128 0 206 -85t78 -230t-22 -315t-79 -315q-56 -144 -132 -144q-126 0 -168 457q-8 90 -10 188t-25 164t-46 80q-24 14 -40 26t-10 29q18 51 92 98t156 47zM500 163q0 -83 -58 -143t-143 -59q-84 0 -142 59q-59 58 -59 142t60 143t141 59t141 -58
q60 -60 60 -143z" />
    <glyph glyph-name="quotedbl" unicode="&#x22;" horiz-adv-x="808" 
d="M778 1288q0 -128 -62 -270t-118 -141q-56 0 -118 142q-62 141 -62 269t56 190t124 62t124 -62t56 -190zM391 1288q0 -128 -62 -270q-61 -142 -117 -141q-56 0 -119 142q-62 141 -62 269t56 190t124 62t124 -62t56 -190z" />
    <glyph glyph-name="numbersign" unicode="#" horiz-adv-x="1208" 
d="M659 418q45 135 68 200q-63 2 -192 3q-35 -111 -66 -201q127 0 190 -2zM180 0v6q4 10 16 44l33 102q23 68 39 118h-250l-6 9l45 135q2 6 11 6h249q53 156 68 201h-258l-6 8l45 135q2 8 10 8q125 0 260 -2l84 252l12 10h134l4 -10q-35 -106 -84 -252h190l86 252l10 10h134
l6 -10q-37 -109 -84 -254h262l6 -8l-43 -133q-4 -8 -14 -9h-262q-23 -66 -68 -200h272l6 -8l-43 -134q-4 -8 -14 -8h-270q-75 -234 -88 -260l-10 -8h-140q-3 3 86 268q-127 0 -190 2q-80 -242 -86 -262l-10 -8h-142z" />
    <glyph glyph-name="dollar" unicode="$" horiz-adv-x="1024" 
d="M616 750q0 122 -102 116q-43 -2 -68 -32q-24 -30 -24 -70q0 -39 35 -70t100 -56t121 -36q326 -96 326 -313q0 -131 -96 -210t-244 -108l18 -127l-6 -10l-121 -6q-10 0 -10 10q4 37 4 119q-20 -2 -60 -2h-32l4 -117l-8 -10l-121 6l-8 10q6 53 14 123q-135 25 -226 87
q-92 62 -92 154t54 145q83 82 235 43q47 -11 53 -21q6 -9 8 -21t-1 -32q-2 -20 -2 -33q1 -59 33 -92t85 -33q102 0 107 92q0 66 -90 104q-45 19 -106 38q-62 19 -87 28q-117 41 -193 118t-79 189v6q0 117 87 199t218 117l-18 135l8 12l121 6q8 0 6 -24t-2 -111h28
q43 0 66 -2l-6 127l8 10l121 -6l8 -10q-8 -59 -16 -137q128 -27 208 -90t81 -149t-51 -136q-52 -51 -142 -51q-47 0 -92 12t-52 26t-5 41q3 27 3 42z" />
    <glyph glyph-name="percent" unicode="%" horiz-adv-x="1515" 
d="M1145 242q0 -125 57 -125t58 125q0 125 -60 125q-55 0 -55 -125zM258 782q0 -125 57 -125t58 125q0 125 -60 125q-55 0 -55 -125zM895 242q0 120 84 200t224 80t222 -80t82 -200t-82 -200q-82 -79 -223 -79t-224 79t-83 200zM840 244q0 -54 12 -94t19 -66q7 -25 1 -35
q-61 -57 -136 -75q-144 -35 -239 65q-96 101 -20 299l281 567h-164q27 -59 27 -123q0 -122 -82 -200q-81 -78 -223 -78t-225 79t-83 199t84 201q84 80 221 80l901 -4l3 -8q-261 -498 -319 -625q-58 -128 -58 -182z" />
    <glyph glyph-name="ampersand" unicode="&#x26;" 
d="M440 280q0 -111 103 -104q55 4 95 70t32 172h-78q-78 0 -115 -45t-37 -93zM1223 184q64 0 39 -53q-90 -186 -286 -186t-265 170q-68 -95 -188 -137q-121 -42 -233 -28t-196 96q-84 81 -84 212q0 215 250 281q-188 51 -188 217q0 88 48 154t128 99q151 64 319 64
q169 0 307 -51q74 -27 120 -80t47 -125q1 -73 -60 -111t-130 -38t-114 11t-51 20q-9 14 -7 22q3 8 3 35q0 109 -115 108q-53 0 -82 -35t-29 -81t30 -83q28 -38 83 -38h686q6 0 7 -11v-186l-9 -10h-215v-8q0 -70 6 -113t41 -74t68 -36t70 -5z" />
    <glyph glyph-name="quotesingle" unicode="'" horiz-adv-x="421" 
d="M391 1346q0 -132 -75 -218q-76 -86 -158 -116t-82 10q0 18 35 50q99 90 32 118q-46 19 -80 63q-33 45 -33 112t53 120q52 53 127 53t128 -55t53 -137z" />
    <glyph glyph-name="parenleft" unicode="(" horiz-adv-x="442" 
d="M303 569q0 -262 29 -482t57 -316l29 -95q8 -34 -5 -38t-40 26q-47 40 -114 137q-68 97 -116 194q-47 97 -85 252t-38 321t36 326q36 159 88 262q105 208 192 300l37 37q25 31 39 28t6 -40q-12 -35 -32 -104t-51 -307q-32 -238 -32 -501z" />
    <glyph glyph-name="parenright" unicode=")" horiz-adv-x="483" 
d="M160 569q0 263 -29 493t-57 324l-29 95q-8 37 6 40t39 -28q44 -38 113 -139t116 -200t85 -259t38 -327q0 -166 -36 -318t-88 -250q-106 -197 -191 -283l-37 -32q-27 -31 -40 -27t-5 39q11 33 31 99t52 288q32 223 32 485z" />
    <glyph glyph-name="asterisk" unicode="*" horiz-adv-x="733" 
d="M268 1422q0 70 49 102q49 33 99 0q50 -32 49 -104q0 -72 -25 -142q52 40 116 62t101 2q37 -19 51 -54t-9 -75t-85 -59t-125 -15q59 -45 95 -90q38 -55 30 -95t-36 -66q-28 -24 -73 -14q-46 10 -82 60t-56 123q-17 -63 -55 -117t-84 -66q-46 -10 -74 15q-71 65 -4 160
q39 51 94 90q-62 -4 -124 15t-86 59t-9 75q14 35 51 54t98 -1t121 -65q-27 76 -27 146z" />
    <glyph glyph-name="plus" unicode="+" horiz-adv-x="956" 
d="M909 432q0 -6 -8 -6h-326v-324l-6 -10h-182q-8 0 -8 8v326h-322l-10 8v172q0 10 10 10h322l2 322l8 10h178q8 0 8 -10v-322h324l10 -8v-176z" />
    <glyph glyph-name="comma" unicode="," horiz-adv-x="462" 
d="M432 152q0 -146 -83 -242t-175 -128t-92 9q0 20 38 55q109 101 47 126q-62 26 -99 76t-37 124t58 133t141 59q82 0 142 -60q60 -62 60 -152z" />
    <glyph glyph-name="hyphen" unicode="-" horiz-adv-x="753" 
d="M690 428q0 -6 -8 -6h-610l-11 8v176q2 10 13 10h608l8 -8v-180z" />
    <glyph glyph-name="period" unicode="." horiz-adv-x="462" 
d="M432 164q0 -82 -58 -141t-142 -59t-143 58q-58 60 -58 142t58 141t142 59q85 0 143 -58q58 -60 58 -142z" />
    <glyph glyph-name="slash" unicode="/" horiz-adv-x="833" 
d="M195 -350l-13 -8h-174l-6 2v6l621 1823l12 10h172l4 -10q-583 -1719 -616 -1823z" />
    <glyph glyph-name="zero" unicode="0" horiz-adv-x="1124" 
d="M426 569q0 -401 131 -401q90 0 115 136q20 112 20 265q0 401 -135 402q-131 -1 -131 -402zM1094 588q0 -138 -34 -246q-123 -389 -522 -389q-151 0 -275 91q-238 175 -238 525q0 248 141 431t391 184q168 0 294 -91q127 -91 185 -229t58 -276z" />
    <glyph glyph-name="one" unicode="1" horiz-adv-x="561" 
d="M500 1178v-1168l-8 -10h-396q-8 0 -8 10v819q0 149 -52 199q-22 20 -26 28t8 19q12 10 43 17l433 96q6 0 6 -10z" />
    <glyph glyph-name="two" unicode="2" horiz-adv-x="1013" 
d="M961 0h-900l-10 8v299q0 6 6 8q145 59 338 245t193 300q0 115 -101 115q-53 0 -87 -34t-33 -93q0 -14 3 -42t-5 -42q-9 -12 -55 -24t-95 -13q-86 0 -140 55t-53 141t83 151q140 110 402 110q261 0 408 -138q82 -77 82 -194t-111 -232q-168 -175 -419 -288l-31 -15l-6 -2
q209 2 531 2l8 -8v-301q2 -8 -8 -8z" />
    <glyph glyph-name="three" unicode="3" horiz-adv-x="1019" 
d="M999 328q0 -276 -334 -356q-85 -19 -165 -19q-158 0 -304 54q-77 28 -126 84q-50 56 -50 134t54 132q54 55 120 55q68 0 115 -14t53 -23t8 -23q1 -14 -1 -36t-2 -37q-1 -57 29 -86t80 -29t87 42t37 106t-47 121q-47 56 -168 56h-70q-8 0 -8 11v164q0 8 4 8l283 149h-516
l-8 8v299q0 8 10 9h881l10 -7v-301q0 -6 -4 -8l-314 -166l-2 -2q141 -20 245 -103t103 -222z" />
    <glyph glyph-name="four" unicode="4" horiz-adv-x="1056" 
d="M512 459v256q-150 -203 -195 -256h195zM1038 158q0 -8 -10 -8h-121v-144l-8 -10h-381l-8 10q0 57 -2 144h-475l-10 8v276q0 4 2 6q250 224 425 527q62 109 85 166v2l8 4h356q8 0 8 -11v-671h121l10 -8v-291z" />
    <glyph glyph-name="five" unicode="5" horiz-adv-x="1021" 
d="M31 225q0 78 53 132q52 55 120 55t115 -14t53 -24t8 -22q1 -12 -1 -36t-2 -37q0 -57 30 -86q31 -29 79 -29t82 42t34 99t-19 94t-75 67t-152 33q-98 3 -252 -10h-12q-8 0 -8 11v628q0 8 10 9h854q8 0 8 -7v-301q0 -8 -8 -8h-629v-131q293 55 488 -45t194 -317
q0 -102 -46 -178t-121 -117q-148 -80 -315 -80t-313 54q-77 28 -126 84t-49 134z" />
    <glyph glyph-name="six" unicode="6" horiz-adv-x="1050" 
d="M553 180q43 0 70 41q42 64 39 152q-8 193 -230 139q0 -332 121 -332zM977 929q0 -85 -49 -135t-140 -49q-47 -1 -91 13t-51 27t-4 40t3 39q0 117 -80 117q-71 2 -101 -80t-32 -213q270 78 436 -32t164 -296q0 -116 -53 -202t-134 -127q-150 -76 -282 -76q-252 2 -395 180
q-143 177 -140 441t150 439t389 173q176 -2 293 -88t117 -171z" />
    <glyph glyph-name="seven" unicode="7" horiz-adv-x="921" 
d="M907 829q0 -6 -28 -22t-89 -68q-61 -53 -105 -104t-81 -131t-38 -165q-2 -128 65 -182q19 -17 35 -23q34 -14 28 -36q-18 -51 -92 -98t-156 -47q-127 0 -214 83t-87 230q0 82 35 163q98 228 408 392h-572l-10 8v299q0 8 10 9h881l10 -7v-301z" />
    <glyph glyph-name="eight" unicode="8" horiz-adv-x="1085" 
d="M541 670q47 0 79 48t32 108t-31 103q-31 42 -80 42t-80 -43q-31 -42 -31 -102t32 -108t79 -48zM542 182q50 0 81 42t31 108t-32 119q-32 51 -80 51t-80 -51t-32 -118t31 -109t81 -42zM1055 322q0 -274 -321 -350q-85 -19 -181 -19h-21q-198 0 -341 80q-75 41 -117 115
t-43 174q1 98 65 166t166 100q-92 24 -147 92t-56 164q-1 176 135 259t338 83h21q273 0 403 -147q70 -79 70 -185t-55 -174q-56 -67 -148 -92q102 -31 167 -100q65 -68 65 -166z" />
    <glyph glyph-name="nine" unicode="9" horiz-adv-x="1044" 
d="M608 653q12 293 -120 289q-68 -2 -92 -60t-19 -110q10 -178 231 -119zM483 1184q250 0 390 -175q141 -175 141 -454t-140 -441t-391 -161q-171 0 -289 72t-124 178q-4 80 46 141t138 62q47 2 92 -12t53 -23q8 -15 5 -44q-3 -28 -3 -40q0 -123 91 -123q119 0 118 303
q-180 -61 -311 -25t-204 128q-73 94 -73 200q1 203 115 300q133 114 346 114z" />
    <glyph glyph-name="colon" unicode=":" horiz-adv-x="462" 
d="M432 164q0 -82 -58 -141t-142 -59t-143 58q-58 60 -58 142t58 141t142 59q85 0 143 -58q58 -60 58 -142zM432 711q0 -85 -58 -143t-142 -58t-143 58q-58 58 -58 142t58 143q58 58 142 58q85 0 143 -58t58 -142z" />
    <glyph glyph-name="semicolon" unicode=";" horiz-adv-x="462" 
d="M432 152q0 -146 -83 -242t-175 -128t-92 9q0 20 38 55q109 101 47 126q-62 26 -99 76t-37 124t58 133t141 59q82 0 142 -60q60 -62 60 -152zM432 711q0 -85 -58 -143t-142 -58t-143 58q-58 58 -58 142t58 143q58 58 142 58q85 0 143 -58t58 -142z" />
    <glyph glyph-name="equal" unicode="=" horiz-adv-x="1024" 
d="M954 233q0 -6 -8 -6h-876l-11 9v176q2 10 13 10h874l8 -8v-181zM954 582q0 -6 -8 -7h-876l-11 9v176q2 10 13 10h874l8 -8v-180z" />
    <glyph glyph-name="question" unicode="?" horiz-adv-x="612" 
d="M285 1331q-72 0 -76 -133q0 -12 3 -48t-4 -49t-57 -25t-120 -14q-70 -1 -117 47t-45 122q2 115 125 208q124 93 318 93t314 -101t119 -229q1 -72 -31 -135t-98 -152t-90 -135t-56 -116t-52 -108t-56 -73t-73 -34q-68 0 -114 104t-36 213t115 253q104 144 104 210
q2 37 -14 69t-59 33zM498 163q0 -83 -58 -143t-143 -59q-84 0 -142 59q-59 58 -59 142t58 143t143 59t143 -58q58 -60 58 -143z" />
    <glyph glyph-name="at" unicode="@" horiz-adv-x="1472" 
d="M711 324q51 0 79 54t27 138q0 84 -27 138q-28 54 -79 54t-79 -54t-28 -138t28 -138t79 -54zM597 129q-134 0 -209 117q-75 116 -75 272t75 268t210 113q135 0 211 -135v98l6 8h285q6 0 6 -6l-10 -438q10 -90 80 -90q53 0 91 66t38 163q0 95 -34 187q-79 212 -278 298
q-113 48 -254 48q-255 0 -413 -178t-158 -412q0 -150 55 -266q97 -205 326 -278q97 -32 205 -32t210 25t142 40q39 15 42 7t-7 -28q-28 -57 -122 -113t-286 -58q-301 0 -507 207t-206 502t206 502t511 207q305 1 511 -183t202 -479q-2 -195 -126 -317t-273 -121
q-150 0 -218 128q-11 19 -20 38q-82 -160 -216 -160z" />
    <glyph glyph-name="A" unicode="A" horiz-adv-x="1411" 
d="M561 504h240l-121 594q-20 -86 -64 -310t-55 -284zM930 0q-10 0 -12 10l-52 217h-362l-45 -217q-5 -10 -13 -10h-430l-4 10q352 1102 353 1104q39 113 30 155q-8 41 -26 69t-15 42q18 58 110 100t196 42q106 0 208 -81t160 -239t297 -948l74 -244l-6 -10h-463z" />
    <glyph glyph-name="B" unicode="B" horiz-adv-x="1320" 
d="M686 201q84 0 131 59t47 160q0 137 -104 207t-250 41v-265q8 -202 176 -202zM774 1108q0 123 -84 160t-180 12v-387q135 0 200 62q64 63 64 153zM655 -45q-131 0 -235 38q-193 70 -281 237q-76 143 -78 321v883q0 12 11 12q219 63 549 63q218 0 385 -73q88 -39 140 -115
t52 -178t-53 -190q-54 -86 -117 -111q-12 -8 2 -13q129 -45 200 -150q70 -105 70 -228t-53 -223t-145 -157q-92 -58 -204 -87t-243 -29z" />
    <glyph glyph-name="C" unicode="C" horiz-adv-x="1314" 
d="M20 736q0 318 202 544t515 229q239 2 393 -103t154 -271q0 -90 -61 -162t-166 -72q-68 0 -114 22t-44 52q17 113 -19 195t-128 81q-92 0 -158 -90t-92 -211t-10 -227q24 -188 114 -303q90 -114 207 -140t242 7t221 119q41 35 39 -13q-14 -101 -94 -207q-45 -60 -105 -107
q-60 -48 -162 -84q-100 -36 -219 -38q-299 -6 -507 227q-208 234 -208 552z" />
    <glyph glyph-name="D" unicode="D" horiz-adv-x="1345" 
d="M512 1278v-1100q178 -8 271 158t93 384t-84 395q-42 85 -115 131t-165 32zM588 1501q332 0 536 -221t205 -554q-1 -333 -195 -553t-542 -220q-150 0 -280 15t-185 32l-55 14q-10 0 -11 13v1405q0 12 11 12q184 57 516 57z" />
    <glyph glyph-name="E" unicode="E" horiz-adv-x="1107" 
d="M516 618v-147q2 -94 66 -143q112 -86 321 -35q87 20 144 57q31 18 43 4t6 -55q-13 -89 -135 -209q-59 -57 -159 -96t-216 -39q-250 0 -387 164t-138 393l2 944l13 10h977q25 0 26 -74q2 -74 -9 -114q-11 -41 -51 -87q-87 -100 -269 -100q-98 -1 -164 11l-66 12l-2 -270
h338l10 -10v-205l-12 -11h-338z" />
    <glyph glyph-name="F" unicode="F" horiz-adv-x="1079" 
d="M860 625q0 -11 -12 -11h-336v-182q4 -175 58 -234q22 -24 41 -35t31 -19t5 -23q-20 -59 -103 -113t-171 -53q-135 0 -223 89t-89 269l2 1141l11 10h975q12 0 16 -10t8 -26t5 -63q1 -46 -10 -87t-52 -87t-108 -75t-165 -30t-161 12l-66 14l-2 -258h334l12 -12v-217z" />
    <glyph glyph-name="G" unicode="G" horiz-adv-x="1345" 
d="M1069 768q125 0 196 -83t71 -235t-9 -226q-8 -74 -15 -80q-72 -57 -152 -94q-193 -93 -415 -93q-303 0 -509 231q-206 232 -207 550q0 318 201 546q202 227 518 229q242 2 396 -103t152 -271q0 -90 -61 -163t-166 -73q-70 0 -116 22t-44 52q17 113 -19 195t-128 83
q-92 0 -156 -91t-88 -210q-24 -118 -18 -198t13 -127t34 -120t67 -124t113 -89q74 -38 170 -34q10 117 -2 193q-13 75 -33 97t-35 38q-14 16 -8 33q20 53 94 99t156 46z" />
    <glyph glyph-name="H" unicode="H" horiz-adv-x="1406" 
d="M264 1522q125 0 209 -83t84 -247l-2 -297h356l-4 557l11 10h425l9 -10l-2 -1442l-11 -10h-424l-8 10l4 590h-360l2 -590l-10 -10h-422l-8 10q4 1118 4 1120q-8 82 -32 132t-47 62q-24 10 -38 20t-8 26q18 52 102 102t170 50z" />
    <glyph glyph-name="I" unicode="I" horiz-adv-x="636" 
d="M272 1513q131 1 217 -81t86 -246v-1176l-10 -10h-436l-8 10v1112q-12 133 -61 175q-19 17 -37 27t-27 18q-8 7 -4 22q18 53 105 101t175 48z" />
    <glyph glyph-name="J" unicode="J" horiz-adv-x="958" 
d="M410 -41q-188 0 -294 83q-105 83 -106 196q0 84 60 150t147 65q53 -1 107 -13t57 -26q4 -14 -5 -52t-9 -92q0 -131 71 -131q88 0 88 125q0 70 -38 175t-37 188v512q-4 75 -27 119t-48 56q-26 11 -42 22t-10 28q18 53 105 101t175 48q129 -1 211 -81t82 -246v-57l-2 -519
q0 -651 -485 -651z" />
    <glyph glyph-name="K" unicode="K" horiz-adv-x="1417" 
d="M272 1513q131 1 217 -81t86 -246v-334q106 0 176 95q69 95 66 223q-2 128 -78 216q-14 14 16 46t91 56q61 26 125 25q127 0 209 -92t82 -223q0 -291 -308 -450q16 -63 58 -147q43 -85 88 -151t124 -132q79 -68 171 -103q8 -15 2 -67q-5 -52 -69 -115t-152 -74
q-387 -43 -506 469q-12 51 -37 213q-8 -2 -58 -8v-623l-10 -10h-436l-8 10v1112q-12 133 -61 175q-19 17 -37 27t-27 18q-8 7 -4 22q18 53 105 101t175 48z" />
    <glyph glyph-name="L" unicode="L" horiz-adv-x="1083" 
d="M272 1513q131 1 217 -81t86 -246v-867h35q204 1 266 19q118 35 123 49q3 8 15 11t14 -5q43 -32 52 -107q27 -223 -185 -306q-93 -38 -272 -23q-338 43 -494 43l-8 10v1112q-12 133 -61 175q-19 17 -37 27t-27 18q-8 7 -4 22q18 53 105 101t175 48z" />
    <glyph glyph-name="M" unicode="M" horiz-adv-x="1722" 
d="M922 258h-58q-25 0 -28 8l-336 617l39 -191l12 -682l-10 -10h-432l-11 10q14 1118 14 1152t-19 87q-18 53 -69 82q-16 9 -26 17t-4 22q18 52 114 102t181 50q84 0 140 -23t103 -73t76 -94q90 -137 250 -451l29 -60l352 631l14 10h396l10 -10l6 -1442l-12 -10h-418l-10 10
l6 656l39 211l-322 -611q-4 -8 -26 -8z" />
    <glyph glyph-name="N" unicode="N" horiz-adv-x="1425" 
d="M300 1522q104 0 176 -62t163 -198q215 -367 315 -586l-20 196l-10 582l8 10h426q10 0 10 -10l-6 -1444l-10 -10h-377q-8 -2 -14 10l-435 854l19 -170l18 -684l-10 -10h-438l-11 10q12 1118 13 1120q-4 80 -27 130t-47 61q-25 12 -40 22t-9 27q20 52 111 102t195 50z" />
    <glyph glyph-name="O" unicode="O" horiz-adv-x="1454" 
d="M728 1280q-108 0 -176 -174t-69 -372q0 -198 70 -373t176 -175q76 0 134 87q114 171 114 458q0 201 -70 375q-71 174 -179 174zM1440 730q0 -325 -195 -549t-513 -224t-515 225t-197 549t198 551t512 227t512 -227t198 -552z" />
    <glyph glyph-name="P" unicode="P" horiz-adv-x="1204" 
d="M764 1038q0 119 -74 191t-186 53v-543q116 0 188 90t72 209zM1190 1034q0 -155 -83 -278q-48 -72 -122 -123t-198 -81t-283 -24v-98q5 -220 98 -269q20 -11 30 -19t5 -23q-20 -59 -103 -113t-172 -53q-135 0 -222 89t-87 269l2 1121l11 10q89 26 245 46q156 19 293 15
q252 -8 419 -131t167 -338z" />
    <glyph glyph-name="Q" unicode="Q" horiz-adv-x="1419" 
d="M709 188q12 0 18 2q-68 117 -164 99q60 -101 146 -101zM710 1278q-75 0 -127 -88q-98 -166 -98 -426t37 -373q193 57 340 -96q35 67 54 193q20 126 20 250q1 285 -98 452q-53 88 -128 88zM709 -41q-209 0 -368 108q-159 107 -240 281t-81 385t81 386t240 283t368 107
q313 0 502 -225t190 -551q0 -221 -89 -406t-249 -278q45 -66 88 -65q111 0 166 129q14 35 63 -4q26 -21 54 -75t34 -126q8 -113 -68 -194t-170 -88q-177 -13 -269 99q-76 91 -132 242q-51 -8 -120 -8z" />
    <glyph glyph-name="R" unicode="R" horiz-adv-x="1298" 
d="M510 772q118 0 186 83t68 201t-70 180t-184 44v-508zM510 561v-549l-8 -12h-430q-10 0 -11 12v1418l11 10q89 26 245 46q156 19 293 15q250 -8 415 -130t165 -339q0 -133 -72 -256t-215 -182q110 -264 389 -391q23 -46 -52 -153q-24 -34 -68 -62t-99 -33
q-153 -17 -265 63q-207 149 -239 543h-59z" />
    <glyph glyph-name="S" unicode="S" horiz-adv-x="1304" 
d="M238 539q58 -1 124 -21t78 -37q5 -14 -1 -50q-5 -36 -5 -56q2 -125 95 -176t187 -8q93 44 95 153q0 120 -207 203q-335 134 -430 203q-141 104 -149 276q-6 137 83 250t225 172t281 63q256 6 427 -88t171 -272q2 -109 -56 -171t-177 -62q-63 0 -115 16t-59 33q-2 18 3 65
t5 68q4 63 -28 107q-56 77 -175 63q-49 -6 -86 -45t-41 -97q1 -185 361 -294q451 -137 450 -431q0 -121 -62 -212t-164 -140q-205 -98 -431 -97t-399 71q-94 37 -156 109q-60 73 -68 167t57 166t167 72z" />
    <glyph glyph-name="T" unicode="T" horiz-adv-x="1302" 
d="M711 -41q-131 0 -218 84t-87 254l14 836q-207 4 -373 -29q-8 0 -14 6v4q-12 12 -18 74q-5 61 2 105t43 92t112 88q76 39 178 43t336 -18t440 -23l134 2q26 -2 29 -85t-8 -128t-51 -90q-86 -97 -337 -76l-47 6l12 -694q4 -104 28 -166t50 -76q27 -14 43 -26t10 -27
q-18 -55 -104 -105t-174 -51z" />
    <glyph glyph-name="U" unicode="U" horiz-adv-x="1429" 
d="M137 500v526q0 206 -80 271q-21 17 -37 23q-35 12 -28 34q20 55 98 104t164 49q137 0 235 -90t99 -237v-789q0 -65 33 -109q61 -80 170 -57q45 9 77 55t33 113v1059l8 12h451q8 -2 8 -10q-6 -688 -4 -948q0 -119 -41 -217q-41 -97 -112 -161q-163 -146 -356 -165
q-240 -24 -398 52q-92 43 -164 107t-114 162t-42 216z" />
    <glyph glyph-name="V" unicode="V" horiz-adv-x="1359" 
d="M63 1452q0 8 11 14h444q8 -4 8 -16v-946q0 -123 40 -198t123 -75t146 118q62 118 62 372t-75 393q-47 86 -92 136q-46 49 -46 63q0 57 86 136t211 79q162 0 264 -166q103 -166 103 -476q1 -496 -202 -736q-73 -86 -190 -140t-251 -55q-257 0 -442 146q-91 73 -146 196
t-56 281q2 0 2 874z" />
    <glyph glyph-name="W" unicode="W" horiz-adv-x="2050" 
d="M805 1452q0 8 6 14h430q8 -4 8 -16v-979q0 -260 140 -260q84 0 134 124t50 312q0 324 -75 467q-50 92 -94 138q-45 47 -44 61q0 57 86 136t211 79q162 0 264 -166t102 -508q0 -662 -385 -843q-117 -54 -266 -54q-283 0 -426 201q-111 -199 -391 -199q-227 0 -360 176
t-134 434v883q0 10 9 14h440q14 -2 14 -16v-1038q0 -143 88 -179q74 -31 134 35t59 178v1006z" />
    <glyph glyph-name="X" unicode="X" horiz-adv-x="1449" 
d="M877 0q-13 0 -13 8l-2 2l-287 541q-63 -49 -79 -115t6 -125q44 -116 94 -161q12 -16 -12 -62t-88 -89q-66 -44 -152 -44q-133 0 -230 95q-98 95 -108 243t115 292t334 206l-414 661q-6 14 10 14h518q7 0 15 -8l280 -547q68 43 88 115t1 140t-47 121q-28 52 -48 71
q-2 6 -2 20t15 36q61 89 203 103q142 13 246 -76t118 -241q16 -152 -108 -298t-337 -212l441 -680q8 -10 -4 -10h-553z" />
    <glyph glyph-name="Y" unicode="Y" horiz-adv-x="1368" 
d="M764 -47q-135 0 -223 87q-88 86 -88 282t-2 292l-449 836l8 16h492q10 0 14 -12l252 -625q84 125 104 268t13 208q-6 65 -11 100l-4 33q-2 49 118 80q120 32 243 -28t129 -230q0 -96 -33 -188t-74 -153q-41 -62 -112 -131q-72 -68 -118 -102t-120 -86v-174
q5 -217 99 -269q18 -11 30 -19t6 -23q-18 -57 -102 -109t-172 -53z" />
    <glyph glyph-name="Z" unicode="Z" horiz-adv-x="1251" 
d="M53 299q0 25 19 45q16 20 211 295t273 343q45 40 99 75q54 36 70 47l18 10q-358 20 -696 -45q-8 0 -12 8q-14 14 -20 81q-5 67 3 114t44 97t113 91t187 41q110 1 357 -23q246 -24 485 -24q12 0 17 -10l-2 -297q0 -22 -15 -37q-186 -241 -307 -414t-174 -232t-141 -120
l-33 -25h219q225 0 312 35q86 35 86 43q1 4 20 -4q43 -32 52 -107q27 -223 -185 -306q-93 -38 -273 -23q-106 15 -338 29t-381 14l-8 10v289z" />
    <glyph glyph-name="bracketleft" unicode="[" horiz-adv-x="624" 
d="M573 -188q8 0 9 -7v-165q2 -8 -7 -9l-503 2l-11 9v1833q2 10 13 10h499l9 -8v-166q2 -8 -7 -8q-182 0 -317 2v-1493h315z" />
    <glyph glyph-name="backslash" unicode="\" horiz-adv-x="833" 
d="M180 1483q10 0 13 -10q596 -1751 620 -1823q0 -8 -6 -8h-174q-8 -2 -12 8l-617 1823l4 10h172z" />
    <glyph glyph-name="bracketright" unicode="]" horiz-adv-x="595" 
d="M360 -188v1493q-135 -2 -317 -2l-6 8v166q-2 8 8 8h500l12 -10v-1833l-10 -9q-430 -2 -504 -2l-6 9v165q6 1 8 7h315z" />
    <glyph glyph-name="underscore" unicode="_" horiz-adv-x="974" 
d="M926 -190q0 -6 -8 -7h-857l-10 9v176q2 10 12 10h855l8 -8v-180z" />
    <glyph glyph-name="grave" unicode="`" horiz-adv-x="557" 
d="M8 1505q-4 10 4 17q102 123 264 161q8 2 13 -4q35 -139 91 -232t167 -204q8 -8 2 -14q-37 -63 -84 -101q-4 -2 -16 2q-304 107 -441 375z" />
    <glyph glyph-name="a" unicode="a" horiz-adv-x="1263" 
d="M596 240q72 0 113 78t41 198q0 121 -41 200t-113 79t-113 -79t-41 -200q0 -120 41 -198t113 -78zM1151 427q-1 -126 21 -193q22 -66 47 -80t41 -26t10 -28q-16 -53 -90 -99t-168 -46t-170 62t-97 171q-121 -231 -323 -231q-123 0 -217 84t-139 209t-46 266q0 225 111 390
t305 165t301 -194v141l11 12h409q8 -2 8 -10q-14 -467 -14 -593z" />
    <glyph glyph-name="b" unicode="b" horiz-adv-x="1210" 
d="M616 238q72 0 113 78t41 200q0 121 -41 199t-113 78t-112 -78t-41 -199q1 -122 41 -200t112 -78zM475 1462v-606q117 219 307 219t300 -169q108 -169 108 -392t-110 -388t-304 -165t-301 195v-144l-10 -12h-395q-8 2 -9 10v1452l9 8h397q8 -3 8 -8z" />
    <glyph glyph-name="c" unicode="c" horiz-adv-x="1067" 
d="M580 -43q-233 0 -397 164q-163 164 -163 392t155 389t388 171q187 0 323 -75t136 -212q2 -78 -55 -141t-144 -63q-47 0 -92 12t-52 25t-4 40t3 41q0 62 -28 102t-70 40q-78 0 -120 -102t-31 -214q11 -114 55 -183q77 -120 234 -116q158 4 302 88q17 12 28 2q11 -11 4 -41
q-16 -69 -130 -187q-54 -56 -146 -94t-196 -38z" />
    <glyph glyph-name="d" unicode="d" horiz-adv-x="1243" 
d="M574 795q-74 0 -114 -79t-40 -199q0 -121 40 -199t114 -78q73 0 114 78t41 198q0 121 -41 200t-114 79zM1145 414q0 -220 77 -271q17 -12 25 -19t2 -22q-16 -53 -90 -99q-73 -46 -167 -46t-171 62q-76 62 -96 171q-121 -233 -324 -233q-123 0 -217 84t-139 209t-45 266
q0 225 110 390t304 165t303 -194v585l10 11h410q8 0 8 -9v-1050z" />
    <glyph glyph-name="e" unicode="e" horiz-adv-x="1105" 
d="M588 840h-6q-138 -28 -156 -258q133 -12 203 32t69 129q0 43 -30 72q-31 29 -78 27q0 -2 -2 -2zM578 -43q-231 0 -395 164q-163 164 -163 395t163 394t407 163t369 -114q126 -113 126 -235t-62 -199q-61 -77 -157 -103q-228 -63 -424 -21q52 -151 230 -173t364 87
q15 10 28 1q13 -8 4 -38q-23 -74 -139 -189q-59 -56 -153 -94t-198 -38z" />
    <glyph glyph-name="f" unicode="f" horiz-adv-x="837" 
d="M645 1251q0 106 -78 107q-140 0 -62 -246q13 -43 30 -82h282q8 0 8 -10v-172l-8 -10h-272v-826l-8 -12h-396q-8 2 -8 10v828h-115q-8 0 -8 10v174l8 8h117q-6 132 29 232t102 154q133 106 315 106q181 0 283 -70t103 -170q1 -76 -53 -129t-136 -53q-47 0 -94 14t-53 23
q-4 14 5 38t9 76z" />
    <glyph glyph-name="g" unicode="g" horiz-adv-x="1220" 
d="M440 517q0 -119 41 -195t114 -76t114 76t41 194t-41 199q-41 80 -114 80t-114 -79t-41 -199zM592 -494q-104 0 -192 32t-142 80q-101 92 -121 153t-21 89t6 35t20 5t41 -28t60 -56t95 -53q63 -24 141 -23q117 0 189 77t75 177v182q-51 -100 -134 -156t-187 -57
q-184 0 -293 166t-109 389t110 388t306 165t303 -199v146l9 10h395q8 0 8 -10q6 -653 6 -903q10 -273 -138 -441t-427 -168z" />
    <glyph glyph-name="h" unicode="h" horiz-adv-x="1230" 
d="M1102 418q0 -176 54 -235q22 -24 44 -36t32 -20q11 -8 7 -23q-18 -51 -92 -97t-156 -46q-129 0 -215 85t-86 226v398q0 109 -63 118q-59 10 -103 -62t-45 -165v-549l-8 -12h-395q-8 2 -8 10q-6 1233 -7 1454l9 9h403q0 -6 6 -9v-618q63 117 157 173t198 56t186 -94
t82 -244v-319z" />
    <glyph glyph-name="i" unicode="i" horiz-adv-x="585" 
d="M510 1320q0 -79 -71 -134q-71 -56 -169 -56t-168 56t-70 134q0 79 70 135t168 56t169 -56t71 -135zM240 1075q128 0 206 -84t78 -227v-752l-8 -12h-410q-10 2 -10 10q16 467 16 593t-21 193q-22 67 -46 81q-25 14 -42 25t-11 28q18 53 92 99t156 46z" />
    <glyph glyph-name="j" unicode="j" horiz-adv-x="626" 
d="M586 1320q0 -78 -70 -134t-169 -56t-169 56t-70 134q0 79 70 135t169 56t169 -56t70 -135zM553 1020v-954q0 -606 -453 -607q-172 0 -269 77t-97 181q0 79 54 141t136 62q47 0 94 -12t52 -25q4 -14 -6 -49t-9 -84q0 -123 74 -123q80 0 80 117q0 64 -34 162t-34 176v936
l9 12h395q8 -2 8 -10z" />
    <glyph glyph-name="k" unicode="k" horiz-adv-x="1230" 
d="M479 1464v-600q59 104 153 158t206 53q112 0 192 -82t91 -185t-53 -198q-65 -94 -198 -114v-4q61 -152 210 -272q62 -50 107 -72t54 -32q9 -11 -27 -51t-114 -75t-168 -35t-167 40t-119 96t-78 152t-38 210q0 45 23 45q152 0 190 112q27 82 -22 150q-31 41 -78 41
q-84 0 -122 -66t-42 -151v-572l-8 -12h-395q-8 2 -8 10q-6 1233 -7 1454l9 9h401q8 -4 8 -9z" />
    <glyph glyph-name="l" unicode="l" horiz-adv-x="604" 
d="M348 -45q-127 0 -207 85t-80 226v1196l11 11h409l8 -11q3 -909 3 -1035t22 -193q22 -66 46 -80t41 -26t11 -28q-18 -51 -99 -98t-165 -47z" />
    <glyph glyph-name="m" unicode="m" horiz-adv-x="1865" 
d="M1739 418q0 -176 54 -235q22 -24 42 -36q21 -12 33 -20t6 -23q-18 -51 -92 -97t-156 -46q-127 0 -214 85t-87 226v398q0 111 -59 118q-54 8 -94 -64t-39 -163v-37l16 -512l-10 -12h-410l-8 10l-2 514v146q0 111 -60 118q-55 8 -94 -64t-39 -163v-549l-10 -12h-410
q-8 2 -8 10q14 467 14 593t-21 193q-22 67 -46 81q-25 14 -41 25t-10 28q16 53 90 99t170 46t170 -62q76 -62 96 -173q60 121 150 178t184 57q94 1 169 -65t99 -179q58 125 150 185t198 59q106 0 187 -94q82 -94 82 -244v-319z" />
    <glyph glyph-name="n" unicode="n" horiz-adv-x="1273" 
d="M1034 -39q-127 0 -214 85t-87 226v398q0 106 -60 117t-108 -64q-39 -68 -41 -162v-549l-10 -12h-410q-8 2 -8 10q16 467 16 593t-21 193q-22 67 -47 81q-26 14 -42 25t-10 28q16 53 90 99t170 46q96 -1 170 -65q76 -64 96 -174q62 123 158 181t202 58t187 -94
q82 -94 82 -244l-2 -319q0 -176 54 -235q21 -24 43 -36t34 -20t6 -23q-18 -51 -92 -97t-156 -46z" />
    <glyph glyph-name="o" unicode="o" horiz-adv-x="1187" 
d="M424 512q0 -141 43 -234q43 -94 129 -94t127 90t41 234t-43 235q-43 93 -128 93t-127 -92t-42 -232zM594 1067q246 0 410 -162q164 -163 163 -397q1 -234 -161 -394t-410 -161q-248 0 -412 162t-164 395t164 395t410 162z" />
    <glyph glyph-name="p" unicode="p" horiz-adv-x="1261" 
d="M668 238q72 0 112 78t41 200q0 121 -41 199q-40 78 -112 78t-113 -78t-41 -199q0 -122 41 -200t113 -78zM842 1075q182 0 291 -169t109 -392t-110 -388t-304 -165t-302 195v-594l-10 -13h-410l-8 11q-2 918 -2 1044t-18 192q-18 67 -41 81t-37 25t-8 28q18 53 92 99
t168 46t170 -62t96 -171q121 233 324 233z" />
    <glyph glyph-name="q" unicode="q" horiz-adv-x="1196" 
d="M594 240q72 0 113 78t41 200q0 121 -41 199t-113 78t-113 -78t-41 -199q0 -122 41 -200t113 -78zM1149 1030q0 -6 6 -8v-1460l-8 -11h-395q-8 0 -9 11q-2 250 -2 604q-113 -207 -321 -207q-123 0 -216 83q-182 162 -184 476q0 225 110 390t308 165t305 -211v160l9 8h397z
" />
    <glyph glyph-name="r" unicode="r" horiz-adv-x="989" 
d="M784 1073q88 0 152 -60t63 -176q1 -116 -73 -187t-183 -70q-33 0 -65 14t-39 27q-8 13 -5 36t3 37q0 90 -43 90q-70 0 -70 -231v-543l-8 -10h-412q-8 0 -8 10q16 465 16 591t-21 193q-23 66 -47 80t-41 26t-11 28q18 53 92 99t167 46t167 -59t96 -164q42 100 112 162
t158 61z" />
    <glyph glyph-name="s" unicode="s" horiz-adv-x="1050" 
d="M633 750q0 122 -100 116q-49 -2 -75 -32t-26 -69q0 -38 35 -70t78 -47q43 -16 84 -28t45 -13t10 -2t10 -3q336 -96 336 -315q0 -117 -86 -196q-150 -138 -442 -138q-166 0 -308 56q-77 30 -125 84q-49 54 -49 129t56 129t143 55q49 0 98 -12t57 -24q8 -13 6 -42
q-3 -29 -3 -41q0 -59 34 -92t87 -33q106 0 110 92q0 43 -26 62q-56 43 -110 60q-56 17 -94 28q-170 49 -254 133q-85 84 -87 196v6q0 150 144 242t329 92q185 -1 328 -69t143 -197q2 -76 -52 -127t-147 -51q-51 0 -96 12t-52 26t-4 41t3 42z" />
    <glyph glyph-name="t" unicode="t" horiz-adv-x="778" 
d="M516 379q0 -199 147 -199l91 4q26 0 32 -16t-6 -37q-41 -82 -142 -134t-214 -52q-106 4 -182 47q-139 84 -140 274v572h-104q-8 0 -8 10v174l8 8h104v156l11 10l393 162l8 -10q2 -143 2 -318h250q6 0 6 -10v-172l-8 -10h-248v-459z" />
    <glyph glyph-name="u" unicode="u" 
d="M1147 427q-1 -126 21 -193q22 -66 46 -80t42 -26q17 -12 12 -28q-18 -53 -92 -99t-168 -46t-170 62t-97 173q-59 -121 -149 -178t-194 -57t-187 94q-82 94 -82 244v319q0 176 -54 235q-21 24 -43 36t-33 19t-7 22q18 53 92 99t156 46q129 0 216 -85t87 -226v-398
q0 -111 61 -118q53 -8 90 61t41 152v563l8 12h412q8 -2 8 -10q-16 -467 -16 -593z" />
    <glyph glyph-name="v" unicode="v" horiz-adv-x="1122" 
d="M788 1075q133 0 224 -114q90 -115 90 -361q0 -159 -60 -306q-37 -93 -95 -166q-57 -73 -161 -123t-239 -50h-12q-201 0 -348 116q-146 116 -146 339h2v610l8 10h395q8 -2 9 -12v-631q0 -104 17 -150t67 -47q74 0 126 81t52 225t-28 230q-28 87 -61 118q-34 32 -62 54
t-27 32q0 39 73 92q74 53 176 53z" />
    <glyph glyph-name="w" unicode="w" horiz-adv-x="1761" 
d="M1427 1075q133 0 224 -114q90 -115 90 -361q0 -159 -60 -306q-37 -93 -95 -166t-162 -123t-238 -50h-12q-246 0 -386 151q-115 -152 -321 -151q-157 0 -273 100t-145 262q-8 35 -8 86v617l8 10h400q10 -2 10 -12v-662q8 -166 110 -166q45 0 78 50t33 147l2 -2q-2 8 -2 25
h2v610l8 10h395q8 -2 9 -12v-631q0 -104 17 -150t67 -47q74 0 126 81t52 225t-28 230q-28 87 -61 118q-34 32 -62 54t-27 32q0 39 73 92q74 53 176 53z" />
    <glyph glyph-name="x" unicode="x" horiz-adv-x="1187" 
d="M1174 0h-453q-12 0 -16 10l-230 355q-61 -15 -71 -59t15 -85q23 -41 51 -79t28 -42q2 -53 -64 -99t-168 -46t-177 67t-79 173q-12 266 346 348l-333 477q-6 10 6 10h444q10 0 16 -10l230 -348q45 12 59 42t-6 76t-53 88q-32 42 -33 44q-2 51 64 97t149 46q121 0 197 -73
q76 -74 76 -182t-98 -188q-96 -80 -243 -114l349 -496q8 -12 -6 -12z" />
    <glyph glyph-name="y" unicode="y" horiz-adv-x="1218" 
d="M590 -463q-137 0 -245 56q-108 57 -154 115q-71 91 -78 182q-3 45 26 40q14 -2 42 -28t60 -57t95 -55t141 -23q117 -1 189 67t75 166v205q-57 -123 -148 -180t-195 -57t-187 93q-82 94 -82 244v307q0 176 -54 235q-21 24 -43 36t-33 19t-7 22q18 53 92 99t156 46
q129 0 215 -85t86 -226v-385q0 -111 61 -119q55 -8 94 65t41 160v539l8 10h396q8 0 8 -10q6 -601 6 -873q10 -272 -138 -440t-427 -168z" />
    <glyph glyph-name="z" unicode="z" horiz-adv-x="1015" 
d="M627 283q161 0 210 16q51 15 75 25t29 18t16 10t14 -4q35 -29 43 -88q14 -120 -43 -194q-107 -140 -334 -105q-295 39 -592 39l-6 8q-16 142 -5 238t152 216t291 204q47 25 166 73q-326 20 -610 -37l-13 9q-6 6 -16 61t14 138q25 83 107 126q106 59 295 31
q287 -43 567 -43q10 0 12 -8l5 -167q0 -40 -7 -75q-14 -94 -123 -195t-259 -185t-205 -111h217z" />
    <glyph glyph-name="braceleft" unicode="{" horiz-adv-x="434" 
d="M403 -309q20 -20 19 -27q0 -16 -37 -18q-164 -6 -243 110t-64 340q2 20 2 31q14 160 -1 280t-50 146q-19 17 -19 25t19 26q33 31 49 150t2 276l-2 31q-14 225 64 341q79 116 243 109q37 0 37 -18q2 -6 -19 -27q-80 -72 -51 -376l2 -31q10 -178 -36 -310t-142 -169
q96 -37 142 -169t36 -311q-2 -20 -2 -32q-29 -305 51 -377z" />
    <glyph glyph-name="bar" unicode="|" horiz-adv-x="323" 
d="M248 1524q8 0 8 -11v-1863q0 -8 -6 -8h-180q-9 3 -9 8l2 1863l9 11h176z" />
    <glyph glyph-name="braceright" unicode="}" horiz-adv-x="475" 
d="M444 578q0 -8 -18 -25q-35 -27 -50 -147t-1 -279l2 -31q14 -223 -65 -340t-242 -110q-37 2 -37 18q-2 7 18 27q80 72 51 377l-2 32q-10 178 36 310t143 170q-96 37 -143 169q-46 132 -36 310q2 20 2 31q29 305 -51 376q-20 20 -18 27q0 18 37 18q164 7 242 -109t65 -341
q-2 -20 -2 -31q-14 -158 2 -276t49 -150q18 -18 18 -26z" />
    <glyph glyph-name="asciitilde" unicode="~" horiz-adv-x="1220" 
d="M985 680q59 14 119 -46t42 -146q-17 -86 -95 -133q-78 -48 -217 -13q-76 18 -234 116q-45 28 -114 43t-119 -18q-69 -33 -108 -97q-13 -22 -17 -24q-64 -16 -126 44t-46 147q16 88 105 135q127 67 335 -43q70 -37 116 -61t116 -37q70 -14 116 12q62 22 109 96
q14 23 18 25z" />
    <glyph glyph-name="exclamdown" unicode="&#xa1;" horiz-adv-x="544" 
d="M20 -172q0 366 102 630q56 144 132 144q51 0 88 -72t62 -235t27 -300q3 -137 26 -203t47 -80q24 -15 39 -26q16 -11 10 -28q-18 -51 -92 -98t-156 -47q-127 0 -206 85t-79 230zM45 887q0 84 58 143q59 60 143 60t142 -60t58 -143q0 -85 -59 -143t-141 -58t-142 58
q-59 59 -59 143z" />
    <glyph glyph-name="cent" unicode="&#xa2;" horiz-adv-x="866" 
d="M524 1092q10 0 11 -11q-10 -53 -15 -118q133 -13 224 -73t92 -159q0 -65 -41 -111t-127 -53q-39 -3 -75 9t-42 23t0 67q8 86 -62 94q-121 10 -120 -244q0 -139 69 -203q70 -63 173 -48t214 89q15 10 24 1t5 -25q-20 -72 -108 -158t-226 -102l12 -136l-8 -10h-137
q-8 2 -8 13q8 70 12 137q-160 30 -265 154t-106 288q0 164 104 288t269 152l-14 127l8 9h137z" />
    <glyph glyph-name="sterling" unicode="&#xa3;" horiz-adv-x="999" 
d="M954 10q0 -8 -10 -8h-881l-12 8v299q2 6 6 8v2q86 35 123 89q-43 -4 -94 -11l-53 -4l-8 8l-5 140q0 6 14 7t140 -7q-8 9 -40 35t-48 44q-47 51 -47 152q0 102 78 176q133 128 381 126q187 -1 319 -57q72 -30 117 -85t45 -129t-54 -129t-141 -56q-49 0 -95 12t-53 24
q-7 11 -3 85q10 129 -98 129q-70 0 -89 -63q-23 -23 19 -145q14 -41 32 -76q17 -36 17 -37l188 16l11 -8l4 -137q0 -10 -10 -10q-94 8 -211 10q-39 -61 -160 -101q209 2 610 2l8 -8v-301z" />
    <glyph glyph-name="section" unicode="&#xa7;" horiz-adv-x="1024" 
d="M616 391q33 10 50 54q16 44 -17 96q-16 23 -51 34l-168 60l-4 2l-12 4q-38 -12 -52 -62t37 -106v2q14 -14 35 -20l131 -45zM987 53q0 -147 -141 -237t-309 -90q-261 0 -397 115q-72 61 -72 141t51 130t143 50q47 0 92 -12q44 -12 50 -22t7 -22q1 -10 -1 -29t-2 -34
q0 -119 102 -115q43 2 68 33t24 64h-2q0 61 -52 91q-76 44 -202 72q-229 63 -295 183q-31 51 -31 104v21q0 158 156 243q-129 90 -139 222v20q0 147 140 237t308 91q262 0 399 -116q72 -60 72 -140t-52 -130t-142 -51q-47 0 -92 12q-44 12 -50 23t-7 21t1 29t2 34
q0 119 -102 115q-43 -2 -68 -33q-24 -31 -24 -69t35 -67q35 -30 73 -45q38 -16 82 -28q43 -12 46 -13q4 -1 10 -2t10 -3q225 -63 295 -182q31 -51 31 -105v-20q0 -156 -156 -246q139 -93 139 -240z" />
    <glyph glyph-name="dieresis" unicode="&#xa8;" horiz-adv-x="903" 
d="M893 1307q0 -74 -59 -125q-60 -52 -144 -52t-143 52t-60 125q-1 74 59 125t144 51t144 -51t59 -125zM418 1307q0 -74 -60 -125q-60 -52 -145 -52q-84 0 -143 52t-60 125q0 74 60 125t143 51q85 0 145 -51t60 -125z" />
    <glyph glyph-name="copyright" unicode="&#xa9;" horiz-adv-x="1484" 
d="M738 -18q222 0 380 156t158 379q0 222 -158 380t-380 158t-379 -158t-157 -380t157 -379q157 -156 379 -156zM739 1184q274 0 470 -196t196 -470t-196 -470t-470 -196t-470 196t-195 470q0 274 195 470q196 196 470 196zM740 131q-148 0 -261 113q-113 112 -113 270
t108 268t267 119q129 0 227 -53t97 -148q0 -55 -36 -95t-107 -44q-33 -2 -64 7t-37 18q-6 14 -1 56t-11 75t-39 35q-59 6 -89 -68t-30 -180q-1 -106 63 -161q64 -53 156 -41t187 75q12 8 19 2t5 -23q-18 -68 -106 -146q-87 -78 -235 -79z" />
    <glyph glyph-name="guillemotleft" unicode="&#xab;" horiz-adv-x="839" 
d="M20 492q0 18 29 51q215 215 365 336q23 18 39 8t6 -41q-66 -209 -117 -352q101 -302 114 -342t-1 -53t-41 7q-195 166 -365 336q-29 32 -29 50zM696 494q101 -302 114 -342t-1 -53t-41 7q-182 154 -365 336q-27 32 -27 50t27 51q215 215 365 336q23 18 39 8t4 -46
t-40 -122q-27 -85 -49 -149t-26 -76z" />
    <glyph glyph-name="registered" unicode="&#xae;" horiz-adv-x="909" 
d="M454 487q144 1 247 103t103 248t-102 247q-104 103 -248 103t-246 -102t-104 -248q0 -145 103 -248t247 -103zM455 1272q180 0 307 -127t127 -307t-127 -308t-307 -127q-180 0 -308 127q-127 128 -127 308t127 307q128 127 308 127zM510 925q0 58 -57 58q-16 0 -45 -4
v-113h38q64 1 64 59zM596 600q-80 0 -114 43t-45 123q-3 23 -3 25l-26 2v-168l-5 -7h-165q-4 2 -5 7v428l3 4q113 18 214 18t170 -37q68 -38 68 -114t-110 -119q51 -94 106 -127q20 -12 2 -31q-43 -47 -90 -47z" />
    <glyph glyph-name="degree" unicode="&#xb0;" horiz-adv-x="663" 
d="M332 1313q-49 0 -84 -35t-35 -84t35 -83t84 -34t84 34t35 83t-35 84t-84 35zM332 883q-129 0 -220 91t-92 220q0 129 92 220t220 91q129 0 220 -91t91 -220t-91 -220t-220 -91z" />
    <glyph glyph-name="acute" unicode="&#xb4;" horiz-adv-x="561" 
d="M551 1505q-137 -268 -440 -375q-12 -4 -17 -2q-47 37 -84 101q-6 6 2 14q111 111 167 204t91 232q4 6 13 4q162 -39 264 -161q4 -2 5 -8t-1 -9z" />
    <glyph glyph-name="paragraph" unicode="&#xb6;" horiz-adv-x="1384" 
d="M1323 1436v-1753l-8 -11h-234q-8 0 -8 9l-2 1574l-8 11h-107q-8 0 -8 -9v-1572q-2 -8 -8 -9h-235l-7 2q-2 2 -2 7v821q-96 -6 -191 -1t-183 44t-155 97t-107 158t-40 226q0 127 52 222q92 171 337 230q176 42 542 10q169 -15 266 -30l98 -16q8 0 8 -10z" />
    <glyph glyph-name="cedilla" unicode="&#xb8;" horiz-adv-x="542" 
d="M199 10h26l6 -6v-151q182 25 269 -91q68 -90 26 -188q-47 -113 -200 -119q-23 -2 -45 0q-154 8 -250 109q-39 45 -25 53q2 0 39 -9q37 -10 84 -18t94 -9t79 21t30 68q-4 52 -78 68t-201 -14q-10 0 -6 8q100 201 143 272z" />
    <glyph glyph-name="guillemotright" unicode="&#xbb;" horiz-adv-x="839" 
d="M385 99q-14 13 -1 53t114 342q-51 143 -117 352q-10 31 6 41t39 -8q150 -121 365 -336q29 -33 29 -50t-29 -51q-170 -170 -365 -336q-27 -20 -41 -7zM463 493q0 -17 -27 -51q-182 -182 -364 -336q-27 -20 -41 -7t-1 53t113 342l-25 75q-22 63 -50 149t-39 123
q-12 36 4 46t39 -8q150 -121 364 -336q27 -33 27 -50z" />
    <glyph glyph-name="questiondown" unicode="&#xbf;" horiz-adv-x="612" 
d="M324 592q68 0 114 -104t35 -214q-11 -108 -115 -252t-104 -210q-2 -37 14 -70t60 -33q72 0 75 133q0 12 -3 49t5 49q7 13 57 25t97 15q92 0 139 -48t45 -122q-2 -115 -125 -208q-124 -94 -318 -94t-314 102t-119 228q0 72 32 135t97 153q66 90 90 136t56 116t52 106
q20 38 57 73q36 35 73 35zM315 1079q85 0 143 -59t58 -142q0 -82 -59 -142t-141 -60t-142 60q-59 60 -59 142q0 83 58 142t142 59z" />
    <glyph glyph-name="Agrave" unicode="&#xc0;" horiz-adv-x="1411" 
d="M434 1915q-4 10 4 16q102 123 264 162q8 2 13 -4q35 -139 91 -232t167 -204q8 -8 2 -15q-37 -63 -84 -100q-4 -2 -17 2q-303 107 -440 375zM561 504h240l-121 594q-20 -86 -64 -310t-55 -284zM930 0q-10 0 -12 10l-52 217h-362l-45 -217q-5 -10 -13 -10h-430l-4 10
q352 1102 353 1104q39 113 30 155q-8 41 -26 69t-15 42q18 58 110 100t196 42q106 0 208 -81t160 -239t297 -948l74 -244l-6 -10h-463z" />
    <glyph glyph-name="Aacute" unicode="&#xc1;" horiz-adv-x="1411" 
d="M977 1935q-137 -268 -440 -374q-12 -4 -17 -2q-47 37 -84 100q-6 6 2 14q111 111 167 204t91 232q4 6 13 5q162 -39 264 -162q8 -7 4 -17zM561 504h240l-121 594q-20 -86 -64 -310t-55 -284zM930 0q-10 0 -12 10l-52 217h-362l-45 -217q-5 -10 -13 -10h-430l-4 10
q352 1102 353 1104q39 113 30 155q-8 41 -26 69t-15 42q18 58 110 100t196 42q106 0 208 -81t160 -239t297 -948l74 -244l-6 -10h-463z" />
    <glyph glyph-name="Acircumflex" unicode="&#xc2;" horiz-adv-x="1411" 
d="M737 1962q12 0 21 -8l313 -375q18 -27 6 -37t-41 0l-366 133q-264 -90 -377 -127q-33 -10 -42 2t9 35q322 369 324 371l12 6h141zM561 504h240l-121 594q-20 -86 -64 -310t-55 -284zM930 0q-10 0 -12 10l-52 217h-362l-45 -217q-5 -10 -13 -10h-430l-4 10
q352 1102 353 1104q39 113 30 155q-8 41 -26 69t-15 42q18 58 110 100t196 42q106 0 208 -81t160 -239t297 -948l74 -244l-6 -10h-463z" />
    <glyph glyph-name="Atilde" unicode="&#xc3;" horiz-adv-x="1411" 
d="M1180 1896q23 2 28 -63q10 -129 -82 -220t-282 -75q-82 8 -224 70t-198 65q-56 2 -98 -15q-43 -17 -65 -40t-39 -42t-25 -20q-25 -4 -19 64q10 127 104 207t232 76q94 -3 238 -63t210 -62q109 -3 184 86q26 30 36 32zM561 504h240l-121 594q-20 -86 -64 -310t-55 -284z
M930 0q-10 0 -12 10l-52 217h-362l-45 -217q-5 -10 -13 -10h-430l-4 10q352 1102 353 1104q39 113 30 155q-8 41 -26 69t-15 42q18 58 110 100t196 42q106 0 208 -81t160 -239t297 -948l74 -244l-6 -10h-463z" />
    <glyph glyph-name="Adieresis" unicode="&#xc4;" horiz-adv-x="1411" 
d="M1114 1716q0 -74 -59 -125t-143 -51t-144 51q-59 51 -59 125t59 125t143 51q83 0 143 -51t60 -125zM639 1716q0 -74 -60 -125q-61 -51 -145 -51t-143 51t-60 125t59 125t144 51t144 -51t61 -125zM561 504h240l-121 594q-20 -86 -64 -310t-55 -284zM930 0q-10 0 -12 10
l-52 217h-362l-45 -217q-5 -10 -13 -10h-430l-4 10q352 1102 353 1104q39 113 30 155q-8 41 -26 69t-15 42q18 58 110 100t196 42q106 0 208 -81t160 -239t297 -948l74 -244l-6 -10h-463z" />
    <glyph glyph-name="Aring" unicode="&#xc5;" horiz-adv-x="1411" 
d="M668 1610q42 0 70 35t28 85t-28 82t-71 33q-42 1 -71 -31t-29 -82t30 -86t71 -36zM934 1731q0 -104 -78 -180q-37 -36 -82 -54q172 -70 254 -297q57 -156 297 -946l74 -244l-6 -10h-463q-10 0 -12 10l-52 217h-362l-45 -217q-5 -10 -13 -10h-430l-4 10q352 1102 353 1104
q39 113 30 155q-8 41 -26 69t-15 42q18 57 110 100q38 17 75 27q-33 17 -61 44q-79 75 -79 179t79 179q79 73 190 73q110 0 188 -74t78 -177zM561 504h240l-121 594q-20 -86 -64 -310t-55 -284z" />
    <glyph glyph-name="Ccedilla" unicode="&#xc7;" horiz-adv-x="1314" 
d="M20 736q0 318 202 544t515 229q239 2 393 -103t154 -271q0 -90 -61 -162t-166 -72q-68 0 -114 22t-44 52q17 113 -19 195t-128 81q-92 0 -158 -90t-92 -211t-10 -227q24 -188 114 -303q90 -114 207 -140t242 7t221 119q41 35 39 -13q-14 -101 -94 -207
q-99 -132 -261 -189q-96 -34 -200 -39v-105q182 25 268 -91q68 -90 27 -188q-47 -113 -201 -119q-23 -2 -45 0q-154 8 -250 109q-39 45 -24 53q3 0 39 -9q292 -72 286 62q-4 52 -78 68t-200 -14q-10 0 -7 8q74 148 117 225q-272 10 -472 235q-200 226 -200 544z" />
    <glyph glyph-name="Egrave" unicode="&#xc8;" horiz-adv-x="1107" 
d="M242 1915q-4 10 4 16q102 123 264 162q8 2 12 -4q35 -139 91 -232t167 -204q8 -8 2 -15q-37 -63 -84 -100q-4 -2 -16 2q-303 107 -440 375zM516 618v-147q2 -94 66 -143q112 -86 321 -35q87 20 144 57q31 18 43 4t6 -55q-13 -89 -135 -209q-59 -57 -159 -96t-216 -39
q-250 0 -387 164t-138 393l2 944l13 10h977q25 0 26 -74q2 -74 -9 -114q-11 -41 -51 -87q-87 -100 -269 -100q-98 -1 -164 11l-66 12l-2 -270h338l10 -10v-205l-12 -11h-338z" />
    <glyph glyph-name="Eacute" unicode="&#xc9;" horiz-adv-x="1107" 
d="M825 1915q-137 -268 -440 -375q-12 -4 -16 -2q-47 37 -84 100q-6 6 2 15q111 111 167 204t91 232q4 6 12 4q162 -39 264 -162q4 -2 5 -8t-1 -8zM516 618v-147q2 -94 66 -143q112 -86 321 -35q87 20 144 57q31 18 43 4t6 -55q-13 -89 -135 -209q-59 -57 -159 -96t-216 -39
q-250 0 -387 164t-138 393l2 944l13 10h977q25 0 26 -74q2 -74 -9 -114q-11 -41 -51 -87q-87 -100 -269 -100q-98 -1 -164 11l-66 12l-2 -270h338l10 -10v-205l-12 -11h-338z" />
    <glyph glyph-name="Ecircumflex" unicode="&#xca;" horiz-adv-x="1107" 
d="M623 1962q12 0 20 -8l313 -375q18 -27 6 -37t-40 0l-367 133q-264 -90 -377 -127q-33 -10 -42 2t9 35q322 369 324 371l12 6h142zM516 618v-147q2 -94 66 -143q112 -86 321 -35q87 20 144 57q31 18 43 4t6 -55q-13 -89 -135 -209q-59 -57 -159 -96t-216 -39
q-250 0 -387 164t-138 393l2 944l13 10h977q25 0 26 -74q2 -74 -9 -114q-11 -41 -51 -87q-87 -100 -269 -100q-98 -1 -164 11l-66 12l-2 -270h338l10 -10v-205l-12 -11h-338z" />
    <glyph glyph-name="Edieresis" unicode="&#xcb;" horiz-adv-x="1107" 
d="M995 1716q0 -74 -59 -125t-143 -51t-144 51q-59 51 -59 125t59 125t143 51t144 -51q59 -51 59 -125zM520 1716q0 -74 -60 -125t-144 -51t-144 51q-59 51 -59 125t59 125t143 51q85 0 145 -51t60 -125zM516 618v-147q2 -94 66 -143q112 -86 321 -35q87 20 144 57
q31 18 43 4t6 -55q-13 -89 -135 -209q-59 -57 -159 -96t-216 -39q-250 0 -387 164t-138 393l2 944l13 10h977q25 0 26 -74q2 -74 -9 -114q-11 -41 -51 -87q-87 -100 -269 -100q-98 -1 -164 11l-66 12l-2 -270h338l10 -10v-205l-12 -11h-338z" />
    <glyph glyph-name="Igrave" unicode="&#xcc;" horiz-adv-x="636" 
d="M47 1915q-2 2 -1 8t5 8q102 123 264 162q8 2 13 -4q35 -139 91 -232t167 -204q8 -8 2 -15q-37 -63 -84 -100q-4 -2 -17 2q-303 107 -440 375zM272 1513q131 1 217 -81t86 -246v-1176l-10 -10h-436l-8 10v1112q-12 133 -61 175q-19 17 -37 27t-27 18q-8 7 -4 22
q18 53 105 101t175 48z" />
    <glyph glyph-name="Iacute" unicode="&#xcd;" horiz-adv-x="636" 
d="M590 1935q-137 -268 -440 -374q-12 -4 -17 -2q-47 37 -84 100q-6 6 2 14q111 111 167 204t91 232q4 6 13 5q162 -39 264 -162q8 -7 4 -17zM272 1513q131 1 217 -81t86 -246v-1176l-10 -10h-436l-8 10v1112q-12 133 -61 175q-19 17 -37 27t-27 18q-8 7 -4 22
q18 53 105 101t175 48z" />
    <glyph glyph-name="Icircumflex" unicode="&#xce;" horiz-adv-x="636" 
d="M389 1962q12 0 21 -8l313 -375q18 -27 6 -37t-41 0l-366 133q-264 -90 -377 -127q-33 -10 -42 2t9 35q322 369 324 371l12 6h141zM272 1513q131 1 217 -81t86 -246v-1176l-10 -10h-436l-8 10v1112q-12 133 -61 175q-19 17 -37 27t-27 18q-8 7 -4 22q18 53 105 101t175 48
z" />
    <glyph glyph-name="Idieresis" unicode="&#xcf;" horiz-adv-x="636" 
d="M760 1716q0 -74 -60 -125t-143 -51q-84 0 -143 51t-60 125q0 74 60 125t143 51t143 -51t60 -125zM285 1716q-1 -74 -61 -125t-144 -51t-143 51t-60 125t59 125t144 51t144 -51t61 -125zM272 1513q131 1 217 -81t86 -246v-1176l-10 -10h-436l-8 10v1112q-12 133 -61 175
q-19 17 -37 27t-27 18q-8 7 -4 22q18 53 105 101t175 48z" />
    <glyph glyph-name="Ntilde" unicode="&#xd1;" horiz-adv-x="1425" 
d="M1186 1896q23 2 28 -63q10 -129 -82 -220t-282 -75q-82 8 -224 70t-198 65q-56 2 -98 -15q-43 -17 -65 -40t-39 -42t-25 -20q-25 -4 -19 64q10 127 104 207t232 76q94 -3 238 -63t210 -62q109 -3 184 86q26 30 36 32zM300 1522q104 0 176 -62t163 -198q215 -367 315 -586
l-20 196l-10 582l8 10h426q10 0 10 -10l-6 -1444l-10 -10h-377q-8 -2 -14 10l-435 854l19 -170l18 -684l-10 -10h-438l-11 10q12 1118 13 1120q-4 80 -27 130t-47 61q-25 12 -40 22t-9 27q20 52 111 102t195 50z" />
    <glyph glyph-name="Ograve" unicode="&#xd2;" horiz-adv-x="1454" 
d="M455 1915q-2 2 -1 8t5 8q102 123 264 162q8 2 12 -4q35 -139 91 -232t167 -204q8 -8 2 -15q-37 -63 -84 -100q-4 -2 -16 2q-303 107 -440 375zM728 1280q-108 0 -176 -174t-69 -372q0 -198 70 -373t176 -175q76 0 134 87q114 171 114 458q0 201 -70 375q-71 174 -179 174
zM1440 730q0 -325 -195 -549t-513 -224t-515 225t-197 549t198 551t512 227t512 -227t198 -552z" />
    <glyph glyph-name="Oacute" unicode="&#xd3;" horiz-adv-x="1454" 
d="M1051 1935q-137 -268 -441 -374q-12 -4 -16 -2q-47 37 -84 100q-6 6 2 14q111 111 167 204t91 232q4 6 12 5q162 -39 265 -162q4 -2 5 -8t-1 -9zM728 1280q-108 0 -176 -174t-69 -372q0 -198 70 -373t176 -175q76 0 134 87q114 171 114 458q0 201 -70 375
q-71 174 -179 174zM1440 730q0 -325 -195 -549t-513 -224t-515 225t-197 549t198 551t512 227t512 -227t198 -552z" />
    <glyph glyph-name="Ocircumflex" unicode="&#xd4;" horiz-adv-x="1454" 
d="M803 1942q12 0 20 -9l314 -374q18 -27 6 -37t-41 0l-367 133q-264 -90 -377 -127q-33 -10 -42 2t10 35q322 369 323 370l13 7h141zM728 1280q-108 0 -176 -174t-69 -372q0 -198 70 -373t176 -175q76 0 134 87q114 171 114 458q0 201 -70 375q-71 174 -179 174zM1440 730
q0 -325 -195 -549t-513 -224t-515 225t-197 549t198 551t512 227t512 -227t198 -552z" />
    <glyph glyph-name="Otilde" unicode="&#xd5;" horiz-adv-x="1454" 
d="M1219 1917q23 2 28 -64q10 -129 -82 -220t-282 -74q-83 8 -225 70q-142 63 -197 65t-99 -16t-64 -40q-22 -23 -39 -42t-26 -19q-25 -4 -18 63q9 127 103 207t233 76q94 -4 237 -63q143 -60 211 -62q107 -4 184 86q26 31 36 33zM728 1280q-108 0 -176 -174t-69 -372
q0 -198 70 -373t176 -175q76 0 134 87q114 171 114 458q0 201 -70 375q-71 174 -179 174zM1440 730q0 -325 -195 -549t-513 -224t-515 225t-197 549t198 551t512 227t512 -227t198 -552z" />
    <glyph glyph-name="Odieresis" unicode="&#xd6;" horiz-adv-x="1454" 
d="M1167 1716q0 -74 -59 -125t-143 -51t-144 51q-59 51 -59 125t59 125t143 51t144 -51q59 -51 59 -125zM692 1716q0 -74 -60 -125t-144 -51t-144 51q-59 51 -59 125t59 125t143 51q85 0 145 -51t60 -125zM728 1280q-108 0 -176 -174t-69 -372q0 -198 70 -373t176 -175
q76 0 134 87q114 171 114 458q0 201 -70 375q-71 174 -179 174zM1440 730q0 -325 -195 -549t-513 -224t-515 225t-197 549t198 551t512 227t512 -227t198 -552z" />
    <glyph glyph-name="Oslash" unicode="&#xd8;" horiz-adv-x="1454" 
d="M729 1280q-109 0 -177 -174t-69 -343q0 -169 33 -292l361 696q-66 113 -148 113zM977 734q0 130 -35 263l-358 -700q63 -111 142 -111t137 87t86 209t28 252zM1440 731q0 -326 -195 -550t-516 -224q-152 0 -283 57l-100 -217l-16 -8h-174l-4 2q0 11 66 123t99 176
q-141 104 -219 274t-78 367q0 324 198 551t511 227q150 0 281 -57l80 168l16 10h172q8 0 0 -10q-59 -100 -137 -246q141 -106 220 -276t79 -367z" />
    <glyph glyph-name="Ugrave" unicode="&#xd9;" horiz-adv-x="1429" 
d="M442 1915q-2 2 -1 8t5 8q102 123 265 162q8 2 12 -4q35 -139 91 -232t167 -204q8 -8 2 -15q-37 -63 -84 -100q-4 -2 -16 2q-304 107 -441 375zM137 500v526q0 206 -80 271q-21 17 -37 23q-35 12 -28 34q20 55 98 104t164 49q137 0 235 -90t99 -237v-789q0 -65 33 -109
q61 -80 170 -57q45 9 77 55t33 113v1059l8 12h451q8 -2 8 -10q-6 -688 -4 -948q0 -119 -41 -217q-41 -97 -112 -161q-163 -146 -356 -165q-240 -24 -398 52q-92 43 -164 107t-114 162t-42 216z" />
    <glyph glyph-name="Uacute" unicode="&#xda;" horiz-adv-x="1429" 
d="M985 1915q-137 -268 -440 -375q-12 -4 -17 -2q-47 37 -84 100q-6 6 2 15q111 111 167 204t92 232q4 6 12 4q162 -39 264 -162q4 -2 5 -8t-1 -8zM137 500v526q0 206 -80 271q-21 17 -37 23q-35 12 -28 34q20 55 98 104t164 49q137 0 235 -90t99 -237v-789q0 -65 33 -109
q61 -80 170 -57q45 9 77 55t33 113v1059l8 12h451q8 -2 8 -10q-6 -688 -4 -948q0 -119 -41 -217q-41 -97 -112 -161q-163 -146 -356 -165q-240 -24 -398 52q-92 43 -164 107t-114 162t-42 216z" />
    <glyph glyph-name="Ucircumflex" unicode="&#xdb;" horiz-adv-x="1429" 
d="M784 1962q12 0 21 -8l313 -375q18 -27 6 -37t-41 0l-366 133q-264 -90 -377 -127q-33 -10 -42 2t9 35q322 369 324 371l12 6h141zM137 500v526q0 206 -80 271q-21 17 -37 23q-35 12 -28 34q20 55 98 104t164 49q137 0 235 -90t99 -237v-789q0 -65 33 -109q61 -80 170 -57
q45 9 77 55t33 113v1059l8 12h451q8 -2 8 -10q-6 -688 -4 -948q0 -119 -41 -217q-41 -97 -112 -161q-163 -146 -356 -165q-240 -24 -398 52q-92 43 -164 107t-114 162t-42 216z" />
    <glyph glyph-name="Udieresis" unicode="&#xdc;" horiz-adv-x="1429" 
d="M1155 1716q0 -74 -59 -125q-60 -51 -144 -51t-143 51t-59 125t59 125t143 51t144 -51t59 -125zM680 1716q0 -74 -60 -125t-144 -51t-144 51q-59 51 -60 125q0 74 60 125t143 51q85 0 145 -51t60 -125zM137 500v526q0 206 -80 271q-21 17 -37 23q-35 12 -28 34
q20 55 98 104t164 49q137 0 235 -90t99 -237v-789q0 -65 33 -109q61 -80 170 -57q45 9 77 55t33 113v1059l8 12h451q8 -2 8 -10q-6 -688 -4 -948q0 -119 -41 -217q-41 -97 -112 -161q-163 -146 -356 -165q-240 -24 -398 52q-92 43 -164 107t-114 162t-42 216z" />
    <glyph glyph-name="Yacute" unicode="&#xdd;" horiz-adv-x="1368" 
d="M979 1915q-137 -268 -440 -375q-12 -4 -17 -2q-47 37 -84 100q-6 6 2 15q111 111 167 204t91 232q4 6 13 4q162 -39 264 -162q8 -6 4 -16zM764 -47q-135 0 -223 87q-88 86 -88 282t-2 292l-449 836l8 16h492q10 0 14 -12l252 -625q84 125 104 268t13 208q-6 65 -11 100
l-4 33q-2 49 118 80q120 32 243 -28t129 -230q0 -96 -33 -188t-74 -153q-41 -62 -112 -131q-72 -68 -118 -102t-120 -86v-174q5 -217 99 -269q18 -11 30 -19t6 -23q-18 -57 -102 -109t-172 -53z" />
    <glyph glyph-name="germandbls" unicode="&#xdf;" horiz-adv-x="1431" 
d="M508 219q0 78 54 136t140 59q48 0 100 -16t58 -28q6 -14 0 -48t-6 -54q0 -92 70 -106q57 -12 92 37q51 70 -47 161q-36 36 -137 115q-101 78 -155 125t-98 120q-78 129 -5 251q32 51 68 83q95 84 93 164t-49 122t-103 41q-55 -1 -105 -43t-55 -98t0 -86q25 -149 36 -294
v-848l-8 -12h-396q-8 2 -8 10v1020q-29 215 127 355t428 141q158 2 306 -46t229 -151t26 -193q-23 -38 -55 -75q-83 -94 -99 -150q-24 -86 111 -196q170 -137 215 -191q86 -100 95 -213q10 -143 -121 -249t-363 -109q-182 -3 -310 67t-128 199z" />
    <glyph glyph-name="agrave" unicode="&#xe0;" horiz-adv-x="1263" 
d="M358 1505q-2 2 -1 8t5 9q102 123 265 161q8 2 12 -4q35 -139 91 -232t167 -204q8 -8 2 -14q-37 -63 -84 -101q-4 -2 -16 2q-304 107 -441 375zM596 240q72 0 113 78t41 198q0 121 -41 200t-113 79t-113 -79t-41 -200q0 -120 41 -198t113 -78zM1151 427q-1 -126 21 -193
q22 -66 47 -80t41 -26t10 -28q-16 -53 -90 -99t-168 -46t-170 62t-97 171q-121 -231 -323 -231q-123 0 -217 84t-139 209t-46 266q0 225 111 390t305 165t301 -194v141l11 12h409q8 -2 8 -10q-14 -467 -14 -593z" />
    <glyph glyph-name="aacute" unicode="&#xe1;" horiz-adv-x="1263" 
d="M930 1505q-137 -268 -441 -375q-12 -4 -16 -2q-47 37 -84 101q-6 6 2 14q111 111 167 204t91 232q4 6 13 4q162 -39 264 -161q8 -7 4 -17zM596 240q72 0 113 78t41 198q0 121 -41 200t-113 79t-113 -79t-41 -200q0 -120 41 -198t113 -78zM1151 427q-1 -126 21 -193
q22 -66 47 -80t41 -26t10 -28q-16 -53 -90 -99t-168 -46t-170 62t-97 171q-121 -231 -323 -231q-123 0 -217 84t-139 209t-46 266q0 225 111 390t305 165t301 -194v141l11 12h409q8 -2 8 -10q-14 -467 -14 -593z" />
    <glyph glyph-name="acircumflex" unicode="&#xe2;" horiz-adv-x="1263" 
d="M700 1552q12 0 21 -8l313 -375q18 -27 6 -37t-41 1l-366 133q-264 -90 -377 -127q-33 -10 -42 2t9 35q322 369 324 370l12 6h141zM596 240q72 0 113 78t41 198q0 121 -41 200t-113 79t-113 -79t-41 -200q0 -120 41 -198t113 -78zM1151 427q-1 -126 21 -193q22 -66 47 -80
t41 -26t10 -28q-16 -53 -90 -99t-168 -46t-170 62t-97 171q-121 -231 -323 -231q-123 0 -217 84t-139 209t-46 266q0 225 111 390t305 165t301 -194v141l11 12h409q8 -2 8 -10q-14 -467 -14 -593z" />
    <glyph glyph-name="atilde" unicode="&#xe3;" horiz-adv-x="1263" 
d="M1133 1487q23 2 28 -64q10 -129 -82 -220t-282 -75q-83 8 -225 70t-197 66q-55 2 -99 -16t-64 -40q-22 -23 -39 -42t-26 -19q-25 -4 -18 63q9 127 103 207t233 76q94 -4 237 -63q143 -60 211 -62q107 -4 184 86q26 31 36 33zM596 240q72 0 113 78t41 198q0 121 -41 200
t-113 79t-113 -79t-41 -200q0 -120 41 -198t113 -78zM1151 427q-1 -126 21 -193q22 -66 47 -80t41 -26t10 -28q-16 -53 -90 -99t-168 -46t-170 62t-97 171q-121 -231 -323 -231q-123 0 -217 84t-139 209t-46 266q0 225 111 390t305 165t301 -194v141l11 12h409q8 -2 8 -10
q-14 -467 -14 -593z" />
    <glyph glyph-name="adieresis" unicode="&#xe4;" horiz-adv-x="1263" 
d="M1085 1307q0 -74 -59 -125q-59 -52 -143 -52q-83 0 -143 52t-60 125q0 74 59 125t143 51t144 -51q59 -51 59 -125zM610 1307q0 -74 -60 -125q-60 -52 -144 -52t-144 52t-59 125q0 74 59 125q60 51 144 51t144 -51t60 -125zM596 240q72 0 113 78t41 198q0 121 -41 200
t-113 79t-113 -79t-41 -200q0 -120 41 -198t113 -78zM1151 427q-1 -126 21 -193q22 -66 47 -80t41 -26t10 -28q-16 -53 -90 -99t-168 -46t-170 62t-97 171q-121 -231 -323 -231q-123 0 -217 84t-139 209t-46 266q0 225 111 390t305 165t301 -194v141l11 12h409q8 -2 8 -10
q-14 -467 -14 -593z" />
    <glyph glyph-name="aring" unicode="&#xe5;" horiz-adv-x="1263" 
d="M731 1381q-1 50 -29 83t-70 33t-71 -32t-29 -82t30 -86q30 -35 71 -35t69 34t29 85zM899 1382q0 -104 -78 -179q-79 -75 -189 -75t-189 75t-78 179q0 104 78 179q79 73 190 73t189 -74t77 -178zM596 240q72 0 113 78t41 198q0 121 -41 200t-113 79t-113 -79t-41 -200
q0 -120 41 -198t113 -78zM1151 427q-1 -126 21 -193q22 -66 47 -80t41 -26t10 -28q-16 -53 -90 -99t-168 -46t-170 62t-97 171q-121 -231 -323 -231q-123 0 -217 84t-139 209t-46 266q0 225 111 390t305 165t301 -194v141l11 12h409q8 -2 8 -10q-14 -467 -14 -593z" />
    <glyph glyph-name="ae" unicode="&#xe6;" horiz-adv-x="2322" 
d="M1925 743q0 43 -31 72t-77 27q0 -2 -2 -2h-7q-138 -29 -155 -258q133 -12 203 32t69 129zM596 240q72 0 113 78t41 198q0 121 -41 200t-113 79t-113 -79t-41 -200q0 -120 41 -198t113 -78zM1804 -43q-236 0 -399 168q-72 -84 -156 -126t-202 -44q-119 -2 -201 70
t-101 163q-121 -231 -323 -231q-123 0 -217 84t-139 209t-46 266q0 225 111 390t305 165t301 -194v141l11 12h407q8 -2 8 -10q-4 -461 -8 -610q0 -80 23 -120q24 -40 54 -36t64 29q-49 115 -49 233q0 231 163 394q162 163 406 163t370 -114q126 -113 126 -235t-62 -199
t-158 -103q-228 -63 -423 -21q53 -151 231 -173t363 87q15 10 28 1q13 -8 4 -38q-23 -74 -139 -189q-58 -56 -152 -94t-200 -38z" />
    <glyph glyph-name="ccedilla" unicode="&#xe7;" horiz-adv-x="1067" 
d="M20 513q0 228 155 389t388 171q187 0 323 -75t136 -212q2 -78 -55 -141t-144 -63q-47 0 -92 12t-52 25t-4 40t3 41q0 62 -28 102t-70 40q-78 0 -120 -102t-31 -214q11 -114 55 -183q77 -120 234 -116q158 4 302 88q17 12 28 2q11 -11 4 -41q-16 -69 -130 -187
q-55 -55 -145 -93t-191 -39v-104q182 25 268 -91q68 -90 27 -188q-47 -113 -201 -119q-23 -2 -45 0q-154 8 -250 109q-39 45 -25 53q2 0 39 -9q293 -71 287 62q-4 52 -78 68t-200 -14q-10 0 -7 8q75 150 118 228q-195 19 -336 161q-163 164 -163 392z" />
    <glyph glyph-name="egrave" unicode="&#xe8;" horiz-adv-x="1105" 
d="M262 1505q-2 2 -1 8t5 9q102 123 264 161q8 2 13 -4q35 -139 91 -232t167 -204q8 -8 2 -14q-37 -63 -84 -101q-4 -2 -17 2q-303 107 -440 375zM588 840h-6q-138 -28 -156 -258q133 -12 203 32t69 129q0 43 -30 72q-31 29 -78 27q0 -2 -2 -2zM578 -43q-231 0 -395 164
q-163 164 -163 395t163 394t407 163t369 -114q126 -113 126 -235t-62 -199q-61 -77 -157 -103q-228 -63 -424 -21q52 -151 230 -173t364 87q15 10 28 1q13 -8 4 -38q-23 -74 -139 -189q-59 -56 -153 -94t-198 -38z" />
    <glyph glyph-name="eacute" unicode="&#xe9;" horiz-adv-x="1105" 
d="M846 1505q-137 -268 -440 -375q-12 -4 -17 -2q-47 37 -84 101q-6 6 2 14q111 111 167 204t91 232q4 6 13 4q162 -39 264 -161q4 -2 5 -8t-1 -9zM588 840h-6q-138 -28 -156 -258q133 -12 203 32t69 129q0 43 -30 72q-31 29 -78 27q0 -2 -2 -2zM578 -43q-231 0 -395 164
q-163 164 -163 395t163 394t407 163t369 -114q126 -113 126 -235t-62 -199q-61 -77 -157 -103q-228 -63 -424 -21q52 -151 230 -173t364 87q15 10 28 1q13 -8 4 -38q-23 -74 -139 -189q-59 -56 -153 -94t-198 -38z" />
    <glyph glyph-name="ecircumflex" unicode="&#xea;" horiz-adv-x="1105" 
d="M649 1552q12 0 21 -8l313 -375q18 -27 6 -37t-41 1l-366 133q-264 -90 -377 -127q-33 -10 -42 2t9 35q322 369 324 370l12 6h141zM588 840h-6q-138 -28 -156 -258q133 -12 203 32t69 129q0 43 -30 72q-31 29 -78 27q0 -2 -2 -2zM578 -43q-231 0 -395 164
q-163 164 -163 395t163 394t407 163t369 -114q126 -113 126 -235t-62 -199q-61 -77 -157 -103q-228 -63 -424 -21q52 -151 230 -173t364 87q15 10 28 1q13 -8 4 -38q-23 -74 -139 -189q-59 -56 -153 -94t-198 -38z" />
    <glyph glyph-name="edieresis" unicode="&#xeb;" horiz-adv-x="1105" 
d="M588 840h-6q-138 -28 -156 -258q133 -12 203 32t69 129q0 43 -30 72q-31 29 -78 27q0 -2 -2 -2zM578 -43q-231 0 -395 164q-163 164 -163 395t163 394t407 163t369 -114q126 -113 126 -235t-62 -199q-61 -77 -157 -103q-228 -63 -424 -21q52 -151 230 -173t364 87
q15 10 28 1q13 -8 4 -38q-23 -74 -139 -189q-59 -56 -153 -94t-198 -38zM999 1307q0 -74 -59 -125q-59 -52 -143 -52q-83 0 -143 52t-60 125q0 74 59 125t143 51t144 -51q59 -51 59 -125zM522 1307q0 -74 -59 -125q-59 -52 -143 -52t-144 52q-59 52 -59 125q0 74 59 125
t143 51q83 0 143 -51t60 -125z" />
    <glyph glyph-name="igrave" unicode="&#xec;" horiz-adv-x="585" 
d="M20 1505q-4 10 5 17q102 123 264 161q8 2 12 -4q35 -139 91 -232t167 -204q8 -8 2 -14q-37 -63 -84 -101q-4 -2 -16 2q-304 107 -441 375zM240 1075q128 0 206 -84t78 -227v-752l-8 -12h-410q-10 2 -10 10q16 467 16 593t-21 193q-22 67 -46 81q-25 14 -42 25t-11 28
q18 53 92 99t156 46z" />
    <glyph glyph-name="iacute" unicode="&#xed;" horiz-adv-x="585" 
d="M563 1505q-137 -268 -440 -375q-12 -4 -17 -2q-47 37 -83 101q-6 6 2 14q111 111 166 204q56 93 92 232q4 6 12 4q162 -39 264 -161q4 -2 5 -8t-1 -9zM240 1075q128 0 206 -84t78 -227v-752l-8 -12h-410q-10 2 -10 10q16 467 16 593t-21 193q-22 67 -46 81q-25 14 -42 25
t-11 28q18 53 92 99t156 46z" />
    <glyph glyph-name="icircumflex" unicode="&#xee;" horiz-adv-x="585" 
d="M362 1552q12 0 21 -8l313 -375q18 -27 6 -37t-40 1l-367 133q-264 -90 -377 -127q-33 -10 -42 2t9 35q322 369 324 370l12 6h141zM240 1075q128 0 206 -84t78 -227v-752l-8 -12h-410q-10 2 -10 10q16 467 16 593t-21 193q-22 67 -46 81q-25 14 -42 25t-11 28q18 53 92 99
t156 46z" />
    <glyph glyph-name="idieresis" unicode="&#xef;" horiz-adv-x="585" 
d="M735 1307q0 -74 -59 -125q-60 -52 -144 -52t-143 52t-59 125q0 74 59 125t143 51t144 -51t59 -125zM260 1307q0 -74 -60 -125q-60 -52 -144 -52t-144 52q-59 52 -59 125q0 74 59 125t143 51q85 0 145 -51t60 -125zM240 1075q128 0 206 -84t78 -227v-752l-8 -12h-410
q-10 2 -10 10q16 467 16 593t-21 193q-22 67 -46 81q-25 14 -42 25t-11 28q18 53 92 99t156 46z" />
    <glyph glyph-name="ntilde" unicode="&#xf1;" horiz-adv-x="1273" 
d="M1110 1487q23 2 29 -64q10 -129 -82 -220t-283 -75q-82 8 -224 70t-198 66q-56 2 -98 -16q-43 -18 -65 -40q-23 -23 -39 -42t-25 -19q-25 -4 -19 63q10 127 104 207t232 76q94 -4 238 -63q144 -60 210 -62q109 -4 184 86q26 31 36 33zM1034 -39q-127 0 -214 85t-87 226
v398q0 106 -60 117t-108 -64q-39 -68 -41 -162v-549l-10 -12h-410q-8 2 -8 10q16 467 16 593t-21 193q-22 67 -47 81q-26 14 -42 25t-10 28q16 53 90 99t170 46q96 -1 170 -65q76 -64 96 -174q62 123 158 181t202 58t187 -94q82 -94 82 -244l-2 -319q0 -176 54 -235
q21 -24 43 -36t34 -20t6 -23q-18 -51 -92 -97t-156 -46z" />
    <glyph glyph-name="ograve" unicode="&#xf2;" horiz-adv-x="1187" 
d="M322 1505q-2 2 -1 8t5 9q102 123 264 161q8 2 12 -4q35 -139 91 -232t167 -204q8 -8 2 -14q-37 -63 -84 -101q-4 -2 -16 2q-303 107 -440 375zM424 512q0 -141 43 -234q43 -94 129 -94t127 90t41 234t-43 235q-43 93 -128 93t-127 -92t-42 -232zM594 1067q246 0 410 -162
q164 -163 163 -397q1 -234 -161 -394t-410 -161q-248 0 -412 162t-164 395t164 395t410 162z" />
    <glyph glyph-name="oacute" unicode="&#xf3;" horiz-adv-x="1187" 
d="M864 1505q-137 -268 -440 -375q-12 -4 -16 -2q-47 37 -84 101q-6 6 2 14q111 111 167 204t91 232q4 6 12 4q162 -39 264 -161q8 -7 4 -17zM424 512q0 -141 43 -234q43 -94 129 -94t127 90t41 234t-43 235q-43 93 -128 93t-127 -92t-42 -232zM594 1067q246 0 410 -162
q164 -163 163 -397q1 -234 -161 -394t-410 -161q-248 0 -412 162t-164 395t164 395t410 162z" />
    <glyph glyph-name="ocircumflex" unicode="&#xf4;" horiz-adv-x="1187" 
d="M664 1552q12 0 20 -8l313 -375q19 -27 7 -37t-41 1l-367 133q-264 -90 -377 -127q-33 -10 -42 2t9 35q322 369 324 370l12 6h142zM424 512q0 -141 43 -234q43 -94 129 -94t127 90t41 234t-43 235q-43 93 -128 93t-127 -92t-42 -232zM594 1067q246 0 410 -162
q164 -163 163 -397q1 -234 -161 -394t-410 -161q-248 0 -412 162t-164 395t164 395t410 162z" />
    <glyph glyph-name="otilde" unicode="&#xf5;" horiz-adv-x="1187" 
d="M1104 1487q23 2 29 -64q10 -129 -82 -220t-283 -75q-82 8 -224 70t-198 66q-56 2 -98 -16q-43 -18 -65 -40q-22 -23 -39 -42t-25 -19q-25 -4 -19 63q10 127 104 207t232 76q94 -4 238 -63q144 -60 210 -62q106 -4 184 86q26 31 36 33zM424 512q0 -141 43 -234
q43 -94 129 -94t127 90t41 234t-43 235q-43 93 -128 93t-127 -92t-42 -232zM594 1067q246 0 410 -162q164 -163 163 -397q1 -234 -161 -394t-410 -161q-248 0 -412 162t-164 395t164 395t410 162z" />
    <glyph glyph-name="odieresis" unicode="&#xf6;" horiz-adv-x="1187" 
d="M1034 1307q0 -74 -59 -125q-59 -52 -143 -52t-144 52q-59 52 -59 125q0 74 59 125t143 51q83 0 143 -51t60 -125zM559 1307q0 -74 -60 -125q-61 -52 -145 -52t-143 52t-59 125q0 74 59 125t143 51t144 -51t61 -125zM424 512q0 -141 43 -234q43 -94 129 -94t127 90t41 234
t-43 235q-43 93 -128 93t-127 -92t-42 -232zM594 1067q246 0 410 -162q164 -163 163 -397q1 -234 -161 -394t-410 -161q-248 0 -412 162t-164 395t164 395t410 162z" />
    <glyph glyph-name="divide" unicode="&#xf7;" horiz-adv-x="1024" 
d="M954 412q0 -6 -8 -6h-876l-11 8v176q2 10 13 10h874l8 -8v-180zM512 670q-63 0 -109 44q-45 44 -45 107t45 109t109 45q64 0 108 -45q46 -44 46 -108t-46 -108t-108 -44zM512 336q62 0 108 -44t46 -108t-45 -108q-45 -45 -109 -45t-109 45t-45 108t45 108q46 44 109 44z
" />
    <glyph glyph-name="oslash" unicode="&#xf8;" horiz-adv-x="1167" 
d="M584 184q88 0 129 90t41 214q0 122 -21 192l-235 -461q35 -35 86 -35zM584 836q-86 0 -128 -92t-42 -212q0 -122 20 -196l238 463q-37 37 -88 37zM135 -215l141 250q-126 73 -196 199t-70 276q0 233 164 395t410 162q106 0 200 -35l80 176l13 9h145q6 0 0 -9
q-57 -92 -131 -225q123 -74 195 -200t71 -273q0 -236 -162 -396t-411 -161q-100 0 -199 33l-88 -195l-12 -6h-150z" />
    <glyph glyph-name="ugrave" unicode="&#xf9;" 
d="M338 1505q-2 2 -1 8t5 9q102 123 264 161q8 2 12 -4q36 -139 92 -232t167 -204q8 -8 2 -14q-37 -63 -84 -101q-4 -2 -17 2q-303 107 -440 375zM1147 427q-1 -126 21 -193q22 -66 46 -80t42 -26q17 -12 12 -28q-18 -53 -92 -99t-168 -46t-170 62t-97 173
q-59 -121 -149 -178t-194 -57t-187 94q-82 94 -82 244v319q0 176 -54 235q-21 24 -43 36t-33 19t-7 22q18 53 92 99t156 46q129 0 216 -85t87 -226v-398q0 -111 61 -118q53 -8 90 61t41 152v563l8 12h412q8 -2 8 -10q-16 -467 -16 -593z" />
    <glyph glyph-name="uacute" unicode="&#xfa;" 
d="M915 1505q-137 -268 -440 -375q-12 -4 -16 -2q-47 37 -84 101q-6 6 2 14q111 111 167 204t91 232q4 6 12 4q162 -39 264 -161q8 -7 4 -17zM1147 427q-1 -126 21 -193q22 -66 46 -80t42 -26q17 -12 12 -28q-18 -53 -92 -99t-168 -46t-170 62t-97 173q-59 -121 -149 -178
t-194 -57t-187 94q-82 94 -82 244v319q0 176 -54 235q-21 24 -43 36t-33 19t-7 22q18 53 92 99t156 46q129 0 216 -85t87 -226v-398q0 -111 61 -118q53 -8 90 61t41 152v563l8 12h412q8 -2 8 -10q-16 -467 -16 -593z" />
    <glyph glyph-name="ucircumflex" unicode="&#xfb;" 
d="M698 1552q12 0 21 -8l313 -375q18 -27 6 -37t-41 1l-366 133q-264 -90 -377 -127q-33 -10 -42 2t9 35q322 369 324 370l12 6h141zM1147 427q-1 -126 21 -193q22 -66 46 -80t42 -26q17 -12 12 -28q-18 -53 -92 -99t-168 -46t-170 62t-97 173q-59 -121 -149 -178t-194 -57
t-187 94q-82 94 -82 244v319q0 176 -54 235q-21 24 -43 36t-33 19t-7 22q18 53 92 99t156 46q129 0 216 -85t87 -226v-398q0 -111 61 -118q53 -8 90 61t41 152v563l8 12h412q8 -2 8 -10q-16 -467 -16 -593z" />
    <glyph glyph-name="udieresis" unicode="&#xfc;" 
d="M1071 1307q0 -74 -59 -125q-60 -52 -144 -52t-143 52t-59 125q0 74 59 125t143 51t144 -51t59 -125zM596 1307q0 -74 -60 -125q-60 -52 -144 -52t-144 52q-59 52 -60 125q0 74 60 125t143 51q85 0 145 -51t60 -125zM1147 427q-1 -126 21 -193q22 -66 46 -80t42 -26
q17 -12 12 -28q-18 -53 -92 -99t-168 -46t-170 62t-97 173q-59 -121 -149 -178t-194 -57t-187 94q-82 94 -82 244v319q0 176 -54 235q-21 24 -43 36t-33 19t-7 22q18 53 92 99t156 46q129 0 216 -85t87 -226v-398q0 -111 61 -118q53 -8 90 61t41 152v563l8 12h412
q8 -2 8 -10q-16 -467 -16 -593z" />
    <glyph glyph-name="yacute" unicode="&#xfd;" horiz-adv-x="1218" 
d="M899 1505q-137 -268 -440 -375q-12 -4 -17 -2q-47 37 -84 101q-6 6 2 14q111 111 167 204t91 232q4 6 13 4q162 -39 264 -161q4 -2 5 -8t-1 -9zM590 -463q-137 0 -245 56q-108 57 -154 115q-71 91 -78 182q-3 45 26 40q14 -2 42 -28t60 -57t95 -55t141 -23q117 -1 189 67
t75 166v205q-57 -123 -148 -180t-195 -57t-187 93q-82 94 -82 244v307q0 176 -54 235q-21 24 -43 36t-33 19t-7 22q18 53 92 99t156 46q129 0 215 -85t86 -226v-385q0 -111 61 -119q55 -8 94 65t41 160v539l8 10h396q8 0 8 -10q6 -601 6 -873q10 -272 -138 -440t-427 -168z
" />
    <glyph glyph-name="ydieresis" unicode="&#xff;" horiz-adv-x="1218" 
d="M590 -459q-137 1 -245 57q-175 92 -214 217q-39 126 8 119q14 -2 42 -28t60 -54q32 -30 95 -54t141 -23q117 0 189 77t75 177v204q-57 -123 -148 -180t-195 -57t-187 94q-82 94 -82 244v278q0 176 -54 235q-21 24 -43 36t-33 19t-7 22q18 53 92 99t156 46q129 0 215 -85
t86 -226v-357q0 -111 61 -118q55 -7 94 65t41 160v510l8 10h396q8 0 8 -10q6 -596 6 -868q10 -272 -138 -440t-427 -169zM1079 1307q0 -74 -59 -125q-59 -52 -143 -52q-83 0 -143 52t-60 125q0 74 59 125t143 51t144 -51q59 -51 59 -125zM602 1307q0 -74 -59 -125
q-59 -52 -143 -52t-144 52q-59 52 -59 125q0 74 59 125t143 51q83 0 143 -51t60 -125z" />
    <glyph glyph-name="Amacron" unicode="&#x100;" horiz-adv-x="1411" 
d="M561 504h240l-121 594q-20 -86 -64 -310t-55 -284zM930 0q-10 0 -12 10l-52 217h-362l-45 -217q-5 -10 -13 -10h-430l-4 10q352 1102 353 1104q39 113 30 155q-8 41 -26 69t-15 42q18 58 110 100t196 42q106 0 208 -81t160 -239t297 -948l74 -244l-6 -10h-463zM1032 1585
q0 -6 -8 -6h-705l-10 8v176q2 10 13 11h702l8 -9v-180z" />
    <glyph glyph-name="amacron" unicode="&#x101;" horiz-adv-x="1263" 
d="M596 240q72 0 113 78t41 198q0 121 -41 200t-113 79t-113 -79t-41 -200q0 -120 41 -198t113 -78zM1151 427q-1 -126 21 -193q22 -66 47 -80t41 -26t10 -28q-16 -53 -90 -99t-168 -46t-170 62t-97 171q-121 -231 -323 -231q-123 0 -217 84t-139 209t-46 266q0 225 111 390
t305 165t301 -194v141l11 12h409q8 -2 8 -10q-14 -467 -14 -593zM1022 1165q0 -6 -8 -6h-705l-10 8v176q2 10 12 11h703l8 -8v-181z" />
    <glyph glyph-name="Abreve" unicode="&#x102;" horiz-adv-x="1411" 
d="M704 1544q-118 0 -228 68t-167 180q-51 109 -16 127q8 4 56 -31t92 -58q103 -56 267 -56q163 0 261 55q43 24 90 59t55 31q39 -20 -17 -131q-56 -112 -165 -178q-110 -66 -228 -66zM561 504h240l-121 594q-20 -86 -64 -310t-55 -284zM930 0q-10 0 -12 10l-52 217h-362
l-45 -217q-5 -10 -13 -10h-430l-4 10q352 1102 353 1104q39 113 30 155q-8 41 -26 69t-15 42q18 58 110 100t196 42q106 0 208 -81t160 -239t297 -948l74 -244l-6 -10h-463z" />
    <glyph glyph-name="abreve" unicode="&#x103;" horiz-adv-x="1263" 
d="M370 1419q100 -55 264 -55q163 0 261 55q53 30 95 62t50 28q39 -20 -17 -131q-56 -112 -165 -178q-110 -66 -228 -66t-228 68t-164 178t-19 129q9 4 27 -9t50 -36t74 -45zM596 240q72 0 113 78t41 198q0 121 -41 200t-113 79t-113 -79t-41 -200q0 -120 41 -198t113 -78z
M1151 427q-1 -126 21 -193q22 -66 47 -80t41 -26t10 -28q-16 -53 -90 -99t-168 -46t-170 62t-97 171q-121 -231 -323 -231q-123 0 -217 84t-139 209t-46 266q0 225 111 390t305 165t301 -194v141l11 12h409q8 -2 8 -10q-14 -467 -14 -593z" />
    <glyph glyph-name="Aogonek" unicode="&#x104;" horiz-adv-x="1411" 
d="M930 0q-10 0 -12 10l-52 217h-362l-45 -217q-5 -10 -13 -10h-430l-4 10q352 1102 353 1104q39 113 30 155q-8 41 -26 69t-15 42q18 58 110 100t196 42q106 0 208 -81t160 -239t297 -948l74 -244l-6 -10h-121q-10 -14 -38 -48q-81 -100 -81 -198q0 -92 100 -92q38 0 65 10
t36 6q40 -66 -24 -152t-171 -93q-68 -3 -122 21q-88 40 -123 146q-13 39 -11 68q11 234 250 332h-223zM561 504h240l-121 594q-20 -86 -64 -310t-55 -284z" />
    <glyph glyph-name="aogonek" unicode="&#x105;" horiz-adv-x="1263" 
d="M422 -43q-123 0 -217 84t-139 209t-46 266q0 225 111 390t305 165t301 -194v141l11 12h409q8 -2 8 -10q-14 -467 -14 -593q-1 -126 21 -193q22 -66 47 -80t41 -26t10 -28q-16 -53 -90 -99q-17 -11 -36 -19q2 -2 2 -6t-40 -51q-94 -115 -92 -212q0 -92 100 -92q42 1 67 11
t33 6q39 -66 -24 -152t-170 -94q-68 -4 -122 20q-88 40 -123 147q-13 39 -11 68q10 213 215 316q14 7 27 12q-96 5 -168 65t-93 168q-121 -231 -323 -231zM596 240q72 0 113 78t41 198q0 121 -41 200t-113 79t-113 -79t-41 -200q0 -120 41 -198t113 -78z" />
    <glyph glyph-name="Cacute" unicode="&#x106;" horiz-adv-x="1314" 
d="M973 1915q-137 -268 -441 -375q-12 -4 -16 -2q-47 37 -84 100q-6 6 2 15q111 111 167 204t91 232q4 6 13 4q162 -39 264 -162q4 -2 5 -8t-1 -8zM20 736q0 318 202 544t515 229q239 2 393 -103t154 -271q0 -90 -61 -162t-166 -72q-68 0 -114 22t-44 52q17 113 -19 195
t-128 81q-92 0 -158 -90t-92 -211t-10 -227q24 -188 114 -303q90 -114 207 -140t242 7t221 119q41 35 39 -13q-14 -101 -94 -207q-45 -60 -105 -107q-60 -48 -162 -84q-100 -36 -219 -38q-299 -6 -507 227q-208 234 -208 552z" />
    <glyph glyph-name="cacute" unicode="&#x107;" horiz-adv-x="1067" 
d="M809 1505q-137 -268 -440 -375q-12 -4 -17 -2q-47 37 -84 101q-6 6 2 14q111 111 167 204t91 232q4 6 13 4q162 -39 264 -161q4 -2 5 -8t-1 -9zM580 -43q-233 0 -397 164q-163 164 -163 392t155 389t388 171q187 0 323 -75t136 -212q2 -78 -55 -141t-144 -63
q-47 0 -92 12t-52 25t-4 40t3 41q0 62 -28 102t-70 40q-78 0 -120 -102t-31 -214q11 -114 55 -183q77 -120 234 -116q158 4 302 88q17 12 28 2q11 -11 4 -41q-16 -69 -130 -187q-54 -56 -146 -94t-196 -38z" />
    <glyph glyph-name="Ccaron" unicode="&#x10c;" horiz-adv-x="1314" 
d="M788 1567h-141q-8 0 -12 6l-324 371q-18 22 -9 34t42 2l377 -127q237 89 366 134q29 10 41 0t-6 -37q-311 -373 -316 -378t-18 -5zM20 736q0 318 202 544t515 229q239 2 393 -103t154 -271q0 -90 -61 -162t-166 -72q-68 0 -114 22t-44 52q17 113 -19 195t-128 81
q-92 0 -158 -90t-92 -211t-10 -227q24 -188 114 -303q90 -114 207 -140t242 7t221 119q41 35 39 -13q-14 -101 -94 -207q-45 -60 -105 -107q-60 -48 -162 -84q-100 -36 -219 -38q-299 -6 -507 227q-208 234 -208 552z" />
    <glyph glyph-name="ccaron" unicode="&#x10d;" horiz-adv-x="1067" 
d="M602 1137h-141q-8 0 -12 6l-324 370q-18 23 -9 35t42 2l377 -127q237 88 366 133q29 10 41 0t-6 -36q-311 -373 -316 -378t-18 -5zM580 -43q-233 0 -397 164q-163 164 -163 392t155 389t388 171q187 0 323 -75t136 -212q2 -78 -55 -141t-144 -63q-47 0 -92 12t-52 25
t-4 40t3 41q0 62 -28 102t-70 40q-78 0 -120 -102t-31 -214q11 -114 55 -183q77 -120 234 -116q158 4 302 88q17 12 28 2q11 -11 4 -41q-16 -69 -130 -187q-54 -56 -146 -94t-196 -38z" />
    <glyph glyph-name="Dcaron" unicode="&#x10e;" horiz-adv-x="1345" 
d="M670 1567h-142q-8 0 -12 6l-323 371q-17 22 -9 34t41 2l377 -127q238 89 367 134q29 10 41 0t-6 -37q-310 -373 -316 -378t-18 -5zM512 1278v-1100q178 -8 271 158t93 384t-84 395q-42 85 -115 131t-165 32zM588 1501q332 0 536 -221t205 -554q-1 -333 -195 -553
t-542 -220q-150 0 -280 15t-185 32l-55 14q-10 0 -11 13v1405q0 12 11 12q184 57 516 57z" />
    <glyph glyph-name="dcaron" unicode="&#x10f;" horiz-adv-x="1589" 
d="M1573 1286q0 -131 -75 -217q-76 -86 -158 -116t-83 10q0 18 35 50q102 93 39 113q-119 52 -119 180q0 66 52 119t128 53q75 0 128 -54q53 -56 53 -138zM574 795q-74 0 -114 -79t-40 -199q0 -121 40 -199t114 -78q73 0 114 78t41 198q0 121 -41 200t-114 79zM1145 414
q0 -220 77 -271q17 -12 25 -19t2 -22q-16 -53 -90 -99q-73 -46 -167 -46t-171 62q-76 62 -96 171q-121 -233 -324 -233q-123 0 -217 84t-139 209t-45 266q0 225 110 390t304 165t303 -194v585l10 11h410q8 0 8 -9v-1050z" />
    <glyph glyph-name="Dcroat" unicode="&#x110;" horiz-adv-x="1439" 
d="M878 336q93 166 93 384t-85 395q-42 85 -115 131t-165 32v-461h199l10 -8v-141q0 -6 -8 -6l-201 -3v-481q178 -8 272 158zM682 1501q332 0 536 -221t205 -554q-1 -333 -195 -553t-542 -220q-150 0 -280 15t-185 32l-55 14q-10 0 -10 13v632l-133 3l-11 8v137q0 10 11 10
h133v615q0 12 10 12q184 57 516 57z" />
    <glyph glyph-name="dcroat" unicode="&#x111;" horiz-adv-x="1243" 
d="M574 795q-74 0 -114 -79t-40 -199q0 -121 40 -199t114 -78q73 0 114 78t41 198q0 121 -41 200t-114 79zM1145 414q0 -220 77 -271q17 -12 25 -19t2 -22q-16 -53 -90 -99q-73 -46 -167 -46t-171 62q-76 62 -96 171q-121 -233 -324 -233q-123 0 -217 84t-139 209t-45 266
q0 225 110 390t304 165t303 -194v282l-234 2l-10 8v138q0 10 10 10h234v145l10 11h410q8 0 8 -9v-147h121l10 -8v-142q0 -6 -8 -6l-123 -2v-745z" />
    <glyph glyph-name="Emacron" unicode="&#x112;" horiz-adv-x="1107" 
d="M516 618v-147q2 -94 66 -143q112 -86 321 -35q87 20 144 57q31 18 43 4t6 -55q-13 -89 -135 -209q-59 -57 -159 -96t-216 -39q-250 0 -387 164t-138 393l2 944l13 10h977q25 0 26 -74q2 -74 -9 -114q-11 -41 -51 -87q-87 -100 -269 -100q-98 -1 -164 11l-66 12l-2 -270
h338l10 -10v-205l-12 -11h-338zM918 1585q0 -6 -9 -6h-704l-10 8v176q2 10 12 11h702l9 -9v-180z" />
    <glyph glyph-name="emacron" unicode="&#x113;" horiz-adv-x="1105" 
d="M588 840h-6q-138 -28 -156 -258q133 -12 203 32t69 129q0 43 -30 72q-31 29 -78 27q0 -2 -2 -2zM578 -43q-231 0 -395 164q-163 164 -163 395t163 394t407 163t369 -114q126 -113 126 -235t-62 -199q-61 -77 -157 -103q-228 -63 -424 -21q52 -151 230 -173t364 87
q15 10 28 1q13 -8 4 -38q-23 -74 -139 -189q-59 -56 -153 -94t-198 -38zM930 1165q0 -6 -8 -6h-705l-10 8v176q2 10 12 11h703l8 -8v-181z" />
    <glyph glyph-name="Edotaccent" unicode="&#x116;" horiz-adv-x="1107" 
d="M758 1716q0 -74 -60 -125t-145 -51q-84 0 -143 51t-60 125q0 74 60 125t143 51q85 0 145 -51t60 -125zM516 618v-147q2 -94 66 -143q112 -86 321 -35q87 20 144 57q31 18 43 4t6 -55q-13 -89 -135 -209q-59 -57 -159 -96t-216 -39q-250 0 -387 164t-138 393l2 944l13 10
h977q25 0 26 -74q2 -74 -9 -114q-11 -41 -51 -87q-87 -100 -269 -100q-98 -1 -164 11l-66 12l-2 -270h338l10 -10v-205l-12 -11h-338z" />
    <glyph glyph-name="edotaccent" unicode="&#x117;" horiz-adv-x="1105" 
d="M756 1307q0 -74 -60 -125q-60 -52 -145 -52q-84 0 -143 52t-60 125q0 74 60 125t143 51q85 0 145 -51t60 -125zM588 840h-6q-138 -28 -156 -258q133 -12 203 32t69 129q0 43 -30 72q-31 29 -78 27q0 -2 -2 -2zM578 -43q-231 0 -395 164q-163 164 -163 395t163 394
t407 163t369 -114q126 -113 126 -235t-62 -199q-61 -77 -157 -103q-228 -63 -424 -21q52 -151 230 -173t364 87q15 10 28 1q13 -8 4 -38q-23 -74 -139 -189q-59 -56 -153 -94t-198 -38z" />
    <glyph glyph-name="Eogonek" unicode="&#x118;" horiz-adv-x="1107" 
d="M516 618v-147q2 -94 66 -143q112 -86 321 -35q86 20 144 57q31 18 43 4t6 -55q-13 -89 -135 -209q-72 -70 -196 -109q2 -4 -38 -54q-95 -117 -94 -214q0 -92 100 -92q42 1 67 11t34 6q40 -66 -24 -152t-171 -94q-68 -4 -122 20q-88 40 -123 147q-13 39 -11 68
q11 229 244 329q-20 -1 -41 -1q-250 0 -387 164t-138 393l2 944l13 10h977q25 0 26 -74q2 -74 -9 -114q-11 -41 -51 -87q-87 -100 -269 -100q-98 -1 -164 11l-66 12l-2 -270h338l10 -10v-205l-12 -11h-338z" />
    <glyph glyph-name="eogonek" unicode="&#x119;" horiz-adv-x="1105" 
d="M578 -43q-231 0 -395 164q-163 164 -163 395t163 394t407 163t369 -114q126 -113 126 -235t-62 -199q-61 -77 -157 -103q-228 -63 -424 -21q52 -151 230 -173t364 87q14 10 28 1q14 -8 4 -38q-23 -74 -139 -189q-78 -76 -209 -113q-6 -8 -42 -54q-91 -114 -90 -209
q0 -92 100 -92q42 1 67 11t33 6q39 -66 -24 -152t-170 -94q-68 -4 -122 20q-88 40 -123 147q-13 39 -11 68q11 230 245 330h-5zM588 840h-6q-138 -28 -156 -258q133 -12 203 32t69 129q0 43 -30 72q-31 29 -78 27q0 -2 -2 -2z" />
    <glyph glyph-name="Ecaron" unicode="&#x11a;" horiz-adv-x="1107" 
d="M623 1546h-142q-8 0 -12 6l-324 371q-18 23 -9 35t42 2l377 -127q238 88 367 133q29 10 41 0t-7 -37q-311 -373 -316 -378t-17 -5zM516 618v-147q2 -94 66 -143q112 -86 321 -35q87 20 144 57q31 18 43 4t6 -55q-13 -89 -135 -209q-59 -57 -159 -96t-216 -39
q-250 0 -387 164t-138 393l2 944l13 10h977q25 0 26 -74q2 -74 -9 -114q-11 -41 -51 -87q-87 -100 -269 -100q-98 -1 -164 11l-66 12l-2 -270h338l10 -10v-205l-12 -11h-338z" />
    <glyph glyph-name="ecaron" unicode="&#x11b;" horiz-adv-x="1105" 
d="M645 1137h-141q-8 0 -12 6l-324 370q-18 23 -9 35t42 2l377 -127q237 88 366 133q29 10 41 0t-6 -36q-311 -373 -316 -378t-18 -5zM588 840h-6q-138 -28 -156 -258q133 -12 203 32t69 129q0 43 -30 72q-31 29 -78 27q0 -2 -2 -2zM578 -43q-231 0 -395 164
q-163 164 -163 395t163 394t407 163t369 -114q126 -113 126 -235t-62 -199q-61 -77 -157 -103q-228 -63 -424 -21q52 -151 230 -173t364 87q15 10 28 1q13 -8 4 -38q-23 -74 -139 -189q-59 -56 -153 -94t-198 -38z" />
    <glyph glyph-name="Gbreve" unicode="&#x11e;" horiz-adv-x="1345" 
d="M493 1849q100 -55 264 -55q163 0 261 55q53 30 95 62t50 28q39 -20 -17 -131q-56 -112 -165 -178t-227 -66t-229 68q-110 68 -167 180q-51 109 -16 127q8 4 26 -9t51 -36q32 -23 74 -45zM1069 768q125 0 196 -83t71 -235t-9 -226q-8 -74 -15 -80q-72 -57 -152 -94
q-193 -93 -415 -93q-303 0 -509 231q-206 232 -207 550q0 318 201 546q202 227 518 229q242 2 396 -103t152 -271q0 -90 -61 -163t-166 -73q-70 0 -116 22t-44 52q17 113 -19 195t-128 83q-92 0 -156 -91t-88 -210q-24 -118 -18 -198t13 -127t34 -120t67 -124t113 -89
q74 -38 170 -34q10 117 -2 193q-13 75 -33 97t-35 38q-14 16 -8 33q20 53 94 99t156 46z" />
    <glyph glyph-name="gbreve" unicode="&#x11f;" horiz-adv-x="1220" 
d="M374 1419q100 -55 264 -55q163 0 261 55q53 30 95 62t50 28q39 -20 -17 -131q-56 -112 -165 -178q-110 -66 -228 -66t-228 68t-166 180q-51 109 -17 127q9 4 27 -9t50 -36t74 -45zM440 517q0 -119 41 -195t114 -76t114 76t41 194t-41 199q-41 80 -114 80t-114 -79
t-41 -199zM592 -494q-104 0 -192 32t-142 80q-101 92 -121 153t-21 89t6 35t20 5t41 -28t60 -56t95 -53q63 -24 141 -23q117 0 189 77t75 177v182q-51 -100 -134 -156t-187 -57q-184 0 -293 166t-109 389t110 388t306 165t303 -199v146l9 10h395q8 0 8 -10q6 -653 6 -903
q10 -273 -138 -441t-427 -168z" />
    <glyph glyph-name="Gcommaaccent" unicode="&#x122;" horiz-adv-x="1345" 
d="M1069 768q125 0 196 -83t71 -235t-9 -226q-8 -74 -15 -80q-72 -57 -152 -94q-193 -93 -415 -93q-303 0 -509 231q-206 232 -207 550q0 318 201 546q202 227 518 229q242 2 396 -103t152 -271q0 -90 -61 -163t-166 -73q-70 0 -116 22t-44 52q17 113 -19 195t-128 83
q-92 0 -156 -91t-88 -210q-24 -118 -18 -198t13 -127t34 -120t67 -124t113 -89q74 -38 170 -34q10 117 -2 193q-13 75 -33 97t-35 38q-14 16 -8 33q20 53 94 99t156 46zM956 -319q0 -147 -83 -243t-162 -124q-104 -35 -105 6q0 20 38 55q110 102 44 127q-59 25 -96 75
t-37 124t58 133q57 60 141 60t143 -62t59 -151z" />
    <glyph glyph-name="gcommaaccent" unicode="&#x123;" horiz-adv-x="1220" 
d="M430 1597q0 131 75 217t157 116q82 28 81 -9q1 -20 -33 -51q-98 -91 -38 -113q119 -52 119 -179q1 -67 -53 -120t-128 -53t-127 55t-53 137zM440 517q0 -119 41 -195t114 -76t114 76t41 194t-41 199q-41 80 -114 80t-114 -79t-41 -199zM592 -494q-104 0 -192 32t-142 80
q-101 92 -121 153t-21 89t6 35t20 5t41 -28t60 -56t95 -53q63 -24 141 -23q117 0 189 77t75 177v182q-51 -100 -134 -156t-187 -57q-184 0 -293 166t-109 389t110 388t306 165t303 -199v146l9 10h395q8 0 8 -10q6 -653 6 -903q10 -273 -138 -441t-427 -168z" />
    <glyph glyph-name="imacron" unicode="&#x12b;" horiz-adv-x="585" 
d="M240 1075q128 0 206 -84t78 -227v-752l-8 -12h-410q-10 2 -10 10q16 467 16 593t-21 193q-22 67 -46 81q-25 14 -42 25t-11 28q18 53 92 99t156 46zM623 1165q0 -6 -9 -6h-704l-10 8v176q2 10 12 11h702l9 -8v-181z" />
    <glyph glyph-name="Iogonek" unicode="&#x12e;" horiz-adv-x="636" 
d="M272 1513q131 1 217 -81t86 -246v-1176l-10 -10h-87q-10 -14 -38 -48q-82 -101 -82 -198q0 -92 101 -92q32 0 62 10t38 6q39 -66 -24 -152t-170 -93q-68 -3 -122 21q-88 40 -123 146q-13 39 -11 68q11 234 250 332h-230l-8 10v1112q-12 133 -61 175q-19 17 -37 27t-27 18
q-8 7 -4 22q18 53 105 101t175 48z" />
    <glyph glyph-name="iogonek" unicode="&#x12f;" horiz-adv-x="585" 
d="M240 1075q128 0 206 -84t78 -227v-752l-8 -12h-81q-10 -14 -38 -48q-82 -101 -82 -198q0 -92 101 -92q32 0 62 10t38 6q39 -66 -24 -152t-170 -93q-68 -3 -122 21q-88 40 -123 146q-13 39 -11 68q11 234 250 332h-210q-10 2 -10 10q16 467 16 593t-21 193q-22 67 -46 81
q-25 14 -42 25t-11 28q18 53 92 99t156 46zM510 1320q0 -79 -71 -134q-71 -56 -169 -56t-168 56t-70 134q0 79 70 135t168 56t169 -56t71 -135z" />
    <glyph glyph-name="dotlessi" unicode="&#x131;" horiz-adv-x="585" 
d="M240 1075q128 0 206 -84t78 -227v-752l-8 -12h-410q-10 2 -10 10q16 467 16 593t-21 193q-22 67 -46 81q-25 14 -42 25t-11 28q18 53 92 99t156 46z" />
    <glyph glyph-name="Kcommaaccent" unicode="&#x136;" horiz-adv-x="1417" 
d="M272 1513q131 1 217 -81t86 -246v-334q106 0 176 95q69 95 66 223q-2 128 -78 216q-14 14 16 46t91 56q61 26 125 25q127 0 209 -92t82 -223q0 -291 -308 -450q16 -63 58 -147q43 -85 88 -151t124 -132q79 -68 171 -103q8 -15 2 -67q-5 -52 -69 -115t-152 -74
q-387 -43 -506 469q-12 51 -37 213q-8 -2 -58 -8v-623l-10 -10h-436l-8 10v1112q-12 133 -61 175q-19 17 -37 27t-27 18q-8 7 -4 22q18 53 105 101t175 48zM905 -299q0 -147 -83 -243t-175 -127q-92 -32 -92 10q0 20 38 55q108 100 47 126q-62 26 -99 76t-37 124t59 132
q59 60 141 60t142 -62q59 -62 59 -151z" />
    <glyph glyph-name="kcommaaccent" unicode="&#x137;" horiz-adv-x="1230" 
d="M479 1464v-600q59 104 153 158t206 53q112 0 192 -82t91 -185t-53 -198q-65 -94 -198 -114v-4q61 -152 210 -272q62 -50 107 -72t54 -32q9 -11 -27 -51t-114 -75t-168 -35t-167 40t-119 96t-78 152t-38 210q0 45 23 45q152 0 190 112q27 82 -22 150q-31 41 -78 41
q-84 0 -122 -66t-42 -151v-572l-8 -12h-395q-8 2 -8 10q-6 1233 -7 1454l9 9h401q8 -4 8 -9zM805 -299q0 -147 -83 -243t-175 -127q-92 -32 -92 10q-1 20 37 55q106 99 46 126q-135 60 -135 200q1 74 59 132q58 60 141 60t143 -62t59 -151z" />
    <glyph glyph-name="Lacute" unicode="&#x139;" horiz-adv-x="1083" 
d="M608 1915q-137 -268 -440 -375q-12 -4 -16 -2q-47 37 -84 100q-6 6 2 15q111 111 167 204t91 232q4 6 12 4q162 -39 264 -162q4 -2 5 -8t-1 -8zM272 1513q131 1 217 -81t86 -246v-867h35q204 1 266 19q118 35 123 49q3 8 15 11t14 -5q43 -32 52 -107q27 -223 -185 -306
q-93 -38 -272 -23q-338 43 -494 43l-8 10v1112q-12 133 -61 175q-19 17 -37 27t-27 18q-8 7 -4 22q18 53 105 101t175 48z" />
    <glyph glyph-name="lacute" unicode="&#x13a;" horiz-adv-x="604" 
d="M588 1915q-137 -268 -441 -375q-12 -4 -16 -2q-47 37 -84 100q-6 6 2 15q111 111 167 204t91 232q4 6 12 4q162 -39 265 -162q4 -2 5 -8t-1 -8zM348 -45q-127 0 -207 85t-80 226v1196l11 11h409l8 -11q3 -909 3 -1035t22 -193q22 -66 46 -80t41 -26t11 -28
q-18 -51 -99 -98t-165 -47z" />
    <glyph glyph-name="Lcommaaccent" unicode="&#x13b;" horiz-adv-x="1083" 
d="M272 1513q131 1 217 -81t86 -246v-867h35q204 1 266 19q118 35 123 49q3 8 15 11t14 -5q43 -32 52 -107q27 -223 -185 -306q-93 -38 -272 -23q-338 43 -494 43l-8 10v1112q-12 133 -61 175q-19 17 -37 27t-27 18q-8 7 -4 22q18 53 105 101t175 48zM758 -319
q0 -147 -83 -243t-175 -127q-92 -32 -92 9q0 20 38 55q109 102 43 127q-59 25 -96 75t-37 124t60 133q60 60 141 60t141 -62t60 -151z" />
    <glyph glyph-name="lcommaaccent" unicode="&#x13c;" horiz-adv-x="604" 
d="M348 -45q-127 0 -207 85t-80 226v1196l11 11h409l8 -11q3 -909 3 -1035t22 -193q22 -66 46 -80t41 -26t11 -28q-18 -51 -99 -98t-165 -47zM518 -319q0 -147 -83 -243t-175 -127q-92 -32 -92 9q0 20 38 55q109 101 47 126q-62 26 -99 76t-37 124t58 133q58 60 141 60
q82 0 142 -62t60 -151z" />
    <glyph glyph-name="Lcaron" unicode="&#x13d;" horiz-adv-x="1083" 
d="M1036 1325q0 -131 -74 -217t-158 -116q-83 -30 -83 9q0 19 35 51q100 93 39 113q-119 51 -119 179q0 66 52 120t127 54t128 -56t53 -137zM272 1513q131 1 217 -81t86 -246v-867h35q204 1 266 19q118 35 123 49q3 8 15 11t14 -5q43 -32 52 -107q27 -223 -185 -306
q-93 -38 -272 -23q-338 43 -494 43l-8 10v1112q-12 133 -61 175q-19 17 -37 27t-27 18q-8 7 -4 22q18 53 105 101t175 48z" />
    <glyph glyph-name="lcaron" unicode="&#x13e;" horiz-adv-x="962" 
d="M936 1325q0 -131 -75 -217t-157 -116t-83 9q1 19 35 51q100 94 38 113q-119 51 -119 179q1 66 53 120t127 54t128 -56t53 -137zM348 -45q-127 0 -207 85t-80 226v1196l11 11h409l8 -11q3 -909 3 -1035t22 -193q22 -66 46 -80t41 -26t11 -28q-18 -51 -99 -98t-165 -47z
" />
    <glyph glyph-name="Lslash" unicode="&#x141;" horiz-adv-x="1177" 
d="M369 1513q131 1 217 -81t86 -246v-312l268 99l12 -4l49 -133q2 -6 -6 -9q-29 -12 -79 -29t-122 -44t-122 -45v-390h35q205 0 293 27t94 38t17 14t13 -5q44 -32 53 -107t-13 -140q-39 -114 -173 -166q-93 -38 -272 -23q-338 43 -494 43l-8 10q-2 268 -2 533l-149 -54
l-13 5l-47 129q-2 10 6 12q84 31 203 74v220l2 104v89q-12 134 -60 175q-19 17 -37 27t-28 18q-8 7 -4 22q18 53 106 101t175 48z" />
    <glyph glyph-name="lslash" unicode="&#x142;" horiz-adv-x="731" 
d="M532 412q0 -111 22 -178q22 -66 46 -80t42 -26q17 -12 11 -28q-18 -51 -99 -98t-165 -47q-127 0 -207 85t-80 226v273l-79 -27l-13 4l-47 129q-2 10 6 12q51 16 133 48v757l11 11h409l8 -11q0 -315 2 -604l179 66l12 -4l49 -134q2 -6 -6 -8l-234 -86v-280z" />
    <glyph glyph-name="Nacute" unicode="&#x143;" horiz-adv-x="1425" 
d="M983 1915q-137 -268 -440 -375q-12 -4 -17 -2q-47 37 -84 100q-6 6 2 15q111 111 167 204t91 232q4 6 13 4q162 -39 264 -162q8 -6 4 -16zM300 1522q104 0 176 -62t163 -198q215 -367 315 -586l-20 196l-10 582l8 10h426q10 0 10 -10l-6 -1444l-10 -10h-377q-8 -2 -14 10
l-435 854l19 -170l18 -684l-10 -10h-438l-11 10q12 1118 13 1120q-4 80 -27 130t-47 61q-25 12 -40 22t-9 27q20 52 111 102t195 50z" />
    <glyph glyph-name="nacute" unicode="&#x144;" horiz-adv-x="1273" 
d="M907 1505q-137 -268 -440 -375q-12 -4 -16 -2q-47 37 -84 101q-6 6 2 14q111 111 167 204t91 232q4 6 12 4q162 -39 264 -161q4 -2 5 -8t-1 -9zM1034 -39q-127 0 -214 85t-87 226v398q0 106 -60 117t-108 -64q-39 -68 -41 -162v-549l-10 -12h-410q-8 2 -8 10
q16 467 16 593t-21 193q-22 67 -47 81q-26 14 -42 25t-10 28q16 53 90 99t170 46q96 -1 170 -65q76 -64 96 -174q62 123 158 181t202 58t187 -94q82 -94 82 -244l-2 -319q0 -176 54 -235q21 -24 43 -36t34 -20t6 -23q-18 -51 -92 -97t-156 -46z" />
    <glyph glyph-name="Ncommaaccent" unicode="&#x145;" horiz-adv-x="1425" 
d="M300 1522q104 0 176 -62t163 -198q215 -367 315 -586l-20 196l-10 582l8 10h426q10 0 10 -10l-6 -1444l-10 -10h-377q-8 -2 -14 10l-435 854l19 -170l18 -684l-10 -10h-438l-11 10q12 1118 13 1120q-4 80 -27 130t-47 61q-25 12 -40 22t-9 27q20 52 111 102t195 50z
M954 -299q0 -147 -83 -243t-162 -124q-104 -35 -105 7q0 20 38 55q108 100 47 126q-62 26 -99 76t-37 124t59 132q60 60 142 60t141 -62t59 -151z" />
    <glyph glyph-name="ncommaaccent" unicode="&#x146;" horiz-adv-x="1273" 
d="M1034 -39q-127 0 -214 85t-87 226v398q0 106 -60 117t-108 -64q-39 -68 -41 -162v-549l-10 -12h-410q-8 2 -8 10q16 467 16 593t-21 193q-22 67 -47 81q-26 14 -42 25t-10 28q16 53 90 99t170 46q96 -1 170 -65q76 -64 96 -174q62 123 158 181t202 58t187 -94
q82 -94 82 -244l-2 -319q0 -176 54 -235q21 -24 43 -36t34 -20t6 -23q-18 -51 -92 -97t-156 -46zM834 -299q0 -147 -83 -243t-175 -127q-92 -32 -93 10q0 20 38 55q108 100 47 126q-62 26 -99 76t-37 124t58 132q58 60 142 60t142 -62q60 -62 60 -151z" />
    <glyph glyph-name="Ncaron" unicode="&#x147;" horiz-adv-x="1425" 
d="M782 1546h-141q-8 0 -12 6l-324 371q-18 23 -9 35t42 2l377 -127q237 88 366 133q29 10 41 0t-6 -37q-311 -373 -316 -378t-18 -5zM300 1522q104 0 176 -62t163 -198q215 -367 315 -586l-20 196l-10 582l8 10h426q10 0 10 -10l-6 -1444l-10 -10h-377q-8 -2 -14 10
l-435 854l19 -170l18 -684l-10 -10h-438l-11 10q12 1118 13 1120q-4 80 -27 130t-47 61q-25 12 -40 22t-9 27q20 52 111 102t195 50z" />
    <glyph glyph-name="ncaron" unicode="&#x148;" horiz-adv-x="1273" 
d="M686 1137h-141q-8 0 -13 6l-323 370q-18 23 -9 35t42 2l376 -127q238 88 367 133q29 10 41 0t-6 -36q-311 -373 -316 -378t-18 -5zM1034 -39q-127 0 -214 85t-87 226v398q0 106 -60 117t-108 -64q-39 -68 -41 -162v-549l-10 -12h-410q-8 2 -8 10q16 467 16 593t-21 193
q-22 67 -47 81q-26 14 -42 25t-10 28q16 53 90 99t170 46q96 -1 170 -65q76 -64 96 -174q62 123 158 181t202 58t187 -94q82 -94 82 -244l-2 -319q0 -176 54 -235q21 -24 43 -36t34 -20t6 -23q-18 -51 -92 -97t-156 -46z" />
    <glyph glyph-name="Omacron" unicode="&#x14c;" horiz-adv-x="1454" 
d="M728 1280q-108 0 -176 -174t-69 -372q0 -198 70 -373t176 -175q76 0 134 87q114 171 114 458q0 201 -70 375q-71 174 -179 174zM1440 730q0 -325 -195 -549t-513 -224t-515 225t-197 549t198 551t512 227t512 -227t198 -552zM1094 1585q0 -6 -9 -6h-704l-10 8v176
q2 10 12 11h702l9 -9v-180z" />
    <glyph glyph-name="omacron" unicode="&#x14d;" horiz-adv-x="1187" 
d="M424 512q0 -141 43 -234q43 -94 129 -94t127 90t41 234t-43 235q-43 93 -128 93t-127 -92t-42 -232zM594 1067q246 0 410 -162q164 -163 163 -397q1 -234 -161 -394t-410 -161q-248 0 -412 162t-164 395t164 395t410 162zM938 1165q0 -6 -8 -6h-705l-10 8v176q2 10 12 11
h703l8 -8v-181z" />
    <glyph glyph-name="Ohungarumlaut" unicode="&#x150;" horiz-adv-x="1454" 
d="M1325 1915q-137 -268 -440 -375q-12 -4 -17 -2q-47 37 -84 100q-6 6 2 15q111 111 167 204t91 232q4 6 13 4q162 -39 264 -162q4 -2 5 -8t-1 -8zM834 1915q-137 -268 -441 -375q-12 -4 -16 -2q-47 37 -84 100q-6 6 2 15q111 111 167 204t91 232q4 6 12 4
q162 -39 264 -162q3 -2 5 -8t0 -8zM728 1280q-108 0 -176 -174t-69 -372q0 -198 70 -373t176 -175q76 0 134 87q114 171 114 458q0 201 -70 375q-71 174 -179 174zM1440 730q0 -325 -195 -549t-513 -224t-515 225t-197 549t198 551t512 227t512 -227t198 -552z" />
    <glyph glyph-name="ohungarumlaut" unicode="&#x151;" horiz-adv-x="1187" 
d="M1151 1505q-137 -268 -440 -375q-12 -4 -17 -2q-47 37 -84 101q-6 6 2 14q111 111 167 204t91 232q4 6 13 4q162 -39 264 -161q8 -7 4 -17zM659 1505q-137 -268 -440 -375q-12 -4 -16 -2q-47 37 -84 101q-6 6 2 14q111 111 167 204t91 232q4 6 12 4q162 -39 264 -161
q8 -7 4 -17zM424 512q0 -141 43 -234q43 -94 129 -94t127 90t41 234t-43 235q-43 93 -128 93t-127 -92t-42 -232zM594 1067q246 0 410 -162q164 -163 163 -397q1 -234 -161 -394t-410 -161q-248 0 -412 162t-164 395t164 395t410 162z" />
    <glyph glyph-name="oe" unicode="&#x153;" horiz-adv-x="1843" 
d="M1446 743q0 43 -31 72t-78 27q0 -2 -2 -2h-6q-138 -29 -155 -258q132 -12 202 32t70 129zM424 512q0 -141 43 -234q43 -94 129 -94t127 90t41 234t-43 235q-43 93 -128 93t-127 -92t-42 -232zM594 -47q-246 0 -410 162t-164 395t164 395t410 162q109 0 210 -42t157 -110
q53 66 163 112t228 46q229 0 355 -114q126 -113 126 -235q-1 -122 -63 -199t-157 -103q-228 -63 -423 -21q53 -151 230 -173t364 87q14 10 27 1q30 -21 -41 -119q-168 -240 -442 -240q-102 0 -204 46q-100 46 -157 114q-53 -74 -155 -119t-218 -45z" />
    <glyph glyph-name="Racute" unicode="&#x154;" horiz-adv-x="1298" 
d="M920 1915q-137 -268 -441 -375q-12 -4 -16 -2q-47 37 -84 100q-6 6 2 15q111 111 167 204t91 232q4 6 12 4q162 -39 264 -162q3 -2 5 -8t0 -8zM510 772q118 0 186 83t68 201t-70 180t-184 44v-508zM510 561v-549l-8 -12h-430q-10 0 -11 12v1418l11 10q89 26 245 46
q156 19 293 15q250 -8 415 -130t165 -339q0 -133 -72 -256t-215 -182q110 -264 389 -391q23 -46 -52 -153q-24 -34 -68 -62t-99 -33q-153 -17 -265 63q-207 149 -239 543h-59z" />
    <glyph glyph-name="racute" unicode="&#x155;" horiz-adv-x="989" 
d="M780 1505q-137 -268 -440 -375q-12 -4 -16 -2q-47 37 -84 101q-6 6 2 14q111 111 167 204t91 232q4 6 12 4q162 -39 264 -161q4 -2 5 -8t-1 -9zM784 1073q88 0 152 -60t63 -176q1 -116 -73 -187t-183 -70q-33 0 -65 14t-39 27q-8 13 -5 36t3 37q0 90 -43 90
q-70 0 -70 -231v-543l-8 -10h-412q-8 0 -8 10q16 465 16 591t-21 193q-23 66 -47 80t-41 26t-11 28q18 53 92 99t167 46t167 -59t96 -164q42 100 112 162t158 61z" />
    <glyph glyph-name="Rcommaaccent" unicode="&#x156;" horiz-adv-x="1298" 
d="M510 772q118 0 186 83t68 201t-70 180t-184 44v-508zM510 561v-549l-8 -12h-430q-10 0 -11 12v1418l11 10q89 26 245 46q156 19 293 15q250 -8 415 -130t165 -339q0 -133 -72 -256t-215 -182q110 -264 389 -391q23 -46 -52 -153q-24 -34 -68 -62t-99 -33
q-153 -17 -265 63q-207 149 -239 543h-59zM815 -299q0 -147 -83 -243t-175 -127q-92 -32 -92 10q0 20 38 55q107 99 46 125q-61 27 -98 77t-37 124t59 132q59 60 141 60t142 -61q59 -62 59 -152z" />
    <glyph glyph-name="rcommaaccent" unicode="&#x157;" horiz-adv-x="989" 
d="M784 1073q88 0 152 -60t63 -176q1 -116 -73 -187t-183 -70q-33 0 -65 14t-39 27q-8 13 -5 36t3 37q0 90 -43 90q-70 0 -70 -231v-543l-8 -10h-412q-8 0 -8 10q16 465 16 591t-21 193q-23 66 -47 80t-41 26t-11 28q18 53 92 99t167 46t167 -59t96 -164q42 100 112 162
t158 61zM547 -299q0 -147 -83 -243t-175 -127q-92 -32 -92 10q-1 20 37 55q106 99 46 126q-135 60 -135 200q1 74 59 132q58 60 141 60t143 -62t59 -151z" />
    <glyph glyph-name="Rcaron" unicode="&#x158;" horiz-adv-x="1298" 
d="M657 1567h-141q-8 0 -12 6l-324 371q-18 22 -9 34t42 2l377 -127q237 89 366 134q29 10 41 0t-6 -37q-311 -373 -316 -378t-18 -5zM510 772q118 0 186 83t68 201t-70 180t-184 44v-508zM510 561v-549l-8 -12h-430q-10 0 -11 12v1418l11 10q89 26 245 46q156 19 293 15
q250 -8 415 -130t165 -339q0 -133 -72 -256t-215 -182q110 -264 389 -391q23 -46 -52 -153q-24 -34 -68 -62t-99 -33q-153 -17 -265 63q-207 149 -239 543h-59z" />
    <glyph glyph-name="rcaron" unicode="&#x159;" horiz-adv-x="989" 
d="M563 1137h-141q-8 0 -12 6l-324 370q-18 23 -9 35t42 2l377 -127q237 88 366 133q29 10 41 0t-6 -36q-311 -373 -316 -378t-18 -5zM784 1073q88 0 152 -60t63 -176q1 -116 -73 -187t-183 -70q-33 0 -65 14t-39 27q-8 13 -5 36t3 37q0 90 -43 90q-70 0 -70 -231v-543
l-8 -10h-412q-8 0 -8 10q16 465 16 591t-21 193q-23 66 -47 80t-41 26t-11 28q18 53 92 99t167 46t167 -59t96 -164q42 100 112 162t158 61z" />
    <glyph glyph-name="Sacute" unicode="&#x15a;" horiz-adv-x="1304" 
d="M924 1915q-137 -268 -441 -375q-12 -4 -16 -2q-47 37 -84 100q-6 6 2 15q111 111 167 204t91 232q4 6 12 4q162 -39 265 -162q4 -2 5 -8t-1 -8zM238 539q58 -1 124 -21t78 -37q5 -14 -1 -50q-5 -36 -5 -56q2 -125 95 -176t187 -8q93 44 95 153q0 120 -207 203
q-335 134 -430 203q-141 104 -149 276q-6 137 83 250t225 172t281 63q256 6 427 -88t171 -272q2 -109 -56 -171t-177 -62q-63 0 -115 16t-59 33q-2 18 3 65t5 68q4 63 -28 107q-56 77 -175 63q-49 -6 -86 -45t-41 -97q1 -185 361 -294q451 -137 450 -431q0 -121 -62 -212
t-164 -140q-205 -98 -431 -97t-399 71q-94 37 -156 109q-60 73 -68 167t57 166t167 72z" />
    <glyph glyph-name="sacute" unicode="&#x15b;" horiz-adv-x="1050" 
d="M797 1505q-137 -268 -441 -375q-12 -4 -16 -2q-47 37 -84 101q-6 6 2 14q111 111 167 204t91 232q4 6 12 4q162 -39 265 -161q4 -2 5 -8t-1 -9zM633 750q0 122 -100 116q-49 -2 -75 -32t-26 -69q0 -38 35 -70t78 -47q43 -16 84 -28t45 -13t10 -2t10 -3q336 -96 336 -315
q0 -117 -86 -196q-150 -138 -442 -138q-166 0 -308 56q-77 30 -125 84q-49 54 -49 129t56 129t143 55q49 0 98 -12t57 -24q8 -13 6 -42q-3 -29 -3 -41q0 -59 34 -92t87 -33q106 0 110 92q0 43 -26 62q-56 43 -110 60q-56 17 -94 28q-170 49 -254 133q-85 84 -87 196v6
q0 150 144 242t329 92q185 -1 328 -69t143 -197q2 -76 -52 -127t-147 -51q-51 0 -96 12t-52 26t-4 41t3 42z" />
    <glyph glyph-name="Scaron" unicode="&#x160;" horiz-adv-x="1304" 
d="M700 1567h-141q-8 0 -12 6l-324 371q-18 22 -9 34t42 2l377 -127q237 89 366 134q29 10 41 0t-6 -37q-311 -373 -316 -378t-18 -5zM238 539q58 -1 124 -21t78 -37q5 -14 -1 -50q-5 -36 -5 -56q2 -125 95 -176t187 -8q93 44 95 153q0 120 -207 203q-335 134 -430 203
q-141 104 -149 276q-6 137 83 250t225 172t281 63q256 6 427 -88t171 -272q2 -109 -56 -171t-177 -62q-63 0 -115 16t-59 33q-2 18 3 65t5 68q4 63 -28 107q-56 77 -175 63q-49 -6 -86 -45t-41 -97q1 -185 361 -294q451 -137 450 -431q0 -121 -62 -212t-164 -140
q-205 -98 -431 -97t-399 71q-94 37 -156 109q-60 73 -68 167t57 166t167 72z" />
    <glyph glyph-name="scaron" unicode="&#x161;" horiz-adv-x="1050" 
d="M594 1137h-141q-8 0 -13 6l-323 370q-18 23 -9 35t42 2l376 -127q238 88 367 133q29 10 41 0t-6 -36q-310 -373 -316 -378t-18 -5zM633 750q0 122 -100 116q-49 -2 -75 -32t-26 -69q0 -38 35 -70t78 -47q43 -16 84 -28t45 -13t10 -2t10 -3q336 -96 336 -315
q0 -117 -86 -196q-150 -138 -442 -138q-166 0 -308 56q-77 30 -125 84q-49 54 -49 129t56 129t143 55q49 0 98 -12t57 -24q8 -13 6 -42q-3 -29 -3 -41q0 -59 34 -92t87 -33q106 0 110 92q0 43 -26 62q-56 43 -110 60q-56 17 -94 28q-170 49 -254 133q-85 84 -87 196v6
q0 150 144 242t329 92q185 -1 328 -69t143 -197q2 -76 -52 -127t-147 -51q-51 0 -96 12t-52 26t-4 41t3 42z" />
    <glyph glyph-name="Tcaron" unicode="&#x164;" horiz-adv-x="1302" 
d="M721 1567h-141q-8 0 -13 6l-323 371q-18 22 -10 34t42 2l377 -127q238 89 367 134q29 10 41 0t-6 -37q-311 -373 -317 -378t-17 -5zM711 -41q-131 0 -218 84t-87 254l14 836q-207 4 -373 -29q-8 0 -14 6v4q-12 12 -18 74q-5 61 2 105t43 92t112 88q76 39 178 43t336 -18
t440 -23l134 2q26 -2 29 -85t-8 -128t-51 -90q-86 -97 -337 -76l-47 6l12 -694q4 -104 28 -166t50 -76q27 -14 43 -26t10 -27q-18 -55 -104 -105t-174 -51z" />
    <glyph glyph-name="tcaron" unicode="&#x165;" horiz-adv-x="792" 
d="M885 1444q0 -131 -75 -217q-76 -86 -158 -116t-83 9q0 18 35 50q103 94 39 114q-119 52 -119 180q0 66 52 119t128 53q75 0 128 -55t53 -137zM516 379q0 -199 147 -199l91 4q26 0 32 -16t-6 -37q-41 -82 -142 -134t-214 -52q-106 4 -182 47q-139 84 -140 274v572h-104
q-8 0 -8 10v174l8 8h104v156l11 10l393 162l8 -10q2 -143 2 -318h250q6 0 6 -10v-172l-8 -10h-248v-459z" />
    <glyph glyph-name="Umacron" unicode="&#x16a;" horiz-adv-x="1429" 
d="M137 500v526q0 206 -80 271q-21 17 -37 23q-35 12 -28 34q20 55 98 104t164 49q137 0 235 -90t99 -237v-789q0 -65 33 -109q61 -80 170 -57q45 9 77 55t33 113v1059l8 12h451q8 -2 8 -10q-6 -688 -4 -948q0 -119 -41 -217q-41 -97 -112 -161q-163 -146 -356 -165
q-240 -24 -398 52q-92 43 -164 107t-114 162t-42 216zM1092 1585q0 -6 -9 -6h-704l-10 8v176q2 10 12 11h702l9 -9v-180z" />
    <glyph glyph-name="umacron" unicode="&#x16b;" 
d="M1147 427q-1 -126 21 -193q22 -66 46 -80t42 -26q17 -12 12 -28q-18 -53 -92 -99t-168 -46t-170 62t-97 173q-59 -121 -149 -178t-194 -57t-187 94q-82 94 -82 244v319q0 176 -54 235q-21 24 -43 36t-33 19t-7 22q18 53 92 99t156 46q129 0 216 -85t87 -226v-398
q0 -111 61 -118q53 -8 90 61t41 152v563l8 12h412q8 -2 8 -10q-16 -467 -16 -593zM991 1165q0 -6 -8 -6h-704l-11 8v176q2 10 13 11h702l8 -8v-181z" />
    <glyph glyph-name="Uring" unicode="&#x16e;" horiz-adv-x="1429" 
d="M715 1671q41 0 69 35t29 85q-1 50 -29 83t-70 33t-71 -32t-29 -82t30 -86t71 -36zM981 1792q0 -104 -78 -179q-79 -75 -189 -75t-189 75t-79 179t79 178t190 74t189 -74t77 -178zM137 500v526q0 206 -80 271q-21 17 -37 23q-35 12 -28 34q20 55 98 104t164 49
q137 0 235 -90t99 -237v-789q0 -65 33 -109q61 -80 170 -57q45 9 77 55t33 113v1059l8 12h451q8 -2 8 -10q-6 -688 -4 -948q0 -119 -41 -217q-41 -97 -112 -161q-163 -146 -356 -165q-240 -24 -398 52q-92 43 -164 107t-114 162t-42 216z" />
    <glyph glyph-name="uring" unicode="&#x16f;" 
d="M729 1381q-1 50 -29 83t-70 33t-71 -32t-29 -82t30 -86q30 -35 71 -35t69 34t29 85zM897 1382q0 -104 -78 -179q-79 -75 -189 -75t-189 75t-79 179t79 178t190 74t189 -74t77 -178zM1147 427q-1 -126 21 -193q22 -66 46 -80t42 -26q17 -12 12 -28q-18 -53 -92 -99
t-168 -46t-170 62t-97 173q-59 -121 -149 -178t-194 -57t-187 94q-82 94 -82 244v319q0 176 -54 235q-21 24 -43 36t-33 19t-7 22q18 53 92 99t156 46q129 0 216 -85t87 -226v-398q0 -111 61 -118q53 -8 90 61t41 152v563l8 12h412q8 -2 8 -10q-16 -467 -16 -593z" />
    <glyph glyph-name="Uhungarumlaut" unicode="&#x170;" horiz-adv-x="1429" 
d="M1313 1915q-137 -268 -441 -375q-12 -4 -16 -2q-47 37 -84 100q-6 6 2 15q111 111 167 204t91 232q4 6 12 4q162 -39 265 -162q4 -2 5 -8t-1 -8zM821 1915q-137 -268 -440 -375q-12 -4 -16 -2q-47 37 -84 100q-6 6 2 15q111 111 167 204t91 232q4 6 12 4
q162 -39 264 -162q4 -2 5 -8t-1 -8zM137 500v526q0 206 -80 271q-21 17 -37 23q-35 12 -28 34q20 55 98 104t164 49q137 0 235 -90t99 -237v-789q0 -65 33 -109q61 -80 170 -57q45 9 77 55t33 113v1059l8 12h451q8 -2 8 -10q-6 -688 -4 -948q0 -119 -41 -217
q-41 -97 -112 -161q-163 -146 -356 -165q-240 -24 -398 52q-92 43 -164 107t-114 162t-42 216z" />
    <glyph glyph-name="uhungarumlaut" unicode="&#x171;" 
d="M1229 1505q-137 -268 -441 -375q-12 -4 -16 -2q-47 37 -84 101q-6 6 2 14q111 111 167 204t91 232q4 6 13 4q162 -39 264 -161q8 -7 4 -17zM737 1505q-137 -268 -440 -375q-12 -4 -16 -2q-47 37 -84 101q-6 6 2 14q111 111 167 204t91 232q4 6 12 4q162 -39 264 -161
q8 -7 4 -17zM1147 427q-1 -126 21 -193q22 -66 46 -80t42 -26q17 -12 12 -28q-18 -53 -92 -99t-168 -46t-170 62t-97 173q-59 -121 -149 -178t-194 -57t-187 94q-82 94 -82 244v319q0 176 -54 235q-21 24 -43 36t-33 19t-7 22q18 53 92 99t156 46q129 0 216 -85t87 -226
v-398q0 -111 61 -118q53 -8 90 61t41 152v563l8 12h412q8 -2 8 -10q-16 -467 -16 -593z" />
    <glyph glyph-name="Uogonek" unicode="&#x172;" horiz-adv-x="1429" 
d="M137 500v526q0 206 -80 271q-21 17 -37 23q-35 12 -28 34q20 55 98 104t164 49q137 0 235 -90t99 -237v-789q0 -65 33 -109q61 -80 170 -57q45 9 77 55t33 113v1059l8 12h451q8 -2 8 -10q-6 -688 -4 -948q0 -119 -41 -217q-41 -97 -112 -161q-129 -115 -275 -151
q-4 -5 -42 -53q-93 -115 -91 -211q0 -92 100 -92q42 1 67 11t34 6q40 -66 -24 -152t-171 -94q-68 -4 -122 20q-88 40 -123 147q-13 39 -11 68q11 234 250 332q-206 -11 -346 56q-92 43 -164 107t-114 162t-42 216z" />
    <glyph glyph-name="uogonek" unicode="&#x173;" 
d="M398 -45q-104 0 -187 94q-82 94 -82 244v319q0 176 -54 235q-21 24 -43 36t-33 19t-7 22q18 53 92 99t156 46q129 0 216 -85t87 -226v-398q0 -111 61 -118q53 -8 90 61t41 152v563l8 12h412q8 -2 8 -10q-16 -467 -16 -593q-1 -126 21 -193q22 -66 46 -80t42 -26
q17 -12 12 -28q-23 -69 -129 -119q-6 -9 -42 -53q-91 -112 -89 -209q0 -92 100 -92q42 1 67 11t33 6q39 -66 -24 -152t-170 -94q-68 -4 -122 20q-88 40 -123 147q-13 39 -11 68q10 213 215 316q8 4 15 7q-86 8 -156 66t-91 168q-59 -121 -149 -178t-194 -57z" />
    <glyph glyph-name="Ydieresis" unicode="&#x178;" horiz-adv-x="1368" 
d="M1124 1716q0 -74 -59 -125t-143 -51t-144 51q-59 51 -59 125t59 125q60 51 144 51t143 -51t59 -125zM649 1716q0 -74 -60 -125q-61 -51 -145 -51t-143 51t-59 125t59 125t143 51t144 -51t61 -125zM764 -47q-135 0 -223 87q-88 86 -88 282t-2 292l-449 836l8 16h492
q10 0 14 -12l252 -625q84 125 104 268t13 208q-6 65 -11 100l-4 33q-2 49 118 80q120 32 243 -28t129 -230q0 -96 -33 -188t-74 -153q-41 -62 -112 -131q-72 -68 -118 -102t-120 -86v-174q5 -217 99 -269q18 -11 30 -19t6 -23q-18 -57 -102 -109t-172 -53z" />
    <glyph glyph-name="Zacute" unicode="&#x179;" horiz-adv-x="1251" 
d="M926 1915q-137 -268 -441 -375q-12 -4 -16 -2q-47 37 -84 100q-6 6 2 15q111 111 167 204t91 232q4 6 12 4q162 -39 265 -162q8 -6 4 -16zM53 299q0 25 19 45q16 20 211 295t273 343q45 40 99 75q54 36 70 47l18 10q-358 20 -696 -45q-8 0 -12 8q-14 14 -20 81
q-5 67 3 114t44 97t113 91t187 41q110 1 357 -23q246 -24 485 -24q12 0 17 -10l-2 -297q0 -22 -15 -37q-186 -241 -307 -414t-174 -232t-141 -120l-33 -25h219q225 0 312 35q86 35 86 43q1 4 20 -4q43 -32 52 -107q27 -223 -185 -306q-93 -38 -273 -23q-106 15 -338 29
t-381 14l-8 10v289z" />
    <glyph glyph-name="zacute" unicode="&#x17a;" horiz-adv-x="1015" 
d="M809 1505q-137 -268 -440 -375q-12 -4 -17 -2q-47 37 -84 101q-6 6 2 14q111 111 167 204t91 232q4 6 13 4q162 -39 264 -161q4 -2 5 -8t-1 -9zM627 283q161 0 210 16q51 15 75 25t29 18t16 10t14 -4q35 -29 43 -88q14 -120 -43 -194q-107 -140 -334 -105
q-295 39 -592 39l-6 8q-16 142 -5 238t152 216t291 204q47 25 166 73q-326 20 -610 -37l-13 9q-6 6 -16 61t14 138q25 83 107 126q106 59 295 31q287 -43 567 -43q10 0 12 -8l5 -167q0 -40 -7 -75q-14 -94 -123 -195t-259 -185t-205 -111h217z" />
    <glyph glyph-name="Zdotaccent" unicode="&#x17b;" horiz-adv-x="1251" 
d="M856 1737q0 -74 -60 -125t-144 -51t-144 51q-59 51 -59 125t59 125t143 51q85 0 145 -51t60 -125zM53 299q0 25 19 45q16 20 211 295t273 343q45 40 99 75q54 36 70 47l18 10q-358 20 -696 -45q-8 0 -12 8q-14 14 -20 81q-5 67 3 114t44 97t113 91t187 41q110 1 357 -23
q246 -24 485 -24q12 0 17 -10l-2 -297q0 -22 -15 -37q-186 -241 -307 -414t-174 -232t-141 -120l-33 -25h219q225 0 312 35q86 35 86 43q1 4 20 -4q43 -32 52 -107q27 -223 -185 -306q-93 -38 -273 -23q-106 15 -338 29t-381 14l-8 10v289z" />
    <glyph glyph-name="zdotaccent" unicode="&#x17c;" horiz-adv-x="1015" 
d="M737 1307q0 -74 -60 -125q-61 -52 -145 -52t-143 52t-59 125q0 74 59 125t143 51t144 -51t61 -125zM627 283q161 0 210 16q51 15 75 25t29 18t16 10t14 -4q35 -29 43 -88q14 -120 -43 -194q-107 -140 -334 -105q-295 39 -592 39l-6 8q-16 142 -5 238t152 216t291 204
q47 25 166 73q-326 20 -610 -37l-13 9q-6 6 -16 61t14 138q25 83 107 126q106 59 295 31q287 -43 567 -43q10 0 12 -8l5 -167q0 -40 -7 -75q-14 -94 -123 -195t-259 -185t-205 -111h217z" />
    <glyph glyph-name="Zcaron" unicode="&#x17d;" horiz-adv-x="1251" 
d="M694 1567h-141q-8 0 -12 6l-324 371q-18 22 -9 34t42 2l377 -127q237 89 366 134q29 10 41 0t-6 -37q-311 -373 -316 -378t-18 -5zM53 299q0 25 19 45q16 20 211 295t273 343q45 40 99 75q54 36 70 47l18 10q-358 20 -696 -45q-8 0 -12 8q-14 14 -20 81q-5 67 3 114
t44 97t113 91t187 41q110 1 357 -23q246 -24 485 -24q12 0 17 -10l-2 -297q0 -22 -15 -37q-186 -241 -307 -414t-174 -232t-141 -120l-33 -25h219q225 0 312 35q86 35 86 43q1 4 20 -4q43 -32 52 -107q27 -223 -185 -306q-93 -38 -273 -23q-106 15 -338 29t-381 14l-8 10
v289z" />
    <glyph glyph-name="zcaron" unicode="&#x17e;" horiz-adv-x="1015" 
d="M592 1137h-141q-8 0 -13 6l-323 370q-18 23 -10 35q9 12 42 2l377 -127q238 88 367 133q29 10 41 0t-6 -36q-310 -373 -316 -378t-18 -5zM627 283q161 0 210 16q51 15 75 25t29 18t16 10t14 -4q35 -29 43 -88q14 -120 -43 -194q-107 -140 -334 -105q-295 39 -592 39l-6 8
q-16 142 -5 238t152 216t291 204q47 25 166 73q-326 20 -610 -37l-13 9q-6 6 -16 61t14 138q25 83 107 126q106 59 295 31q287 -43 567 -43q10 0 12 -8l5 -167q0 -40 -7 -75q-14 -94 -123 -195t-259 -185t-205 -111h217z" />
    <glyph glyph-name="circumflex" unicode="&#x2c6;" horiz-adv-x="849" 
d="M500 1552q12 0 20 -8l314 -375q18 -27 6 -37t-41 1l-367 133q-264 -90 -377 -127q-33 -10 -42 2t10 35q322 369 323 370l12 6h142z" />
    <glyph glyph-name="caron" unicode="&#x2c7;" horiz-adv-x="864" 
d="M506 1137h-141q-8 0 -13 6l-323 370q-18 23 -10 35q9 12 42 2l377 -127q238 88 367 133q29 10 41 0t-6 -36q-310 -373 -316 -378t-18 -5z" />
    <glyph glyph-name="breve" unicode="&#x2d8;" horiz-adv-x="878" 
d="M181 1419q100 -55 264 -55t262 55q49 28 119 81q18 13 26 9q39 -20 -17 -131q-56 -112 -165 -178t-228 -66q-118 0 -228 68t-167 180q-51 109 -16 127q8 4 56 -31q48 -34 94 -59z" />
    <glyph glyph-name="dotaccent" unicode="&#x2d9;" horiz-adv-x="428" 
d="M418 1307q0 -74 -60 -125q-60 -52 -145 -52q-84 0 -143 52t-60 125q0 74 60 125t143 51q85 0 145 -51t60 -125z" />
    <glyph glyph-name="ring" unicode="&#x2da;" horiz-adv-x="550" 
d="M377 1381q-1 50 -29 83t-70 33t-71 -32t-29 -82t30 -86q30 -35 71 -35t69 34t29 85zM545 1382q0 -104 -78 -179q-79 -75 -189 -75t-189 75t-79 179t79 178t190 74t189 -74t77 -178z" />
    <glyph glyph-name="ogonek" unicode="&#x2db;" horiz-adv-x="489" 
d="M266 -287q0 -92 101 -92q42 1 67 11t33 6q39 -66 -25 -152t-170 -94q-68 -4 -122 20q-88 40 -122 147q-14 39 -12 68q10 213 215 316q102 51 160 43q8 -4 7 -8t-40 -53q-92 -113 -92 -212z" />
    <glyph glyph-name="tilde" unicode="&#x2dc;" horiz-adv-x="1052" 
d="M1014 1487q23 2 28 -64q10 -129 -82 -220t-282 -75q-82 8 -224 70t-198 66q-56 2 -98 -16q-43 -18 -65 -40q-22 -23 -39 -42t-25 -19q-25 -4 -19 63q10 127 104 207t232 76q94 -4 238 -63q144 -60 210 -62q106 -4 184 86q26 31 36 33z" />
    <glyph glyph-name="hungarumlaut" unicode="&#x2dd;" horiz-adv-x="1050" 
d="M1042 1505q-137 -268 -440 -375q-12 -4 -16 -2q-47 37 -84 101q-6 6 2 14q111 111 167 204t91 232q4 6 12 4q162 -39 264 -161q4 -2 5 -8t-1 -9zM551 1505q-137 -268 -440 -375q-12 -4 -17 -2q-47 37 -84 101q-6 6 2 14q111 111 167 204t91 232q4 6 13 4
q162 -39 264 -161q4 -2 5 -8t-1 -9z" />
    <glyph glyph-name="afii10023" unicode="&#x401;" horiz-adv-x="1110" 
d="M516 618v-147q2 -94 66 -143q112 -86 321 -35q87 20 144 57q31 18 43 4t6 -55q-13 -89 -135 -209q-59 -57 -159 -96t-216 -39q-250 0 -387 164t-138 393l2 944l13 10h977q25 0 26 -74q2 -74 -9 -114q-11 -41 -51 -87q-87 -100 -269 -100q-98 -1 -164 11l-66 12l-2 -270
h338l10 -10v-205l-12 -11h-338zM991 1714q0 -74 -59 -125q-60 -51 -144 -51t-143 51t-59 125t59 125t143 51t144 -51t59 -125zM514 1714q0 -74 -59 -125t-143 -51t-144 51q-59 51 -59 125t59 125t143 51q83 0 143 -51t60 -125z" />
    <glyph glyph-name="afii10052" unicode="&#x403;" horiz-adv-x="1036" 
d="M829 1892q-137 -268 -440 -374q-12 -4 -16 -2q-47 37 -84 100q-6 6 2 14q111 111 167 204t91 232q4 6 12 5q162 -39 264 -162q8 -7 4 -17zM373 -45q-135 0 -223 89t-89 269l2 1141l11 10q461 41 913 0q13 0 17 -10t8 -26t5 -61q1 -46 -10 -86t-53 -85q-95 -103 -260 -103
q-86 -1 -137 13l-51 12q0 -229 6 -686q4 -175 58 -234q22 -24 41 -35t31 -19t5 -23q-20 -59 -103 -113t-171 -53z" />
    <glyph glyph-name="afii10053" unicode="&#x404;" horiz-adv-x="1294" 
d="M1057 563q104 0 166 -71q61 -72 61 -162q0 -166 -154 -272t-393 -103q-307 2 -512 232q-205 231 -205 549t202 544t515 229q239 2 393 -103t154 -271q0 -90 -61 -162t-166 -72q-68 0 -114 22t-44 52q17 113 -19 195t-140 81t-178 -117q-75 -116 -70 -278h325l10 -10v-223
l-12 -11h-323q0 -166 74 -282t176 -117q102 0 138 82t19 194q-2 31 44 53t114 21z" />
    <glyph glyph-name="afii10054" unicode="&#x405;" horiz-adv-x="1304" 
d="M238 539q58 -1 124 -21t78 -37q5 -14 -1 -50q-5 -36 -5 -56q2 -125 95 -176t187 -8q93 44 95 153q0 120 -207 203q-335 134 -430 203q-141 104 -149 276q-6 137 83 250t225 172t281 63q256 6 427 -88t171 -272q2 -109 -56 -171t-177 -62q-63 0 -115 16t-59 33q-2 18 3 65
t5 68q4 63 -28 107q-56 77 -175 63q-49 -6 -86 -45t-41 -97q1 -185 361 -294q451 -137 450 -431q0 -121 -62 -212t-164 -140q-205 -98 -431 -97t-399 71q-94 37 -156 109q-60 73 -68 167t57 166t167 72z" />
    <glyph glyph-name="uni0406" unicode="&#x406;" horiz-adv-x="636" 
d="M272 1513q131 1 217 -81t86 -246v-1176l-10 -10h-436l-8 10v1112q-12 133 -61 175q-19 17 -37 27t-27 18q-8 7 -4 22q18 53 105 101t175 48z" />
    <glyph glyph-name="afii10056" unicode="&#x407;" horiz-adv-x="606" 
d="M272 1513q131 1 217 -81t86 -246v-1176l-10 -10h-436l-8 10v1112q-12 133 -61 175q-19 17 -37 27t-27 18q-8 7 -4 22q18 53 105 101t175 48zM741 1743q0 -74 -59 -125t-143 -51t-144 51q-59 51 -59 125t59 125t143 51t144 -51q59 -51 59 -125zM266 1743q0 -74 -60 -125
t-144 -51t-144 51q-59 51 -59 125t59 125t143 51q85 0 145 -51t60 -125z" />
    <glyph glyph-name="afii10057" unicode="&#x408;" horiz-adv-x="958" 
d="M410 -41q-188 0 -294 83q-105 83 -106 196q0 84 60 150t147 65q53 -1 107 -13t57 -26q4 -14 -5 -52t-9 -92q0 -131 71 -131q88 0 88 125q0 70 -38 175t-37 188v512q-4 75 -27 119t-48 56q-26 11 -42 22t-10 28q18 53 105 101t175 48q129 -1 211 -81t82 -246v-57l-2 -519
q0 -651 -485 -651z" />
    <glyph glyph-name="afii10058" unicode="&#x409;" horiz-adv-x="2168" 
d="M1547 203q77 0 121 77t44 173q0 159 -94 241t-240 54v-336q2 -80 47 -144t122 -65zM2152 488q0 -240 -162 -387q-163 -146 -474 -146q-156 0 -274 53q-206 92 -277 325q-31 97 -31 202l-2 684h-225q-2 -39 -11 -285t-28 -358q-20 -113 -40 -209q-32 -152 -132 -291
q-87 -119 -240 -119q-110 0 -188 73t-78 128q0 10 32 43t76 111t91 204q46 127 78 372t34 564v2l8 8q233 62 531 64t530 -64l8 -10v-469q348 53 561 -101t213 -394z" />
    <glyph glyph-name="afii10059" unicode="&#x40a;" horiz-adv-x="2131" 
d="M1508 203q77 0 121 77t44 173q0 159 -94 241t-240 54v-336q2 -80 47 -144t122 -65zM2114 488q0 -240 -163 -386t-474 -147q-156 0 -273 53q-207 94 -275 325q-30 97 -30 202l-2 65h-346l2 -590l-10 -10h-422l-8 10q4 1118 4 1120q-8 82 -32 132t-47 62q-24 10 -38 20
t-8 26q18 52 102 102t170 50q125 0 209 -83t84 -247l-2 -297h338l-6 557l10 10h434l8 -10v-469q348 53 562 -100q213 -155 213 -395z" />
    <glyph glyph-name="afii10062" unicode="&#x40e;" horiz-adv-x="1310" 
d="M1278 1450q0 -594 -14 -817q-18 -305 -169 -487t-389 -200t-383 58q-146 76 -155 246q-6 106 60 169q67 62 178 62q66 0 122 -34t54 -64q-38 -109 -8 -172t96 -63t103 58q37 59 43 106q15 101 15 153v71q0 22 -2 66t-2 51q-75 -98 -187 -129t-215 2t-180 131t-85 240
l-6 102q-4 123 -33 196t-61 90t-54 29t-14 32q18 55 98 106t170 51q142 0 240 -94t104 -248l8 -231q2 -86 47 -121t95 -3q49 32 65 114q10 110 -6 415l-6 115l10 10h451q10 0 10 -10zM1106 1745q-70 -131 -246 -185t-360 -10t-273 179q-49 77 -31 159t87 126t149 28t125 -88
q74 -115 -8 -223q-27 -39 24 -62q96 -41 187 4q57 27 24 64q-82 111 -16 221q41 74 122 94t152 -22q70 -43 88 -121t-24 -164z" />
    <glyph glyph-name="uni0410" unicode="&#x410;" horiz-adv-x="1411" 
d="M561 504h240l-121 594q-20 -86 -64 -310t-55 -284zM930 0q-10 0 -12 10l-52 217h-362l-45 -217q-5 -10 -13 -10h-430l-4 10q352 1102 353 1104q39 113 30 155q-8 41 -26 69t-15 42q18 58 110 100t196 42q106 0 208 -81t160 -239t297 -948l74 -244l-6 -10h-463z" />
    <glyph glyph-name="uni0411" unicode="&#x411;" horiz-adv-x="1308" 
d="M679 203q81 0 125 77t44 173q0 154 -90 213t-242 30v-284q2 -84 42 -146t121 -63zM651 -45q-157 0 -275 53q-210 94 -283 325q-32 97 -32 202l2 923l11 10q526 53 1085 0q28 0 29 -70q2 -70 -9 -110q-11 -39 -53 -84t-108 -74q-66 -30 -192 -30t-218 14l-92 12v-184
q355 52 563 -84q209 -136 209 -373t-163 -383t-474 -147z" />
    <glyph glyph-name="uni0412" unicode="&#x412;" horiz-adv-x="1320" 
d="M686 201q84 0 131 59t47 160q0 137 -104 207t-250 41v-265q8 -202 176 -202zM774 1108q0 123 -84 160t-180 12v-387q135 0 200 62q64 63 64 153zM655 -45q-131 0 -235 38q-193 70 -281 237q-76 143 -78 321v883q0 12 11 12q219 63 549 63q218 0 385 -73q88 -39 140 -115
t52 -178t-53 -190q-54 -86 -117 -111q-12 -8 2 -13q129 -45 200 -150q70 -105 70 -228t-53 -223t-145 -157q-92 -58 -204 -87t-243 -29z" />
    <glyph glyph-name="uni0413" unicode="&#x413;" horiz-adv-x="1028" 
d="M373 -45q-135 0 -223 89t-89 269l2 1141l11 10q461 41 913 0q13 0 17 -10t8 -26t5 -61q1 -46 -10 -86t-53 -85q-95 -103 -260 -103q-86 -1 -137 13l-51 12q0 -229 6 -686q4 -175 58 -234q22 -24 41 -35t31 -19t5 -23q-20 -59 -103 -113t-171 -53z" />
    <glyph glyph-name="uni0414" unicode="&#x414;" horiz-adv-x="1609" 
d="M956 309v910h-227q0 -759 -205 -906l2 -4h430zM106 -383q-28 0 -62 9t-34 24v610q0 7 22 22q22 14 46 37t76 111q51 88 86 204t61 331q27 215 25 485v2l8 8q233 62 529 64t530 -64l8 -10l-2 -1141h190q8 0 8 -12l2 -320q0 -358 -366 -358q-29 0 -69 9t-40 24v348h-661
l2 -76q0 -141 -95 -224t-264 -83z" />
    <glyph glyph-name="uni0415" unicode="&#x415;" horiz-adv-x="1110" 
d="M516 618v-147q2 -94 66 -143q112 -86 321 -35q87 20 144 57q31 18 43 4t6 -55q-13 -89 -135 -209q-59 -57 -159 -96t-216 -39q-250 0 -387 164t-138 393l2 944l13 10h977q25 0 26 -74q2 -74 -9 -114q-11 -41 -51 -87q-87 -100 -269 -100q-98 -1 -164 11l-66 12l-2 -270
h338l10 -10v-205l-12 -11h-338z" />
    <glyph glyph-name="uni0416" unicode="&#x416;" horiz-adv-x="2097" 
d="M387 1098v-23q0 -8 -37 -20q-85 -28 -202 1q-56 13 -100 64t-54 135q-16 127 83 200t240 58q211 -23 335 -217t132 -432q6 -2 22 -6t25 -8l-10 602l10 10h437l8 -10l-12 -602q8 4 25 8t24 6q13 337 221 533q109 102 251 116q142 13 238 -59t80 -199q-10 -84 -54 -135
t-100 -64q-123 -29 -202 -1q-37 12 -37 19q0 8 2 28q6 65 -21 78q-90 45 -160 -83q-52 -97 -50 -212q133 -18 235 -234q53 -111 165 -257t216 -179q8 -15 2 -67t-69 -115t-163 -75t-191 23t-151 99q-173 186 -206 561q-31 8 -55 -8l12 -623l-10 -10h-437l-8 10l10 623
q-25 16 -55 8q-25 -288 -145 -487q-63 -104 -169 -158t-243 -37q-88 9 -151 73q-64 64 -70 116t2 67q104 33 216 179t165 257q102 217 233 234q2 115 -49 213t-114 96q-30 0 -40 -13q-9 -13 -13 -17t-5 -15q-2 -10 -3 -14q-3 -13 -3 -37z" />
    <glyph glyph-name="uni0417" unicode="&#x417;" horiz-adv-x="1269" 
d="M1249 420q0 -123 -60 -217q-106 -166 -369 -223q-110 -25 -213 -25q-204 0 -381 79q-91 40 -148 116q-58 76 -58 178t64 166t172 63q62 0 116 -20q54 -19 57 -37t0 -56t-3 -65q0 -84 46 -139t108 -56q123 0 177 109t-4 217t-212 108h-54q-10 0 -10 15v215l10 10h93
q82 0 134 42q89 72 54 220q-14 60 -62 102t-115 42t-118 -50t-51 -131v-116q-8 -20 -57 -42t-109 -22q-106 0 -171 66t-65 167t58 178q97 130 333 178q93 19 197 19q227 0 415 -90q97 -47 153 -138t51 -214q-11 -245 -275 -313q297 -92 297 -336z" />
    <glyph glyph-name="uni0418" unicode="&#x418;" horiz-adv-x="1439" 
d="M549 0h-420l-8 10v1112q-12 133 -61 175q-19 17 -37 27t-27 18q-8 7 -4 22q18 53 105 101t175 48q131 1 217 -81t86 -246v-416l-18 -172l414 856q3 10 12 10h379l10 -10l6 -1444l-10 -10h-426l-8 10l10 582l21 196q-49 -90 -197 -385t-178 -346q-29 -51 -33 -54t-8 -3z
" />
    <glyph glyph-name="uni0419" unicode="&#x419;" horiz-adv-x="1439" 
d="M549 0h-420l-8 10v1112q-12 133 -61 175q-19 17 -37 27t-27 18q-8 7 -4 22q18 53 105 101t175 48q131 1 217 -81t86 -246v-416l-18 -172l414 856q3 10 12 10h379l10 -10l6 -1444l-10 -10h-426l-8 10l10 582l21 196q-49 -90 -197 -385t-178 -346q-29 -51 -33 -54t-8 -3z
M1195 1868q17 -80 -33 -170t-171 -144t-253 -56q-132 -1 -259 52q-127 52 -182 142t-37 172t88 126t151 24t124 -91q70 -113 -13 -223q-31 -39 23 -62q98 -43 186 0q57 27 27 64q-82 109 -12 221q44 72 124 91q80 18 150 -24t87 -122z" />
    <glyph glyph-name="uni041A" unicode="&#x41a;" horiz-adv-x="1396" 
d="M989 1114q0 66 -59 66t-92 -82t-31 -205q92 2 144 -55q51 -57 141 -246t178 -287q66 -70 127 -90q8 -15 2 -67q-5 -52 -69 -115t-166 -75t-190 27q-89 38 -145 101q-135 154 -188 555q-45 10 -76 -8l15 -623l-11 -10h-440l-8 10v1112q-12 133 -61 175q-19 17 -37 27
t-27 18q-8 7 -4 22q18 53 105 101t175 48q131 1 217 -81t86 -246l-10 -328l64 14q-4 250 112 433q117 182 334 208q139 16 232 -57q92 -74 75 -201q-10 -84 -54 -135t-100 -64q-123 -29 -202 -1q-37 12 -37 20v39z" />
    <glyph glyph-name="uni041B" unicode="&#x41b;" horiz-adv-x="1462" 
d="M954 1219h-227q-2 -39 -9 -282t-29 -359q-21 -115 -41 -211q-33 -156 -126 -283q-92 -127 -246 -127q-110 0 -188 73t-78 128q0 10 32 43t78 111t92 204q46 127 78 372t34 564v2l8 8q234 62 530 64t529 -64l8 -10l-2 -1442l-11 -10h-423l-9 10v1209z" />
    <glyph glyph-name="uni041C" unicode="&#x41c;" horiz-adv-x="1726" 
d="M922 258h-58q-25 0 -28 8l-336 617l39 -191l12 -682l-10 -10h-432l-11 10q14 1118 14 1152t-19 87q-18 53 -69 82q-16 9 -26 17t-4 22q18 52 114 102t181 50q84 0 140 -23t103 -73t76 -94q90 -137 250 -451l29 -60l352 631l14 10h396l10 -10l6 -1442l-12 -10h-418l-10 10
l6 656l39 211l-322 -611q-4 -8 -26 -8z" />
    <glyph glyph-name="uni041D" unicode="&#x41d;" horiz-adv-x="1415" 
d="M264 1522q125 0 209 -83t84 -247l-2 -297h356l-4 557l11 10h425l9 -10l-2 -1442l-11 -10h-424l-8 10l4 590h-360l2 -590l-10 -10h-422l-8 10q4 1118 4 1120q-8 82 -32 132t-47 62q-24 10 -38 20t-8 26q18 52 102 102t170 50z" />
    <glyph glyph-name="uni041E" unicode="&#x41e;" horiz-adv-x="1460" 
d="M728 1280q-108 0 -176 -174t-69 -372q0 -198 70 -373t176 -175q76 0 134 87q114 171 114 458q0 201 -70 375q-71 174 -179 174zM1440 730q0 -325 -195 -549t-513 -224t-515 225t-197 549t198 551t512 227t512 -227t198 -552z" />
    <glyph glyph-name="uni041F" unicode="&#x41f;" horiz-adv-x="1378" 
d="M870 1214h-362v-1204l-8 -10h-424q-10 0 -10 10l-3 1442l9 10q234 62 618 64t617 -64l8 -10l-2 -1442l-10 -10h-424l-9 10v1204z" />
    <glyph glyph-name="uni0420" unicode="&#x420;" horiz-adv-x="1206" 
d="M770 1038q0 119 -73 191t-185 53v-543q118 0 188 90t70 209zM1196 1034q0 -157 -82 -278q-98 -150 -318 -204q-124 -30 -284 -24v-98q5 -220 98 -269q20 -11 30 -19t5 -23q-20 -59 -103 -113t-171 -53q-135 0 -223 89q-87 89 -87 269l2 1121l11 10q89 26 245 46
q156 19 293 15q250 -8 417 -131t167 -338z" />
    <glyph glyph-name="uni0421" unicode="&#x421;" horiz-adv-x="1325" 
d="M20 736q0 318 202 544t515 229q239 2 393 -103t154 -271q0 -90 -61 -162t-166 -72q-68 0 -114 22t-44 52q17 113 -19 195t-128 81q-92 0 -158 -90t-92 -211t-10 -227q24 -188 114 -303q90 -114 207 -140t242 7t221 119q41 35 39 -13q-14 -101 -94 -207q-45 -60 -105 -107
q-60 -48 -162 -84q-100 -36 -219 -38q-299 -6 -507 227q-208 234 -208 552z" />
    <glyph glyph-name="uni0422" unicode="&#x422;" horiz-adv-x="1302" 
d="M711 -41q-131 0 -218 84t-87 254l6 836q-199 4 -365 -29q-8 0 -14 6v4q-12 12 -18 74q-5 61 2 105t43 92t112 88q76 39 178 43t336 -18t440 -23l134 2q26 -2 29 -85t-8 -128t-51 -90q-86 -97 -333 -76l-47 6l8 -694q4 -104 28 -166t50 -76q27 -14 43 -26t10 -27
q-18 -55 -104 -105t-174 -51z" />
    <glyph glyph-name="uni0423" unicode="&#x423;" horiz-adv-x="1329" 
d="M1278 1450q0 -594 -14 -817q-18 -305 -169 -487t-389 -200t-383 58q-146 76 -155 246q-6 106 60 169q67 62 178 62q66 0 122 -34t54 -64q-38 -109 -8 -172t96 -63t103 58q37 59 43 106q15 101 15 153v71q0 22 -2 66t-2 51q-75 -98 -187 -129t-215 2t-180 131t-85 240
l-6 102q-4 123 -33 196t-61 90t-54 29t-14 32q18 55 98 106t170 51q142 0 240 -94t104 -248l8 -231q2 -86 47 -121t95 -3q49 32 65 114q10 110 -6 415l-6 115l10 10h451q10 0 10 -10z" />
    <glyph glyph-name="uni0424" unicode="&#x424;" horiz-adv-x="1730" 
d="M418 959q0 -121 53 -201t164 -88v579q-109 -13 -163 -91t-54 -199zM1085 1249v-579q111 8 164 88t53 201t-54 199t-163 91zM866 1501q854 0 854 -538q0 -233 -159 -381t-474 -150q-8 -145 48 -208q23 -26 45 -42t34 -29t7 -28q-19 -59 -103 -113t-172 -53q-135 0 -222 89
t-87 269v117q-309 0 -468 148t-159 390q0 243 218 385t632 144h6z" />
    <glyph glyph-name="uni0425" unicode="&#x425;" horiz-adv-x="1456" 
d="M883 0q-11 0 -15 8v2l-286 541q-64 -49 -80 -115t6 -125q44 -116 94 -161q12 -16 -12 -62t-88 -89q-66 -44 -152 -44q-133 0 -230 95q-98 95 -108 243t115 292t334 206l-414 661q-6 14 10 14h518q7 0 15 -8l280 -547q68 43 88 115t1 140t-47 121q-28 52 -48 71
q-2 6 -2 28t38 56q72 64 175 74q147 14 251 -75t118 -241q16 -152 -108 -298t-337 -212l441 -680q8 -10 -4 -10h-553z" />
    <glyph glyph-name="uni0426" unicode="&#x426;" horiz-adv-x="1550" 
d="M1174 -381q-29 0 -69 9t-40 24v321q-211 -27 -496 -17t-450 60l-8 11l6 1103q-8 82 -32 132t-47 62q-24 10 -38 20t-8 26q18 52 102 102t170 50q125 0 209 -83t84 -247l-2 -924h342v1186l8 10h424q10 0 10 -10l2 -1186h189q8 0 8 -12l2 -279q0 -358 -366 -358z" />
    <glyph glyph-name="uni0427" unicode="&#x427;" horiz-adv-x="1454" 
d="M143 999q0 123 -26 196q-27 73 -58 90t-53 29t-14 32q20 55 102 106t172 51q140 0 236 -94t96 -248v-297q0 -113 78 -128q78 -14 134 54t58 156l2 502l9 14h438q10 -4 10 -12q-2 -68 4 -1040q4 -104 28 -166t50 -76q27 -14 43 -26t10 -27q-16 -53 -108 -105t-180 -51
q-131 0 -219 84q-87 84 -87 254v348q-59 -127 -182 -185t-243 -40t-210 116t-90 255v208z" />
    <glyph glyph-name="uni0428" unicode="&#x428;" horiz-adv-x="2011" 
d="M811 264v1190l8 10h412q10 0 10 -10l2 -1190h260v1190l8 10h424q10 0 11 -10l2 -1427l-9 -11q-231 -63 -909 -65t-911 65l-8 11l6 1103q-8 82 -32 132t-47 62q-24 10 -38 20t-8 26q18 52 102 102t170 50q125 0 209 -83t84 -247l-2 -928h256z" />
    <glyph glyph-name="uni0429" unicode="&#x429;" horiz-adv-x="2154" 
d="M809 264v1190l8 10h416q10 0 10 -10l2 -1190h258v1190l8 10h424q10 0 11 -10l2 -1186h186q8 0 8 -12l2 -279q0 -358 -366 -358q-29 0 -69 9t-40 24v319q-352 -37 -860 -23t-690 68l-8 11l6 1103q-8 82 -32 132t-47 62q-24 10 -38 20t-8 26q18 52 102 102t170 50
q125 0 209 -83t84 -247l-2 -928h254z" />
    <glyph glyph-name="uni042A" unicode="&#x42a;" horiz-adv-x="1675" 
d="M1050 203q76 0 120 77t44 173q0 159 -94 241t-239 54v-336q2 -80 47 -144t122 -65zM842 1487q33 0 37 -17v-2l2 -485q348 53 561 -101t213 -394t-163 -386t-474 -147q-156 0 -275 53q-210 93 -283 325q-32 97 -32 202l-2 604q-213 4 -379 -29q-10 0 -14 8v2
q-12 12 -18 72q-5 59 2 103t43 91t103 82t151 40t250 -8q165 -13 278 -13z" />
    <glyph glyph-name="uni042B" unicode="&#x42b;" horiz-adv-x="1867" 
d="M1755 447q0 -125 22 -195q23 -70 47 -88t41 -32t11 -32q-16 -51 -103 -98t-171 -47q-129 0 -218 85q-88 85 -88 226v1184l11 10h438l8 -10q2 -877 2 -1003zM662 203q70 0 110 78t39 172q0 165 -77 243t-218 52v-336q2 -84 39 -146t107 -63zM653 -45q-157 0 -275 53
q-208 93 -283 325q-32 97 -32 202l-2 917l11 10h436l8 -10v-469q178 27 322 -4t231 -103q182 -150 182 -388t-156 -386q-157 -147 -442 -147z" />
    <glyph glyph-name="uni042C" unicode="&#x42c;" horiz-adv-x="1310" 
d="M685 203q77 0 121 77t44 173q0 159 -94 241t-240 54v-336q2 -80 47 -144t122 -65zM1290 488q0 -240 -163 -386t-474 -147q-157 0 -275 53q-208 93 -283 325q-32 97 -32 202l-2 917l11 10h436l8 -10v-469q348 53 561 -101t213 -394z" />
    <glyph glyph-name="uni042D" unicode="&#x42d;" horiz-adv-x="1304" 
d="M248 563q68 1 114 -21t44 -53q-16 -113 20 -195t138 -81q102 0 176 117t73 282h-324q-12 0 -12 11v223l10 10h326q4 162 -71 279t-178 117t-139 -83q-36 -82 -19 -194q2 -31 -44 -53t-114 -21q-104 0 -166 72q-61 72 -62 162q0 166 154 271t393 103q313 -2 515 -228
t202 -545t-205 -549t-512 -232q-239 -2 -393 103t-154 272q0 90 62 162t166 71z" />
    <glyph glyph-name="uni042E" unicode="&#x42e;" horiz-adv-x="2072" 
d="M1137 733q-1 -127 23 -248t77 -210t127 -89t127 88q100 166 99 458q-1 291 -101 459q-53 89 -127 89t-127 -89t-75 -210t-23 -248zM1362 1509q314 0 502 -226t188 -553t-185 -550t-505 -223q-285 0 -474 183t-206 460h-131l2 -590l-10 -10h-422l-8 10q4 1118 4 1120
q-8 82 -32 132t-47 62q-24 10 -38 20t-8 26q18 52 102 102t170 50q125 0 209 -83t84 -247l-2 -297h133q31 264 216 439t458 175z" />
    <glyph glyph-name="uni042F" unicode="&#x42f;" horiz-adv-x="1308" 
d="M799 772v508q-117 18 -202 -56t-81 -188q4 -116 87 -192t196 -72zM92 1032q0 215 167 338t419 131q137 4 277 -11t212 -32l70 -18q10 0 10 -10v-1418l-10 -12h-430q-8 0 -8 12v549h-76q-23 -287 -152 -460t-356 -146q-55 6 -99 34q-44 27 -68 61q-57 80 -55 127
q1 22 3 26q279 127 389 391q-137 55 -215 171t-78 267z" />
    <glyph glyph-name="afii10065" unicode="&#x430;" horiz-adv-x="1263" 
d="M596 240q72 0 113 78t41 198q0 121 -41 200t-113 79t-113 -79t-41 -200q0 -120 41 -198t113 -78zM1151 427q-1 -126 21 -193q22 -66 47 -80t41 -26t10 -28q-16 -53 -90 -99t-168 -46t-170 62t-97 171q-121 -231 -323 -231q-123 0 -217 84t-139 209t-46 266q0 225 111 390
t305 165t301 -194v141l11 12h409q8 -2 8 -10q-14 -467 -14 -593z" />
    <glyph glyph-name="afii10066" unicode="&#x431;" horiz-adv-x="1124" 
d="M424 468q0 -278 138 -278t138 278t-139 277q-137 1 -137 -277zM561 -43q-153 0 -273 80q-120 81 -185 197t-74 245q-49 694 288 854q105 49 219 69t164 34t62 59q10 37 29 39q139 23 219 -56t60 -190q-33 -178 -279 -196q-93 -8 -177 -16t-164 -36q-176 -59 -188 -313
q31 100 122 168q92 68 198 74q227 12 374 -129q148 -140 148 -372t-146 -372t-397 -139z" />
    <glyph glyph-name="afii10067" unicode="&#x432;" horiz-adv-x="1114" 
d="M584 193q57 1 90 41t33 102t-44 94q-43 31 -105 31t-83 -2v-125q9 -141 109 -141zM643 754q0 102 -123 102q-29 0 -45 -6v-205h39q129 0 129 109zM567 -43q-135 0 -237 42q-177 73 -242 252q-27 75 -27 150v619q0 10 9 10q195 47 467 47q180 0 318 -55q73 -29 116 -85
t43 -130q0 -73 -40 -125t-93 -70q100 -30 156 -98t57 -164q0 -188 -154 -290t-373 -103z" />
    <glyph glyph-name="afii10068" unicode="&#x433;" horiz-adv-x="864" 
d="M481 414q0 -112 22 -178q21 -66 47 -80t42 -26t10 -28q-18 -51 -95 -98t-159 -47q-125 0 -205 85t-80 226l-2 752q1 2 5 6t6 4q184 31 408 31t345 -25q17 -2 20 -15q32 -139 -57 -222t-307 -49v-336z" />
    <glyph glyph-name="afii10069" unicode="&#x434;" horiz-adv-x="1355" 
d="M784 248v594h-153q-37 -446 -74 -594h227zM10 -283v449q0 10 20 22t50 32q29 20 66 92q72 134 107 388q17 131 26 226l8 94l10 10q422 94 893 0q6 0 6 -8v-774h141q6 0 6 -12v-220l3 -2q0 -328 -318 -327q-28 0 -62 8t-34 22v283h-514l2 -33q0 -131 -82 -206t-236 -74
q-28 0 -60 8t-32 22z" />
    <glyph glyph-name="afii10070" unicode="&#x435;" horiz-adv-x="1095" 
d="M588 840h-6q-138 -28 -156 -258q133 -12 203 32t69 129q0 43 -30 72q-31 29 -78 27q0 -2 -2 -2zM578 -43q-231 0 -395 164q-163 164 -163 395t163 394t407 163t369 -114q126 -113 126 -235t-62 -199q-61 -77 -157 -103q-228 -63 -424 -21q52 -151 230 -173t364 87
q15 10 28 1q13 -8 4 -38q-23 -74 -139 -189q-59 -56 -153 -94t-198 -38z" />
    <glyph glyph-name="afii10072" unicode="&#x436;" horiz-adv-x="1828" 
d="M1837 111q0 -12 -31 -50q-30 -38 -102 -72t-170 -34t-174 48t-106 118q-30 69 -46 139t-36 122q-19 52 -52 56v-426l-8 -10h-395q-8 0 -8 10v426q-56 -4 -76 -124t-87 -236q-32 -53 -103 -88t-160 -35t-161 34t-105 74q-34 40 -27 52q8 12 26 20q78 37 131 94t75 107
q73 164 102 203q78 98 196 82h2q-24 115 -52 143t-67 28q-39 1 -48 -28q-10 -30 -7 -66v-22q0 -23 -31 -35t-71 -12q-98 0 -161 58q-62 59 -62 159t70 165q71 65 175 65t182 -47q78 -46 126 -122q93 -152 116 -309q12 -4 17 -6v430l8 8h397q0 -6 6 -8v-430q6 2 15 6
q8 86 51 189t141 195t217 93q119 -1 191 -65q71 -64 71 -164t-62 -158t-163 -59q-41 0 -72 12t-30 35v22q6 69 -25 86q-14 8 -42 8t-52 -30q-24 -31 -34 -61q-9 -30 -19 -78q122 9 196 -84q27 -33 63 -121t91 -161t155 -122q25 -12 25 -24z" />
    <glyph glyph-name="afii10073" unicode="&#x437;" horiz-adv-x="1024" 
d="M516 -45q-328 0 -448 140q-48 54 -48 129t54 129q83 82 235 43q47 -11 53 -21q6 -9 8 -21t-1 -32q-2 -20 -2 -33q1 -59 31 -92t80 -33t82 34t32 84t-31 93t-110 43h-48q-8 0 -8 10v190l8 9h72q59 0 88 38t29 85q0 46 -27 80t-80 34t-86 -33t-32 -92q0 -12 3 -41t-6 -42
q-8 -13 -55 -25q-47 -13 -113 -13t-121 56t-55 129q0 74 48 129t122 84q146 57 286 57q140 1 246 -25t187 -101q82 -75 82 -191q0 -173 -221 -226q233 -66 234 -241q0 -117 -84 -196t-195 -109t-209 -29z" />
    <glyph glyph-name="afii10074" unicode="&#x438;" 
d="M1147 427q-1 -126 21 -193q22 -66 46 -80t42 -26q17 -12 12 -28q-18 -53 -92 -99t-168 -46t-170 62t-97 173q-59 -121 -149 -178t-194 -57t-187 94q-82 94 -82 244v319q0 176 -54 235q-21 24 -43 36t-33 19t-7 22q18 53 92 99t156 46q129 0 216 -85t87 -226v-398
q0 -111 61 -118q53 -8 90 61t41 152v563l8 12h412q8 -2 8 -10q-16 -467 -16 -593z" />
    <glyph glyph-name="afii10075" unicode="&#x439;" 
d="M1147 427q-1 -126 21 -193q22 -66 46 -80t42 -26q17 -12 12 -28q-18 -53 -92 -99t-168 -46t-170 62t-97 173q-59 -121 -149 -178t-194 -57t-187 94q-82 94 -82 244v319q0 176 -54 235q-21 24 -43 36t-33 19t-7 22q18 53 92 99t156 46q129 0 216 -85t87 -226v-398
q0 -111 61 -118q53 -8 90 61t41 152v563l8 12h412q8 -2 8 -10q-16 -467 -16 -593zM1008 1599q70 -41 87 -121t-33 -169q-50 -91 -171 -145t-253 -55t-259 52t-191 154q-47 78 -28 160q18 81 88 125t150 25t124 -91q70 -113 -12 -223q-31 -39 22 -62q98 -43 187 0
q57 27 26 64q-82 109 -12 221q43 72 124 91t151 -26z" />
    <glyph glyph-name="afii10076" unicode="&#x43a;" horiz-adv-x="1232" 
d="M974 1075q95 -1 166 -65q70 -64 70 -164t-62 -158t-161 -59q-41 0 -73 12t-31 35q0 2 1 21q3 64 -22 82q-12 9 -31 12q-53 7 -83 -49t-35 -124q121 16 196 -79q25 -33 61 -121t92 -161t155 -122q25 -12 25 -24t-23 -43q-103 -113 -279 -113q-98 0 -174 48t-107 119
q-31 70 -47 140t-34 121t-54 55v-426l-8 -12h-412q-8 2 -8 10q16 467 16 593t-21 193q-22 67 -46 81q-25 14 -42 25t-11 28q18 53 92 99t156 46q124 0 204 -85t80 -226v-172q12 6 17 6q13 113 63 208q49 94 94 146t113 88q68 35 163 35z" />
    <glyph glyph-name="afii10077" unicode="&#x43b;" horiz-adv-x="1230" 
d="M1169 1022v-1010l-8 -10h-395q-8 0 -8 10v830h-146q-25 -403 -49 -533q-63 -352 -340 -352q-90 0 -151 51t-62 92q0 11 55 64q25 24 59 98q71 153 95 349t33 302l8 107q0 10 8 10q423 94 895 0q6 0 6 -8z" />
    <glyph glyph-name="afii10078" unicode="&#x43c;" horiz-adv-x="1574" 
d="M1108 0q-8 0 -8 10q2 182 2 391l20 222l-260 -605q-6 -16 -26 -16h-52q-16 0 -24 16l-207 525q0 -129 -10 -215q-49 -367 -318 -367q-90 0 -152 49t-63 90q0 14 12 30t32 37q48 55 102 282q20 90 27 232t3 241l-4 98l8 10h431l10 -8l184 -383h6l201 385q2 6 10 6h459
q6 0 6 -8l16 -1012l-8 -10h-397z" />
    <glyph glyph-name="afii10079" unicode="&#x43d;" horiz-adv-x="1251" 
d="M1139 414q0 -177 48 -235q19 -24 39 -36t29 -20q10 -8 5 -23q-16 -51 -90 -95t-156 -44q-127 0 -207 83t-80 224v138h-201v-394l-10 -12h-410l-8 10q14 467 14 593t-21 193q-22 67 -46 81q-25 14 -42 25t-11 28q18 53 92 99t156 46q126 0 206 -85t80 -226v-119h201v375
l10 10h393q8 0 9 -10v-606z" />
    <glyph glyph-name="afii10080" unicode="&#x43e;" horiz-adv-x="1187" 
d="M424 512q0 -141 43 -234q43 -94 129 -94t127 90t41 234t-43 235q-43 93 -128 93t-127 -92t-42 -232zM594 1067q246 0 410 -162q164 -163 163 -397q1 -234 -161 -394t-410 -161q-248 0 -412 162t-164 395t164 395t410 162z" />
    <glyph glyph-name="afii10081" unicode="&#x43f;" horiz-adv-x="1177" 
d="M713 2q-8 0 -8 10v830h-230v-830l-10 -10h-395q-8 0 -9 10v1010l9 8q227 45 519 46t521 -46q0 -6 6 -8v-1010l-8 -10h-395z" />
    <glyph glyph-name="afii10082" unicode="&#x440;" horiz-adv-x="1261" 
d="M668 238q72 0 112 78t41 200q0 121 -41 199q-40 78 -112 78t-113 -78t-41 -199q0 -122 41 -200t113 -78zM842 1075q182 0 291 -169t109 -392t-110 -388t-304 -165t-302 195v-594l-10 -13h-410l-8 11q-2 918 -2 1044t-18 192q-18 67 -41 81t-37 25t-8 28q18 53 92 99
t168 46t170 -62t96 -171q121 233 324 233z" />
    <glyph glyph-name="afii10083" unicode="&#x441;" horiz-adv-x="1067" 
d="M580 -43q-233 0 -397 164q-163 164 -163 392t155 389t388 171q187 0 323 -75t136 -212q2 -78 -55 -141t-144 -63q-47 0 -92 12t-52 25t-4 40t3 41q0 62 -28 102t-70 40q-78 0 -120 -102t-31 -214q11 -114 55 -183q77 -120 234 -116q158 4 302 88q17 12 28 2q11 -11 4 -41
q-16 -69 -130 -187q-54 -56 -146 -94t-196 -38z" />
    <glyph glyph-name="afii10084" unicode="&#x442;" horiz-adv-x="1038" 
d="M700 754v-338q0 -112 22 -178t46 -80t42 -26q17 -12 11 -28q-18 -53 -93 -99t-157 -46q-125 0 -205 85t-79 226v500l-267 2q-6 0 -6 8l-4 230v14q0 4 4 8q180 35 466 36t519 -32q27 -3 28 -89q1 -85 -60 -136t-129 -59t-136 2h-2z" />
    <glyph glyph-name="afii10085" unicode="&#x443;" horiz-adv-x="1218" 
d="M590 -459q-137 1 -245 57q-175 92 -214 217q-39 126 8 119q14 -2 42 -28t60 -54q32 -30 95 -54t141 -23q117 0 189 77t75 177v204q-57 -123 -148 -180t-195 -57t-187 94q-82 94 -82 244v278q0 176 -54 235q-21 24 -43 36t-33 19t-7 22q18 53 92 99t156 46q129 0 215 -85
t86 -226v-357q0 -111 61 -118q55 -7 94 65t41 160v510l8 10h396q8 0 8 -10q6 -596 6 -868q10 -272 -138 -440t-427 -169z" />
    <glyph glyph-name="afii10086" unicode="&#x444;" horiz-adv-x="1826" 
d="M1110 515q0 -125 34 -201t104 -76q71 0 105 76t33 202q0 276 -139 277q-69 0 -103 -77t-34 -201zM440 517q0 -125 34 -201t105 -76t105 76t33 202q0 276 -139 277q-70 0 -104 -77t-34 -201zM1124 1022v-150q113 203 296 203q182 0 284 -167t102 -394t-102 -390t-290 -163
t-290 178v-577l-2 -11h-399q-2 -1 -6 3t-4 8q-2 244 -4 592q-106 -195 -303 -195q-125 0 -215 84q-171 161 -171 477t174 471q91 82 220 82q195 0 299 -196v145l6 8h397q8 -3 8 -8z" />
    <glyph glyph-name="afii10087" unicode="&#x445;" horiz-adv-x="1181" 
d="M1174 0h-453q-12 0 -16 10l-230 355q-61 -15 -71 -59t15 -85q23 -41 51 -79t28 -42q2 -53 -64 -99t-168 -46t-177 67t-79 173q-12 266 346 348l-333 477q-6 10 6 10h444q10 0 16 -10l230 -348q45 12 59 42t-6 76t-53 88q-32 42 -33 44q-2 51 64 97t149 46q121 0 197 -73
q76 -74 76 -182t-98 -188q-96 -80 -243 -114l349 -496q8 -12 -6 -12z" />
    <glyph glyph-name="afii10088" unicode="&#x446;" horiz-adv-x="1333" 
d="M1321 199v-185q0 -170 -79 -248t-236 -79q-29 0 -63 8t-34 22v260q-379 -59 -786 23l-8 10q-2 465 -2 591t-22 193q-23 66 -47 80t-41 26t-11 28q18 53 92 99t156 46q126 0 206 -85t80 -226v-555h215v811l9 10h395q8 -2 8 -10v-811h162q6 0 6 -8z" />
    <glyph glyph-name="afii10089" unicode="&#x447;" horiz-adv-x="1226" 
d="M1114 427q0 -126 22 -193q22 -66 48 -80t41 -26q16 -12 10 -28q-16 -53 -90 -99t-156 -46q-127 0 -207 85t-80 226v140q-92 -129 -276 -130q-137 0 -217 90t-80 256q0 167 -54 225q-21 24 -43 36t-33 19t-7 22q18 53 92 99t156 46q129 0 215 -85t86 -226v-123
q0 -121 57 -133q49 -12 82 59q23 49 22 117v340l11 12h409q8 -2 8 -10q-16 -467 -16 -593z" />
    <glyph glyph-name="afii10090" unicode="&#x448;" horiz-adv-x="1765" 
d="M1704 1018v-1010q0 -8 -6 -8q-209 -47 -769 -48t-808 48q-8 0 -8 10v606q0 111 -22 178q-23 66 -47 80t-41 26t-11 28q18 53 92 99t156 46q128 0 206 -84t78 -227v-557h185v813l8 10h379q8 -2 8 -10v-813h188v813l11 10h393q8 -2 8 -10z" />
    <glyph glyph-name="afii10091" unicode="&#x449;" horiz-adv-x="1884" 
d="M1458 -283v252q-293 -25 -721 -17t-618 48q-6 6 -4 10q-2 465 -2 591t-22 193q-23 66 -47 80t-41 26t-11 28q18 53 92 99t156 46q126 0 206 -85t80 -226v-557h183v813l8 10h379q8 -2 8 -10v-811h188v811l11 10h393q10 -2 10 -10v-811h158q8 0 8 -8v-183l2 -2
q0 -328 -318 -327q-30 0 -64 8t-34 22z" />
    <glyph glyph-name="afii10092" unicode="&#x44a;" horiz-adv-x="1286" 
d="M772 193q106 0 107 221q0 88 -46 143t-114 55q-20 0 -41 -4v-270q8 -145 94 -145zM842 807q170 0 297 -114t127 -298t-151 -311t-359 -127q-136 0 -236 42t-152 111q-102 135 -102 291v383h-248q-8 2 -8 11v227l6 8q128 45 316 45t338 -45q8 0 8 -10v-225q98 12 164 12z
" />
    <glyph glyph-name="afii10093" unicode="&#x44b;" horiz-adv-x="1624" 
d="M561 193q96 0 96 221q0 90 -37 143q-38 53 -106 53q-20 0 -41 -4v-250q4 -163 88 -163zM61 399v621l9 10h395q8 -2 8 -12v-225q87 14 183 14t194 -57q54 164 156 242t214 77q112 0 195 -94q82 -94 82 -244v-319q0 -176 54 -235q26 -29 75 -55q12 -7 6 -22
q-18 -53 -92 -99t-156 -46q-127 0 -214 85t-87 226v398q0 121 -55 120q-55 0 -88 -106q104 -115 104 -275q0 -195 -143 -321t-350 -127q-135 0 -235 42t-153 111q-102 135 -102 291z" />
    <glyph glyph-name="afii10094" unicode="&#x44c;" horiz-adv-x="1081" 
d="M567 193q106 0 107 221q0 88 -45 142t-115 54q-16 0 -41 -4v-270q8 -143 94 -143zM61 399v621l9 10h395q8 -2 8 -12v-225q90 14 164 14q170 0 297 -114q127 -113 127 -299t-151 -312t-359 -127q-135 0 -235 42t-153 111q-102 135 -102 291z" />
    <glyph glyph-name="afii10095" unicode="&#x44d;" horiz-adv-x="1083" 
d="M481 1073q263 0 437 -182t139 -418q-17 -227 -183 -371q-240 -208 -599 -113q-97 27 -176 91t-79 151t54 145t143 58q55 0 97 -15t40 -44q-8 -84 24 -135t111 -52q154 0 166 205h-254q-8 0 -8 10v203l8 8h254q-14 227 -182 228q-134 -12 -117 -187q2 -29 -40 -44t-97 -15
q-90 0 -144 59t-52 137t47 133q44 56 116 87q131 57 291 61h4z" />
    <glyph glyph-name="afii10096" unicode="&#x44e;" horiz-adv-x="1714" 
d="M1267 288q21 81 21 233q0 153 -27 237q-28 84 -110 84t-110 -85q-27 -85 -27 -199t5 -166t18 -101q27 -101 116 -101t114 98zM1168 1073q224 0 376 -161q150 -160 150 -398t-148 -398t-378 -159q-230 0 -373 126t-177 323h-86v-394l-8 -12h-403q-8 2 -8 10v608
q0 111 -22 178t-46 81q-25 14 -42 25t-11 28q18 51 99 98t165 47q125 0 201 -84t75 -227v-119h91q37 188 179 308t366 120z" />
    <glyph glyph-name="afii10097" unicode="&#x44f;" horiz-adv-x="1146" 
d="M588 856q-41 0 -79 -36t-38 -103q0 -133 137 -133h66v268q-45 4 -86 4zM1085 1022v-1010l-8 -10h-395q-8 0 -8 10v387q-25 -11 -42 -93q-30 -146 -103 -243q-37 -47 -105 -77t-160 -31q-127 0 -231 113q-23 33 -21 44t29 27q123 78 278 293q-113 37 -181 112t-68 181
q0 166 152 259q153 93 381 93t411 -37l63 -10q8 0 8 -8z" />
    <glyph glyph-name="afii10071" unicode="&#x451;" horiz-adv-x="1095" 
d="M588 840h-6q-138 -28 -156 -258q133 -12 203 32t69 129q0 43 -30 72q-31 29 -78 27q0 -2 -2 -2zM578 -43q-231 0 -395 164q-163 164 -163 395t163 394t407 163t369 -114q126 -113 126 -235t-62 -199q-61 -77 -157 -103q-228 -63 -424 -21q52 -151 230 -173t364 87
q15 10 28 1q13 -8 4 -38q-23 -74 -139 -189q-59 -56 -153 -94t-198 -38zM999 1307q0 -74 -59 -125q-59 -52 -143 -52q-83 0 -143 52t-60 125q0 74 59 125t143 51t144 -51q59 -51 59 -125zM522 1307q0 -74 -59 -125q-59 -52 -143 -52t-144 52q-59 52 -59 125q0 74 59 125
t143 51q83 0 143 -51t60 -125z" />
    <glyph glyph-name="afii10100" unicode="&#x453;" horiz-adv-x="864" 
d="M727 1505q-137 -268 -440 -375q-12 -4 -17 -2q-47 37 -84 101q-6 6 2 14q111 111 167 204t91 232q4 6 13 4q162 -39 264 -161q4 -2 5 -8t-1 -9zM481 414q0 -112 22 -178q21 -66 47 -80t42 -26t10 -28q-18 -51 -95 -98t-159 -47q-125 0 -205 85t-80 226l-2 752q1 2 5 6
t6 4q184 31 408 31t345 -25q17 -2 20 -15q32 -139 -57 -222t-307 -49v-336z" />
    <glyph glyph-name="afii10101" unicode="&#x454;" horiz-adv-x="1075" 
d="M602 1073h4q161 -4 291 -61q72 -31 117 -87t47 -133q2 -76 -52 -136t-145 -60q-55 0 -97 15t-40 44q17 173 -117 187q-168 0 -182 -228h254q8 0 8 -8v-203l-8 -10h-254q12 -205 166 -205q80 0 117 60q27 43 18 127q-2 29 40 44t97 15q90 0 144 -58t53 -145
q0 -87 -79 -152q-138 -113 -373 -118q-236 -3 -402 141t-182 371q-35 236 139 418t436 182z" />
    <glyph glyph-name="afii10102" unicode="&#x455;" horiz-adv-x="1050" 
d="M633 750q0 122 -100 116q-49 -2 -75 -32t-26 -69q0 -38 35 -70t78 -47q43 -16 84 -28t45 -13t10 -2t10 -3q336 -96 336 -315q0 -117 -86 -196q-150 -138 -442 -138q-166 0 -308 56q-77 30 -125 84q-49 54 -49 129t56 129t143 55q49 0 98 -12t57 -24q8 -13 6 -42
q-3 -29 -3 -41q0 -59 34 -92t87 -33q106 0 110 92q0 43 -26 62q-56 43 -110 60q-56 17 -94 28q-170 49 -254 133q-85 84 -87 196v6q0 150 144 242t329 92q185 -1 328 -69t143 -197q2 -76 -52 -127t-147 -51q-51 0 -96 12t-52 26t-4 41t3 42z" />
    <glyph glyph-name="afii10103" unicode="&#x456;" horiz-adv-x="606" 
d="M291 1511q99 0 169 -56t70 -135t-70 -134q-70 -56 -169 -56q-98 0 -168 56t-70 134q0 79 70 135t168 56zM133 603q0 126 -21 193q-22 67 -46 81q-25 14 -42 25t-12 28q18 53 92 99t156 46q127 0 206 -84t79 -227v-752l-8 -12h-410q-10 2 -10 10q16 467 16 593z" />
    <glyph glyph-name="afii10104" unicode="&#x457;" horiz-adv-x="606" 
d="M729 1307q0 -74 -59 -125q-60 -52 -144 -52t-143 52t-59 125q0 74 59 125t143 51t144 -51t59 -125zM254 1307q0 -74 -60 -125q-60 -52 -144 -52t-144 52q-59 52 -60 125q0 74 60 125t143 51q85 0 145 -51t60 -125zM127 603q0 126 -22 193t-46 81q-25 14 -41 25t-10 28
q16 53 90 99t156 46q127 0 207 -85t80 -226v-752l-11 -12h-409q-8 2 -8 10q14 467 14 593z" />
    <glyph glyph-name="afii10105" unicode="&#x458;" horiz-adv-x="626" 
d="M586 1320q0 -78 -70 -134t-169 -56t-169 56t-70 134q0 79 70 135t169 56t169 -56t70 -135zM553 1020v-954q0 -606 -453 -607q-172 0 -269 77t-97 181q0 79 54 141t136 62q47 0 94 -12t52 -25q4 -14 -6 -49t-9 -84q0 -123 74 -123q80 0 80 117q0 64 -34 162t-34 176v936
l9 12h395q8 -2 8 -10z" />
    <glyph glyph-name="afii10106" unicode="&#x459;" horiz-adv-x="1740" 
d="M1231 193q104 0 104 221q0 88 -45 142t-114 54q-20 0 -41 -4v-262q8 -151 96 -151zM1296 807q172 0 298 -114q126 -113 126 -299t-150 -312t-360 -127q-364 0 -462 294q-25 73 -25 150v443h-129q-23 -385 -49 -533q-66 -352 -340 -352q-90 0 -153 51q-62 51 -62 92
q0 10 16 26t40 38q24 24 58 98q72 156 97 350q24 195 32 301l7 107q2 10 10 10q408 90 874 0q10 -2 11 -12v-225q85 14 161 14z" />
    <glyph glyph-name="afii10107" unicode="&#x45a;" horiz-adv-x="1730" 
d="M1217 193q106 0 106 221q0 88 -45 142t-115 54q-16 0 -41 -4v-270q9 -143 95 -143zM711 406h-187v-394l-8 -12h-412q-8 2 -8 10q16 467 16 593t-21 193q-22 67 -46 81q-25 14 -42 25t-11 28q18 53 92 99t156 46q124 0 204 -85t80 -226v-119h187v375l8 10h395q8 -2 8 -12
v-225q90 14 164 14q170 0 297 -114q127 -113 127 -299t-150 -312t-360 -127q-135 0 -235 42t-153 111q-103 137 -101 291v7z" />
    <glyph glyph-name="afii10110" unicode="&#x45e;" horiz-adv-x="1218" 
d="M590 -459q-137 1 -245 57q-175 92 -214 217q-39 126 8 119q14 -2 42 -28t60 -54q32 -30 95 -54t141 -23q117 0 189 77t75 177v204q-57 -123 -148 -180t-195 -57t-187 94q-82 94 -82 244v278q0 176 -54 235q-21 24 -43 36t-33 19t-7 22q18 53 92 99t156 46q129 0 215 -85
t86 -226v-357q0 -111 61 -118q55 -7 94 65t41 160v510l8 10h396q8 0 8 -10q6 -596 6 -868q10 -272 -138 -440t-427 -169zM1008 1599q70 -41 87 -121t-33 -169q-50 -91 -171 -145t-253 -55t-259 52t-191 154q-47 78 -28 160q18 81 88 125t150 25t124 -91q70 -113 -12 -223
q-31 -39 22 -62q98 -43 187 0q57 27 26 64q-82 109 -12 221q43 72 124 91t151 -26z" />
    <glyph glyph-name="afii10050" unicode="&#x490;" horiz-adv-x="1040" 
d="M481 1470q147 0 148 154v74q0 20 35 20q133 0 239 -92t98 -225q-4 -100 -56 -167q-52 -66 -127 -90q-179 -56 -316 -14q0 -242 6 -698q4 -175 58 -234q22 -24 41 -35t31 -19t5 -23q-20 -59 -103 -113t-171 -53q-135 0 -224 89q-88 89 -88 269l2 1141l11 10q2 8 206 7
t205 -1z" />
    <glyph glyph-name="afii10098" unicode="&#x491;" horiz-adv-x="919" 
d="M59 1010q0 16 13 16h4l366 8q70 0 100 30t29 91v111q0 16 31 16q113 0 201 -78t88 -197q0 -120 -108 -204t-302 -49l2 -334q0 -227 84 -276q19 -11 29 -19t6 -25q-10 -49 -91 -96t-163 -47q-123 0 -206 89t-83 230v734z" />
    <glyph glyph-name="endash" unicode="&#x2013;" horiz-adv-x="1024" 
d="M954 412q0 -6 -8 -6h-876l-11 8v176q2 10 13 10h874l8 -8v-180z" />
    <glyph glyph-name="emdash" unicode="&#x2014;" horiz-adv-x="1665" 
d="M1595 412q0 -6 -8 -6h-1517l-11 8v176q2 10 13 10h1515l8 -8v-180z" />
    <glyph glyph-name="quoteleft" unicode="&#x2018;" horiz-adv-x="421" 
d="M31 1133q0 131 74 217q75 86 157 114t82 -8q0 -20 -34 -51q-98 -89 -31 -117q46 -20 79 -64t33 -111t-53 -120t-127 -53t-127 56t-53 137z" />
    <glyph glyph-name="quoteright" unicode="&#x2019;" horiz-adv-x="421" 
d="M391 1286q0 -131 -75 -217q-76 -86 -158 -116t-82 10q0 18 35 50q101 92 39 113q-120 52 -120 180q0 66 53 119q52 53 127 53t128 -54q53 -56 53 -138z" />
    <glyph glyph-name="quotesinglbase" unicode="&#x201a;" horiz-adv-x="419" 
d="M391 152q0 -132 -75 -218q-76 -86 -158 -116t-82 10q0 18 35 50q99 90 32 118q-46 19 -80 63q-33 45 -33 112t53 120q52 53 127 53t128 -55t53 -137z" />
    <glyph glyph-name="quotedblleft" unicode="&#x201c;" horiz-adv-x="811" 
d="M31 1133q0 131 74 217q75 86 157 114t82 -8q0 -20 -34 -51q-98 -89 -31 -117q46 -20 79 -64t33 -111t-53 -120t-127 -53t-127 56t-53 137zM420 1133q0 131 75 217t157 116t83 -10q0 -18 -35 -50q-100 -91 -38 -114q118 -52 118 -179q0 -67 -52 -120t-127 -53t-128 56
t-53 137z" />
    <glyph glyph-name="quotedblright" unicode="&#x201d;" horiz-adv-x="811" 
d="M780 1286q0 -131 -74 -217t-157 -115q-82 -29 -82 9q0 20 34 51q100 91 38 112q-119 52 -119 180q0 66 53 119t127 53t127 -54q53 -56 53 -138zM391 1286q0 -131 -75 -217q-76 -86 -158 -116t-82 10q0 18 35 50q101 92 39 113q-120 52 -120 180q0 66 53 119q52 53 127 53
t128 -54q53 -56 53 -138z" />
    <glyph glyph-name="quotedblbase" unicode="&#x201e;" horiz-adv-x="811" 
d="M780 141q0 -131 -74 -217t-157 -114q-82 -28 -82 8q0 20 34 51q98 89 31 117q-46 20 -79 64t-33 111t53 120t127 53t127 -56t53 -137zM391 141q0 -131 -75 -217q-76 -86 -158 -116t-82 10q0 18 35 50q99 90 32 118q-46 19 -80 63q-33 45 -33 112t53 120q52 53 127 53
t128 -56t53 -137z" />
    <glyph glyph-name="dagger" unicode="&#x2020;" horiz-adv-x="901" 
d="M737 1071q76 0 119 -44t43 -98q0 -55 -43 -99q-44 -44 -136 -44t-204 66q92 -92 92 -382q0 -146 -57 -422t-99 -277q-42 0 -100 275q-57 276 -57 416q0 304 94 390q-113 -66 -205 -66t-135 44t-43 98t43 99q43 44 119 44q115 0 221 -76q-84 117 -84 260q0 80 46 125
q45 45 101 45t102 -45t46 -125q0 -143 -84 -260q106 76 221 76z" />
    <glyph glyph-name="bullet" unicode="&#x2022;" horiz-adv-x="692" 
d="M651 511q0 -126 -90 -216t-216 -90t-215 89t-89 216t89 217t216 90t216 -90t89 -216z" />
    <glyph glyph-name="ellipsis" unicode="&#x2026;" horiz-adv-x="1507" 
d="M1477 164q-1 -82 -59 -141t-142 -59t-142 58q-58 60 -59 142q1 82 59 141t142 59t142 -58q58 -60 59 -142zM954 164q0 -82 -59 -141t-141 -59t-142 58q-60 60 -59 142q0 82 59 141q60 59 142 59t141 -58q59 -60 59 -142zM432 164q0 -82 -58 -141t-142 -59t-143 58
q-58 60 -58 142t58 141t142 59q85 0 143 -58q58 -60 58 -142z" />
    <glyph glyph-name="Euro" unicode="&#x20ac;" horiz-adv-x="1155" 
d="M510 514v-47l231 12l11 -8v-121q0 -10 -11 -10q-88 8 -217 12q29 -137 117 -159q10 -4 35 -5h16q136 12 117 187q-2 29 41 44t96 15q90 0 144 -59t54 -140q-2 -81 -64 -143q-113 -113 -320 -131q-23 -4 -70 -4h-6q-205 2 -352 111t-201 278q-104 -6 -111 -6l-10 8v125
q0 6 18 6t78 -4q-2 12 -2 38t2 38q-53 -4 -86 -4l-10 8v125q0 6 30 6t89 -6q53 172 201 281t352 110h6q258 0 392 -134q62 -62 62 -143q0 -82 -52 -140q-53 -58 -144 -58q-55 0 -97 14t-40 43q7 86 -21 132t-96 55h-18q-25 0 -35 -4q-88 -23 -117 -160l219 10l11 -8v-121
q0 -10 -11 -10q-94 8 -231 12l-2 -18q2 -8 2 -27z" />
    <glyph glyph-name="afii61352" unicode="&#x2116;" horiz-adv-x="1605" 
d="M68 211q-6 0 -7 8v805l7 6h327l11 -8q0 -2 2 -4l143 -281l22 -86q1 -6 7 -7t9 3t-18 86v289l9 8h301q8 0 8 -8v-805l-6 -6h-328q-12 10 -12 12l-144 281l-22 84q-2 10 -10 8t-7 -12q14 -57 17 -76v-289l-6 -8h-303zM1311 718v50q-1 122 -17 146t-45 24t-42 -9
q-27 -19 -27 -112v-49q0 -122 16 -146t49 -24q56 0 64 61q2 23 2 59zM1245 1073q143 0 231 -85t89 -221q0 -136 -87 -220q-88 -84 -232 -84t-232 85t-88 220t88 220t231 85zM1565 221q0 -8 -9 -8h-593l-11 8v203q0 8 11 8h591l11 -6v-205z" />
    <glyph glyph-name="trademark" unicode="&#x2122;" horiz-adv-x="1132" 
d="M940 621q-4 0 -4 6v204l6 39q0 2 -6 2t-6 -2l-12 -43l-91 -198q-2 -8 -12 -8h-14q-10 0 -13 8l-90 196l-12 45q-4 2 -12 0q0 -12 6 -43v-200l-4 -6h-168q-4 2 -4 4q8 412 8 432l2 2h203l6 -4l84 -162h2l84 162q2 4 6 4h203q2 0 2 -2l6 -432l-2 -4h-168zM10 1057q0 4 6 4
h463l4 -4v-117q0 -7 -147 -12v-303l-4 -4h-168q-4 0 -4 307q-142 6 -150 14v115z" />
    <glyph glyph-name="CR" horiz-adv-x="509" 
 />
    <glyph glyph-name="u.salt" horiz-adv-x="1196" 
d="M643 -45q-211 0 -361 120t-153 328v209q0 176 -54 235q-21 24 -43 36t-33 19t-7 22q18 53 92 99t156 46q129 0 216 -85t87 -226v-402q6 -166 98 -166q82 0 94 148v680l8 12h402q8 -2 8 -10q-6 -508 -4 -610q1 -219 -147 -337t-359 -118z" />
    <glyph glyph-name="afii10078.salt" horiz-adv-x="1527" 
d="M985 1030h459q6 0 6 -8l16 -1012l-8 -10h-397q-8 0 -8 10q2 182 2 391l20 222l-260 -605q-6 -16 -27 -16h-51q-16 0 -24 16l-260 605l20 -222l2 -391l-8 -10h-397q-8 0 -9 10q17 965 17 1012l6 8h459l10 -6l209 -426h12l201 426q2 6 10 6z" />
    </font>
</defs>
</svg>
