<?xml version="1.0" standalone="no"?>
<!DOCTYPE svg PUBLIC "-//W3C//DTD SVG 1.1//EN" "http://www.w3.org/Graphics/SVG/1.1/DTD/svg11.dtd" >
<svg xmlns="http://www.w3.org/2000/svg">
<metadata>
Created by FontPrep 20130207 at Mon Dec  1 16:27:41 2014
 By design
Copyright (c) 1990-2001 ParaType, Inc. All Rights Reserved. ITC Officina is a registered trade mark of International Typeface Corporation.
</metadata>
<defs>
<font id="c7329674f5b56036c05d8d517691a7da" horiz-adv-x='1024' >
  <font-face 
    font-family="OfficinaSansMediumC"
    font-weight="500"
    font-stretch="normal"
    units-per-em="2048"
    panose-1="0 0 6 0 0 0 0 0 0 0"
    ascent="1542"
    descent="-506"
    x-height="999"
    cap-height="1405"
    bbox="-139 -506.17 1853.01 1835"
    underline-thickness="102"
    underline-position="-102"
    unicode-range="U+0020-F6D4"
  />
<missing-glyph horiz-adv-x="477" 
 />
    <glyph glyph-name=".notdef" horiz-adv-x="477" 
 />
    <glyph glyph-name=".null" horiz-adv-x="0" 
 />
    <glyph glyph-name="nonmarkingreturn" horiz-adv-x="681" 
 />
    <glyph glyph-name="space" unicode=" " horiz-adv-x="477" 
 />
    <glyph glyph-name="space" unicode="&#xa0;" horiz-adv-x="477" 
 />
    <glyph glyph-name="exclam" unicode="!" horiz-adv-x="718" 
d="M518 119q0 -66 -46 -114t-112 -48t-112 48t-45 114q0 65 46 111q45 46 111 46t112 -46t46 -111zM311 530q-20 0 -26 6t-9 29l-47 815q-2 23 4 30t29 7h187q25 0 31 -7t3 -30l-45 -815q-2 -23 -8 -29t-29 -6h-90z" />
    <glyph glyph-name="quotedbl" unicode="&#x22;" horiz-adv-x="784" 
d="M264 840h-84q-22 0 -26 6t-7 31l-34 495q-2 20 5 26t32 7h151q23 -1 29 -7t4 -26l-33 -495q-2 -23 -8 -30t-29 -7zM604 840h-84q-24 0 -28 6t-7 31l-32 495q-2 20 5 26t29 7h154q23 -1 29 -7t4 -26l-33 -495q-2 -23 -8 -30t-29 -7z" />
    <glyph glyph-name="numbersign" unicode="#" horiz-adv-x="1077" 
d="M672 774h-234l-37 -377h234zM987 809q0 -23 -6 -29t-29 -6h-125l-39 -377h109q23 0 29 -7t6 -30v-90q0 -22 -6 -28t-29 -6h-125l-39 -367q-2 -33 -37 -33h-86q-24 0 -30 7t-2 30l38 363h-233l-39 -367q-2 -33 -37 -33h-84q-23 0 -29 7t-4 30l37 363h-100q-23 0 -30 6
t-7 28v90q0 23 7 30t30 7h119l39 377h-103q-24 0 -30 6t-7 29v96q-1 23 7 29t30 6h121l39 375q2 20 8 26t27 7h86q23 0 29 -8t4 -29l-39 -371h233l41 375q2 20 8 26t27 7h84q39 0 35 -37l-39 -371h106q23 0 29 -6t6 -29v-96z" />
    <glyph glyph-name="dollar" unicode="$" horiz-adv-x="1087" 
d="M756 346q0 74 -33 125t-113 100v-417q70 16 108 67t38 125zM506 807v381q-145 -29 -146 -172q0 -68 33 -115t113 -94zM956 362q0 -152 -93 -257t-247 -128v-112q0 -23 -6 -29t-28 -6h-47q-23 0 -29 6t-6 29v106q-174 10 -326 82q-25 11 -28 21t6 30l43 121q10 31 49 11
q137 -72 256 -82v456q-170 90 -217 129q-123 101 -123 255t92 250t248 116v113q0 23 6 29t29 5h47q22 0 28 -6t6 -28v-107q158 -10 275 -74q25 -12 28 -24t-8 -33l-43 -105q-8 -24 -23 -19t-34 15q-90 51 -195 64v-424q151 -72 220 -134q68 -62 94 -126t26 -144z" />
    <glyph glyph-name="percent" unicode="%" horiz-adv-x="1646" 
d="M508 991q0 225 -125 226q-61 -1 -96 -61t-35 -167q0 -223 123 -223q133 0 133 225zM1397 332q0 225 -125 225q-63 0 -97 -59t-34 -168q0 -223 123 -224q133 1 133 226zM672 998q0 -166 -78 -264t-217 -99q-139 0 -214 90t-75 258t80 266q80 99 215 99t212 -92t77 -258z
M483 -61q-29 0 -33 11t5 34l567 1359q10 27 39 27h96q29 0 34 -10t-5 -29l-570 -1362q-12 -31 -41 -30h-92zM1561 338q0 -166 -79 -264t-217 -98t-214 90t-76 256t81 266q81 98 216 98t212 -91t77 -257z" />
    <glyph glyph-name="ampersand" unicode="&#x26;" horiz-adv-x="1267" 
d="M330 353q0 -88 67 -152q68 -63 172 -64q139 0 252 113l-321 379q-94 -70 -132 -129t-38 -147zM733 1110q0 74 -42 118q-41 44 -113 44t-120 -46t-48 -115t41 -133q12 -19 18 -30t45 -57t43 -49q96 76 136 135t40 133zM1086 -37q-10 0 -25 17l-119 133q-92 -82 -181 -115
t-208 -33q-203 1 -324 103t-120 276q0 135 73 224q74 89 211 175q-104 123 -143 200t-39 155q0 145 110 242q109 98 267 98t251 -87t93 -221t-71 -221q-71 -88 -199 -180l278 -321q32 57 46 141q16 84 18 95q2 12 3 20t2 11t3 8t8 4t16 -1l127 -20q23 -2 23 -33
q0 -80 -35 -184t-86 -183l137 -166q27 -29 2 -49l-94 -76q-14 -12 -24 -12z" />
    <glyph glyph-name="quotesingle" unicode="'" horiz-adv-x="444" 
d="M264 840h-84q-22 0 -26 6t-7 31l-34 495q-2 20 5 26t32 7h151q23 -1 29 -7t4 -26l-33 -495q-2 -23 -8 -30t-29 -7z" />
    <glyph glyph-name="parenleft" unicode="(" horiz-adv-x="849" 
d="M213 499q0 517 387 996q25 31 47 18l88 -49q29 -16 6 -49q-169 -254 -239 -439t-70 -470q0 -477 299 -893q30 -41 10 -53l-94 -62q-20 -14 -49 19q-385 465 -385 982z" />
    <glyph glyph-name="parenright" unicode=")" horiz-adv-x="864" 
d="M655 500q0 -512 -389 -983q-29 -33 -47 -19l-94 62q-20 12 10 53q301 420 301 893q0 283 -70 467q-71 184 -243 442q-25 35 6 49l92 49q20 10 43 -18q391 -483 391 -995z" />
    <glyph glyph-name="asterisk" unicode="*" horiz-adv-x="1087" 
d="M696 711q-12 0 -28 22l-119 217l-117 -217q-15 -30 -28 -23t-31 19l-80 57q-31 20 -4 50l170 180l-242 45q-41 6 -24 51l32 96q14 43 54 17l215 -103l-31 246q-4 23 1 30t30 7h112q27 0 31 -12t-2 -35l-29 -238l215 105q41 27 56 -19l28 -96q10 -23 8 -35t-28 -16
l-246 -43l172 -180q16 -14 15 -24t-19 -26l-80 -59q-19 -16 -31 -16z" />
    <glyph glyph-name="plus" unicode="+" horiz-adv-x="1077" 
d="M1006 465q0 -23 -6 -29t-29 -6h-340v-340q0 -23 -6 -29t-29 -6h-117q-20 0 -27 7t-8 28v340h-338q-22 0 -28 6t-6 29v113q0 22 6 28t28 6h338v342q0 23 6 28t29 5h117q23 0 29 -5t6 -28v-342h340q23 0 29 -6t6 -28v-113z" />
    <glyph glyph-name="comma" unicode="," horiz-adv-x="583" 
d="M250 244h180q54 0 23 -45l-238 -443q-12 -20 -19 -23t-26 5l-66 22q-26 10 -21 24q1 3 5 17l121 416q8 27 41 27z" />
    <glyph glyph-name="hyphen" unicode="-" horiz-adv-x="755" 
d="M670 459q0 -23 -5 -28t-28 -5h-514q-25 0 -31 5t-6 28v131q0 20 7 26t30 7h514q23 1 28 -5t5 -28v-131z" />
    <glyph glyph-name="hyphen" unicode="&#xad;" horiz-adv-x="755" 
d="M670 459q0 -23 -5 -28t-28 -5h-514q-25 0 -31 5t-6 28v131q0 20 7 26t30 7h514q23 1 28 -5t5 -28v-131z" />
    <glyph glyph-name="period" unicode="." horiz-adv-x="622" 
d="M479 139q0 -70 -49 -119t-119 -49q-71 0 -119 49t-49 119t49 119t120 49t118 -49q49 -49 49 -119z" />
    <glyph glyph-name="slash" unicode="/" horiz-adv-x="1050" 
d="M784 1579h127q25 0 29 -9t-4 -30l-678 -1685q-10 -29 -45 -29h-127q-25 0 -29 10t6 29l678 1687q12 27 43 27z" />
    <glyph glyph-name="zero" unicode="0" horiz-adv-x="1060" 
d="M768 674q0 276 -54 398t-175 122q-246 0 -246 -521t237 -521q129 0 184 122q54 124 54 400zM985 692q0 -723 -461 -723q-216 1 -332 181t-116 519t125 523t341 184t330 -178t113 -506z" />
    <glyph glyph-name="one" unicode="1" horiz-adv-x="1060" 
d="M889 35q0 -23 -7 -29t-30 -6h-569q-23 0 -30 6t-7 29v96q0 23 6 29t29 6h200v921l-248 -135q-20 -10 -25 -10t-22 23l-39 67q-10 20 -10 28t21 21l374 262h125q23 0 29 -6t6 -28v-1143h160q23 0 30 -6t7 -29v-96z" />
    <glyph glyph-name="two" unicode="2" horiz-adv-x="1060" 
d="M938 995q0 -131 -58 -225t-200 -197q-160 -121 -220 -197t-71 -186h506q23 0 30 -7t7 -29v-119q0 -23 -7 -29t-30 -6h-711q-18 0 -23 5t-5 26v55q2 145 54 260t123 188q71 74 193 162t164 148q41 60 41 151q0 89 -49 141t-132 52t-133 -42t-89 -145q-8 -27 -25 -26
q-2 0 -18 4l-113 39q-18 6 -18 32t41 105q117 221 366 221q176 0 277 -101q100 -102 100 -280z" />
    <glyph glyph-name="three" unicode="3" horiz-adv-x="1060" 
d="M938 377q0 -180 -126 -293t-327 -113q-92 0 -226 32t-134 69q0 6 2 12l39 117q6 14 24 14h5q2 0 7 1t25 -9q125 -59 245 -59t184 62t65 177q0 227 -275 227h-69q-23 0 -29 8t-6 29v109q0 23 6 30t29 7h72q109 0 175 57q66 58 64 152q0 94 -50 145t-122 51t-116 -26
q-46 -26 -97 -86q-26 -26 -39 -13l-98 86q-8 7 -8 19t12 24q135 170 346 170q168 0 271 -96t104 -252q0 -215 -201 -303q248 -80 248 -348z" />
    <glyph glyph-name="four" unicode="4" horiz-adv-x="1060" 
d="M1004 315q0 -23 -6 -29t-29 -5h-142v-279q0 -23 -5 -28t-27 -5h-138q-23 0 -29 5t-5 28v279h-514q-23 0 -28 5t-5 27v170l516 873q14 25 26 24q6 0 19 -6l125 -49q31 -12 31 -25q0 -6 -11 -22l-512 -827h355l26 329q2 23 7 28t28 5h109q20 0 26 -6t6 -29v-329h142
q23 1 29 -5t6 -32v-97z" />
    <glyph glyph-name="five" unicode="5" horiz-adv-x="1060" 
d="M758 433q0 257 -224 257q-112 0 -212 -108q-16 -16 -37 -9l-109 33q-18 4 -18 27l63 678q2 23 8 27t27 5h569q23 0 29 -6t6 -32v-111q0 -23 -6 -29t-29 -6h-428l-39 -364q96 72 228 71q168 0 270 -114t102 -301q0 -227 -136 -363t-365 -135q-78 1 -195 23t-117 51
q0 10 2 16l25 127q2 16 23 16q4 0 28 -6q123 -39 249 -39t206 81t80 211z" />
    <glyph glyph-name="six" unicode="6" horiz-adv-x="1060" 
d="M546 145q96 0 150 83q56 82 56 226t-52 219t-150 75q-96 0 -148 -74t-52 -218t50 -228q50 -83 146 -83zM958 451q0 -211 -116 -347q-116 -135 -310 -135t-300 150q-105 150 -105 432q0 375 160 599t426 224q74 0 133 -17t59 -36v-2q-2 -4 -2 -6l-35 -127q-6 -14 -13 -14
t-46 14q-39 15 -100 14q-139 0 -233 -102t-128 -293q100 123 262 123t255 -133t93 -344z" />
    <glyph glyph-name="seven" unicode="7" horiz-adv-x="1060" 
d="M186 1151q-22 0 -28 5t-6 28v125q0 23 6 29t28 5h717q23 0 30 -6t7 -28v-64l-471 -1247q-8 -18 -15 -22t-28 1l-131 23q-23 4 -25 12t6 29l426 1110h-516z" />
    <glyph glyph-name="eight" unicode="8" horiz-adv-x="1060" 
d="M289 354q-1 -96 67 -154t174 -58t171 58q65 60 65 156t-58 154t-186 108q-115 -51 -174 -110q-59 -58 -59 -154zM530 1200q-86 0 -138 -49t-52 -132t52 -133t147 -98q92 40 138 92t46 138q-10 182 -193 182zM985 350q0 -182 -131 -283t-332 -101q-202 0 -324 102
q-122 104 -122 278q0 252 297 361q-240 98 -240 323q0 152 112 249q111 97 287 97t289 -95t113 -243q0 -112 -57 -188t-179 -139q133 -53 210 -145t77 -216z" />
    <glyph glyph-name="nine" unicode="9" horiz-adv-x="1060" 
d="M733 897q0 143 -50 220t-145 77q-94 0 -150 -80t-56 -221t53 -220t147 -79q201 0 201 303zM954 793q0 -377 -152 -599t-407 -223q-67 1 -133 13t-65 34l20 132q2 18 19 18q6 0 46 -10t105 -11q279 0 352 400q-115 -131 -252 -131q-168 0 -264 127t-96 347t115 353
q116 133 310 133t298 -147t104 -436z" />
    <glyph glyph-name="colon" unicode=":" horiz-adv-x="622" 
d="M479 139q0 -70 -49 -119t-119 -49q-71 0 -119 49t-49 119t49 119t120 49t118 -49q49 -49 49 -119zM479 832q0 -72 -49 -120t-119 -48q-71 0 -119 49t-48 119t48 120q50 49 120 49t118 -49q49 -49 49 -120z" />
    <glyph glyph-name="semicolon" unicode=";" horiz-adv-x="630" 
d="M281 244h182q27 0 31 -9t-9 -32l-239 -447q-10 -20 -18 -23t-25 5l-64 22q-33 10 -22 41l125 416q8 27 39 27zM512 831q0 -71 -49 -119t-120 -48t-120 49t-49 119t49 119q49 50 119 50t120 -50t50 -120z" />
    <glyph glyph-name="less" unicode="&#x3c;" 
d="M991 205q0 -21 -6 -25t-27 6l-849 412q-31 14 -31 43v117q0 20 6 27t29 18l845 409q20 10 27 7q6 -4 6 -25v-137q0 -23 -5 -29t-28 -16l-663 -314l663 -313q23 -10 28 -16t5 -29v-135z" />
    <glyph glyph-name="equal" unicode="=" 
d="M991 500q0 -25 -5 -31t-28 -6h-845q-23 0 -29 7t-6 30v104q0 23 6 29t29 6h845q23 0 28 -6t5 -29v-104zM991 834q0 -23 -5 -28t-28 -5h-845q-23 0 -29 5t-6 28v108q0 23 6 29t29 6h845q23 0 28 -6t5 -29v-108z" />
    <glyph glyph-name="greater" unicode="&#x3e;" 
d="M991 641q0 -26 -9 -32q-9 -5 -26 -13l-845 -410q-20 -10 -27 -6q-6 4 -6 25v137q0 23 5 29t28 16l663 311l-663 314q-20 10 -27 17q-6 7 -6 30v135q0 20 6 24t27 -6l845 -409q23 -9 29 -17t6 -28v-117z" />
    <glyph glyph-name="question" unicode="?" horiz-adv-x="974" 
d="M592 119q0 -66 -46 -114t-112 -48t-112 48t-48 114q0 65 48 111t112 46q66 0 112 -46t46 -111zM470 1438q170 0 272 -96t102 -252t-84 -238t-240 -127v-162q0 -23 -7 -29t-30 -8h-112q-23 0 -30 8t-7 29v254q0 21 8 29t33 14q141 37 200 88t59 134t-51 126
q-53 43 -147 43t-237 -59q-27 -14 -37 12l-39 111q-6 23 -2 33t29 20q150 70 320 70z" />
    <glyph glyph-name="at" unicode="@" horiz-adv-x="2007" 
d="M934 246q72 0 129 68t80 178l43 196q-127 114 -213 11q-62 -73 -93 -247q-11 -62 -12 -108q0 -98 66 -98zM1853 739q1 -260 -157 -449t-377 -190q-168 0 -184 166q-121 -166 -263 -166q-84 0 -132 65t-48 179t37 230q37 118 125 212t196 94t175 -73q4 6 9 21q11 32 32 32
h106q18 0 19 -18q0 -6 -5 -19l-96 -448q-4 -16 -4 -37v-21q0 -80 82 -79q131 0 227 146q97 146 97 358t-146 340t-403 128q-346 0 -573 -239q-226 -240 -226 -592q0 -293 168 -445t463 -151q292 -1 540 113q81 38 93 38t14 -8l35 -94q2 -4 2 -8q0 -18 -31 -37
q-119 -67 -302 -107t-361 -40q-371 0 -582 191t-211 548q0 409 285 693t694 284q311 0 507 -160t195 -457z" />
    <glyph glyph-name="A" unicode="A" horiz-adv-x="1150" 
d="M721 563l-103 412q-20 82 -47 225q-20 -127 -45 -225l-106 -412h301zM1118 23q0 -23 -35 -23h-176q-18 0 -26 5t-13 24l-100 366h-381l-100 -366q-5 -17 -13 -23t-26 -6h-164q-35 0 -35 18t6 33l408 1325q6 20 11 24t26 5h168q20 0 25 -4t12 -25l407 -1325q6 -14 6 -28z
" />
    <glyph glyph-name="B" unicode="B" horiz-adv-x="1173" 
d="M410 631v-451h149q139 0 203 53q63 53 63 170t-65 172q-66 55 -205 56h-145zM410 1235v-432h133q233 0 233 229q0 109 -51 156t-166 47h-149zM195 1370q0 23 5 29t27 6h336q442 0 443 -348q0 -225 -203 -322q254 -70 254 -342q0 -141 -75 -245t-196 -130
q-78 -18 -235 -18h-324q-23 0 -27 6t-5 29v1335z" />
    <glyph glyph-name="C" unicode="C" horiz-adv-x="964" 
d="M598 -31q-242 -1 -369 191t-127 556t145 561q52 71 139 116t200 45q178 0 321 -123q31 -29 11 -60l-66 -104q-14 -25 -43 0q-125 98 -215 98q-128 0 -190 -121t-62 -378q0 -594 276 -594q94 0 197 84q33 29 49 2l62 -99q12 -16 11 -29t-24 -30q-143 -115 -315 -115z" />
    <glyph glyph-name="D" unicode="D" horiz-adv-x="1191" 
d="M852 705q0 311 -84 414q-84 102 -244 102h-104v-1035h115q236 0 290 225q27 112 27 294zM555 0h-328q-23 0 -27 6t-5 29v1335q0 23 5 29t27 6h287q304 0 440 -172t136 -496t-105 -517q-57 -104 -166 -162t-264 -58z" />
    <glyph glyph-name="E" unicode="E" horiz-adv-x="983" 
d="M420 1221v-400h371q23 0 29 -6t5 -29v-110q0 -20 -6 -26t-28 -7h-371v-457h457q23 0 29 -7t5 -29v-115q0 -23 -6 -29t-28 -6h-650q-23 0 -27 6t-5 29v1335q0 23 5 29t27 6h660q27 0 32 -10q4 -11 -4 -31l-34 -115q-8 -29 -39 -28h-422z" />
    <glyph glyph-name="F" unicode="F" horiz-adv-x="907" 
d="M420 1221v-406h371q23 0 29 -6t5 -29v-110q0 -23 -6 -29t-28 -6h-371v-600q0 -23 -7 -29t-30 -6h-156q-23 0 -27 6t-5 29v1335q0 23 5 29t27 6h660q25 0 31 -4t0 -27l-37 -125q-8 -29 -39 -28h-422z" />
    <glyph glyph-name="G" unicode="G" horiz-adv-x="1134" 
d="M1010 102q0 -25 -33 -45q-143 -88 -354 -88q-520 0 -521 723q0 367 134 556t391 190q199 0 342 -105q25 -16 8 -49l-53 -104q-12 -23 -41 -9q-85 51 -137 69t-115 17q-151 0 -223 -131t-72 -404t47 -389q75 -183 262 -181q74 0 154 36v355h-158q-23 0 -29 6t-6 29v110
q0 23 6 30t29 7h332q23 0 29 -7t8 -30v-586z" />
    <glyph glyph-name="H" unicode="H" horiz-adv-x="1286" 
d="M1096 35q0 -23 -7 -29t-30 -6h-154q-23 0 -29 6t-6 29v608h-450v-608q0 -23 -7 -29t-30 -6h-156q-23 0 -27 6t-5 29v1335q0 23 5 29t27 6h156q23 0 30 -6t7 -29v-553h450v553q0 23 6 29t29 6h154q23 0 30 -6t7 -29v-1335z" />
    <glyph glyph-name="I" unicode="I" horiz-adv-x="718" 
d="M653 35q0 -23 -7 -29t-30 -6h-516q-22 0 -28 6t-6 29v98q0 23 6 29t28 6h146v1069h-146q-22 0 -28 6t-6 29v98q0 23 6 29t28 6h516q23 0 30 -6t7 -29v-98q0 -23 -7 -29t-30 -6h-145v-1069h145q23 0 30 -6t7 -29v-98z" />
    <glyph glyph-name="J" unicode="J" horiz-adv-x="911" 
d="M12 393q0 17 23 17h158q20 0 20 -33q0 -141 57 -191q41 -34 103 -34t83 18t32 28q12 10 18 36q6 24 10 36q8 24 8 86v879h-317q-25 0 -31 5t-6 28v102q0 23 7 29t30 6h508q23 0 29 -6t6 -29v-899q0 -193 -23 -269t-76 -132q-96 -100 -276 -101q-352 0 -363 393v31z" />
    <glyph glyph-name="K" unicode="K" horiz-adv-x="1134" 
d="M1124 83q0 -5 -16 -17l-145 -84q-15 -10 -25 -10t-23 20l-495 649v-606q0 -23 -7 -29t-30 -6h-156q-23 0 -27 6t-5 29v1335q0 23 5 29t27 6h156q23 0 30 -6t7 -29v-622l483 657q18 25 39 12l131 -82q22 -12 -6 -41l-444 -585l487 -603q14 -18 14 -23z" />
    <glyph glyph-name="L" unicode="L" horiz-adv-x="964" 
d="M879 0h-652q-23 0 -27 6t-5 29v1335q0 23 5 29t27 6h156q23 0 30 -6t7 -29v-1169h500q26 0 32 -11t-2 -36l-35 -125q-8 -29 -36 -29z" />
    <glyph glyph-name="M" unicode="M" horiz-adv-x="1421" 
d="M1235 0h-152q-23 0 -29 6t-7 29l-21 831q-2 63 4 277q-27 -137 -63 -250l-185 -545q-6 -18 -12 -23t-25 -6h-92q-20 1 -26 5t-13 24l-172 545q-25 88 -57 250q4 -193 2 -277l-22 -831q1 -23 -7 -29t-30 -6h-138q-22 0 -28 7t-4 28l67 1337q2 23 8 28t27 5h164q20 0 26 -4
t11 -23l203 -612q14 -43 41 -180q33 131 49 180l209 612q6 20 11 24t25 3h162q21 0 27 -5t8 -28l70 -1333q2 -25 -3 -32t-28 -7z" />
    <glyph glyph-name="N" unicode="N" horiz-adv-x="1228" 
d="M1063 35q0 -23 -6 -29t-29 -6h-123q-29 0 -43 29l-413 839q-49 96 -95 242q12 -152 13 -225v-850q1 -23 -7 -29t-30 -6h-123q-23 0 -29 6t-6 29v1335q0 23 6 29t29 6h147q18 0 26 -4t15 -23l389 -780q49 -96 95 -242q-8 96 -9 217v797q0 23 6 29t29 6h123q23 0 29 -6
t6 -29v-1335z" />
    <glyph glyph-name="O" unicode="O" horiz-adv-x="1173" 
d="M831 702q0 555 -241 555q-128 0 -188 -134t-60 -413q0 -278 57 -420t185 -142t188 133q59 134 59 421zM594 1438q477 0 477 -734t-491 -735q-477 0 -478 742q0 331 119 529t373 198z" />
    <glyph glyph-name="P" unicode="P" horiz-adv-x="1040" 
d="M778 1009q0 128 -53 175t-188 47h-117v-465h104q127 0 191 57q63 58 63 186zM551 1405q256 1 352 -95t96 -298q-1 -202 -123 -318q-122 -117 -323 -116h-133v-543q0 -23 -7 -29t-30 -6h-156q-23 0 -27 6t-5 29v1335q0 23 5 29t27 6h324z" />
    <glyph glyph-name="Q" unicode="Q" horiz-adv-x="1173" 
d="M831 705q0 553 -241 552q-128 0 -188 -134t-60 -418q0 -557 242 -558q129 1 188 135t59 423zM582 -31q-479 0 -480 729q0 326 112 532t378 208q479 0 479 -721q0 -403 -139 -588q88 -80 198 -149q29 -22 9 -37l-127 -90q-14 -9 -32 -9t-79 48t-127 118q-90 -41 -192 -41z
" />
    <glyph glyph-name="R" unicode="R" horiz-adv-x="1116" 
d="M522 780q130 0 190 58t60 180q0 123 -52 169t-183 46h-121v-453h106zM1079 32q0 -11 -20 -18l-160 -39q-16 -4 -18 -4q-12 0 -23 23l-311 612h-131v-571q0 -23 -7 -29t-30 -6h-152q-23 0 -27 7t-5 32v1331q0 23 5 29t27 6h326q246 0 345 -93t99 -284q0 -289 -247 -395
l317 -565q12 -25 12 -36z" />
    <glyph glyph-name="S" unicode="S" horiz-adv-x="1011" 
d="M928 392q0 -192 -121 -306q-121 -113 -320 -113q-95 0 -249 40t-154 79q0 10 6 25l51 133q7 12 17 12t41 -18q152 -80 271 -80t178 53q58 53 58 147t-46 144q-48 48 -178 118t-171 96t-98 76q-106 93 -105 259t118 270q118 105 314 105t343 -93q20 -14 20 -20t-4 -19
l-53 -122q-12 -32 -58 -2q-137 72 -241 72q-105 0 -159 -47q-54 -46 -54 -123q0 -78 36 -118t194 -125t214 -130q150 -121 150 -313z" />
    <glyph glyph-name="T" unicode="T" horiz-adv-x="849" 
d="M817 1210h-276v-1175q0 -23 -5 -29t-28 -6h-156q-24 0 -30 6t-7 29v1175h-278q-23 0 -29 8t-6 29v123q0 23 6 29t29 6h823q35 0 35 -19q0 -10 -6 -28l-37 -119q-8 -29 -35 -29z" />
    <glyph glyph-name="U" unicode="U" horiz-adv-x="1249" 
d="M1090 428q0 -231 -125 -345t-357 -114t-340 114q-106 114 -106 341v946q0 23 7 29t30 6h153q23 0 29 -6t6 -29v-942q0 -156 52 -218q51 -62 183 -62t192 66q60 67 60 212v944q0 23 6 29t29 6h146q23 0 29 -6t6 -29v-942z" />
    <glyph glyph-name="V" unicode="V" horiz-adv-x="1054" 
d="M250 1425q16 0 20 -30l217 -959q14 -68 45 -231q31 166 48 231l229 955q8 29 20 28q8 0 15 -2l174 -35q16 -2 16 -20q0 -5 -4 -21l-366 -1327q-4 -18 -12 -22t-27 -4h-189q-24 0 -29 6t-10 20l-358 1323l-6 27q0 18 30 25l162 32q20 4 25 4z" />
    <glyph glyph-name="W" unicode="W" horiz-adv-x="1523" 
d="M717 1403h137q23 0 29 -6t10 -29l151 -827q27 -145 43 -310q14 211 39 342l148 813q6 29 22 29l170 -33q16 -2 16 -14t-3 -27l-289 -1325q-4 -18 -11 -23t-28 -5h-158q-23 0 -29 4t-8 24l-127 727q-45 256 -53 361q-4 -51 -63 -361l-150 -727q-4 -20 -10 -24t-27 -4h-155
q-23 0 -29 4t-10 24l-262 1325q-4 20 -4 25q0 16 28 23l146 24l26 6q10 0 17 -30l149 -848q14 -82 29 -301q33 250 49 323l170 809q4 20 10 26t27 5z" />
    <glyph glyph-name="X" unicode="X" horiz-adv-x="1048" 
d="M1042 42q0 -12 -26 -19l-156 -43q-18 -6 -24 -7q-8 0 -23 25l-225 438q-39 78 -53 115q-18 -45 -56 -115l-227 -436q-10 -23 -23 -23q-6 0 -24 7l-150 41q-27 8 -26 22q0 10 12 33l367 659l-336 592q-10 21 -10 31t22 16l154 43q20 4 24 4q14 0 25 -24l190 -365
q31 -55 60 -131q39 100 53 131l184 367q14 25 25 24q8 0 22 -6l148 -47q25 -8 25 -17t-15 -32l-326 -586l377 -667q12 -18 12 -30z" />
    <glyph glyph-name="Y" unicode="Y" horiz-adv-x="962" 
d="M608 35q0 -23 -7 -29t-30 -6h-153q-23 0 -28 6t-5 29v551l-395 749q-10 21 -10 33t16 14l182 37q8 2 20 2t23 -22l203 -430q41 -86 76 -187q10 23 31 82q22 59 36 90l213 443q12 25 23 24l182 -45q14 -2 14 -14q0 -6 -14 -35l-377 -741v-551z" />
    <glyph glyph-name="Z" unicode="Z" horiz-adv-x="983" 
d="M897 0h-797q-24 0 -28 6t-4 29v137l579 1047h-516q-37 0 -37 18q0 8 2 12l39 146q2 10 31 10h694q23 0 28 -6t5 -29v-141l-574 -1030h592q31 0 31 -27v-4l-16 -141q-2 -27 -29 -27z" />
    <glyph glyph-name="bracketleft" unicode="[" horiz-adv-x="831" 
d="M707 -383q-1 -23 -7 -30t-28 -7h-377q-23 0 -30 7t-7 30v1813q0 22 7 28t30 6h377q22 0 28 -6t7 -28v-99q-1 -23 -7 -29t-28 -6h-205v-1546h205q22 0 28 -6t7 -31v-96z" />
    <glyph glyph-name="backslash" unicode="\" horiz-adv-x="1079" 
d="M971 -160q0 -14 -31 -14h-127q-35 0 -45 29l-678 1685q-6 16 -6 23q0 16 31 16h127q31 0 43 -27l678 -1687q8 -20 8 -25z" />
    <glyph glyph-name="bracketright" unicode="]" horiz-adv-x="831" 
d="M573 -383q0 -23 -6 -30t-28 -7h-379q-23 0 -28 6t-5 31v96q0 25 5 31t28 6h207v1546h-207q-23 0 -28 6t-5 29v99q0 22 5 28t28 6h379q23 0 29 -6t5 -28v-1813z" />
    <glyph glyph-name="asciicircum" unicode="^" horiz-adv-x="1083" 
d="M1032 754q0 -10 -26 -11h-152q-25 -1 -30 7t-15 26l-260 473l-258 -473q-13 -24 -19 -28t-28 -5h-152q-25 0 -24 13q0 8 8 22l321 598q15 29 25 32t22 3h211q21 0 27 -6t18 -29l324 -598q8 -14 8 -24z" />
    <glyph glyph-name="underscore" unicode="_" 
d="M1061 -279h-1053v140h1053v-140z" />
    <glyph glyph-name="grave" unicode="`" horiz-adv-x="1046" 
d="M580 1143q-6 0 -27 10l-348 158q-25 10 -25 19t10 30l60 104q12 20 24 20t35 -14l305 -208q20 -12 20 -22t-9 -30l-29 -49q-10 -18 -16 -18z" />
    <glyph glyph-name="a" unicode="a" horiz-adv-x="983" 
d="M616 473q-179 0 -255 -45q-79 -44 -79 -150q0 -58 41 -103q40 -44 99 -44q94 0 194 98v244zM872 52q0 -6 -10 -11l-125 -61q-12 -6 -20 -7q-35 0 -70 125q-123 -123 -266 -123t-222 80t-79 215q0 88 34 154t84 102q127 93 418 97v65q0 94 -35 132q-36 38 -129 38
t-233 -59q-12 -4 -21 -4t-16 14l-32 100q-4 12 -5 19q0 44 123 72t211 28q172 0 255 -74t83 -235v-402q0 -149 49 -241q6 -18 6 -24z" />
    <glyph glyph-name="b" unicode="b" horiz-adv-x="1071" 
d="M766 528q0 330 -176 330q-84 0 -201 -82v-575q74 -59 166 -60q211 0 211 387zM979 523q0 -257 -103 -405t-286 -149q-127 0 -236 94q-35 -86 -67 -86q-12 0 -21 5l-114 43q-31 14 -13 41q45 76 45 208v1143q0 27 29 33l145 31q6 2 18 2t13 -27v-520q139 94 260 94
q160 0 245 -125t85 -382z" />
    <glyph glyph-name="c" unicode="c" horiz-adv-x="849" 
d="M747 772q-9 0 -18 8q-102 82 -188 82q-225 0 -225 -362t216 -363q94 0 201 82q13 10 21 10t14 -14l41 -100q8 -20 8 -25q0 -43 -117 -82t-192 -39q-198 0 -306 133t-108 382q0 250 119 398t326 148q84 0 189 -40t106 -87q-1 -4 -5 -12l-67 -111q-6 -8 -15 -8z" />
    <glyph glyph-name="d" unicode="d" horiz-adv-x="1056" 
d="M493 858q-95 0 -141 -81t-45 -273q0 -192 40 -278q39 -84 139 -84t196 94v571q-94 51 -189 51zM416 -31q-148 0 -235 137t-87 388q0 252 100 394t275 142q100 0 213 -63v450q0 29 23 33l145 31q16 4 20 4q16 0 17 -31v-1165q0 -80 6 -119t31 -80l16 -33q0 -10 -12 -14
l-129 -61q-6 -4 -19 -5q-37 0 -63 113q-153 -121 -301 -121z" />
    <glyph glyph-name="e" unicode="e" horiz-adv-x="983" 
d="M507 874q-177 0 -198 -270h381q-6 270 -183 270zM909 522v-14q0 -40 -9 -51q-9 -10 -23 -11h-570q12 -301 248 -301q102 0 250 74q8 4 10 4q10 0 16 -16l48 -103q6 -12 6 -20q0 -41 -129 -78t-221 -37q-209 1 -325 139t-116 385t117 392t307 145t290 -131t101 -377z" />
    <glyph glyph-name="f" unicode="f" horiz-adv-x="622" 
d="M690 1268q-14 0 -26 6q-74 35 -139 35t-89 -38t-24 -151v-121h268q23 0 22 -14l-2 -2v-6l-32 -115q-6 -23 -21 -22h-235v-813q0 -19 -5 -23t-24 -4h-147q-20 0 -25 5q-4 5 -4 24v811h-146q-31 0 -30 22v111q0 16 7 21t28 5h141v121q0 193 77 278t228 85q74 0 155 -23
t81 -49q-1 -2 -5 -18l-36 -113q-3 -12 -17 -12z" />
    <glyph glyph-name="g" unicode="g" horiz-adv-x="1040" 
d="M497 858q-85 0 -137 -87t-53 -249q0 -330 168 -329q92 0 203 86v520q-96 59 -181 59zM518 -430q-88 0 -234 36t-147 70q0 4 4 21l39 113q6 16 19 16q6 0 26 -8q161 -72 271 -72t152 45t42 157t-8 167q-124 -95 -268 -95t-232 128t-88 364t100 377t281 141q127 0 244 -90
q2 4 18 42t28 46q11 8 17 8t19 -4l129 -57q16 -6 16 -19q0 -6 -6 -16q-59 -102 -59 -231v-312l8 -434q0 -197 -89 -295t-282 -98z" />
    <glyph glyph-name="h" unicode="h" horiz-adv-x="1089" 
d="M932 29q0 -17 -6 -23t-25 -6h-145q-20 0 -25 6q-4 6 -4 27v653q0 96 -29 134t-98 38q-100 0 -223 -106v-723q0 -17 -5 -23t-24 -6h-143q-20 0 -27 5q-6 5 -6 24v1388q0 27 29 33l137 29q16 4 22 4q16 0 17 -29v-553q137 129 291 129t209 -81t55 -234v-686z" />
    <glyph glyph-name="i" unicode="i" horiz-adv-x="585" 
d="M299 1475q59 1 102 -43t43 -104t-42 -102t-102 -42t-103 42t-43 102t43 104t102 43zM412 29q0 -17 -4 -23t-23 -6h-149q-20 0 -25 5q-4 5 -4 26v809h-158q-20 0 -25 5t-6 25v99q0 20 6 25t25 5h334q17 0 23 -5t6 -25v-940z" />
    <glyph glyph-name="j" unicode="j" horiz-adv-x="598" 
d="M457 1328q0 -60 -43 -102q-44 -42 -104 -42t-102 42t-42 102t42 104t102 43q60 0 104 -43q43 -44 43 -104zM424 -43q0 -238 -79 -326t-245 -88q-61 1 -150 21t-89 45q0 6 6 20l41 119q6 12 14 12t25 -6q85 -37 153 -37q68 -1 94 51t25 207v865h-164q-18 0 -21 4t-3 26v99
q0 23 5 27t25 3h338q17 0 21 -5t4 -25v-1012z" />
    <glyph glyph-name="k" unicode="k" horiz-adv-x="983" 
d="M381 29q0 -17 -5 -23t-24 -6h-147q-20 0 -27 5q-6 5 -6 24v1388q0 27 29 33l141 29q16 4 20 4q18 0 19 -29v-872l405 430q10 10 20 10t34 -16l82 -62q14 -12 14 -21t-14 -24l-340 -352l366 -441q16 -20 16 -28t-16 -17l-125 -75q-22 -18 -37 4l-405 502v-463z" />
    <glyph glyph-name="l" unicode="l" horiz-adv-x="565" 
d="M158 250v1167q0 27 26 33l154 33q6 2 14 2q16 0 17 -31v-1210q0 -88 69 -88q38 0 62 11t32 11t15 -14l41 -139q0 -19 -72 -35q-292 -63 -342 126q-16 68 -16 134z" />
    <glyph glyph-name="m" unicode="m" horiz-adv-x="1574" 
d="M1417 29q0 -17 -6 -23t-25 -6h-145q-18 0 -23 5t-6 24v678q0 83 -26 119t-94 36t-183 -90v-745q0 -19 -4 -23t-24 -4h-146q-18 0 -24 5t-6 24v665q0 88 -27 126q-28 38 -98 38t-179 -88v-741q0 -17 -5 -23t-23 -6h-146q-20 0 -25 4t-5 25v712q1 107 -19 153t-20 59t14 20
l125 51q12 4 16 4q39 0 66 -131q87 73 153 103t142 30q150 0 211 -133q164 133 308 133t186 -96q38 -81 38 -217v-688z" />
    <glyph glyph-name="n" unicode="n" horiz-adv-x="1105" 
d="M948 29q0 -17 -6 -23t-24 -6h-148q-18 0 -22 4t-5 25v657q0 90 -30 131q-31 41 -99 41q-106 0 -223 -106v-723q0 -17 -5 -23t-24 -6h-147q-18 0 -24 5q-5 5 -5 24v698q0 119 -39 203q-6 12 -6 20t15 17l135 61q4 2 12 2q27 0 72 -139q67 51 99 74t88 43t116 20
q142 0 206 -72t64 -241v-686z" />
    <glyph glyph-name="o" unicode="o" horiz-adv-x="1040" 
d="M727 506q0 356 -206 356t-206 -356q1 -190 51 -280t156 -89q106 0 156 89q49 90 49 280zM524 1030q200 0 312 -139t112 -388t-116 -391t-316 -142q-202 0 -312 138q-110 140 -110 390t115 391t315 141z" />
    <glyph glyph-name="p" unicode="p" 
d="M764 502q0 194 -40 275t-128 81t-203 -88v-567q101 -61 195 -61t135 82q41 84 41 278zM977 520q0 -266 -92 -408t-267 -143q-113 0 -225 72v-406q0 -25 -24 -30l-150 -37q-6 -2 -16 -2q-16 0 -17 31v1118q0 111 -34 180q-16 41 -16 49t11 14l134 68q8 6 16 6
q33 0 68 -117q141 115 274 115q338 0 338 -510z" />
    <glyph glyph-name="q" unicode="q" horiz-adv-x="1040" 
d="M496 858q-186 0 -186 -358t171 -359q97 1 195 97v550q-92 70 -180 70zM885 709v-1067q0 -31 -25 -35l-153 -37q-7 -2 -19 -2t-12 29v471q-116 -98 -260 -98t-233 135q-89 136 -89 386q0 251 97 395t270 144q129 0 254 -96q41 98 71 98q6 0 19 -4l117 -51q16 -8 16 -21
l-16 -43q-37 -84 -37 -204z" />
    <glyph glyph-name="r" unicode="r" horiz-adv-x="733" 
d="M401 29q0 -21 -4 -25t-24 -4h-146q-18 0 -24 5t-6 24v620q0 188 -49 270q-11 20 -11 30q0 11 15 18l122 57q12 4 19 4q27 0 53 -66t27 -98q23 35 67 76q98 92 189 90q41 0 77 -12t35 -31q0 -8 -6 -16l-53 -131q-8 -20 -20 -21h-5q-57 16 -75 17q-72 0 -181 -125v-682z
" />
    <glyph glyph-name="s" unicode="s" horiz-adv-x="862" 
d="M780 281q0 -139 -93 -225t-264 -87q-171 0 -317 88q-20 13 -20 17t3 11t5 13l43 105q7 14 13 14t26 -10q152 -74 258 -74q63 0 103 35q39 35 39 79t-15 71q-14 27 -74 55q-138 65 -252 136t-114 209t95 225t245 87q76 0 181 -29t106 -65q0 -8 -7 -21l-43 -90
q-8 -16 -18 -16t-23 6q-113 51 -187 51q-150 0 -148 -121q0 -43 26 -69t73 -52t157 -85t156 -107t46 -151z" />
    <glyph glyph-name="t" unicode="t" horiz-adv-x="735" 
d="M733 49q0 -29 -101 -53t-167 -23q-150 0 -206 79t-56 231v557h-142q-20 0 -26 6t-6 24v99q0 18 6 24t26 6h142v269q0 25 26 30l138 27q20 4 24 4q16 0 17 -29v-301h270q27 0 27 -16q0 -4 -5 -20l-22 -97q-6 -27 -31 -26h-239v-537q0 -90 19 -120q19 -29 79 -29t158 41
q8 4 19 4t17 -25l29 -104q4 -16 4 -21z" />
    <glyph glyph-name="u" unicode="u" horiz-adv-x="1071" 
d="M801 -27q-41 0 -70 117q-137 -121 -294 -121t-223 85t-64 251v653q0 25 26 31l139 35q6 2 19 2q20 0 20 -27v-647q0 -119 30 -165t120 -46t198 90v727q0 25 27 31l141 35q16 4 23 4q14 0 14 -29v-733q0 -129 45 -205q17 -25 -6 -34l-129 -50q-12 -4 -16 -4z" />
    <glyph glyph-name="v" unicode="v" horiz-adv-x="919" 
d="M737 1014q14 0 21 -2l131 -25q23 -6 22 -16q0 -7 -6 -25l-352 -950q-8 -23 -33 -23h-123q-16 0 -20 3t-10 20l-340 952q-6 14 -7 25q0 14 25 16l168 27q18 0 25 -25l176 -567q27 -86 53 -215q33 147 55 213l193 569q8 23 22 23z" />
    <glyph glyph-name="w" unicode="w" horiz-adv-x="1331" 
d="M872 -14q-24 0 -30 6t-8 18l-129 572q-4 18 -27 196q-16 -133 -33 -194l-160 -574q-4 -16 -9 -20t-17 -4h-127q-25 0 -31 24l-240 940q-2 6 -2 18t25 19l141 29q7 2 17 2t16 -27l107 -499q2 -4 45 -291q16 164 34 227l146 547q4 18 8 22t20 4h136q14 0 19 -4t9 -22
l131 -576q10 -43 29 -196q16 147 37 237l133 551q4 25 21 25q4 0 24 -4l123 -27q23 -6 23 -14q-1 -9 -7 -25l-274 -938q-6 -23 -29 -22h-121z" />
    <glyph glyph-name="x" unicode="x" horiz-adv-x="960" 
d="M934 38q0 -11 -25 -18l-135 -43q-16 -4 -24 -4t-19 17l-176 270q-49 72 -66 102q-33 -55 -63 -100l-186 -272q-19 -28 -43 -10l-131 49q-27 12 -27 19t10 22l326 438l-283 403q-12 15 -12 27t16 18l142 56l16 4q10 0 20 -17l148 -233q10 -18 32 -55t33 -56q20 35 74 111
l158 231q12 19 19 19t28 -8l129 -52q16 -6 16 -17t-14 -30l-289 -393l318 -457q8 -10 8 -21z" />
    <glyph glyph-name="y" unicode="y" horiz-adv-x="913" 
d="M905 958q0 -8 -2 -12l-237 -848q-74 -284 -120 -366t-111 -128t-146 -46t-181 32t-100 66q0 6 2 10l58 117q6 10 10 10t20 -8q92 -57 158 -57t102 39q37 39 66 127l33 106h-82q-27 0 -35 23l-320 915q-6 16 -6 26t25 17l154 31l14 2q20 0 29 -25l198 -639q18 -57 62 -252
q24 159 39 207l167 684q6 27 21 27l168 -41q14 -2 14 -17z" />
    <glyph glyph-name="z" unicode="z" horiz-adv-x="870" 
d="M743 0h-647q-20 0 -24 4t-4 25v112l495 690h-424q-20 -1 -25 5t-5 26v107q0 18 5 24t25 6h631q18 0 24 -6t7 -24v-117l-488 -678h490q31 0 31 -12q-1 -3 -9 -23l-49 -116q-8 -23 -33 -23z" />
    <glyph glyph-name="braceleft" unicode="{" 
d="M819 -367q0 -34 -42 -34h-77q-158 1 -224 73t-66 234v338q0 66 -18 106t-41 54q-58 34 -58 61v106q0 28 58 62q22 12 40 50t19 97v350q0 158 72 227q73 69 237 68h22q64 0 71 -8t7 -26v-113q0 -23 -6 -28t-29 -5q-102 -2 -137 -33t-35 -133v-315q0 -104 -25 -156
q-26 -51 -102 -96q70 -41 99 -98t28 -160v-305q0 -106 33 -139t139 -33q23 0 29 -5t6 -28v-111z" />
    <glyph glyph-name="bar" unicode="|" 
d="M639 -315q0 -23 -7 -29t-30 -6h-135q-23 0 -28 6t-5 29v1687q0 23 5 28t28 5h135q23 0 30 -6t7 -27v-1687z" />
    <glyph glyph-name="braceright" unicode="}" 
d="M285 1391q0 32 39 32h77q158 -3 225 -73t66 -232v-338q0 -66 18 -108t42 -54q59 -32 59 -61v-104q0 -29 -59 -62q-23 -12 -41 -50t-19 -97v-350q0 -158 -72 -227t-235 -68h-23q-63 0 -70 8t-7 26v111q0 23 5 27t29 6q106 4 140 34q33 30 33 134v315q0 104 25 156
q26 51 99 96q-70 41 -98 97t-26 159v307q0 106 -33 138t-140 32q-23 0 -29 6t-5 29v111z" />
    <glyph glyph-name="asciitilde" unicode="~" horiz-adv-x="1435" 
d="M918 1227q-70 0 -191 49l-111 45q-68 29 -114 29t-82 -26t-60 -66t-35 -41q-11 0 -24 10l-59 39q-18 10 -18 20t7 27q61 129 125 181t148 52q86 0 214 -53t156 -62t66 -10q100 0 158 99q14 22 22 22t23 -8l65 -39q20 -12 20 -17t-11 -30q-111 -221 -299 -221z" />
    <glyph glyph-name="sterling" unicode="&#xa3;" horiz-adv-x="1077" 
d="M979 0h-868q-23 0 -29 6t-6 29v110q0 23 6 29t29 6h161q25 106 25 210t-29 224h-176q-24 0 -28 8t-5 29v90q-1 23 5 29t28 6h141q-29 111 -28 199q0 179 122 285t324 106q90 0 212 -33t122 -69q0 -6 -8 -23l-55 -104q-13 -22 -43 -7q-12 4 -38 16q-105 46 -206 46
t-167 -62t-65 -163q0 -55 33 -189h279q23 0 27 -6t6 -29v-92q0 -23 -6 -29t-27 -8h-248q35 -145 35 -224t-27 -210h547q33 0 33 -18q0 -13 -4 -23l-33 -110q-8 -29 -39 -29z" />
    <glyph glyph-name="currency" unicode="&#xa4;" horiz-adv-x="1429" 
d="M1044 772q0 134 -94 232t-229 98t-231 -97t-97 -233q0 -136 96 -230q97 -96 231 -96t229 96t95 230zM1226 170q-7 0 -24 16l-180 181q-139 -101 -296 -101t-306 99l-180 -183q-14 -16 -26 -16t-26 16l-63 64q-14 14 -14 23t18 28l180 180q-100 137 -100 295t98 297
l-184 180q-17 15 -17 23t17 28l63 66q16 16 24 16t26 -16l182 -184q145 100 300 100t300 -98l180 180q16 16 24 16t25 -16l64 -64q16 -16 16 -25t-16 -26l-183 -178q203 -297 5 -590l182 -184q16 -19 16 -27t-16 -24l-62 -60q-20 -16 -27 -16z" />
    <glyph glyph-name="section" unicode="&#xa7;" horiz-adv-x="1083" 
d="M725 423q0 56 -39 95t-149 98q-170 -90 -170 -206q0 -70 58 -111q35 -23 77 -45q43 -22 55 -29q90 51 129 97t39 101zM928 446q0 -181 -226 -303q98 -55 140 -114t43 -144q-1 -133 -105 -226t-269 -93t-314 96q-35 23 -35 33q0 4 8 20l55 107q9 14 17 14t28 -12
q143 -92 262 -92q63 0 104 36q40 36 40 87t-25 82t-96 67l-195 102q-98 52 -147 114t-49 166t54 176q54 73 173 130q-92 48 -132 104t-40 136q0 129 99 214t251 85q78 0 188 -36t109 -75q0 -4 -4 -12l-57 -107q-5 -14 -17 -14t-22 6q-10 5 -26 15t-22 12t-20 9t-21 10t-19 9
t-22 6q-9 1 -27 5t-66 4q-49 0 -89 -29t-40 -71q0 -43 17 -65t71 -50l223 -117q203 -104 203 -285z" />
    <glyph glyph-name="dieresis" unicode="&#xa8;" horiz-adv-x="1040" 
d="M455 1328q0 -52 -38 -89t-89 -37t-87 37t-36 89t36 90t87 38t89 -38t38 -90zM838 1327q0 -53 -36 -89t-88 -36t-89 37t-37 89t37 90t88 38t88 -38t37 -91z" />
    <glyph glyph-name="copyright" unicode="&#xa9;" horiz-adv-x="1497" 
d="M774 399q49 0 123 52q9 8 21 8t24 -17l41 -59q6 -10 6 -18q0 -35 -75 -69t-152 -34q-160 0 -243 116t-83 329t83 325t235 111q74 0 152 -36t79 -69q0 -8 -4 -12q-57 -84 -70 -84q-102 61 -151 64q-145 0 -146 -277q0 -330 160 -330zM749 92q221 0 377 178t156 432
t-157 432t-378 179q-221 0 -375 -179q-154 -180 -155 -432q0 -252 156 -431t376 -179zM750 1432q278 0 474 -216t195 -516q1 -299 -195 -513t-473 -214t-476 214q-197 214 -197 517t197 516q197 212 475 212z" />
    <glyph glyph-name="guillemotleft" unicode="&#xab;" horiz-adv-x="1130" 
d="M588 90q0 -10 -23 -24l-80 -48q-20 -10 -25 -10t-20 19l-346 450q-10 9 -10 23t10 26l346 443q14 18 22 18t23 -10l80 -45q23 -10 23 -25q0 -8 -10 -24l-256 -387l256 -381q10 -15 10 -25zM885 8q-6 0 -23 19l-344 450q-10 11 -10 25t10 24l344 443q16 18 24 18t25 -10
l78 -45q23 -10 23 -22t-11 -27l-253 -387l251 -381q12 -18 13 -27q0 -10 -23 -22l-78 -48q-20 -10 -26 -10z" />
    <glyph glyph-name="logicalnot" unicode="&#xac;" 
d="M991 35q0 -23 -5 -29t-28 -6h-135q-23 0 -29 6t-6 29v344h-675q-23 0 -29 7t-6 30v112q0 23 6 29t29 6h845q23 0 28 -6t5 -29v-493z" />
    <glyph glyph-name="registered" unicode="&#xae;" horiz-adv-x="1497" 
d="M702 768q78 0 112 28t34 92q0 62 -30 86t-107 23h-62v-229h53zM1061 334q0 -18 -29 -25l-88 -20q-6 -4 -18 -4t-25 20l-184 338h-68v-309q0 -33 -35 -33h-90q-20 0 -27 7t-8 28v751q0 33 35 33h199q151 0 219 -54t68 -171q0 -164 -146 -231l189 -310q8 -10 8 -20zM749 92
q221 0 377 178t156 432t-157 432t-378 179q-221 0 -375 -179q-154 -180 -155 -432q0 -252 156 -431t376 -179zM750 1432q278 0 474 -216t195 -516q1 -299 -195 -513t-473 -214t-476 214q-197 214 -197 517t197 516q197 212 475 212z" />
    <glyph glyph-name="degree" unicode="&#xb0;" 
d="M719 1101q0 75 -54 128t-130 53t-129 -54q-54 -54 -54 -129t54 -130t128 -55q75 0 130 56t55 131zM844 1100q0 -125 -91 -214t-218 -89t-219 89q-91 89 -91 214t91 214q90 89 218 89t219 -89t91 -214z" />
    <glyph glyph-name="plusminus" unicode="&#xb1;" horiz-adv-x="1077" 
d="M1012 -86q0 -23 -7 -29t-30 -6h-873q-22 0 -28 6t-6 29v109q0 23 6 29t28 5h873q23 0 30 -6t7 -28v-109zM1006 465q0 -23 -6 -29t-29 -6h-340v-268q0 -23 -6 -30t-29 -7h-117q-23 0 -29 7t-6 30v268h-338q-22 0 -28 6t-6 29v113q0 22 6 28t28 6h338v342q0 23 6 28t29 5
h117q23 0 29 -5t6 -28v-342h340q23 0 29 -6t6 -28v-113z" />
    <glyph glyph-name="acute" unicode="&#xb4;" horiz-adv-x="1050" 
d="M480 1145q-8 0 -15 12l-35 66q-6 12 -6 18t20 21l316 215q14 12 23 12t22 -23l67 -108q10 -16 10 -26t-30 -21l-350 -160q-14 -6 -22 -6z" />
    <glyph glyph-name="mu" unicode="&#xb5;" horiz-adv-x="1077" 
d="M803 -29q-14 0 -34 35q-19 35 -34 84q-123 -121 -252 -121q-68 0 -129 31v-365q0 -29 -24 -32l-148 -35q-4 -2 -10 -2q-23 0 -22 28v1364q0 25 26 31l146 35q6 2 14 2q18 0 18 -27v-637q0 -129 30 -176t124 -47t199 90v729q0 25 26 31l148 35q6 2 14 2q18 0 18 -27v-733
q0 -139 45 -211q6 -10 7 -16q0 -6 -15 -12l-129 -50q-14 -6 -18 -6z" />
    <glyph glyph-name="mu" unicode="&#x3bc;" horiz-adv-x="1077" 
d="M803 -29q-14 0 -34 35q-19 35 -34 84q-123 -121 -252 -121q-68 0 -129 31v-365q0 -29 -24 -32l-148 -35q-4 -2 -10 -2q-23 0 -22 28v1364q0 25 26 31l146 35q6 2 14 2q18 0 18 -27v-637q0 -129 30 -176t124 -47t199 90v729q0 25 26 31l148 35q6 2 14 2q18 0 18 -27v-733
q0 -139 45 -211q6 -10 7 -16q0 -6 -15 -12l-129 -50q-14 -6 -18 -6z" />
    <glyph glyph-name="paragraph" unicode="&#xb6;" horiz-adv-x="1325" 
d="M575 1247h-16q-80 0 -131 -11t-98 -46q-92 -69 -90 -305q0 -176 34 -255t84 -109q50 -29 104 -29q56 0 113 10v745zM1219 1280q-1 -23 -7 -28t-28 -5h-127v-1593q0 -23 -5 -29t-28 -6h-106q-23 0 -29 6t-6 29v1593h-133v-1593q0 -23 -6 -29t-27 -6h-109q-24 0 -28 6
t-5 29v692q-70 -14 -135 -14q-207 0 -312 141t-105 417t125 395q126 120 421 120h615q22 0 28 -6t7 -29v-90z" />
    <glyph glyph-name="guillemotright" unicode="&#xbb;" horiz-adv-x="1124" 
d="M127 88q0 8 12 27l254 381l-254 387q-10 12 -10 24t21 25l79 45q17 10 25 10t22 -18l345 -443q10 -14 10 -24t-10 -25l-345 -450q-14 -19 -20 -19t-27 10l-79 48q-23 14 -23 22zM551 908q0 9 24 24l78 45q15 10 23 10t24 -18l347 -443q10 -16 10 -26t-10 -23l-347 -450
q-16 -19 -21 -19t-26 10l-80 48q-23 14 -23 23t11 26l256 381l-256 387q-10 16 -10 25z" />
    <glyph glyph-name="divide" unicode="&#xf7;" 
d="M662 150q0 -50 -38 -88t-89 -38t-90 37q-37 37 -37 89t36 88q38 36 90 36t90 -36t38 -88zM991 463q0 -25 -5 -31t-28 -6h-845q-23 0 -29 7t-6 30v117q0 24 6 30t29 6h845q23 0 28 -7t5 -29v-117zM662 895q0 -51 -38 -89t-89 -38t-90 38q-38 38 -37 89q0 51 37 88t89 37
t90 -37t38 -88z" />
    <glyph glyph-name="dotlessi" unicode="&#x131;" horiz-adv-x="585" 
d="M412 29q0 -17 -4 -23t-23 -6h-149q-20 0 -25 5q-4 5 -4 26v809h-158q-20 0 -25 5t-6 25v99q0 20 6 25t25 5h334q17 0 23 -5t6 -25v-940z" />
    <glyph glyph-name="florin" unicode="&#x192;" horiz-adv-x="1083" 
d="M1071 1270q-10 0 -55 20q-46 20 -106 19q-60 0 -92 -38t-54 -141l-27 -129h246q31 0 31 -14t-4 -22l-33 -91q-8 -27 -37 -26h-238l-180 -883q-39 -187 -128 -285t-267 -98q-68 0 -118 10t-50 22t2 19l39 125q2 10 12 11l103 -9q88 0 135 50t74 176l180 862h-137
q-29 0 -29 18q0 10 2 17l20 90q4 20 10 24t23 4h148l34 160q39 182 117 247t226 65q59 1 138 -19t79 -39l-50 -135q-4 -10 -14 -10z" />
    <glyph glyph-name="dotaccent" unicode="&#x2d9;" horiz-adv-x="1040" 
d="M664 1296q0 -59 -42 -101t-102 -42t-101 42q-42 42 -42 101q0 60 42 102t101 42t102 -42q42 -43 42 -102z" />
    <glyph glyph-name="Delta" unicode="&#x394;" horiz-adv-x="1171" 
d="M844 182l-256 936h-6l-256 -936h518zM489 1405h193q18 0 23 -19l415 -1357q2 -4 2 -11q0 -18 -18 -18h-1030q-25 0 -25 20v5l416 1355q8 25 24 25z" />
    <glyph glyph-name="Delta" unicode="&#x2206;" horiz-adv-x="1171" 
d="M844 182l-256 936h-6l-256 -936h518zM489 1405h193q18 0 23 -19l415 -1357q2 -4 2 -11q0 -18 -18 -18h-1030q-25 0 -25 20v5l416 1355q8 25 24 25z" />
    <glyph glyph-name="afii10023" unicode="&#x401;" horiz-adv-x="976" 
d="M643 1664q0 54 36 90t90 36t91 -36t37 -90t-37 -91t-91 -37t-90 37t-36 91zM233 1664q0 54 36 90t90 36q53 0 91 -36t38 -90t-38 -91q-36 -37 -90 -37t-91 37q-36 37 -36 91zM215 1405h672q35 0 35 -16q0 -6 -2 -11l-39 -129q-5 -21 -17 -25q-12 -3 -22 -3h-422v-400h383
q23 0 22 -20v-135q0 -23 -22 -23h-383v-459h471q20 0 20 -22v-139q0 -23 -22 -23h-674q-20 0 -20 20v1364q0 21 20 21z" />
    <glyph glyph-name="afii10051" unicode="&#x402;" horiz-adv-x="1255" 
d="M647 178q16 0 53 -16t62 -17q94 0 125 70t31 169t-7 140q-17 116 -89 156q-44 25 -130 25t-194 -58v-614q0 -33 -33 -33h-160q-33 0 -33 31v1179h-258q-29 0 -28 29v139q0 27 28 27h842q27 0 27 -21q0 -10 -2 -16l-39 -129q-8 -29 -39 -29h-305v-387q128 61 246 61
t192 -33q74 -34 113 -80q94 -111 94 -329q0 -475 -355 -475q-58 -1 -124 19t-66 43l29 129q4 20 20 20z" />
    <glyph glyph-name="afii10052" unicode="&#x403;" horiz-adv-x="970" 
d="M831 1678q0 -10 -30 -21l-350 -160q-15 -6 -23 -6t-14 12l-35 66q-6 12 -6 18t20 21l316 215q16 12 24 12t21 -23l67 -108q10 -16 10 -26zM848 1208h-428v-1175q0 -33 -33 -33h-160q-33 0 -32 33v1343q0 29 28 29h672q27 0 27 -23l-43 -151q-8 -23 -31 -23z" />
    <glyph glyph-name="afii10053" unicode="&#x404;" horiz-adv-x="978" 
d="M928 112q0 -11 -38 -45t-122 -66t-186 -32q-489 0 -490 733q0 455 188 628q117 108 295 108q109 0 225 -54t115 -106q0 -10 -4 -14l-67 -99q-10 -16 -20 -16t-40 25q-104 84 -196 84t-152 -64q-60 -62 -82 -152q-20 -90 -24 -219h358q35 0 35 -35v-116q0 -33 -33 -33
h-360q0 -229 61 -351q27 -54 82 -96q126 -97 322 31l18 13q21 12 29 12t18 -17l64 -100q4 -8 4 -19z" />
    <glyph glyph-name="afii10054" unicode="&#x405;" horiz-adv-x="991" 
d="M918 392q0 -192 -121 -306q-121 -113 -320 -113q-96 0 -250 40t-153 79q0 10 6 25l51 133q6 12 16 12t41 -18q152 -80 272 -80t178 53t58 147t-47 144q-47 48 -177 118t-171 96t-98 76q-105 92 -105 259q0 166 118 270q118 105 314 105t342 -93q20 -14 20 -20t-3 -19
l-53 -122q-12 -32 -58 -2q-138 72 -242 72t-158 -47q-54 -46 -54 -123q0 -78 36 -118t193 -125q158 -85 215 -130q150 -121 150 -313z" />
    <glyph glyph-name="afii10055" unicode="&#x406;" horiz-adv-x="698" 
d="M643 35q0 -23 -7 -29t-30 -6h-516q-23 0 -29 6t-6 29v98q0 23 6 29t29 6h146v1069h-146q-23 0 -29 6t-6 29v98q0 23 6 29t29 6h516q23 0 30 -6t7 -29v-98q0 -23 -7 -29t-30 -6h-145v-1069h145q23 0 30 -6t7 -29v-98z" />
    <glyph glyph-name="afii10056" unicode="&#x407;" horiz-adv-x="718" 
d="M291 1674q0 -52 -38 -89t-89 -37t-87 37t-36 89t36 90t87 38t89 -38t38 -90zM674 1674q0 -52 -36 -89t-88 -37t-89 37t-37 89t37 90t88 38t88 -38t37 -90zM653 35q0 -23 -7 -29t-30 -6h-516q-22 0 -28 6t-6 29v98q0 23 6 29t28 6h146v1069h-146q-22 0 -28 6t-6 29v98
q0 23 6 29t28 6h516q23 0 30 -6t7 -29v-98q0 -23 -7 -29t-30 -6h-145v-1069h145q23 0 30 -6t7 -29v-98z" />
    <glyph glyph-name="afii10057" unicode="&#x408;" horiz-adv-x="890" 
d="M739 1370v-956q0 -238 -97 -342q-97 -103 -277 -103q-352 0 -363 393v23q0 14 4 19t19 6h157q20 0 21 -33v-21q0 -205 164 -204q98 0 123 66q24 66 24 161v856h-317q-25 0 -31 5t-6 28v102q0 23 7 29t30 6h508q23 0 29 -6t5 -29z" />
    <glyph glyph-name="afii10058" unicode="&#x409;" horiz-adv-x="1726" 
d="M1034 184h146q102 0 177 58t75 182q0 125 -93 178q-73 41 -151 41h-154v-459zM295 1004v370q0 31 31 31h675q33 0 33 -33v-545h187q219 0 331 -112t113 -303q0 -192 -115 -302t-346 -110h-362q-33 0 -33 31v1190h-315l-2 -199q-6 -444 -45 -624t-120 -293
q-42 -56 -114 -96t-162 -40q-35 0 -41 29l-33 133q0 27 29 31l31 4q84 10 139 62t84 218t32 294t3 264z" />
    <glyph glyph-name="afii10059" unicode="&#x40a;" horiz-adv-x="1777" 
d="M1085 184h146q102 0 177 58t75 182q0 125 -92 178q-73 41 -152 41h-154v-459zM893 1405h160q33 0 32 -33v-545h187q220 0 332 -112t112 -303q0 -192 -114 -302t-347 -110h-362q-33 0 -33 31v612h-450v-608q0 -35 -31 -35h-172q-23 0 -23 23v1357q0 25 27 25h168
q18 0 24 -7t7 -26v-545h450v545q0 33 33 33z" />
    <glyph glyph-name="afii10060" unicode="&#x40b;" horiz-adv-x="1267" 
d="M498 1210v-387q130 61 294 61t258 -94t95 -249v-508q0 -33 -33 -33h-160q-33 0 -32 33v483q0 188 -191 189q-117 0 -231 -58v-614q0 -33 -33 -33h-160q-33 0 -33 33v1177h-262q-25 0 -24 23v145q0 27 22 27h848q27 0 27 -21q0 -10 -2 -16l-39 -129q-8 -29 -35 -29h-309z
" />
    <glyph glyph-name="afii10061" unicode="&#x40c;" horiz-adv-x="1189" 
d="M944 1678q0 -10 -31 -21l-350 -160q-14 -6 -22 -6t-15 12l-34 66q-6 12 -7 18q0 6 21 21l315 215q13 12 23 12t22 -23l68 -108q10 -16 10 -26zM385 0h-158q-33 0 -32 33v1349q0 23 20 23h178q25 0 25 -27v-555h104q137 0 170 164l35 162q33 147 81 195t108 70t96 22
t43 -25l35 -119q2 -4 2 -12q0 -20 -27 -27l-41 -8q-38 -6 -62 -33q-24 -28 -32 -54t-19 -75l-28 -129q-37 -172 -156 -221q61 -19 109 -81t67 -134l49 -207q30 -115 66 -132q12 -5 20 -9t33 -4l39 -6q31 -10 31 -25q0 -8 -2 -12l-43 -129q-4 -16 -12 -20t-27 -5
q-137 -1 -207 61t-102 212l-48 219q-23 106 -63 142q-41 36 -117 36h-102v-606q0 -33 -33 -33z" />
    <glyph glyph-name="afii10062" unicode="&#x40e;" horiz-adv-x="1079" 
d="M180 219q10 0 19 -4l20 -12q86 -53 126 -53t56 4q56 14 87 71q22 39 38 101l19 69h-99q-20 0 -30 25l-363 942q-2 4 -2 10q0 16 19 21l159 26q8 2 26 2t24 -18l215 -590q66 -188 84 -268h8q12 103 37 182q26 80 28 90l162 586q8 20 21 20l182 -24q14 -4 14 -17
l-334 -1136q-80 -276 -323 -277q-92 0 -179 33t-88 68q0 2 5 14l53 121q6 14 16 14zM823 1747q0 -96 -82 -167q-81 -71 -195 -71t-195 69t-81 167q0 25 25 29l117 14q12 0 18 -23v-4q20 -117 118 -117t118 117q6 29 18 29l117 -16q22 -4 22 -27z" />
    <glyph glyph-name="afii10145" unicode="&#x40f;" horiz-adv-x="1245" 
d="M410 184h430v1188q0 33 32 33h160q33 0 33 -33v-1339q0 -33 -33 -33h-301v-342q0 -33 -33 -33h-147q-33 0 -33 33v342h-301q-33 0 -33 33v1339q0 33 33 33h160q33 0 33 -33v-1188z" />
    <glyph glyph-name="afii10017" unicode="&#x410;" horiz-adv-x="1150" 
d="M721 563l-103 412q-20 82 -47 225q-20 -127 -45 -225l-106 -412h301zM1118 23q0 -23 -35 -23h-176q-18 0 -26 5t-13 24l-100 366h-381l-100 -366q-5 -17 -13 -23t-26 -6h-164q-35 0 -35 18t6 33l408 1325q6 20 11 24t26 5h168q20 0 25 -4t12 -25l407 -1325q6 -14 6 -28z
" />
    <glyph glyph-name="afii10018" unicode="&#x411;" horiz-adv-x="1165" 
d="M819 414q0 241 -258 241h-141v-475h135q137 0 201 64t63 170zM420 1221v-385h172q118 0 205 -31q88 -31 135 -73t82 -123t35 -191q0 -194 -113 -306t-367 -112h-342q-33 0 -32 33v1341q0 31 30 31h721q23 0 23 -19q0 -8 -2 -14l-35 -123q-8 -29 -41 -28h-471z" />
    <glyph glyph-name="afii10019" unicode="&#x412;" horiz-adv-x="1173" 
d="M825 403q0 117 -65 172q-66 55 -205 56h-145v-451h149q139 0 203 53q63 53 63 170zM776 1032q0 109 -51 156t-166 47h-149v-432h133q233 0 233 229zM1057 393q0 -141 -75 -245t-196 -130q-78 -18 -235 -18h-324q-23 0 -27 6t-5 29v1335q0 23 5 29t27 6h336q147 0 218 -17
t122 -69q102 -98 103 -262q0 -225 -203 -322q254 -70 254 -342z" />
    <glyph glyph-name="afii10020" unicode="&#x413;" horiz-adv-x="970" 
d="M848 1208h-428v-1175q0 -33 -33 -33h-160q-33 0 -32 33v1343q0 29 28 29h672q27 0 27 -23l-43 -151q-8 -23 -31 -23z" />
    <glyph glyph-name="afii10021" unicode="&#x414;" horiz-adv-x="1228" 
d="M801 184v1041h-312v-158q0 -559 -147 -883h459zM952 0h-716v-311q0 -33 -33 -33h-140q-33 0 -32 33v465q0 31 24 30h72q94 186 126 383t32 475v328q0 35 32 35h678q31 0 31 -33v-1188h100q31 0 31 -34v-461q0 -33 -33 -33h-139q-33 0 -33 33v311z" />
    <glyph glyph-name="afii10022" unicode="&#x415;" horiz-adv-x="983" 
d="M420 1221v-400h371q23 0 29 -6t5 -29v-110q0 -20 -6 -26t-28 -7h-371v-457h457q23 0 29 -7t5 -29v-115q0 -23 -6 -29t-28 -6h-650q-23 0 -27 6t-5 29v1335q0 23 5 29t27 6h660q33 0 33 -19q-1 -6 -5 -22l-34 -115q-8 -29 -39 -28h-422z" />
    <glyph glyph-name="afii10024" unicode="&#x416;" horiz-adv-x="1697" 
d="M934 0h-168q-29 0 -29 33v604h-86q-131 0 -172 -172l-53 -244q-29 -127 -72 -172q-76 -80 -241 -80q-20 0 -27 17l-45 137q-2 4 -2 10q0 20 27 27l38 6q33 4 51 12q44 21 74 144l43 172q29 123 88 180q25 25 95 59q-117 53 -156 221l-31 129q-20 84 -42 117t-83 47l-30 6
q-27 6 -27 27q0 8 2 12l37 119q6 25 41 25q178 0 254 -178q18 -42 29 -91l38 -170q23 -104 59 -140t132 -36h59v559q0 25 23 25h178q23 0 23 -33v-551h59q96 0 132 36t58 140l39 170q20 96 84 183q64 86 199 86q35 0 41 -25l37 -119q2 -4 2 -12q0 -20 -27 -27l-31 -6
q-61 -14 -83 -47t-41 -117l-31 -129q-39 -168 -156 -221q70 -35 94 -59q59 -57 88 -180l43 -172q30 -124 75 -144q17 -8 50 -12l39 -6q27 -6 27 -27q0 -6 -2 -10l-45 -137q-6 -16 -27 -17q-166 0 -242 80q-43 45 -71 172l-53 244q-41 172 -172 172h-86v-604q0 -33 -27 -33z
" />
    <glyph glyph-name="afii10025" unicode="&#x417;" horiz-adv-x="1021" 
d="M305 666v114q0 33 33 33h57q121 0 183 59q59 60 59 156t-56 161q-57 65 -159 65t-201 -80l-22 -19q-7 -8 -23 -8t-24 12l-58 82q-10 15 -10 27t18 30q133 139 359 140q121 0 206 -40t124 -105q67 -112 67 -234q0 -246 -207 -316q248 -82 248 -348q1 -190 -113 -308
t-334 -118t-357 103q-44 33 -44 51t4 24l64 111q6 8 18 8t25 -10l20 -14q127 -88 238 -88q248 0 248 247q0 121 -75 177t-177 55h-78q-33 0 -33 33z" />
    <glyph glyph-name="afii10026" unicode="&#x418;" horiz-adv-x="1314" 
d="M1124 1372v-1339q0 -33 -32 -33h-160q-33 0 -33 33v825q0 94 14 205h-6q-27 -98 -84 -215l-393 -819q-12 -29 -39 -29h-164q-33 0 -32 33v1339q0 33 32 33h160q33 0 33 -33v-772q0 -35 -14 -235h6q4 10 40 105t54 130l371 782q12 23 32 23h183q32 0 32 -33z" />
    <glyph glyph-name="afii10027" unicode="&#x419;" horiz-adv-x="1314" 
d="M668 1628q49 0 84 35t49 104q4 18 20 19h4l131 -14q20 -2 21 -29q0 -123 -100 -192t-205 -68q-154 0 -241 81t-87 177q0 29 21 31l137 14q14 -1 18 -19l4 -18q25 -121 144 -121zM1124 1372v-1339q0 -33 -32 -33h-160q-33 0 -33 33v825q0 94 14 205h-6q-27 -98 -84 -215
l-393 -819q-12 -29 -39 -29h-164q-33 0 -32 33v1339q0 33 32 33h160q33 0 33 -33v-772q0 -35 -14 -235h6q4 10 40 105t54 130l371 782q12 23 32 23h183q32 0 32 -33z" />
    <glyph glyph-name="afii10028" unicode="&#x41a;" horiz-adv-x="1189" 
d="M385 0h-158q-33 0 -32 33v1349q0 23 20 23h178q25 0 25 -27v-555h104q137 0 170 164l35 162q33 147 81 195t108 70t96 22t43 -25l35 -119q2 -4 2 -12q0 -20 -27 -27l-41 -8q-38 -6 -62 -33q-24 -28 -32 -54t-19 -75l-28 -129q-37 -172 -156 -221q61 -19 109 -81t67 -134
l49 -207q30 -115 66 -132q12 -5 20 -9t33 -4l39 -6q31 -10 31 -25q0 -8 -2 -12l-43 -129q-4 -16 -12 -20t-27 -5q-137 -1 -207 61t-102 212l-48 219q-23 106 -63 142q-41 36 -117 36h-102v-606q0 -33 -33 -33z" />
    <glyph glyph-name="afii10029" unicode="&#x41b;" horiz-adv-x="1234" 
d="M305 1004v370q0 31 31 31h676q32 0 32 -33v-1339q0 -33 -32 -33h-160q-33 0 -33 33v1188h-315l-2 -199q-6 -433 -44 -619t-121 -298q-42 -56 -114 -96t-162 -40q-35 0 -41 29l-30 121l-2 12q0 27 28 31l31 4q84 10 139 62t84 218t32 294t3 264z" />
    <glyph glyph-name="afii10030" unicode="&#x41c;" horiz-adv-x="1421" 
d="M1266 23q0 -15 -5 -19t-26 -4h-152q-23 0 -29 6t-7 29l-21 880q0 104 4 228q-27 -137 -63 -250l-185 -545q-6 -18 -12 -23t-25 -6h-92q-20 1 -26 5t-13 24l-172 545q-25 88 -57 250q2 -66 2 -203l-22 -905q1 -23 -7 -29t-30 -6h-138q-33 0 -32 25l67 1347q2 23 8 28t27 5
h164q20 0 26 -4t11 -23l203 -612q14 -43 41 -180q33 131 49 180l209 612q6 20 11 24t25 3h162q21 0 27 -5t8 -28l70 -1333v-16z" />
    <glyph glyph-name="afii10031" unicode="&#x41d;" horiz-adv-x="1286" 
d="M1096 35q0 -23 -7 -29t-30 -6h-154q-23 0 -29 6t-6 29v608h-450v-608q0 -23 -7 -29t-30 -6h-156q-23 0 -27 6t-5 29v1335q0 23 5 29t27 6h156q23 0 30 -6t7 -29v-553h450v553q0 23 6 29t29 6h154q23 0 30 -6t7 -29v-1335z" />
    <glyph glyph-name="afii10032" unicode="&#x41e;" horiz-adv-x="1173" 
d="M831 705q0 553 -241 552q-128 0 -188 -134t-60 -412q0 -277 57 -419t185 -142t188 134q59 134 59 421zM594 1438q477 0 477 -734t-491 -735q-477 0 -478 742q0 331 119 529t373 198z" />
    <glyph glyph-name="afii10033" unicode="&#x41f;" horiz-adv-x="1273" 
d="M420 1221v-1188q0 -21 -6 -27t-27 -6h-160q-20 0 -26 6t-6 27v1339q0 33 32 33h824q33 0 32 -33v-1339q0 -33 -32 -33h-160q-33 0 -33 33v1188h-438z" />
    <glyph glyph-name="afii10034" unicode="&#x420;" horiz-adv-x="1040" 
d="M778 1009q0 128 -53 175t-188 47h-117v-465h104q127 0 191 57q63 58 63 186zM551 1405q256 1 352 -95t96 -298q-1 -202 -123 -318q-122 -117 -323 -116h-133v-543q0 -23 -7 -29t-30 -6h-156q-23 0 -27 6t-5 29v1335q0 23 5 29t27 6h324z" />
    <glyph glyph-name="afii10035" unicode="&#x421;" horiz-adv-x="964" 
d="M936 116q0 -11 -23 -32q-143 -115 -315 -115q-242 -1 -369 191t-127 556t145 561q52 71 139 116t200 45q178 0 321 -123q21 -19 21 -31t-10 -29l-66 -104q-4 -10 -18 -10t-25 10q-125 98 -215 98q-128 0 -190 -121t-62 -378q0 -590 276 -590q92 0 197 80q17 14 29 14
t20 -12l62 -99q10 -16 10 -27z" />
    <glyph glyph-name="afii10036" unicode="&#x422;" horiz-adv-x="849" 
d="M817 1210h-276v-1175q0 -23 -5 -29t-28 -6h-156q-24 0 -30 6t-7 29v1175h-278q-23 0 -29 8t-6 29v123q0 23 6 29t29 6h823q35 0 35 -19q0 -10 -6 -28l-37 -119q-8 -29 -35 -29z" />
    <glyph glyph-name="afii10037" unicode="&#x423;" horiz-adv-x="1079" 
d="M180 219q10 0 19 -4l20 -12q86 -53 126 -53t56 4q56 14 87 71q22 39 38 101l19 69h-99q-20 0 -30 25l-363 942q-2 4 -2 10q0 16 19 21l159 26q8 2 26 2t24 -18l215 -590q66 -188 84 -268h8q12 103 37 182q26 80 28 90l162 586q8 20 21 20l182 -24q14 -4 14 -17
l-334 -1136q-80 -276 -323 -277q-92 0 -179 33t-88 68q0 2 5 14l53 121q6 14 16 14z" />
    <glyph glyph-name="afii10038" unicode="&#x424;" horiz-adv-x="1359" 
d="M557 1108q-256 0 -256 -346q0 -215 72 -289t184 -74h18v709h-18zM784 1108v-709h19q113 0 185 74t71 280q0 207 -72 281t-194 74h-9zM553 225q-461 0 -461 531q0 276 123 401t338 125h14v180q0 23 23 23h180q23 0 23 -27v-176h14q215 0 338 -125t123 -401
q0 -531 -461 -531h-14v-194q0 -31 -35 -31h-156q-23 0 -29 7t-6 28v190h-14z" />
    <glyph glyph-name="afii10039" unicode="&#x425;" horiz-adv-x="1048" 
d="M1042 42q0 -12 -26 -19l-156 -43q-18 -6 -24 -7q-8 0 -23 25l-225 438q-39 78 -53 115q-18 -45 -56 -115l-227 -436q-10 -23 -23 -23q-6 0 -24 7l-150 41q-27 8 -26 22q0 10 12 33l367 659l-336 592q-10 21 -10 31t22 16l154 43q20 4 24 4q14 0 25 -24l190 -365
q31 -55 60 -131q39 100 53 131l184 367q14 25 25 24q8 0 22 -6l148 -47q25 -8 25 -17t-15 -32l-326 -586l377 -667q12 -18 12 -30z" />
    <glyph glyph-name="afii10040" unicode="&#x426;" horiz-adv-x="1282" 
d="M1077 1372v-1188h111q23 0 22 -28v-467q0 -33 -32 -33h-140q-33 0 -32 33v311h-779q-33 0 -32 33v1339q0 33 32 33h160q33 0 33 -33v-1188h432v1188q0 33 33 33h159q33 0 33 -33z" />
    <glyph glyph-name="afii10041" unicode="&#x427;" horiz-adv-x="1200" 
d="M348 905q0 -188 201 -188q115 0 235 57v602q0 29 33 29h160q33 0 33 -33v-1339q0 -33 -33 -33h-160q-33 0 -33 33v565q-154 -61 -290 -61q-190 0 -289 102q-82 84 -82 242v491q0 33 33 33h159q33 0 33 -33v-467z" />
    <glyph glyph-name="afii10042" unicode="&#x428;" horiz-adv-x="1736" 
d="M420 184h338v1188q0 33 33 33h159q33 0 33 -33v-1188h338v1188q0 33 33 33h159q33 0 33 -33v-1339q0 -33 -33 -33h-1286q-33 0 -32 33v1339q0 33 32 33h160q33 0 33 -33v-1188z" />
    <glyph glyph-name="afii10043" unicode="&#x429;" horiz-adv-x="1751" 
d="M1475 0h-1248q-33 0 -32 33v1339q0 33 32 33h160q33 0 33 -33v-1188h338v1188q0 33 33 33h159q33 0 33 -33v-1188h338v1188q0 33 33 33h159q33 0 33 -33v-1188h105q29 0 28 -24v-471q0 -33 -32 -33h-140q-33 0 -32 33v311z" />
    <glyph glyph-name="afii10044" unicode="&#x42a;" horiz-adv-x="1282" 
d="M580 184h145q102 0 177 58t75 172q0 229 -266 229h-131v-459zM580 827h186q220 0 332 -112t112 -303q0 -192 -114 -302t-346 -110h-363q-33 0 -33 31v1177h-323q-23 0 -23 21q0 10 2 16l39 131q8 29 45 29h453q33 0 33 -33v-545z" />
    <glyph glyph-name="afii10045" unicode="&#x42b;" horiz-adv-x="1644" 
d="M420 184h145q102 0 177 58t75 172q0 229 -266 229h-131v-459zM1454 1372v-1339q0 -33 -33 -33h-159q-33 0 -33 33v1339q0 33 33 33h159q33 0 33 -33zM227 1405h160q33 0 33 -33v-545h186q220 0 332 -112t112 -303q0 -192 -114 -302q-115 -110 -346 -110h-363
q-33 0 -32 31v1341q-1 33 32 33z" />
    <glyph glyph-name="afii10046" unicode="&#x42c;" horiz-adv-x="1122" 
d="M420 184h145q102 0 177 58t75 183q0 126 -92 177q-73 41 -152 41h-153v-459zM227 1405h160q33 0 33 -33v-545h186q220 0 332 -112t112 -303q0 -192 -114 -302q-115 -110 -346 -110h-363q-33 0 -32 31v1341q-1 33 32 33z" />
    <glyph glyph-name="afii10047" unicode="&#x42d;" horiz-adv-x="1001" 
d="M662 637h-371q-33 0 -33 33v116q0 35 35 35h369v21q0 145 -49 269q-57 147 -214 147q-83 0 -190 -87l-25 -18q-8 -6 -16 -6t-18 16l-66 92q-8 11 -8 25t26 35q141 123 328 123q127 0 220 -58q171 -106 224 -393q25 -129 25 -289q0 -383 -133 -556t-354 -173t-334 121
q-16 16 -16 26t4 17l63 100q11 17 23 17t20 -8l23 -17q104 -75 186 -75t136 38t81 92q59 115 64 330v27z" />
    <glyph glyph-name="afii10048" unicode="&#x42e;" horiz-adv-x="1693" 
d="M1101 150q87 0 140 51q111 104 111 497t-111 504q-55 55 -138 55t-138 -55q-111 -110 -111 -498t102 -495q58 -59 145 -59zM420 819h207q18 245 95 378q36 63 86 119q108 122 304 122q109 0 193 -41t133 -113t83 -148q70 -155 70 -436q0 -124 -20 -245t-54 -196t-84 -143
q-49 -68 -133 -108q-84 -39 -190 -39t-192 42q-84 42 -138 110q-148 190 -155 514h-205v-600q0 -35 -29 -35h-162q-35 0 -34 31v1341q0 20 8 26t28 7h154q35 0 35 -33v-553z" />
    <glyph glyph-name="afii10049" unicode="&#x42f;" horiz-adv-x="1169" 
d="M754 784v437h-142q-95 0 -156 -53t-63 -162q0 -221 228 -222h133zM979 1382v-1349q0 -33 -33 -33h-160q-33 0 -32 33v571h-111q-129 0 -164 -149l-53 -219q-41 -164 -112 -216t-185 -51q-37 0 -43 25l-43 129q-2 4 -2 12q0 20 27 25l38 6q82 12 111 119l53 209
q14 55 56 112t94 80q-131 29 -190 122q-58 94 -58 200t32 180t79 114q121 103 323 103h352q21 0 21 -23z" />
    <glyph glyph-name="afii10065" unicode="&#x430;" horiz-adv-x="983" 
d="M616 473q-179 0 -255 -45q-79 -44 -79 -150q0 -58 41 -103q40 -44 99 -44q94 0 194 98v244zM872 52q0 -6 -10 -11l-125 -61q-12 -6 -20 -7q-35 0 -70 125q-123 -123 -266 -123t-222 80t-79 215q0 88 34 154t84 102q127 93 418 97v65q0 94 -35 132q-36 38 -129 38
t-233 -59q-12 -4 -21 -4t-16 14l-32 100q-4 12 -5 19q0 44 123 72t211 28q172 0 255 -74t83 -235v-402q0 -149 49 -241q6 -18 6 -24z" />
    <glyph glyph-name="afii10066" unicode="&#x431;" horiz-adv-x="1056" 
d="M540 825q-204 0 -204 -345t205 -345q80 0 131 53q72 80 71 299q1 338 -203 338zM946 1391q0 -14 -26 -29l-412 -182q-224 -104 -248 -334l-4 -43h10q41 94 124 141t181 47q147 0 252 -96q141 -137 142 -408q0 -171 -86 -330q-45 -83 -135 -137t-207 -53q-434 0 -435 641
q0 140 12 240q32 257 159 387q77 78 194 129l375 168q8 4 22 4t21 -12l57 -121q4 -8 4 -12z" />
    <glyph glyph-name="afii10067" unicode="&#x432;" horiz-adv-x="1024" 
d="M362 438v-278h162q168 0 168 139q0 76 -48 108t-103 31h-179zM362 840v-246h148q61 0 105 35t44 100q0 111 -129 111h-168zM178 999h367q107 0 198 -43q117 -55 117 -211q0 -70 -38 -129t-107 -88q186 -51 186 -237q0 -142 -78 -205q-78 -62 -161 -74q-84 -12 -148 -12
h-336q-20 0 -20 23v956q0 20 20 20z" />
    <glyph glyph-name="afii10068" unicode="&#x433;" horiz-adv-x="811" 
d="M715 825h-348v-798q0 -27 -27 -27h-156q-27 0 -26 27v948q0 25 22 24h565q25 0 25 -20v-8l-25 -119q-6 -27 -30 -27z" />
    <glyph glyph-name="afii10069" unicode="&#x434;" horiz-adv-x="1021" 
d="M641 168v663h-231v-94q0 -369 -103 -569h334zM846 979v-811h106q18 0 19 -18v-398q0 -27 -25 -26h-139q-20 0 -21 20v254h-591v-248q0 -27 -27 -26h-139q-18 0 -19 22v402q0 18 19 18h77q70 127 94 248t23 286v279q0 18 17 18h587q19 0 19 -20z" />
    <glyph glyph-name="afii10070" unicode="&#x435;" horiz-adv-x="983" 
d="M507 874q-177 0 -198 -270h381q-6 270 -183 270zM909 522v-14q0 -40 -9 -51q-9 -10 -23 -11h-570q12 -301 248 -301q102 0 250 74q8 4 10 4q10 0 16 -16l48 -103q6 -12 6 -20q0 -41 -129 -78t-221 -37q-209 1 -325 139t-116 385t117 392t307 145t290 -131t101 -377z" />
    <glyph glyph-name="afii10072" unicode="&#x436;" horiz-adv-x="1400" 
d="M797 602h65q78 0 98 37t31 88l21 94q45 209 237 209q39 0 43 -18l33 -121q0 -2 2 -8q0 -14 -31 -21l-34 -6q-61 -14 -80 -88l-25 -96q-35 -129 -131 -148q104 -23 141 -145l43 -131q6 -18 12 -32t11 -26q4 -10 12 -17t10 -11q3 -4 13 -7t17 -7t26 -3l24 -4q27 -6 27 -16
t-2 -14l-33 -117q-8 -25 -39 -25q-96 0 -164 42t-98 163l-33 125q-18 78 -54 107t-99 28h-43v-411q0 -23 -23 -23h-147q-23 0 -23 23v411h-43q-63 0 -99 -28t-54 -107l-33 -125q-31 -121 -99 -163t-163 -42q-31 0 -39 25l-33 117q-2 4 -2 14t27 16l24 4q45 0 65 30
q21 30 35 73l43 131q37 123 142 145q-96 18 -131 148l-25 96q-18 74 -80 88l-35 6q-31 6 -30 21v4q2 2 2 4l33 121q4 18 43 18q193 0 237 -209l21 -94q20 -97 66 -115q26 -10 63 -10h65v363q0 25 19 28l155 37q18 0 19 -20v-408z" />
    <glyph glyph-name="afii10073" unicode="&#x437;" horiz-adv-x="874" 
d="M80 897q0 57 114 95t200 38t156 -22t127 -90q58 -68 58 -173q0 -156 -145 -217q84 -20 128 -98t44 -154q0 -129 -74 -206q-96 -100 -293 -101q-129 0 -229 44t-98 79q0 8 2 12l41 103q4 10 15 10t16 -4t29 -17t37 -22q14 -10 61 -27q47 -18 112 -18q64 0 116 42t52 118
q0 77 -54 111t-137 34h-71q-16 0 -23 6q-6 6 -6 23v102q0 17 6 23t23 6h57q186 0 186 141q0 76 -49 106t-108 29q-98 0 -183 -65q-41 -31 -51 -12l-55 88q-4 6 -4 16z" />
    <glyph glyph-name="afii10074" unicode="&#x438;" horiz-adv-x="1095" 
d="M938 1014v-987q0 -27 -20 -27h-158q-27 0 -27 27v454q0 72 8 209l-6 2q-39 -84 -114 -219l-259 -461q-8 -12 -26 -12h-152q-27 0 -26 18v959q0 14 16 16l172 37q16 0 16 -16v-498q0 -113 -8 -211h8q72 147 113 219l258 451q8 14 23 18l149 35q6 2 15 2q18 0 18 -16z" />
    <glyph glyph-name="afii10075" unicode="&#x439;" horiz-adv-x="1095" 
d="M938 1014v-987q0 -27 -20 -27h-158q-27 0 -27 27v454q0 72 8 209l-6 2q-39 -84 -114 -219l-259 -461q-8 -12 -26 -12h-152q-27 0 -26 18v959q0 14 16 16l172 37q16 0 16 -16v-498q0 -113 -8 -211h8q72 147 113 219l258 451q8 14 23 18l149 35q6 2 15 2q18 0 18 -16z
M549 1290q47 0 78 30t41 75l6 28q4 15 16 15l125 -17q18 -2 19 -24q0 -117 -92 -184t-193 -66q-55 0 -105 13q-50 14 -105 66q-54 52 -73 140l-4 29q0 23 21 26l123 17q14 0 18 -21q32 -127 125 -127z" />
    <glyph glyph-name="afii10076" unicode="&#x43a;" horiz-adv-x="999" 
d="M915 883q0 -16 -16 -19l-47 -10q-59 -12 -80 -92l-18 -72q-10 -40 -20 -64t-39 -57q-30 -33 -77 -43q106 -33 142 -155l43 -135q11 -42 31 -62t67 -29l31 -6q18 -2 18 -16q0 -6 -4 -19l-31 -112q-6 -23 -47 -23q-92 0 -156 41t-98 164l-39 145q-14 55 -44 83t-48 30
t-59 2h-62v-409q0 -25 -24 -25h-158q-23 0 -22 23v946q0 20 14 22l166 39q2 0 6 2q18 0 18 -24v-406h70q94 0 124 63q15 32 28 85l16 71q18 89 87 149t159 60q33 0 39 -18l30 -121v-8z" />
    <glyph glyph-name="afii10077" unicode="&#x43b;" horiz-adv-x="1021" 
d="M659 831h-233v-38q0 -365 -40 -520q-74 -304 -320 -304q-29 0 -37 25l-27 102q-2 6 -2 17q0 23 49 28q162 12 182 293q12 174 13 428v101q0 37 30 36h564q27 0 26 -28v-944q0 -27 -20 -27h-168q-16 0 -17 20v811z" />
    <glyph glyph-name="afii10078" unicode="&#x43c;" horiz-adv-x="1214" 
d="M1061 0h-141q-20 0 -21 25l-18 608q-2 47 -2 110h-7q-10 -57 -43 -153l-141 -402q-8 -23 -22 -22h-117q-14 0 -23 22l-147 416q-27 78 -37 139h-6q0 -57 -2 -114l-19 -604q0 -25 -18 -25h-143q-20 0 -21 25l51 950q2 25 29 24h168q12 0 20 -20l158 -442q39 -119 45 -179
h6q6 59 45 179l158 442q6 20 23 20h174q20 1 20 -24l51 -952q0 -23 -20 -23z" />
    <glyph glyph-name="afii10079" unicode="&#x43d;" horiz-adv-x="1071" 
d="M709 606v365q0 16 18 22l156 35q6 2 14 2q16 0 16 -18v-985q0 -27 -26 -27h-152q-18 0 -22 5t-4 22v411h-347v-411q0 -19 -5 -23t-21 -4h-152q-27 0 -26 27v944q0 16 14 20l160 37q6 2 14 2q16 0 16 -16v-408h347z" />
    <glyph glyph-name="afii10080" unicode="&#x43e;" horiz-adv-x="1040" 
d="M727 506q0 356 -206 356t-206 -356q1 -190 51 -280t156 -89q106 0 156 89q49 90 49 280zM524 1030q200 0 312 -139t112 -388t-116 -391t-316 -142q-202 0 -312 138q-110 140 -110 390t115 391t315 141z" />
    <glyph glyph-name="afii10081" unicode="&#x43f;" horiz-adv-x="1058" 
d="M696 831h-334v-804q0 -27 -26 -27h-152q-27 0 -26 27v952q0 20 18 20h709q16 0 16 -18v-954q0 -27 -20 -27h-158q-27 0 -27 27v804z" />
    <glyph glyph-name="afii10082" unicode="&#x440;" 
d="M764 498q0 196 -40 278t-128 82t-203 -88v-571q101 -61 195 -61t135 82t41 278zM977 520q0 -266 -92 -408t-267 -143q-113 0 -225 72v-406q0 -25 -24 -30l-150 -37q-6 -2 -16 -2q-16 0 -17 31v1118q0 111 -34 180q-16 41 -16 49t11 14l134 68q8 6 16 6q33 0 68 -117
q141 115 274 115q338 0 338 -510z" />
    <glyph glyph-name="afii10083" unicode="&#x441;" horiz-adv-x="849" 
d="M747 772q-9 0 -18 8q-102 82 -188 82q-225 0 -225 -362t216 -363q94 0 201 82q13 10 21 10t14 -14l41 -100q8 -20 8 -25q0 -43 -117 -82t-192 -39q-198 0 -306 133t-108 382q0 250 119 398t326 148q84 0 189 -40t106 -87q-1 -4 -5 -12l-67 -111q-6 -8 -15 -8z" />
    <glyph glyph-name="afii10084" unicode="&#x442;" horiz-adv-x="829" 
d="M518 831v-804q0 -27 -22 -27h-160q-23 0 -23 27v804h-252q-20 0 -20 21v127q0 20 20 20h740q18 0 18 -20l-33 -129q-4 -18 -28 -19h-240z" />
    <glyph glyph-name="afii10085" unicode="&#x443;" horiz-adv-x="913" 
d="M905 958q0 -8 -2 -12l-237 -848q-74 -284 -120 -366t-111 -128t-146 -46t-181 32t-100 66q0 6 2 10l58 117q6 10 10 10t20 -8q92 -57 158 -57t102 39q37 39 66 127l33 106h-82q-27 0 -35 23l-320 915q-6 16 -6 26t25 17l154 31l14 2q20 0 29 -25l198 -639q18 -57 62 -252
q24 159 39 207l167 684q6 27 21 27l168 -41q14 -2 14 -17z" />
    <glyph glyph-name="afii10086" unicode="&#x444;" horiz-adv-x="1406" 
d="M465 858q-109 0 -136 -132q-22 -110 -22 -199t2 -158t17 -105q14 -36 31 -66q32 -57 110 -57q78 -1 135 56v587q-49 74 -137 74zM1102 440q0 124 -4 172q-13 162 -65 212q-34 34 -89 34q-88 0 -137 -74v-587q57 -57 111 -57t86 14q31 14 48 45q18 31 34 74t16 167z
M791 -430h-168q-20 0 -21 22v441q-78 -63 -178 -64q-330 0 -330 531q0 179 59 339q69 191 265 191q102 0 184 -82v422q0 25 19 29l159 37q2 0 6 2h5q16 0 16 -27v-463q82 82 184 82t168 -52q104 -82 143 -308q13 -82 13 -170q0 -530 -330 -531q-100 0 -178 64v-441
q0 -22 -16 -22z" />
    <glyph glyph-name="afii10087" unicode="&#x445;" horiz-adv-x="960" 
d="M934 38q0 -11 -25 -18l-135 -43q-16 -4 -24 -4t-19 17l-176 270q-49 72 -66 102q-33 -55 -63 -100l-186 -272q-19 -28 -43 -10l-131 49q-27 12 -27 19t10 22l326 438l-283 403q-12 15 -12 27t16 18l142 56l16 4q10 0 20 -17l148 -233q10 -18 32 -55t33 -56q20 35 74 111
l158 231q12 19 19 19t28 -8l129 -52q16 -6 16 -17t-14 -30l-289 -393l318 -457q8 -10 8 -21z" />
    <glyph glyph-name="afii10088" unicode="&#x446;" horiz-adv-x="1064" 
d="M887 168h108q19 0 19 -18v-408q0 -16 -25 -16h-131q-29 0 -29 26v248h-649q-23 0 -22 18v957q0 14 14 16l160 37q6 2 14 2q16 0 16 -16v-846h320v807q0 14 16 18l158 35l16 2q14 0 15 -16v-846z" />
    <glyph glyph-name="afii10089" unicode="&#x447;" horiz-adv-x="966" 
d="M809 1014v-987q0 -27 -23 -27h-163q-18 0 -19 23v360q-94 -39 -196 -39q-160 0 -233 73t-73 197v359q0 14 17 18l157 37l15 2q16 0 16 -16v-377q0 -61 42 -93t111 -32t144 33v430q0 14 19 18l155 35l15 2q16 0 16 -16z" />
    <glyph glyph-name="afii10090" unicode="&#x448;" horiz-adv-x="1449" 
d="M1292 1014v-987q0 -27 -26 -27h-1088q-20 0 -20 20v955q0 12 14 16l160 37q6 2 14 2q16 0 16 -16v-846h261v805q0 16 16 20l158 35l14 2q16 0 16 -14v-848h260v807q0 14 19 18l156 35l14 2q16 0 16 -16z" />
    <glyph glyph-name="afii10091" unicode="&#x449;" horiz-adv-x="1470" 
d="M1292 1014v-846h109q18 0 18 -18v-404q0 -20 -22 -20h-135q-27 0 -27 22v252h-1057q-20 0 -20 20v955q0 12 14 16l160 37q6 2 14 2q16 0 16 -16v-846h261v805q0 16 16 20l158 35l14 2q16 0 16 -14v-848h260v807q0 14 19 18l156 35l14 2q16 0 16 -16z" />
    <glyph glyph-name="afii10092" unicode="&#x44a;" horiz-adv-x="1091" 
d="M492 463v-295h124q66 0 125 32t59 122t-70 119q-54 22 -95 22h-143zM492 631h149q189 0 279 -89q90 -90 90 -228t-90 -226t-314 -88h-299q-20 0 -20 23v802h-246q-23 0 -23 21q0 2 2 6l33 129q4 18 23 18h391q25 0 25 -24v-344z" />
    <glyph glyph-name="afii10093" unicode="&#x44b;" horiz-adv-x="1353" 
d="M362 463v-295h125q66 0 125 32q60 32 60 122t-71 119q-54 22 -95 22h-144zM1196 1008v-981q0 -27 -27 -27h-151q-27 0 -27 27v938q0 20 19 26l153 37l15 2q18 0 18 -22zM362 1008v-377h150q190 0 280 -89q90 -90 89 -228q0 -138 -90 -226t-314 -88h-299q-20 0 -20 23v948
q0 18 14 20l158 37l14 2q18 0 18 -22z" />
    <glyph glyph-name="afii10094" unicode="&#x44c;" horiz-adv-x="962" 
d="M362 463v-295h125q66 0 125 32q60 32 60 122t-71 119q-54 22 -95 22h-144zM362 1014v-383h150q190 0 280 -89q90 -90 89 -228q0 -138 -90 -226t-314 -88h-299q-20 0 -20 23v952q0 12 14 16l160 37l14 2q16 0 16 -16z" />
    <glyph glyph-name="afii10095" unicode="&#x44d;" horiz-adv-x="874" 
d="M276 598h293q0 100 -54 182q-55 82 -151 82t-186 -61l-18 -13q-16 -8 -22 -8t-13 11l-47 98q-4 8 -4 16t35 38q35 31 107 59t168 28t176 -41t121 -98t71 -159t30 -236q0 -287 -131 -420q-105 -106 -289 -106t-280 96q-14 14 -14 24t2 14l41 99q6 16 15 16t24 -10
q100 -72 190 -72t144 54q54 55 70 115t17 124h-295q-27 0 -26 27v114q-1 27 26 27z" />
    <glyph glyph-name="afii10096" unicode="&#x44e;" horiz-adv-x="1427" 
d="M905 862q-205 0 -205 -350q0 -262 86 -336q45 -41 120 -41t121 50t62 124q15 74 15 183q0 210 -54 290t-145 80zM362 1008v-400h140q12 174 116 298t291 124q109 0 190 -44t122 -104t73 -161t31 -189q0 -88 -9 -150t-38 -139t-72 -137t-121 -99q-78 -40 -181 -40t-183 40
t-121 93q-42 53 -72 144t-30 196h-136v-413q0 -27 -26 -27h-152q-27 0 -26 27v938q0 23 14 26l160 37l12 2q18 0 18 -22z" />
    <glyph glyph-name="afii10097" unicode="&#x44f;" horiz-adv-x="1011" 
d="M649 559v281h-147q-58 0 -108 -33t-50 -107t53 -108q53 -33 119 -33h133zM834 0h-164q-20 0 -21 27v372h-88q-55 1 -91 -25t-56 -102l-27 -96q-35 -123 -101 -165t-167 -42q-27 0 -31 17l-37 129l-2 2v4q0 14 29 20l33 6q45 11 59 31t25 60l22 75q35 108 74 137
q15 11 28 16q12 5 15 7v4q-199 41 -199 238q0 86 39 147q63 98 213 127q51 10 98 10h353q16 0 16 -20v-959q0 -20 -20 -20z" />
    <glyph glyph-name="afii10071" unicode="&#x451;" horiz-adv-x="983" 
d="M467 1328q0 -52 -38 -89t-89 -37t-87 37t-36 89t36 90t87 38t89 -38t38 -90zM850 1327q0 -53 -36 -89t-88 -36t-89 37t-37 89t37 90t88 38t88 -38t37 -91zM507 874q-177 0 -198 -270h381q-6 270 -183 270zM909 522v-14q0 -40 -9 -51q-9 -10 -23 -11h-570
q12 -301 248 -301q102 0 250 74q8 4 10 4q10 0 16 -16l48 -103q6 -12 6 -20q0 -41 -129 -78t-221 -37q-209 1 -325 139t-116 385t117 392t307 145t290 -131t101 -377z" />
    <glyph glyph-name="afii10099" unicode="&#x452;" horiz-adv-x="1095" 
d="M375 1171v-270q133 129 295 129q268 0 268 -508q0 -637 -338 -975l-22 -22q-8 -8 -18 -8t-21 8l-80 53q-24 16 0 45l18 25q61 82 96 142q103 177 134 388q18 132 18 316t-28 274t-109 90q-111 0 -213 -106v-725q0 -15 -4 -21t-23 -6h-151q-18 0 -23 5q-4 5 -4 22v1144
h-123q-27 0 -27 23v74q0 16 4 21t23 5h123v123q0 25 18 29l170 37q16 0 17 -21v-168h260q29 0 29 -26v-72q0 -25 -27 -25h-262z" />
    <glyph glyph-name="afii10100" unicode="&#x453;" horiz-adv-x="811" 
d="M304 1145q-8 0 -13 12l-35 66q-6 12 -6 18t20 21l316 215q16 12 24 12t21 -23l67 -108q10 -16 10 -26t-30 -21l-350 -160q-16 -6 -24 -6zM715 825h-348v-798q0 -27 -27 -27h-156q-27 0 -26 27v948q0 25 22 24h565q25 0 25 -20v-8l-25 -119q-6 -27 -30 -27z" />
    <glyph glyph-name="afii10101" unicode="&#x454;" horiz-adv-x="913" 
d="M753 768q-7 0 -26 14q-95 76 -199 76t-156 -79t-57 -181h281q27 0 27 -27v-114q0 -27 -27 -27h-285v-8q-1 -121 59 -202t171 -81q53 0 85 11t113 61q9 4 19 4t12 -10l47 -121q2 -2 2 -10q0 -37 -106 -72t-187 -35q-193 0 -303 119q-129 135 -129 395q0 158 42 272
t113 171q135 108 290 106q85 0 189 -44t103 -83q0 -6 -4 -14l-61 -113q-6 -8 -13 -8z" />
    <glyph glyph-name="afii10102" unicode="&#x455;" horiz-adv-x="862" 
d="M780 281q0 -139 -93 -225t-264 -87q-171 0 -317 88q-20 13 -20 17t3 11t5 13l43 107q7 14 13 14t26 -10q152 -74 258 -74q63 0 103 35q39 35 39 90t-42 81q-41 27 -126 70t-172 97q-115 72 -115 210t95 225t245 87q76 0 181 -29t106 -65q0 -8 -7 -21l-43 -90
q-8 -16 -18 -16t-23 6q-113 51 -187 51q-150 0 -148 -121q0 -43 26 -69t73 -52t157 -85t156 -107t46 -151z" />
    <glyph glyph-name="afii10103" unicode="&#x456;" horiz-adv-x="585" 
d="M299 1475q59 1 102 -43t43 -104t-42 -102t-102 -42t-103 42t-43 102t43 104t102 43zM412 29q0 -17 -4 -23t-23 -6h-149q-20 0 -25 5q-4 5 -4 26v809h-158q-20 0 -25 5t-6 25v99q0 20 6 25t25 5h334q17 0 23 -5t6 -25v-940z" />
    <glyph glyph-name="afii10104" unicode="&#x457;" horiz-adv-x="528" 
d="M510 1328q0 -52 -35 -89t-84 -37t-84 37t-35 89t35 90t84 38t84 -38t35 -90zM248 1328q0 -52 -35 -89t-85 -37t-84 37t-34 89t34 90t84 38t85 -38t35 -90zM424 29q0 -17 -4 -23t-23 -6h-149q-20 0 -25 5q-4 5 -4 26v809h-158q-20 0 -25 5t-5 25v99q0 20 5 25t25 5h334
q17 0 23 -5t6 -25v-940z" />
    <glyph glyph-name="afii10105" unicode="&#x458;" horiz-adv-x="598" 
d="M457 1328q0 -60 -43 -102q-44 -42 -104 -42t-102 42t-42 102t42 104t102 43q60 0 104 -43q43 -44 43 -104zM424 -43q0 -238 -79 -326t-245 -88q-61 1 -150 21t-89 45q0 6 6 20l41 119q6 12 14 12t25 -6q85 -37 153 -37q68 -1 94 51t25 207v865h-164q-18 0 -21 4t-3 26v99
q0 23 5 27t25 3h338q17 0 21 -5t4 -25v-1012z" />
    <glyph glyph-name="afii10106" unicode="&#x459;" horiz-adv-x="1464" 
d="M864 463v-295h125q66 0 125 32q60 32 60 122t-71 119q-54 22 -95 22h-144zM864 631h150q190 0 279 -89q89 -90 89 -228t-90 -226t-313 -88h-299q-20 0 -21 23v808h-233v-38q0 -365 -40 -520q-74 -304 -320 -304q-29 0 -37 25l-27 102q-2 6 -2 17q0 23 49 28
q162 12 182 293q12 174 13 428v101q0 37 30 36h566q25 0 24 -26v-342z" />
    <glyph glyph-name="afii10107" unicode="&#x45a;" horiz-adv-x="1513" 
d="M913 463v-295h125q66 0 125 32t59 122t-70 119q-54 22 -95 22h-144zM913 1014v-383h150q189 0 279 -89q90 -90 90 -228t-90 -226t-314 -88h-299q-20 0 -20 23v440h-347v-436q0 -19 -5 -23t-21 -4h-152q-27 0 -26 27v944q0 16 14 20l160 37q6 2 14 2q16 0 16 -16v-383h347
v344q0 12 14 16l160 37l14 2q16 0 16 -16z" />
    <glyph glyph-name="afii10108" unicode="&#x45b;" horiz-adv-x="1087" 
d="M930 745v-725q0 -20 -27 -20h-151q-16 0 -22 4q-5 4 -5 23v682q0 69 -34 109t-93 40q-109 0 -223 -106v-732q0 -20 -27 -20h-151q-27 0 -27 18v1153h-123q-27 0 -27 29v68q0 27 27 26h123v123q0 15 5 21t22 10l145 33q6 2 14 2q18 0 19 -27v-162h260q29 0 29 -30v-64
q0 -29 -27 -29h-262v-270q80 70 131 90q80 39 172 39t151 -49q101 -84 101 -236z" />
    <glyph glyph-name="afii10109" unicode="&#x45c;" horiz-adv-x="999" 
d="M811 1332q0 -10 -31 -21l-350 -160q-16 -6 -23 -6t-14 12l-35 66q-6 12 -6 18t21 21l315 215q16 12 24 12t21 -23l68 -108q10 -16 10 -26zM915 883q0 -16 -16 -19l-47 -10q-59 -12 -80 -92l-18 -72q-10 -40 -20 -64t-39 -57q-30 -33 -77 -43q106 -33 142 -155l43 -135
q11 -42 31 -62t67 -29l31 -6q18 -2 18 -16q0 -6 -4 -19l-31 -112q-6 -23 -47 -23q-92 0 -156 41t-98 164l-39 145q-14 55 -44 83t-48 30t-59 2h-62v-409q0 -25 -24 -25h-158q-23 0 -22 23v946q0 20 14 22l166 39q2 0 6 2q18 0 18 -24v-406h70q94 0 124 63q15 32 28 85l16 71
q18 89 87 149t159 60q33 0 39 -18l30 -121v-8z" />
    <glyph glyph-name="afii10110" unicode="&#x45e;" horiz-adv-x="913" 
d="M905 958q0 -8 -2 -12l-237 -848q-74 -284 -120 -366t-111 -128t-146 -46t-181 32t-100 66q0 6 2 10l58 117q6 10 10 10t20 -8q92 -57 158 -57t102 39q37 39 66 127l33 106h-82q-27 0 -35 23l-320 915q-6 16 -6 26t25 17l154 31l14 2q20 0 29 -25l198 -639q18 -57 62 -252
q24 159 39 207l167 684q6 27 21 27l168 -41q14 -2 14 -17zM745 1380q1 -96 -81 -167t-196 -71t-195 70q-81 68 -80 166q0 27 24 29l117 14q12 0 18 -22v-4q20 -117 118 -117t118 117q6 29 18 28l117 -16q22 -4 22 -27z" />
    <glyph glyph-name="afii10193" unicode="&#x45f;" horiz-adv-x="1062" 
d="M362 1014v-846h338v803q0 18 29 24l150 33h6l4 2q16 0 16 -22v-981q0 -27 -26 -27h-246v-297q0 -18 -27 -18h-151q-27 0 -27 22v293h-244q-27 0 -26 27v946q0 16 24 22l150 33l14 2q16 0 16 -16z" />
    <glyph glyph-name="afii10050" unicode="&#x490;" horiz-adv-x="948" 
d="M184 29v1343q0 33 33 33h477v283q0 33 33 32h147q33 0 33 -32v-447q0 -33 -28 -33h-469v-1175q0 -33 -33 -33h-160q-33 0 -33 29z" />
    <glyph glyph-name="afii10098" unicode="&#x491;" horiz-adv-x="839" 
d="M385 825v-805q0 -20 -27 -20h-151q-27 0 -27 27v944q0 29 27 28h377v269q0 27 26 26h152q27 0 26 -26v-414q0 -18 -5 -24t-23 -5h-375z" />
    <glyph glyph-name="endash" unicode="&#x2013;" horiz-adv-x="1040" 
d="M956 471q0 -23 -6 -29t-28 -6h-803q-23 0 -29 6t-6 29v109q0 22 6 28t29 6h803q22 0 28 -6t6 -28v-109z" />
    <glyph glyph-name="emdash" unicode="&#x2014;" horiz-adv-x="1662" 
d="M1583 475q0 -23 -6 -29t-29 -6h-1433q-23 0 -29 6t-6 29v100q0 23 6 29t29 6h1433q23 0 29 -6t6 -29v-100z" />
    <glyph glyph-name="quoteleft" unicode="&#x2018;" horiz-adv-x="571" 
d="M297 958h-184q-33 0 -33 17q0 10 10 26l240 447q10 23 22 22q8 0 23 -6l65 -22q23 -8 23 -21l-129 -436q-8 -27 -37 -27z" />
    <glyph glyph-name="quoteright" unicode="&#x2019;" horiz-adv-x="505" 
d="M211 944q-10 0 -25 6l-65 21q-21 8 -21 15t4 28l123 413q8 29 37 29h185q33 0 32 -18q0 -11 -8 -25l-240 -446q-12 -23 -22 -23z" />
    <glyph glyph-name="quotedblleft" unicode="&#x201c;" horiz-adv-x="952" 
d="M297 958h-184q-33 0 -33 17q0 10 10 26l240 447q10 23 22 22q8 0 23 -6l65 -22q23 -8 23 -21l-129 -436q-8 -27 -37 -27zM676 958h-184q-33 0 -33 17q0 10 10 26l240 447q12 23 22 22q6 0 23 -6l65 -22q23 -8 23 -19q0 -2 -4 -22l-125 -416q-8 -27 -37 -27z" />
    <glyph glyph-name="quotedblright" unicode="&#x201d;" horiz-adv-x="954" 
d="M229 940q-6 0 -22 6l-66 23q-23 8 -22 20q0 2 4 23l123 411q8 31 39 31h182q33 0 33 -18q0 -13 -8 -27l-240 -446q-10 -23 -23 -23zM610 940q-8 0 -24 6l-66 23q-22 8 -22 16t6 27l121 411q10 31 39 31h182q35 0 35 -20q-1 -11 -9 -25l-241 -446q-13 -23 -21 -23z" />
    <glyph glyph-name="quotedblbase" unicode="&#x201e;" horiz-adv-x="954" 
d="M664 244h182q34 0 34 -14t-8 -27l-241 -447q-16 -25 -25 -24q-4 0 -20 6l-66 22q-23 8 -22 19q0 8 6 22l121 416q8 27 39 27zM285 244h182q33 0 33 -19q0 -8 -8 -22l-240 -447q-14 -23 -25 -22l-20 4l-66 22q-23 8 -22 19q0 2 4 22l123 416q8 27 39 27z" />
    <glyph glyph-name="dagger" unicode="&#x2020;" horiz-adv-x="1077" 
d="M909 821q0 -23 -5 -27t-27 -6h-244v-1185q0 -23 -6 -30t-27 -7h-121q-23 0 -29 7t-6 30v1185h-239q-25 0 -31 6t-6 27v103q0 22 7 28t30 6h239v412q0 23 8 29t27 6h121q23 0 28 -6t5 -29v-412h244q23 0 27 -6t5 -28v-103z" />
    <glyph glyph-name="bullet" unicode="&#x2022;" horiz-adv-x="1421" 
d="M999 717q0 -121 -84 -208q-85 -87 -203 -87t-204 87t-86 208t86 208t205 87t203 -87t83 -208z" />
    <glyph glyph-name="ellipsis" unicode="&#x2026;" horiz-adv-x="1837" 
d="M1696 139q0 -70 -49 -119t-121 -49t-121 49t-49 119t50 119t120 49t120 -49t50 -119zM1087 139q0 -70 -49 -119q-50 -49 -120 -49t-119 49t-49 119t49 119t119 49t120 -49t49 -119zM479 139q0 -70 -49 -119t-119 -49q-71 0 -119 49t-49 119t49 119t120 49t118 -49
q49 -49 49 -119z" />
    <glyph glyph-name="Euro" unicode="&#x20ac;" horiz-adv-x="993" 
d="M975 115q0 -14 -23 -31q-134 -115 -320 -115q-307 0 -416 310q-42 119 -46 245h-133q-29 0 -29 21q0 8 2 12l33 68q2 2 4 8q8 24 21 24h90v93h-105q-31 0 -30 14q0 8 2 12l34 74q15 30 23 32q8 1 18 1h66q23 259 159 419q50 58 132 97t184 39q176 0 334 -135q8 -7 8 -19
t-2 -14l-74 -119q-7 -10 -19 -10t-36 20q-106 88 -203 88q-225 0 -248 -366h363q33 0 33 -21q0 -10 -4 -18l-35 -74q-10 -20 -33 -20h-326v-93h277q29 0 29 -20q0 -6 -5 -14l-32 -70q-12 -29 -39 -29h-221v-8q0 -154 64 -257t185 -103q94 0 197 84q23 14 32 14t17 -12
l62 -99q10 -14 10 -28z" />
    <glyph glyph-name="afii61352" unicode="&#x2116;" horiz-adv-x="1849" 
d="M1729 610v-92q0 -25 -25 -24h-485q-25 0 -25 24v92q0 25 23 25h489q23 0 23 -25zM1350 1120q0 -161 42 -193q22 -17 34 -21t38 -5q109 0 109 204t-111 204q-112 -1 -112 -189zM1200 998q-12 52 -12 134q0 81 47 180q27 56 85 91t140 35q210 0 262 -229q12 -52 13 -105
q0 -125 -66 -227t-213 -103q-78 0 -134 33t-83 86t-39 105zM1063 1384v-1355q0 -29 -25 -29h-137q-27 0 -37 25l-422 856q-63 125 -88 229q10 -133 11 -207v-874q0 -29 -25 -29h-143q-25 0 -25 31v1345q0 16 6 22t23 7h168q16 0 26 -21l393 -794q59 -123 91 -236
q-8 96 -9 226v796q0 29 25 29h143q25 -1 25 -21z" />
    <glyph glyph-name="trademark" unicode="&#x2122;" horiz-adv-x="1437" 
d="M524 1280h-159v-647q0 -29 -31 -29h-94q-20 0 -27 6q-6 6 -6 23v647h-166q-18 0 -24 6q-5 6 -5 23v69q0 27 29 27h510q33 0 33 -16q0 -7 -2 -11l-25 -75q-6 -23 -33 -23zM1323 627q0 -23 -31 -23h-92q-31 0 -31 27l-10 416v143q-14 -55 -47 -143l-88 -244q-6 -18 -33 -19
h-55q-27 0 -33 19l-82 233q-37 111 -47 152v-45l-10 -512q0 -27 -31 -27h-84q-31 0 -31 23l44 753q2 16 7 20t21 5h103q25 0 30 -19l123 -339q4 -10 12 -40t9 -32q10 43 20 67l131 344q6 18 33 19h98q29 0 31 -25l43 -747v-6z" />
    <glyph glyph-name="radical" unicode="&#x221a;" horiz-adv-x="1003" 
d="M70 858q-16 0 -23 6q-6 6 -6 23v82q0 16 6 22t23 6h221q20 0 24 -16l209 -770h6l322 1212q4 16 18 17h95q18 0 18 -17l-399 -1515q-2 -18 -25 -19h-100q-18 0 -23 21l-256 948h-110z" />
    <glyph glyph-name="infinity" unicode="&#x221e;" horiz-adv-x="1720" 
d="M455 776q-85 0 -139 -51t-54 -131t60 -128t133 -48q127 0 260 127l55 51l-55 53q-127 127 -260 127zM1268 418q74 0 133 48t59 128t-53 131t-139 51q-133 0 -260 -127l-56 -53l56 -51q133 -127 260 -127zM1268 928q252 0 322 -227q46 -147 -44 -306q-34 -57 -104 -94
t-174 -37t-191 52q-86 52 -184 151l-33 33l-33 -33q-98 -99 -184 -151q-87 -52 -191 -52q-259 0 -325 238q-14 49 -14 97q0 106 70 209q36 52 105 86t165 34t184 -49t190 -152l33 -33l33 33q102 101 190 151q89 50 185 50z" />
    <glyph glyph-name="approxequal" unicode="&#x2248;" horiz-adv-x="1173" 
d="M778 338q-70 0 -190 49l-111 45q-69 29 -115 29t-81 -26q-35 -27 -59 -67t-36 -40t-24 10l-60 39q-18 10 -18 20t8 27q60 129 124 181t150 52t212 -53q128 -53 157 -62t66 -10q100 0 157 99q14 23 22 23t24 -9l65 -39q20 -12 20 -17t-12 -30q-111 -221 -299 -221zM84 756
q0 10 8 26q60 130 124 182t150 52t212 -54q128 -54 157 -62q29 -9 66 -9q100 0 157 98q14 23 22 23t24 -8l65 -39q20 -12 20 -17t-12 -30q-111 -221 -299 -222q-70 0 -190 49l-111 46q-125 53 -196 3q-35 -26 -59 -66t-36 -42q-12 0 -24 10l-60 39q-18 11 -18 21z" />
    <glyph glyph-name="notequal" unicode="&#x2260;" horiz-adv-x="1085" 
d="M1008 920v-132q0 -23 -23 -22h-315l-82 -127h401q18 0 19 -21v-135q0 -20 -19 -20h-512l-125 -197q-8 -8 -16 -8t-12 4l-91 57q-6 3 -6 11t4 16l76 117h-207q-23 0 -22 22v129q0 25 22 25h318l82 127h-402q-20 0 -20 22v130q0 25 22 24h510l125 197q5 10 13 10t12 -2
l92 -60q8 -6 8 -14t-6 -14l-74 -117h205q23 1 23 -22z" />
    <glyph glyph-name="lessequal" unicode="&#x2264;" 
d="M78 440v138q0 25 22 24q4 0 13 -4l868 -420q10 -6 10 -18v-142q0 -23 -22 -22q-2 0 -15 4l-854 412q-22 10 -22 28zM78 745v125q0 27 26 41l863 418l12 4q12 0 12 -12v-164q0 -16 -24 -29l-672 -317l676 -315q20 -12 20 -25v-164q0 -14 -14 -14q-6 0 -10 2l-873 422
q-16 10 -16 28z" />
    <glyph glyph-name="greaterequal" unicode="&#x2265;" 
d="M991 578v-138q0 -18 -22 -28l-854 -412q-12 -4 -15 -4q-23 0 -22 22v142q0 12 10 18l868 420q8 4 13 4q22 1 22 -24zM991 870v-125q0 -18 -16 -28l-873 -422q-4 -2 -10 -2q-14 0 -14 14v164q0 12 20 25l676 315l-672 317q-25 12 -24 29v164q0 12 12 12l875 -422
q26 -14 26 -41z" />
    <glyph glyph-name="Acute" unicode="&#xf6c9;" horiz-adv-x="1050" 
d="M480 1491q-8 0 -15 12l-35 66q-6 12 -6 18t20 21l316 215q14 12 23 12t22 -23l67 -108q10 -16 10 -26t-30 -21l-350 -160q-14 -6 -22 -6z" />
    <glyph glyph-name="Dieresis" unicode="&#xf6cb;" horiz-adv-x="1040" 
d="M455 1674q0 -52 -38 -89t-89 -37t-87 37t-36 89t36 90t87 38t89 -38t38 -90zM838 1674q0 -52 -36 -89t-88 -37t-89 37t-37 89t37 90t88 38t88 -38t37 -90z" />
    <glyph glyph-name="cyrBreve" unicode="&#xf6d1;" horiz-adv-x="1120" 
d="M567 1628q49 0 84 35t49 104q4 18 21 19h4l131 -14q20 -2 21 -29q-1 -123 -101 -192t-205 -68q-155 0 -241 81t-86 177q0 29 20 31l137 14q15 -1 19 -19l4 -18q25 -121 143 -121z" />
    <glyph glyph-name="cyrbreve" unicode="&#xf6d4;" horiz-adv-x="1058" 
d="M815 1397q0 -117 -91 -184t-194 -66q-55 0 -105 13q-50 14 -104 66t-73 140l-4 29q0 23 20 26l123 17q14 0 19 -21q32 -127 124 -127q47 0 78 30t41 75l6 28q5 15 17 15l125 -17q18 -2 18 -24z" />
    <glyph glyph-name="nbspace" horiz-adv-x="477" 
 />
    </font>
</defs>
</svg>
